<svg id="Laag_1" data-name="Laag 1" xmlns="http://www.w3.org/2000/svg" viewBox="0 0 191.61 188.99"><defs><style>.cls-1{fill:#b2b2b2;}</style></defs><title>bolsward_1</title><g id="Group_432" data-name="Group 432"><g id="Group_379" data-name="Group 379"><path id="Path_407" data-name="Path 407" class="cls-1" d="M61.94,90.79c-.14.14-.19.19-.19.24a.64.64,0,0,1,.1.43c0,.34-.24,1.15-.24,1.39a2.75,2.75,0,0,1,.43.38c-.1,0-.38-.1-.43-.1a5.27,5.27,0,0,0-.53,1.68,2.58,2.58,0,0,0,.43,1.25,7.32,7.32,0,0,1,.48,1,11.36,11.36,0,0,0,0,2.88c0,.34-.14.81-.29,1.49a4.68,4.68,0,0,1-1.1,2.49,2.59,2.59,0,0,1-1.15.86,5,5,0,0,1-1.44.14l-1.15-.1c-.67-.1-1.06-.14-1.1-.14s-.14.24-.34.24H54.36a3.62,3.62,0,0,1-.72-.34c0-.38.14-1.34.14-1.63,0-1.58,0-2.78.1-3.55a6.57,6.57,0,0,0-.1-.77,5.91,5.91,0,0,1-.14-.86c0-.14.14-.67.14-.77,0-.58,0-1.39,0-2.49a46.22,46.22,0,0,0,0-5.27,3.32,3.32,0,0,0-.14-.77,4.32,4.32,0,0,1-.14-.72.35.35,0,0,1,.19-.29.71.71,0,0,0,0-.34c0-.19-.1-.72-.1-.91A1.41,1.41,0,0,1,54,85.17l3.93.34a.41.41,0,0,0,.29-.14q.22-.29.29-.29a2.89,2.89,0,0,0,.67.62,6.52,6.52,0,0,1,1,.29,3.72,3.72,0,0,1,1.58,1.92,5.19,5.19,0,0,0,.24.91s0,.38-.1,1.15c0,0,.24.24.24.43S62,90.69,61.94,90.79ZM55.42,103l-.19-.1-.14.29.14,0Zm.29,1.25-.53-.24,0,.14.48.24Zm4.51-4.84c0-.19-.24-.43-.24-.43-.1-.53-.24-1.29-.43-2.25,0-.19-.38-.38-1-.58a3.46,3.46,0,0,0-1.1-.24,3,3,0,0,0-.77.19,1.7,1.7,0,0,0-.67.48,4.52,4.52,0,0,1-.29.86,5.56,5.56,0,0,1,.1,1.29,2.6,2.6,0,0,1-.1.81l-.14.14c0,.19.43.38.43.48s-.19.1-.29.14c.1.19-.14,1-.14,1.06s0,.24.14.14a1.3,1.3,0,0,1,0,1c.1,0,.14,0,.24-.1l.24.24a4,4,0,0,0,.58-.19,5.84,5.84,0,0,0,.82.77c.19,0,.1-.24.29-.24s.34.19.38.19c-.14-.14-.1-.19,0-.19s.38.1.53.1.29-.19.38-.24a11.31,11.31,0,0,0,.86-1.77,3.88,3.88,0,0,0,0-.77c0-.14.14-.14.24,0v-.81Zm-.58-9.59a8.93,8.93,0,0,0-.43-1.15,2.49,2.49,0,0,0-1.49-.91,1.61,1.61,0,0,0-.91.19,2,2,0,0,0-1,1.06c0,.1,0,.34.1.86s.1.86.1,1.1v1.25c.1,1.1.58,1.49,1.68,1.49a1.51,1.51,0,0,0,.58-.19,1.93,1.93,0,0,1,.62-.19,1.3,1.3,0,0,0,.53-1l.24-1a1.76,1.76,0,0,0,.1-.77c-.11-.43-.11-.67-.16-.76ZM56.9,103l-.14-.1-.14.29.14,0Zm2.4.14a.69.69,0,0,0,.24.62.61.61,0,0,1,.29-.19c-.19,0-.39-.1-.53-.43Z"/><path id="Path_408" data-name="Path 408" class="cls-1" d="M72.05,97.84q-.14,1.65-.14,2.44c0,.29,0,1,0,1.2a2,2,0,0,1-.43,1.49c-.48.53-.77.81-.81.91,0-.14.34-.53.34-.81v-.15a2.54,2.54,0,0,0-.43.53s-.1-.1-.24-.24c-.1.1-.24.14-.38.29.29.14.43.34.43.48-.38.1-.77.1-1,.48,0-.14-.14-.48-.14-.67a.66.66,0,0,1,.24-.43l.43-.29s-.19-.24-.48-.72a.25.25,0,0,0-.1.19,1.56,1.56,0,0,1,.14.48l-.77-.19c.29,0,.67-.67.91-.67s.14,0,.24.1l.1-.38a.43.43,0,0,0-.24,0,.36.36,0,0,0-.34.19v-.34a1.63,1.63,0,0,1,.19-.77V89.11a.4.4,0,0,0-.34-.1.85.85,0,0,1,.19-.48,2.89,2.89,0,0,0-.53-.67l-.58-.43a1.48,1.48,0,0,0-.58-.29,1.77,1.77,0,0,0-1.49.86,2.84,2.84,0,0,0-.58,1.68,9.09,9.09,0,0,0,.29,3c-.24.1-.34.34-.34.67s.1.86.1,1.06a10.23,10.23,0,0,0,0,1.06v1.06c0,.58,0,1.06,0,1.44a4.18,4.18,0,0,0-.24.91c0,.34,0,.81.1,1.49s.1,1.15.1,1.44a1.24,1.24,0,0,1-.19.48.43.43,0,0,1,0,.24.75.75,0,0,1-.29.67,1.57,1.57,0,0,0,.29.38,1.94,1.94,0,0,0,.14-.48,1,1,0,0,1,.29-.48l.29-.19.14.14V103h-.1a.35.35,0,0,0-.34.29,1,1,0,0,0,.19.29,1,1,0,0,1,.24-.43,3,3,0,0,1,.24.53c.1.24.19.38.24.38s.58.14.72.14c0-.19.14-.43.24-.77h.14c.38,0,.62,0,.67-.14a4.52,4.52,0,0,1,.48.48v.1a.15.15,0,0,1,0,.1.18.18,0,0,1-.16.19h0c.1,0,0,0-.19-.1l-.1,0a2,2,0,0,0,.43.67,2.19,2.19,0,0,1-1.15.38c-1.1,0-1.82-.24-2.11-.67l-.24.24c-.38-.19-.58-.38-.58-.62s.19-.48.19-.58a.25.25,0,0,0-.1-.19l0,0s.1,0,.1-.14-.14-.34-.34-.43c.1-.14.1-.24.14-.29a.69.69,0,0,0,.34.1l.1-.1a1.07,1.07,0,0,0-.1-.58l-.38-.14L65,102a.77.77,0,0,0,.14.43l-.29-.24a1.93,1.93,0,0,1-.77.67.52.52,0,0,1-.1-.38.47.47,0,0,1,.14-.38,1.73,1.73,0,0,1-.24-.43.59.59,0,0,0,.19-.43c0-.38-.14-.58-.34-.62a.36.36,0,0,1,0-.24,1,1,0,0,0,.38-.29L64,99.9a6.28,6.28,0,0,0,.62-.58.25.25,0,0,0-.19-.1.64.64,0,0,0-.38.14v0c0-.1,0-.19.1-.24-.1-.1-.48-.48-.48-.67a1.18,1.18,0,0,1,.38-.81,3.5,3.5,0,0,1,.48.43l.1,0s0-.1,0-.19-.24-.34-.62-.62v0a1.09,1.09,0,0,1,0-.19c0-.14-.1-.19-.19-.14h0a2.83,2.83,0,0,1,.19-.38q-.14-.22-.43-.58c.1,0,.24.1.34.1a.17.17,0,0,0,.1,0,.22.22,0,0,0-.14-.14s0,0,.1,0,.34-.14.38-.48c-.1.1-.14.19-.29.34h-.38V95.3c0-.19,0-.29.24-.34v0s0-.1.1-.19a1,1,0,0,1-.29-.19.81.81,0,0,1,0-.48c-.1-.29-.19-.67-.38-1.2a3.15,3.15,0,0,1,.58-.58.59.59,0,0,0-.53-.34h.24a1.52,1.52,0,0,0,.1-.67c0-.34-.14-1.1-.14-1.39a1.13,1.13,0,0,1,.24-.77l-.1-.14.24-.43h0a3.88,3.88,0,0,1,.19-1.34,7.26,7.26,0,0,0,.67-.43v-.1c0-.53.34-.91,1.06-1.15a4.42,4.42,0,0,1,1.7-.33l.29.34c.14-.14.19-.24.19-.34.43.1,1.06.19,1.87.38.34.24.62.48.91.67a2.73,2.73,0,0,1,.72.86,8.35,8.35,0,0,1,.48,3.12c0,.29.1,1,.1,1.2s0,1,0,1.29,0,.72,0,1.34v1.34A18.53,18.53,0,0,1,72.05,97.84Zm-7.43,3.4V101h-.29v.19Zm.14,2.49-.1.1-.29-.29.1-.14Zm.29-2.44h-.53s0,.1,0,.1a.51.51,0,0,0,.1.29c0-.1.1-.14.29-.14s.34.1.43.1Zm0,0-.14-.34-.14,0,.14.29Zm0-1a.43.43,0,0,0-.14.34s.14,0,.43,0Zm1.73,3.84a1.7,1.7,0,0,0-.43-.53,1.28,1.28,0,0,1,.14.58c0,.1,0,.14,0,.19Zm.43.14-.1-.14-.29.14v.14Zm.24-.43v-.1a.37.37,0,0,0-.1-.24,1.53,1.53,0,0,1-.29.34,2,2,0,0,0,.19-.43.46.46,0,0,1,.43-.29.79.79,0,0,1-.24.73Zm.77-18L68,85.65l-.1.14L68,86Zm.34,17.26-.14.1-.19-.19.19-.1ZM70.38,93l-.14-.19-.1.14.14.19Zm.24.14-.19-.1-.14.29.19.1Zm.43-2a2.64,2.64,0,0,0-.34.43.66.66,0,0,1,.43-.24.13.13,0,0,1,.14.14c0,.1-.1.24-.1.34q0-.14.29-.14a3.5,3.5,0,0,0-.43-.52Zm.29-1.2-.14-.53c-.1.14-.24.29-.43.53Zm-.14-2.73a3.87,3.87,0,0,0-.29.62v0a.82.82,0,0,1,.43.48,2.05,2.05,0,0,1,.24-.62,1,1,0,0,1-.39-.52Zm.19,5.56-.14,0-.14.29.14.1ZM71.14,92a1.28,1.28,0,0,1,.14.58.26.26,0,0,1,.29-.19Zm.43,1.44,0-.14-.29.14v.14Zm0-4.22v-.43h-.19v.43Z"/><path id="Path_409" data-name="Path 409" class="cls-1" d="M81,105a.69.69,0,0,0-.34-.1.3.3,0,0,0-.29.24,5.43,5.43,0,0,0-1-.43,1,1,0,0,0-.29.19s0,.14,0,.34a1,1,0,0,1-.43-.24,1,1,0,0,0-.48-.19c-.19,0-.53.24-.72.24a3.34,3.34,0,0,1-.67-.14,2.44,2.44,0,0,0-.67-.19c-.19,0,.1.24-.1.24s-.72-.24-.86-.24-.29.34-.48.34-.72-.24-.81-.24c0-.38,0-.91,0-1.68s0-1.29,0-1.58c.1,0,.14,0,.19-.1s-.14-.1-.19-.1V98.6s0-.38.1-1a10.89,10.89,0,0,0,.14-1.44,11.91,11.91,0,0,1,0-1.73c0-.67,0-1.63.1-3,.1-1.53.1-2.4.1-2.64s0-.72,0-1.25c0-.24,0-.72.1-1.39a1.48,1.48,0,0,0-.1-.82c.67,0,1,0,1.1.1a.77.77,0,0,1,.53-.24c.19,0,.91.24,1.2.24a3,3,0,0,1,.34.82L76.28,102c.1,0,0,.29.24.29s0-.1.24-.1.38.24.62.62l.29-.19a.43.43,0,0,1,.34-.14,5.58,5.58,0,0,1,.77.14,3.89,3.89,0,0,0,.82.1c.1,0,.29,0,.62,0s.53-.1.62-.1h.77a3.06,3.06,0,0,1,.24,1.15C81.83,104.4,81.4,105,81,105Zm-5.94-3.21-.14-.34-.14.1.14.24Zm.19.67-.43-.14v.14l.34.14Zm3.21,1.39v-.19h-.53v.19Z"/><path id="Path_410" data-name="Path 410" class="cls-1" d="M91.52,89.93a1.75,1.75,0,0,1-.57.43,1.66,1.66,0,0,1-.57,0c-.19,0-.86-.1-1.1-.1s-.19-.14-.29-.29a2.66,2.66,0,0,0-.38-1.39c-.34-.62-.72-.91-1.2-.91a1.46,1.46,0,0,0-1.29.77,1.89,1.89,0,0,0-.34,1.3c0,.14-.14.62-.14.81a2.11,2.11,0,0,0,.29,1.2,6.8,6.8,0,0,0,.53.77c0,.1,0,.24-.19.38a.81.81,0,0,0,.43.1c-.1.1-.53.62-.72.62l-.24,0a.07.07,0,0,0-.09,0h0a.28.28,0,0,0,.1.24s.48-.24,1.29-.62a1.7,1.7,0,0,0,0,.34.26.26,0,0,0,.1-.24c.43.34,1,.77,1.68,1.39a27.94,27.94,0,0,1,2,2.64.36.36,0,0,1,0,.43,1.91,1.91,0,0,1,.34.43,2.7,2.7,0,0,0,0,1.06,5.09,5.09,0,0,1,.1.81c0,.1-.19.53-.19.62s0,.19.14.19a6.6,6.6,0,0,0-.43,2.16,2.22,2.22,0,0,0-.48.48c-.24.29-.38.48-.48.58s.1.1.14.24a.62.62,0,0,1-.38-.1s0,.1-.1.24-.24.19-.72.24h-.48s-.29.29-.48.29-.38,0-.91,0a8.32,8.32,0,0,1-.86,0,3.92,3.92,0,0,1-1.39-.34,4,4,0,0,1-1-.77,3.4,3.4,0,0,1-1.11-2.59c0-1,.19-1.34,1.25-1.34a5,5,0,0,1,.57,0,2.86,2.86,0,0,1,.72.43,12.24,12.24,0,0,0,.48,1.39q.5.72.72.72c.14,0,.48.24.67.24s.34-.24.53-.24.34.34.34.34.19-.19.19-.24-.1-.14-.19-.14.1,0,.14,0a8.34,8.34,0,0,0,.53-.86,1.78,1.78,0,0,0,.34-1,1,1,0,0,0-.24-.62,1.53,1.53,0,0,0,.29-.34,6,6,0,0,1-.1-1.15,3.12,3.12,0,0,0-.43-.72c-.48-.48-1.15-1.2-2.11-2.25l.19-.62a.69.69,0,0,0,.1.34.36.36,0,0,0,.19,0c.19-.19.19-.62.29-.77l-.1-.1a2.3,2.3,0,0,1-.53-.24c0-.1.34-.24.43-.38,0,0-.1-.14-.29-.48,0,0-.1.1-.14.1s-.1.14-.1.19.1.1.29.1a.68.68,0,0,1-.67,0l-.29.29a.69.69,0,0,0,.34.1c-.14.19-.19.29-.1.38a1.33,1.33,0,0,1-.62,0c-1.39-.67-2.06-2.3-2.06-5a5.09,5.09,0,0,1,.1-1,2.56,2.56,0,0,0,.29-.77c.1-.1.24-.19.38-.34a1.11,1.11,0,0,1-.34-.24s.19-.24.38-.24.29,0,.29-.1a1.19,1.19,0,0,1,.34-1,3.06,3.06,0,0,1,1.06-.62A4,4,0,0,1,87,85.14c.38,0,.67,0,.82,0,0,.14,0,.19.19.19s0-.24.24-.24a7.64,7.64,0,0,1,1.15.62,7.31,7.31,0,0,1,1.2.82c.14.24.24.43.34.62.24.38.43.58.57.62v2.11Zm-7.34-2.64a.67.67,0,0,1-.24.48,5.63,5.63,0,0,0,.53-.24Z"/><path id="Path_411" data-name="Path 411" class="cls-1" d="M106.1,87.53a6.17,6.17,0,0,0-.1,1.2c-.1.38-.24.86-.48,1.58a.74.74,0,0,1,.1.29v0a2.16,2.16,0,0,1-.48.43v.81c.1.1.24.19.38.34a.43.43,0,0,0,0,.24c0,.19.1.58.1.67s0,.86-.19,2.25q-.07,1.22-.29,3.6a.81.81,0,0,1-.53.53,1.19,1.19,0,0,1,.34.91,4.47,4.47,0,0,1-.1.67,4.19,4.19,0,0,0-.14.67,7.61,7.61,0,0,0-.1,1.49,5.64,5.64,0,0,1-.24,1.49,2,2,0,0,1-.91.38c-.19,0-.53-.1-.72-.1s-.24.24-.43.24-.48-.14-.82-.48V103.4a2.89,2.89,0,0,0,.38-.38v-.58a2.41,2.41,0,0,1,.34-.77c0-.14.1-.38.24-.72a1.12,1.12,0,0,1-.53-.53c-.1,0-.14.1-.14.24-.19-.24-.29-.34-.38-.34s-.72.24-.91.24-.38-.34-.53-.34-.34.14-.57.38a2,2,0,0,0-.48.53,3.88,3.88,0,0,0-.1,1s-.1.14-.34.34c0,.14.1.19.34.19a14.64,14.64,0,0,0-.43,2.44c-.29,0-.43,0-.48,0a1.52,1.52,0,0,1-.82.14,2.63,2.63,0,0,1-.82,0c-.29,0-.43-.38-.53-1a5.13,5.13,0,0,0-.43-1.49,1.48,1.48,0,0,0,0-.48,7.41,7.41,0,0,0-.43-2.11,6.84,6.84,0,0,1-.38-1.68,1.84,1.84,0,0,1,.24-.91c.1-.1.24-.19.38-.34s0-.24-.14-.24l-.48.1-2.15-10.7c.14-.48.48-.67,1.06-.67a1.55,1.55,0,0,1,1.15.34,13.6,13.6,0,0,1,.38,2.16,3.43,3.43,0,0,1-.43.62c0,.19,0,.48.29.48l.34-.1a.53.53,0,0,1,.14.34,1,1,0,0,1-.43.67.52.52,0,0,0,.43.19s-.1.19-.34.38a2.83,2.83,0,0,0,.19.38.44.44,0,0,0,.19-.29,1.73,1.73,0,0,0,.29,1,.87.87,0,0,0,.77.53A.76.76,0,0,0,97,92a5.48,5.48,0,0,1,.29-.67,4.94,4.94,0,0,1,2.3-1.25c0-.1-.34-.29-.34-.48s.24-.48.62-.72c0-.1,0-.19-.24-.19a.36.36,0,0,0-.29.14l0-.1a.66.66,0,0,1,.14-.19c0-.24-.14-.34-.38-.34s-.14,0-.14,0,0,0,0,0,0,0-.14,0-.53-.24-.53-.43c-.1.14-.24.38-.43.67a.81.81,0,0,1-.14-.48,3.76,3.76,0,0,1,.24-.67c0-.29,0-.62,0-1.15.1,0,.14,0,.19-.14s0-.19-.14-.24a1.12,1.12,0,0,0,.67-.34c.1.14.43.24,1.06.24.19,0,.14-.24.34-.24a1.24,1.24,0,0,1,.67.43c0,.86-.19,1.25-.53,1.25,0,.19.1.24.29.24a.37.37,0,0,0,.24-.1,4.86,4.86,0,0,1-.62.67.62.62,0,0,0,.48.19,2.08,2.08,0,0,0,.29-.34,2.25,2.25,0,0,1-.43.58c.34.24.67.43.67.82v0c0,.19-.1.43-.14.77a2.83,2.83,0,0,1,.38.19,2.5,2.5,0,0,0,.53,1.1c.34.53.62.77.86.77A.26.26,0,0,0,103,92v.58c.14.14.24.19.29.19s0,0,0-.1a.78.78,0,0,0-.19-.43l.29.24c.1,0,.14-.1.14-.34.1.1.14.19.29.34l.29-.29c0-.1-.14-.19-.19-.29s.29-.19.29-.38-.43-.58-.43-.67.14-.58.14-.72h.14a1.13,1.13,0,0,0,.38-.1,2.83,2.83,0,0,0-.19-.38.5.5,0,0,1-.38.19V89a.77.77,0,0,1,.19-.48,1.63,1.63,0,0,1,0-.48c0-.24,0-.58,0-1,.1-.91-.1-1.25.48-1.63l.1,0c.24,0,.72-.1.91-.1s.29.14.38.43a1.65,1.65,0,0,1,.14.62A2.21,2.21,0,0,1,106.1,87.53Zm-9.83,5.94c-.14.14-.24.24-.34.24a.68.68,0,0,1-.29-.1A.92.92,0,0,0,95.5,93a.69.69,0,0,1-.29.48,4.08,4.08,0,0,1,.48.62,1,1,0,0,1,.72-.34A2.34,2.34,0,0,0,96.27,93.47Zm-.67,4.6-.19,0-.14.29.14.1ZM96,96.3s-.14.38-.24.38h.14a.37.37,0,0,0,.24-.1A.74.74,0,0,0,96,96.3Zm.38,3.84-.1-.1-.38.38.1.1Zm.1,1.39a.88.88,0,0,1-.14-.72,1,1,0,0,0-.29.72ZM96.32,100v-.48h-.14V100Zm1.06,1.44h-.53a1.14,1.14,0,0,0,.62.38.9.9,0,0,1-.1-.38Zm1.44-14.62v-.19h-.38v.19ZM100,89.44s0-.1,0-.19-.24.1-.38.1c0,.24.14.38.38.53,0,0,0-.28,0-.43Zm2.16,13.71c-.1,0-.14.38-.14.38s.19-.1.38-.14c-.15,0-.2-.23-.25-.23Zm1-1-.14,0-.14.29.14.1Zm0,.81-.14-.19-.14.1.19.19Zm.34-9.59-.29-.29-.14.14.29.29Zm-.1,8.44-.19,0-.14.29.14.1Zm.29-3.36-.1-.14-.38.24.1.14Zm.24,2.21-.19-.1-.14.29.14,0Zm.1-1.82-.14,0-.14.29.14.1Zm.1,3.36,0-.14-.29.14v.14Zm0,.86-.14-.14-.1.14.14.14Zm.1-7-.16-.14-.14.1.19.14Zm.29,2.25a.37.37,0,0,1-.14,0,.25.25,0,0,1-.19-.1.59.59,0,0,0,.14.43s.14-.19.38-.38Zm-.1-4.84a.41.41,0,0,1,.29.14,1.07,1.07,0,0,0,.14-.48s0-.1,0-.14a5.26,5.26,0,0,1-.4.49Zm.24-1.77.29.29a.61.61,0,0,1,.29-.19ZM105,90l-.1-.14-.24.14v.14Zm.24.67L105,90.3l-.19.1.29.38Z"/><path id="Path_412" data-name="Path 412" class="cls-1" d="M108.3,104.69a8.71,8.71,0,0,0-.67-.67,3.66,3.66,0,0,1,.43-.43l-.19-.19c-.1,0-.29.1-.43.1s-.1,0-.14,0a6.67,6.67,0,0,0,.62-.29A7.88,7.88,0,0,0,109,104,1.15,1.15,0,0,1,108.3,104.69Zm-.38-4.17h-.38v-.19h.38Zm.38.67-.29.38-.14-.1.24-.38Zm0,1.92H108c.19-.19.34-.43.57-.43C108.44,102.63,108.44,103.11,108.25,103.11Zm0-.72-.29.14v-.14l.24-.14Zm1.63-2.35s-.1.1-.1.14l0,.19c0-.1-.1-.1-.24-.1a.37.37,0,0,0-.24.1c-.14.14-.19.19-.24.19l.19.19.29-.14a2.16,2.16,0,0,1,.1.38.22.22,0,0,1-.14.24,2,2,0,0,1,.29.67l-.24-.24a1.4,1.4,0,0,1-1,.29c.38-.34.53-.53.53-.62l-.1,0a.35.35,0,0,0-.29.19,1.6,1.6,0,0,0-.14-.29c.14-.1.24-.19.34-.19a3.79,3.79,0,0,0-.62-.24.37.37,0,0,1,.24-.1l.24,0a1.07,1.07,0,0,0,.14-.48v-.72c0,.14.29.48.29.62a.18.18,0,0,1,0,.14h.29l.19-.19a3.36,3.36,0,0,0-.34-.53c.38.19.82.34.91.58a.46.46,0,0,1-.33-.1ZM109,96.78h-.19v-.29H109Zm9.21,8v.1a1.3,1.3,0,0,1-.77.24c-.19,0-.14-.24-.34-.24s-.14.14-.24.14-.1,0-.1-.19,0,0-.1,0-.1,0-.1.14,0,0-.14.1a.91.91,0,0,1-.86-.48,10.7,10.7,0,0,1-.38-1.87q-.29-1.44-.86-1.44c-.19,0-.14.24-.34.24s-.24-.34-.43-.34-.14,0-.14,0l0,0s0,0-.14,0-.1,0-.1,0,.1-.14.1-.14l-.1,0a1.94,1.94,0,0,1-1-.62.8.8,0,0,0-.19.72h-.29a.47.47,0,0,1-.38-.14.86.86,0,0,1-.24.34c0-.1,0-.19,0-.29s.1-.34.1-.43a.35.35,0,0,0-.19-.29c-.24,0-.72-.1-.91-.1a1,1,0,0,1,.29-.38l0-.14s0-.1-.1-.14a1.06,1.06,0,0,1-.24.19.61.61,0,0,1,.19-.34.44.44,0,0,0-.24-.14s-.1,0-.14,0,0-.14.19-.24a3.82,3.82,0,0,1-.38-.29c-.1.1-.1.19-.1.43-.14-.1-.19-.14-.29-.14s.1-.14.29-.34a1.12,1.12,0,0,0-.34-.34,1.79,1.79,0,0,1-.38-.29c.1-.1.1-.19.14-.24s.14,0,.29.14a2.19,2.19,0,0,0,.29.19,2.94,2.94,0,0,1,.19-.29c0-.1-.29-.29-.82-.58h.1a1.06,1.06,0,0,1,.19-.24.9.9,0,0,1-.1-.38.8.8,0,0,1,.43-.81,3.82,3.82,0,0,1-.38-.29.4.4,0,0,0-.1.34.44.44,0,0,1-.29-.19,3.12,3.12,0,0,0,.72-.43l-.14-.14c-.1,0-.1.1-.14.14a2.29,2.29,0,0,1-.24-.58l.34.34s0-.1,0-.24,0-.1.14-.1.19.1.19.1a2.94,2.94,0,0,1,.19-.29l-.19-.14-.53.34a.86.86,0,0,1-.24-.34.74.74,0,0,1,.38.1l.14-.19,0-.14s0-.1-.1-.14a.31.31,0,0,1-.24.1,6.14,6.14,0,0,0-.24-.81,4.41,4.41,0,0,1,.82-.62v-.81c-.1-.1-.19-.1-.43-.1.1-.29.19-.62.34-1a.3.3,0,0,0,.1-.19c0-.1-.1-.19-.43-.29a1.14,1.14,0,0,1,.53-.67c-.24-.24-.34-.38-.34-.53a8.78,8.78,0,0,1,.34-1.63,8.92,8.92,0,0,0,.38-1.73c.48-.14.91-.29,1.34-.43A4,4,0,0,1,113,85c.38,0,.77.82,1.15,2.49L117,100c.14.62.24,1.2.38,1.82.24.91.48,1.44.67,1.49a3.11,3.11,0,0,1,.13,1.39ZM109.36,99l-.14.29-.14-.1.14-.29Zm.1-5.94h-.14l-.14-.24.19,0Zm.19,3.4c-.1.14-.19.29-.34.48a5,5,0,0,0,.57-.34s-.1-.09-.24-.14Zm0-3c-.14,0-.19.14-.19.38,0,0,.14,0,.38,0-.1-.14-.2-.24-.2-.33Zm.38-3.21-.1-.1-.29.24.1.14Zm.19,11-.43.14v-.19l.38-.14Zm.34-2.78-.29.24.1.14.29-.29Zm.14.58h-.43a2.15,2.15,0,0,0,.62.48,1,1,0,0,1-.2-.48Zm3-3.74c-.43-1.25-.82-1.87-1.29-1.87s-1,.67-1.2,2a6.94,6.94,0,0,1-.82,2.73c.14.1.34.29.62.53l-.19.24.48.29.24-.24c.34,0,1.15.24,1.49.24a1.05,1.05,0,0,0,.77-.48,1.35,1.35,0,0,0,.38-.91,9.72,9.72,0,0,0-.48-2.49Zm-.86-3.16-.1-.1-.29.24.1.14Zm.28,8.35-.14,0,.14.24h.19Zm1.39,0h-.19v.38h.19Z"/><path id="Path_413" data-name="Path 413" class="cls-1" d="M127.48,104.88a1.47,1.47,0,0,1-.43-.19.22.22,0,0,0-.24,0,1.22,1.22,0,0,1-.34.1q-.29,0-.57-.43a2.3,2.3,0,0,1-.24-.53c.1,0,.14-.1.14-.29a11.77,11.77,0,0,0-.34-1.44c0-.1.14-.19.24-.34l-.19-.14s-.14.29-.24.29a2.9,2.9,0,0,0,.19-1.06,5.91,5.91,0,0,0-.34-.91,10.5,10.5,0,0,1-.38-1.29,11.93,11.93,0,0,0-.38-1.63c-.29-.67-.62-1-1.1-1-.19,0-.67.19-.86.19s0,.1,0,.29a1.14,1.14,0,0,0-.29.53,3,3,0,0,1,.14.72c0,.29-.19.48-.19.72a26.11,26.11,0,0,0,.24,3v.43a2.85,2.85,0,0,0,0,.53,1.08,1.08,0,0,0,.43,1c0,.1-.1.19-.19.38a.83.83,0,0,0,0,.72,1.51,1.51,0,0,1-1.2.81,2.25,2.25,0,0,1-1.25-.38q-.14-.07-.29-.72c0-.1-.14-.19-.24-.34s.1-.24.19-.43c0-.38-.1-1.49-.14-3.4l-.14-.14a1.83,1.83,0,0,0,.19-.81c0-.72,0-1.77,0-3.21s0-2.54,0-3.31,0-1.68-.1-2.49c0-.53,0-1.25-.1-2.3-.14-.19-.19-.29-.19-.38,0-1.06.34-1.58,1.05-1.58.19,0,.38.1.53.1s.34-.34.53-.34a4,4,0,0,1,.86.19l.86.14c.19,0,.53-.34.77-.34s.34.29.34.29a3.78,3.78,0,0,1,1,.1c.24.1.53.19,1,.34a4.9,4.9,0,0,0,.86.86c.14.29.43.86.91,1.68-.1-.1-.14-.1-.19,0a2.88,2.88,0,0,0-.1,1,1,1,0,0,1,.14.24,14.47,14.47,0,0,1-.14,2.88,7.65,7.65,0,0,1-1.05,2.4,1.05,1.05,0,0,0-.29.24q.07.36.86,3a3,3,0,0,0,.1.86,4.17,4.17,0,0,1,.19,1c.82,2.21,1.25,3.31,1.25,3.31C128.82,104.4,128.1,104.88,127.48,104.88Zm-1.87-13.52a3.87,3.87,0,0,1,.14-.91c-.14-.19-.19-.34-.14-.38s.24-.24.14-.48a6.79,6.79,0,0,1-.38-.86c-.24-.43-.43-.62-.67-.62s0,.14-.24.14-.1-.34-.57-.34a5,5,0,0,0-1.44.34,1.47,1.47,0,0,0-.62,1,8.2,8.2,0,0,0-.14,1.92A7,7,0,0,0,122,93c.1.14.24.34.43.62a3.53,3.53,0,0,0,1.29.29,2,2,0,0,0,1.1-.48c.1-.1.48-.43,1.1-1.06A1.73,1.73,0,0,1,125.61,91.36Zm.38,10.31-.14,0-.14.29.19,0Zm.43-.1v-.29h-.19v.29Z"/><path id="Path_414" data-name="Path 414" class="cls-1" d="M138.65,94.34a.48.48,0,0,0-.53.43c0-.1,0,.1,0,.62,0,0,0,0,.1.14a1,1,0,0,1,0,.62q.14.29.29.29v5.8l-.24,0c-.1,0-.14,0-.14.19a1.27,1.27,0,0,1,0,.34,12.33,12.33,0,0,1-1.49,1.68,2.2,2.2,0,0,1-.82.48l-1.58.1c-.91.1-1.44.14-1.49.14s-.38-.24-.57-.24-.14,0-.14.1.1.19.1.14c-.19-.24-.29-.34-.38-.34a.21.21,0,0,0-.14,0,.21.21,0,0,1-.14,0c-.1,0-.14,0-.1-.14v-.2l-.19.24h-.91c0-.19-.14-.67-.14-.86a5.8,5.8,0,0,1,.19-1c.14-.58.19-1,.24-1.29a4.47,4.47,0,0,1,0-1.2c.14-.48.19-.67.19-.58a.36.36,0,0,0-.19-.34,2.07,2.07,0,0,0,0-.24c0-.1.29-.19.34-.24v-.38c-.29-.29-.38-.43-.38-.58a.64.64,0,0,1,.14-.34,4.31,4.31,0,0,1-.14-.58c.14-.19.19-.29.19-.38a3.08,3.08,0,0,0-.34-.77v-.43a1.15,1.15,0,0,0,.34-.14.65.65,0,0,0,.29-.34.79.79,0,0,0-.62.1,3.2,3.2,0,0,1,.86-.48,12.94,12.94,0,0,0-1.05-.86,1.33,1.33,0,0,1,.86-.72,7.84,7.84,0,0,0,.43-.67c0-.1.1-.14.1-.34l-.1-.1a2.37,2.37,0,0,0-.38-1.06l-.24.24a.68.68,0,0,0-.53-.67,8,8,0,0,1,0-1.53c0-.72,0-1.25,0-1.53a2.35,2.35,0,0,0-.14-.58,2.18,2.18,0,0,1-.14-.53,1.92,1.92,0,0,1,.48-1.1l.82-.14a12.15,12.15,0,0,1,2,.53,1.94,1.94,0,0,0,.24-.43.77.77,0,0,1-.1.48s0,.19.24.19a1.77,1.77,0,0,0,1-.43l.24.24a.3.3,0,0,0,.1-.29.56.56,0,0,0,.43.48c.19,0,.1-.14.29-.14s.34.34.48.34a.57.57,0,0,0,.43-.24,1,1,0,0,0,.38.43,2.63,2.63,0,0,0,.43.34.5.5,0,0,1-.24.34c.1.1.1.19.19.29a.94.94,0,0,0,.43-.43,4.18,4.18,0,0,0,.38,1.1.41.41,0,0,0-.14.29c.29.1.57.19.57.38a2.9,2.9,0,0,1-.43,1.29,4.33,4.33,0,0,1,.24.77c-.19.43-.24.67-.19.77a1.08,1.08,0,0,0-.1.62,1.72,1.72,0,0,0,.24.43,2.37,2.37,0,0,0-.19,1.15,7.56,7.56,0,0,1,.77.48C138.94,94.34,138.84,94.34,138.65,94.34Zm-8.2-4h.38a.77.77,0,0,0,.14-.53c-.33.15-.53.33-.53.53Zm.72.34V90.5h-.29v.19Zm.43,11.89h-.38c.1,0,.1.1.1.29Zm.53-11.65a1.6,1.6,0,0,1-.14-.72,3.57,3.57,0,0,0-.38.72Zm.24.72,0-.14-.29.14v.19Zm3.88,10.12c-.14,0-.19,0-.14-.1l.1-.14c.14-.19.19-.29.14-.38a15.58,15.58,0,0,0,.1-1.73c-.24-3-.38-5.13-.38-6.38,0-.19.14-.91.14-1,0-1.44,0-1.92,0-1.39a1.87,1.87,0,0,1,.34-1.1c-.14,0-.24-.14-.43-.34,0-.14,0-.34,0-.53-.34-.62-.62-.91-.86-.91a3.89,3.89,0,0,0-.53.14c-.24,0-.38-.14-.53-.43-.29.14-.62.29-1.1.48a2.22,2.22,0,0,1-.34.34,15.69,15.69,0,0,0-.24,2.83,3.09,3.09,0,0,0,.24,1.15,15.5,15.5,0,0,0,0,1.68c0,.67,0,1.1,0,1.44a11.38,11.38,0,0,0,0,1.15c0,.53,0,.86,0,1.1a4.42,4.42,0,0,1-.38,1.63c0-.1.24.1.14.77,0,.1.29.19.29.29l-.19.19c-.1,0-.14,0-.19.14a.66.66,0,0,1,0,.43c0,.14-.1.24-.14.24.19.14.24.38,0,.67l.43.29a.62.62,0,0,0-.1.38,6.48,6.48,0,0,1,.53-.43c.1.1.1.14.1.14s-.29.19-.29.29a.25.25,0,0,1,.19.1,11.32,11.32,0,0,1-1,.62c.19.19.34.29.48.29s.1,0,.1,0a.48.48,0,0,1,0-.14s0,0,.1,0h.29a.72.72,0,0,1,.57.24.36.36,0,0,1,0-.19c0-.14.1-.19.29-.19-.1,0,.14,0,.57.14,0-.14.14-.19.19-.19a1,1,0,0,0,.72.43s-.1-.19-.34-.58c.14-.1.34-.43.48-.43a.5.5,0,0,0,.38.19.85.85,0,0,1,.1-.53.26.26,0,0,0,.24.1q-.14-.07-.14-.14s.1-.1.19-.19.14-.1.24-.1a.61.61,0,0,0,0-.29s-.12,0-.31,0Zm-2.06-15v-.19h-.29v.19Zm.19,15.82a1.12,1.12,0,0,1-.1.53.56.56,0,0,1-.34-.53Zm0-16v-.29h-.19v.29Zm.1,16.83h-.14l-.14.34.14.1Zm.34.77-.38-.29-.1.14.38.29Zm1-2.11-.14.29-.14-.1.14-.29Zm.19,1.06-.29-.38-.14.1.24.38Zm.67-16.4-.29.29c.34,0,.53,0,.53,0a.23.23,0,0,1-.24-.24Zm1,14.14-.19-.19-.1.1.14.19Z"/></g><g id="Group_431" data-name="Group 431"><g id="Group_380" data-name="Group 380"><path id="Path_415" data-name="Path 415" class="cls-1" d="M52,116.15c.14-.14.1-.53-.38-.48a4.38,4.38,0,0,1-.38.62Z"/></g><g id="Group_381" data-name="Group 381"><path id="Path_416" data-name="Path 416" class="cls-1" d="M49.42,114.33a6.16,6.16,0,0,0-.91.19.66.66,0,0,0-.53.62,3,3,0,0,1,.82-.1,1.8,1.8,0,0,0,.81-.24c.43.1.62.43.53.62.19-.1.67.34,1,0a2.2,2.2,0,0,0-1.92-.71C49.14,114.52,49.33,114.43,49.42,114.33Z"/></g><g id="Group_382" data-name="Group 382"><path id="Path_417" data-name="Path 417" class="cls-1" d="M48.18,77.7l-.19.14S48.13,77.75,48.18,77.7Z"/></g><g id="Group_383" data-name="Group 383"><path id="Path_418" data-name="Path 418" class="cls-1" d="M70.66,76.12a.32.32,0,0,0-.29.14C70.57,76.22,70.71,76.16,70.66,76.12Z"/></g><g id="Group_384" data-name="Group 384"><path id="Path_419" data-name="Path 419" class="cls-1" d="M74.74,76.79c-.1,0-.14,0-.24,0C74.6,76.84,74.69,76.84,74.74,76.79Z"/></g><g id="Group_385" data-name="Group 385"><path id="Path_420" data-name="Path 420" class="cls-1" d="M48.18,77.7c.14-.1.34-.19.48-.29C48.56,77.22,48.37,77.51,48.18,77.7Z"/></g><g id="Group_386" data-name="Group 386"><path id="Path_421" data-name="Path 421" class="cls-1" d="M44.77,110.45a1,1,0,0,0,.24.38,3.3,3.3,0,0,1-.14-.38Z"/></g><g id="Group_387" data-name="Group 387"><path id="Path_422" data-name="Path 422" class="cls-1" d="M47.7,87.43v.19c.1,0,.14.1.24.14Z"/></g><g id="Group_388" data-name="Group 388"><path id="Path_423" data-name="Path 423" class="cls-1" d="M47.79,95.53c0-.19-.53-.24-.77-.34a.6.6,0,0,1,.38.38A1.35,1.35,0,0,0,47.79,95.53Z"/></g><g id="Group_389" data-name="Group 389"><path id="Path_424" data-name="Path 424" class="cls-1" d="M46.83,108.34l.1.24A.37.37,0,0,1,46.83,108.34Z"/></g><g id="Group_390" data-name="Group 390"><path id="Path_425" data-name="Path 425" class="cls-1" d="M47.79,81.63a.25.25,0,0,0,.19-.1A.36.36,0,0,0,47.79,81.63Z"/></g><g id="Group_391" data-name="Group 391"><path id="Path_426" data-name="Path 426" class="cls-1" d="M61.41,117.4v-.1S61.36,117.4,61.41,117.4Z"/></g><g id="Group_392" data-name="Group 392"><path id="Path_427" data-name="Path 427" class="cls-1" d="M52,114.71l.14,0c0-.1,0-.19,0-.29Z"/></g><g id="Group_393" data-name="Group 393"><path id="Path_428" data-name="Path 428" class="cls-1" d="M82.22,77.51h0C82,77.55,82.12,77.51,82.22,77.51Z"/></g><g id="Group_394" data-name="Group 394"><path id="Path_429" data-name="Path 429" class="cls-1" d="M145.12,80.81c.48-.77.62,1.25,1.15.1-.1,0-.34-.24-.53-.34a.42.42,0,0,0-.34,0C145.32,80.53,145.22,80.57,145.12,80.81Z"/></g><g id="Group_395" data-name="Group 395"><path id="Path_430" data-name="Path 430" class="cls-1" d="M44.77,110.16c0-.14,0-.29,0-.43A3.72,3.72,0,0,0,44.77,110.16Z"/></g><g id="Group_396" data-name="Group 396"><path id="Path_431" data-name="Path 431" class="cls-1" d="M146.27,80.91h0l0-.14C146.32,80.87,146.32,80.87,146.27,80.91Z"/></g><g id="Group_397" data-name="Group 397"><path id="Path_432" data-name="Path 432" class="cls-1" d="M99.43,77.17a.84.84,0,0,0-.19-.24A1.31,1.31,0,0,1,99.43,77.17Z"/></g><g id="Group_398" data-name="Group 398"><path id="Path_433" data-name="Path 433" class="cls-1" d="M86.63,76.4l.34.1A.52.52,0,0,0,86.63,76.4Z"/></g><g id="Group_399" data-name="Group 399"><path id="Path_434" data-name="Path 434" class="cls-1" d="M106.1,76.4a.79.79,0,0,0,.48,0,0,0,0,0,0,0,0h0A.45.45,0,0,1,106.1,76.4Z"/></g><g id="Group_400" data-name="Group 400"><path id="Path_435" data-name="Path 435" class="cls-1" d="M113,76.41s-.1-.1-.14-.1a.52.52,0,0,0-.24,0Z"/></g><g id="Group_401" data-name="Group 401"><path id="Path_436" data-name="Path 436" class="cls-1" d="M82.51,117.16a2.91,2.91,0,0,1-.34-.48C82.27,117,81.26,117.16,82.51,117.16Z"/></g><g id="Group_402" data-name="Group 402"><path id="Path_437" data-name="Path 437" class="cls-1" d="M45.06,110.4a.38.38,0,0,1-.29-.24.68.68,0,0,0,.1.29C45,110.49,45,110.45,45.06,110.4Z"/></g><g id="Group_403" data-name="Group 403"><path id="Path_438" data-name="Path 438" class="cls-1" d="M106.38,72.14l1.1.1A7.27,7.27,0,0,0,106.38,72.14Z"/></g><g id="Group_404" data-name="Group 404"><path id="Path_439" data-name="Path 439" class="cls-1" d="M132.23,117.06l-.24,0A.21.21,0,0,0,132.23,117.06Z"/></g><g id="Group_405" data-name="Group 405"><path id="Path_440" data-name="Path 440" class="cls-1" d="M110.75,72.14a1.69,1.69,0,0,0,.62.38l.14-.14Z"/></g><g id="Group_407" data-name="Group 407"><path id="Path_442" data-name="Path 442" class="cls-1" d="M74.88,117.92c1.06,0,.48-.67.72-1.1,1.25-.19.58.53,1,.86.77-.19,1.39-.81,2-.81,0,.1.14.14,0,.29.81-.58,2.44,0,3.4-.72,0,0,.1.14.14.19a1.8,1.8,0,0,1-.14-1c.48,0,.86-.43,1.06,0-.29,0-.34.19-.43.34l.48-.19c.43.67-.67.24-.67.72,1-.24,2.06-.77,2.83-.58.14.67-1.73.24-.72.81l-1.15-.24c.86,1-.67-.1.1,1,1.49.19,1.68-.34,3.16-.14.34-.38-.1-.53.24-.91,2.11-.67,1.68,1.63,3.26.77.38-.43.58-1.25,1.68-.81l-.38.72c1.44.1.81-1.06,2.35-.58-.29.29-1.15.24-.91.34,1,.58.72-.43,1.44-.43l.14.67c1.53-.1,3.26-.58,5-.67-.1.19-.38.38,0,.58a21.08,21.08,0,0,1,6.71.48L107,117a.21.21,0,0,1,.14.38c.81.19,0-.34.43-.58.48,0,.62.34.34.48,1.44-.48,4.07-1,5.61-.43l-.29.14c1.2.24,1.34-1.15,2.4-.62l-.19.1c2.54.24,5.37-.29,7.34.58.38-.81,2.54.38,2.68-.77,1.44.58,1.06.77,3.07,1.15.53,0,.82-.72,1.49-.81v.57l.91-.62.48.72.62-.14c-.24,0-.53-.29-.48-.43a2.67,2.67,0,0,1,2.44.72l2.35-.48c0,.24-.43.34-.77.48,1.25-.62.24.62,1.39,0-.14-.14.1-.34.1-.48a4.92,4.92,0,0,0,2.83.19l-.19.38a6.28,6.28,0,0,0,1.34,0h.72a7.27,7.27,0,0,0,1-.14,9,9,0,0,0,3.79-1.68c-.48.24-.77.1-.82,0s0-.48.29-.72c.19.1.43.19.62.29,0-.34-.14-.24-.29-.19s-.24,0,0-.48c.38-.29.62-.29.72-.1s.1.48,0,.72a8.17,8.17,0,0,0,.72-1.06c.19,0,.1.34.19.58,0-.34.48-.62.91-1.1a1.67,1.67,0,0,0,.62-1.49h.19a5,5,0,0,1,.19-.48c0-.14.1-.34.14-.48a6,6,0,0,0,.14-.91,4.93,4.93,0,0,0,0-.81v-.62c0-.67-.1-1.29-.14-2.06-.53,0-.43-.67-.86-1.15a18.54,18.54,0,0,0,.53-3.88c-.29-1-.48-.29-.77-.72.48-.1.43-1.49.82-.77a26.81,26.81,0,0,0-.48-4.32c-.19.24-.29.48-.48.34-.1-.38.19-.86.43-.82l0,.1c-.72-2.4,1.44-5.56.43-7.48l0,.1-.53-2c.1-.91.38.53.67-.14-.82-2.16.1-3.4-.43-5.13a1.05,1.05,0,0,0,.38-.72c0-.14,0-.34.1-.53v-.59a5.76,5.76,0,0,0-.86-2.49,10.68,10.68,0,0,0-1.73-2.11c-.62-.62-1.25-1.1-1.77-1.63v.38c-.77,0-.67-.53-1.15-.77,0,.29.57.53.14.57a10.53,10.53,0,0,0-2.07-.43l-.53,0h-1.25c-1.06,0-2.06-.1-3.12-.24-2.11-.19-4.22-.53-6.28-.67-1.53-.1-.86,1.77-2.78,1l.53-.62c-3.07.76-6.23-.05-9.21.62.19-.14.19-.34.48-.34-.62-.48-2.35,0-2.35.34-.48,0-.1-.34-.38-.53-.63-.29-1.58.57-1.92.14,0-.1.19-.14.29-.19-.43.24-1.92,0-1.53.48-1.1-.24-2.16.24-3-.1-.57.57-1.92-.29-2.11.57.1-.86-2-.72-2.69-.29.24-.24-.62-.29-.34-.62-.81,0-1.53.19-1.39.62-1.49-1-3,.82-3.84-.47-2.4.48-4.6.77-6.81,1,.1-.86,2.4-.1,2.3-1-2.06.34-3.21,1.1-5.27.91-.53-.1.29-.38.48-.53-2.06.34-4-.1-5.8.38,0-.1.19-.19.38-.24-.34,0-.81-.14-.81.29l.34-.1c.58.57-1.44,1.2-1.49,1.49.67-1.1-1.77-.29-.77-1.73-.24.1-.53.24-.48.53-.38,0-.48-.19-.14-.53-1.29.19-.81.62-2,.62,0-.19.24-.29.38-.48a2.83,2.83,0,0,1-2.16.57c0-.1,0-.24.24-.24-1.68,0-2.88,1-4.75.62.53-.81-.62-.29-.72-1L73,73l.38.34c-.86,0-1.63.53-2.4.29l.67-.29L70,73.47l.91.29c-.86.38.1.91-1.06.72.24-.1-.86,0-1.34-.43h0a1.81,1.81,0,0,1-1.53.29c-.19-.24.14-.82,0-1-.43.57-2.06.14-2.59.81a.65.65,0,0,0,.14-.62l-.34.48c-.38-.14-.48-.24-.38-.53-1.2-.1.38.91-1.06.53.1,0,0-.1.29-.19-1.44-.19-2.78.29-4.12,0-.38-.72,1.15-.19.72-.77-1.92.14-4,.86-5.85.67l.34.1c-.14.53-.48.38-.91.19-.24,0-.48-.19-.72-.24a1.42,1.42,0,0,0-.77,0c.29-.1.34-.58.29-.48A5.69,5.69,0,0,0,47.36,76v-.38a3.37,3.37,0,0,0-1.2,1.15,17.18,17.18,0,0,0-.86,1.53c.14.38,0,.86.43.67a2.13,2.13,0,0,0-.58,1A4.23,4.23,0,0,0,45,81a10.58,10.58,0,0,0,.19,1.77,4.64,4.64,0,0,1-.14,3.4c0-.34-.19-.72-.19-.48l.24,1.87c.43-.14.29-.24.62-.62a2,2,0,0,1,.48,1.25c-.29-.86-.72,0-1,.38.1-.1.24,0,.38,0-.77,1,.91.14.38,1.53l-.24-.1c.1.53.43,1,.38,1.53-.53.24-.24-.53-.67-.58,0,.77,1,1.49.48,2.21-.14-.34-.14-.82-.29-1.1a1.81,1.81,0,0,0-.53,1.39v0l-.29,1.3.14-.34c1.34,1,.24,2,1.1,3.26-.81-1.25-.48-.19-1.05-.29-.14.34-.34.82-.53.67.48.62-.38,1,.34,1.87-.19,0,0,.67-.48.53.14.82.34-.19.57-.14.62,1.2-.77,2.88.1,4.6.38,1.53,1,1.77,1.29,3.21-.29.48-.67-.38-.67-.38a2.69,2.69,0,0,0,0,2.11c-.19-.14-.29,0-.48.34a.72.72,0,0,0,.43.53c.19.1.24.24.29.67a1.74,1.74,0,0,1-.91-.43,7.29,7.29,0,0,0,1.62,2c-.14.38-.67-.14-1-.34a6.07,6.07,0,0,0,.53.62,6.81,6.81,0,0,0,.62.58,1.42,1.42,0,0,0,1.15.38l-.29-.53c.24.19-.19.43-.43.34a.88.88,0,0,1-.62-.62.8.8,0,0,1,.14-.48c.14.14.29.24.43.38a.76.76,0,0,0,0-.72,2,2,0,0,0-.48-.62,3.32,3.32,0,0,1-1-1.58l.86.29-.43-.43a2.13,2.13,0,0,1-.38-.53c.19-.24.62-.38.77.1.34-.67-.29-.62.14-1.25,0,0,.1,0,.14,0l-.24-.72c.14.14.58-.1.43.34.48-1.29-.58-2.06,0-2.54l0,.1c-.29-1.78-.58-.2-1.3-1.5l1.44-.91-.58-.19c0-.19,0-.53.29-.48-.38-.67-.24.1-.62-.29.53-.86-.24-2.4.67-2.64-.43-.34-.34.82-.67-.1,1-.29-.19-1.1.29-1.87.53.24.24,1,.72.19-.86-.48.19-1.58,0-2.25-.72,0-.29-1.49-.53-2.59.24,0,.38-2.11.62-3.16l.1,0c-.72-.19-.58-1.29-.72-2.06.43,0,.58.19.77.62v-.77a1.36,1.36,0,0,1-.43-.91l.53.19c0-1-.62-2-.29-3.26-.48,0-1.39,1-1.68-.34.29,0,.72-.1.82.24,0-.1-.24-.43-.1-.62l.43.53c.19-.57-.38-.29-.34-.77.38,0,.29-.34.58-.29,0,.1-.14.38,0,.57a3.07,3.07,0,0,1,.72-1.44.44.44,0,0,1-.58-.38c0-.48.1-.57.24-.62s.34,0,.43-.24c-.29-.19.1-.62-.48-.77.1-.19.34-.14.53-.19-.1-.24.1-.67.19-1s.19-.62-.19-.57c0,0,0,0-.1.1v-.1h0a2.38,2.38,0,0,1,1.59-1.58,20.12,20.12,0,0,1,2.16-.53v.19a12.06,12.06,0,0,1,1.49-.24,4.54,4.54,0,0,0,1.39-.34c.29,0,.67.34.57.58a3,3,0,0,1,2,0c-.77.34.29.29-.77.24,1,.14,1.2.48,2.25,0-.38.48.77.62,1.2.48L59,76.21a7.19,7.19,0,0,1,1.44,0l-.24.62c2,.77,3.64-1.34,5.18,0,.53-.43-1.1-.34-.62-.82.91.1,1.92,1,2.21,1,1.3.34,1.2-.91,2.54-.67-.19-.29-.34-.91.67-1.15.91.1,1.15,1,.58,1.15-.24,0-.34,0-.34-.14-.29.1-.72.19-.34.43l.14-.24c.48.24,1.73.19,1.44.57.72-.24.29-.38-.24-.48,1.2.34,1.87,0,3.12.24-.19-.14-.38-.38-.19-.38,1.82.29.82-.43,2-.53.67.34-.24.82,1,.53.77.24.14.62-.14.77,1.1-.43,2.11.29,2.73.38l-.58.19a3.26,3.26,0,0,1,1-.1L80,77.12c.34.1.62.1.62.29.34-.29-.29-.77.43-1.15.48.24,1.39-.24,1.58.34-1.44-.19.14.62-1.06.72a1.74,1.74,0,0,1,.86,0s0,.14-.14.14c1.39.53.62-.67,2.06-.67-.19.34.34.62.58.57-.58,0-.29-.57.24-.82.91.29,1-.19,1.49-.14l-.57-.14c.19-.34.67-.29,1.29-.38,0,.29-.58.19-.34.29.72-.58,1.63.62,2.64.24.48.24,0,.62.43.82,1.1-.43,1.2.48,2.4.1-.34-.48-.38-.34.43-.82L91,76.83l1.25-.67c-.58,0-1.25.29-1.58.19.58-.38.53-.24.24-.62.81.67,1.58-.38,2.49,0l0,1.15c1.39.53,2.44-.57,4.27-.29L97,76.45c.24-.43,1.1,0,1.68-.24,0,.38.29.53.58.77,0-.29,1.29,0,1.49-.72l.81.48c1.44.19,1.68-1.1,3.07-1-.43.43.19.67-.72,1,.48,0,.86.1.91-.19.29.24,1.29-.53,1.73-.14.19-.14.24-.58.77-.53a.23.23,0,0,1,0,.19c0-.19.81-.24.38-.67,1.44,1.2,4-.1,5.27.91,1-.14,2.25-.24,3.16-.29,0,.1,0,.19-.19.14,1.29.34.77-1.1,2.25-.67.72.62-.77.34-.29.57.19,1.25,1.77-.19,2.73.57l-.24.1c.77.43,1.82-.48,3-.38a.23.23,0,0,0,0,.19,8.31,8.31,0,0,1,3.6-1c-.38.48-.53.24-.29.77.53,0-.14-.82.91-.91.34.29,1.1.48,1.2,1l-1,0c.53.67,1.29,0,1.82.1l0,.29c1.53-.1,1.53-.86,3.16-.82l-.19-.24c.91-.77.77.43,1.63-.14l.29.77a19.83,19.83,0,0,1,3.12-.86,9.15,9.15,0,0,1-2.59,1.2c.57,0,2,0,2.3-.43a1.11,1.11,0,0,1-.77.14,4.16,4.16,0,0,1,2.83-.86c-.1.72.67.82,1.53.86.24,0,.43,0,.67,0h.14l.14,0c.1,0,.14,0,.24,0a.77.77,0,0,1,.57.62,1.83,1.83,0,0,1,1.73.91,6,6,0,0,1,.48,1l.29,1c.48-.38.53-.29.57-.1s.1.43.67.34q.14.65,0,.72l-.72,1.68c-.34.38-.24-.53-.53-.48-.1,1.2-.48.53-.82,1.34.43-.14.62.43.43,1.1l.53-1c.62,1.73-1,1.49-.38,3.21l-.38-.53c.24.86,0,3.26.91,4.12-.14.14-.48.38-.53,0-.14,2.11,1,4.7.43,6.33l-.29-.14c.1.38.53.67.24,1.2-.1,0-.29-.14-.29,0a2.88,2.88,0,0,1,.34,1.58l-.34-.43c-.38,2.06.77,3.16,1,4.89-.86,0-1.1,1.63-1.25,2.44l-.1,0a9.68,9.68,0,0,0,0,1.68c0,.29.1.53.14.77s0,.24.1.38l0,.19,0,.1a3,3,0,0,1,0,2.06,16.49,16.49,0,0,0-1.87.91,2.84,2.84,0,0,1-1.1.24h-.43l-.24,0-.86-.14c.34.14,0,.67-.43.72-.53-.19-1.44.58-1.34-.19H139c-.38-.77-1.44-.58-2.3-.58l-.15,1c-2.16-1.49-5.71.53-6.9-.77a17.16,17.16,0,0,0-1.68.53l0-.53a21.28,21.28,0,0,0-4-.1l.38-.38c-1,0-1.29,1.58-2.21,1.58l-.29-.81c-1.77,0-3.55-.72-5.32,0,0-.1.1-.34.38-.38-.82,0-3.21-.53-2.93.58,0-.72-1.82,0-2.78.24l.14-.53c-.82.67-.82.86-2,1.06-.29,0-.24-.43.14-.29-.91-.29-.67.53-1.77.24l.38-.34c-.91,0-.86.14-1.34.53-.58.19-1.73-.14-1.87-.62a1.06,1.06,0,0,1-1.15.53c-.1-.19.14-.29.24-.34-1.53-.38-2.3.62-3.36.1a.35.35,0,0,0-.19-.34,11,11,0,0,1,2.11.1c0-.48-1-.58-.19-1.25-.77.38-2.16,1.2-3.12,1a.66.66,0,0,1-.14-.19l.1,0a.91.91,0,0,0-.62.1,2.24,2.24,0,0,0-.81-.14c-.1-.43-1.15-.24-1.63-.24,0,.53-.62.43,0,.91-.1,0,.1,0,.43-.1.1,0,.14,0,.19,0a0,0,0,0,1,0,0h0c.34,0,.72,0,1.2,0a1.08,1.08,0,0,1-1.34.19,9.29,9.29,0,0,1-.67.86c-.67-.77-2-1.15-2.16-1.63-1.49.29-3.55.19-4.46,1.2-.43.14-.48-.29-.67-.43.24-.1.53-.1.67-.24-.86.24-2.54.1-2.73.81-1.06-.34.62-.67-.86-.53l.19-.24c-2.88-1.15-4.7,1.82-7.91.34.24.1.34.14.38.24-3.64-.62-7.58.62-11.17-.43-1-.19-1.15.24-1.77.58l-.34-.72-1.06.67c-1.53.48-2.64-1.44-4.56-.48l.24.38c-.67-.1-2.21.24-2.06-.24,0,0-.24.38-.48.19v-.29l-1.68.53c-1.3-.24.19-1.2-1.73-1.25-.72.1-2,.86-1.77,1.1.29,0,.72.19.77.48l-.67.14c-.1.91-.62,1.82,1,2.44l1.1-.53.38.43-1,0c.53.43.86,0,1.25-.19a.79.79,0,0,0,.48.48l1.1-.86c.14.34-.48.67.24.86.53-.38-.48-.77.34-1.06.53.38.38.72,1,.38.1.24,0,.38-.29.48.57-.29,1.49-.1,1.77-.58.57.48,1.87-.14,1.82.72a3.59,3.59,0,0,1,1.49-.72c-1,1,1.92,0,1.68,1.15.67-.91,2.49-.38,3.74-.91,0,.1-.19.24-.34.19a3.92,3.92,0,0,1,1.34.53c.1-.77,1.15-.91,1.73-1.39.86.72-.53.86-.24,1.58,0-.62,1.49-.62,1.2-1.1.67.43.58.24.91.86.1-1,.62-.14,1.15-.72,1,.48.24.86,1.3.58C75.84,117.59,74.88,117.92,74.88,117.92Zm24.55-1.63h0c-.19,0-.38,0-.53,0A2.35,2.35,0,0,0,99.43,116.29Zm2.06,0a5.74,5.74,0,0,0-.91,0c-.1-.19,0-.38.19-.38-.1.1.38.24.71.38Zm-4.36-3.74c.34-.1.43,0,.48.14-.14,0-.34,0-.58,0l0,0A1,1,0,0,0,97.13,112.55Z"/></g><g id="Group_408" data-name="Group 408"><path id="Path_443" data-name="Path 443" class="cls-1" d="M96.55,113.27s-.1,0-.14,0,.14.1.19.14a.25.25,0,0,0,.1-.19Z"/></g><g id="Group_409" data-name="Group 409"><path id="Path_444" data-name="Path 444" class="cls-1" d="M47.94,77.84h-.1a.07.07,0,0,1,.09,0Z"/></g><g id="Group_410" data-name="Group 410"><path id="Path_445" data-name="Path 445" class="cls-1" d="M129.92,117.35v-.14l-.14.1Z"/></g><g id="Group_411" data-name="Group 411"><path id="Path_446" data-name="Path 446" class="cls-1" d="M45.2,88.53s-.1,0-.14.14S45.16,88.58,45.2,88.53Z"/></g><g id="Group_412" data-name="Group 412"><path id="Path_447" data-name="Path 447" class="cls-1" d="M45.11,93.42l-.19.67C45,93.81,45.06,93.57,45.11,93.42Z"/></g><g id="Group_413" data-name="Group 413"><path id="Path_448" data-name="Path 448" class="cls-1" d="M44.82,97.16c.1,0,.14,0,.24.1h0Z"/></g><g id="Group_414" data-name="Group 414"><path id="Path_449" data-name="Path 449" class="cls-1" d="M86.34,72.81a.18.18,0,0,0,.14,0C86.82,72.66,86.63,72.72,86.34,72.81Z"/></g><g id="Group_415" data-name="Group 415"><path id="Path_450" data-name="Path 450" class="cls-1" d="M68.51,74.05a2.93,2.93,0,0,1,.58-.24C68.79,73.77,68.55,73.72,68.51,74.05Z"/></g><g id="Group_417" data-name="Group 417"><path id="Path_452" data-name="Path 452" class="cls-1" d="M69.94,73.81a1.18,1.18,0,0,0-.81,0A4.62,4.62,0,0,0,69.94,73.81Z"/></g><g id="Group_418" data-name="Group 418"><path id="Path_453" data-name="Path 453" class="cls-1" d="M46.69,114.28l.14.14h.1A1,1,0,0,1,46.69,114.28Z"/></g><g id="Group_419" data-name="Group 419"><path id="Path_454" data-name="Path 454" class="cls-1" d="M46.93,114.43l.24.14C47.07,114.47,47,114.38,46.93,114.43Z"/></g><g id="Group_420" data-name="Group 420"><path id="Path_455" data-name="Path 455" class="cls-1" d="M47.65,114.76a1.5,1.5,0,0,1-.48-.24A.49.49,0,0,0,47.65,114.76Z"/></g><g id="Group_421" data-name="Group 421"><path id="Path_456" data-name="Path 456" class="cls-1" d="M44.82,108.53l-.19,0S44.73,108.53,44.82,108.53Z"/></g><g id="Group_422" data-name="Group 422"><path id="Path_457" data-name="Path 457" class="cls-1" d="M44.77,107c0,.38-.43.91-.29,1.39l.14,0C44.34,108.24,45.11,107.38,44.77,107Z"/></g><g id="Group_423" data-name="Group 423"><path id="Path_458" data-name="Path 458" class="cls-1" d="M47.22,100.66,47,102c.19-.24.48-.53.53,0C48.23,100.42,47.13,102.34,47.22,100.66Z"/></g><g id="Group_424" data-name="Group 424"><path id="Path_459" data-name="Path 459" class="cls-1" d="M47.5,96.73c.1.67.29,0,.43,0C47.74,96.35,47.7,96.25,47.5,96.73Z"/></g><g id="Group_425" data-name="Group 425"><path id="Path_460" data-name="Path 460" class="cls-1" d="M55.32,76.07l0,.48C55.8,76.5,55.27,76.4,55.32,76.07Z"/></g><g id="Group_426" data-name="Group 426"><path id="Path_461" data-name="Path 461" class="cls-1" d="M60.79,73.58l-.53-.34-.24.48Z"/></g><g id="Group_427" data-name="Group 427"><path id="Path_462" data-name="Path 462" class="cls-1" d="M64,77l-.24.1.86-.19Z"/></g><g id="Group_428" data-name="Group 428"><path id="Path_463" data-name="Path 463" class="cls-1" d="M111.8,76.88l-.14-.62C111.32,76.36,111.22,77.07,111.8,76.88Z"/></g><g id="Group_429" data-name="Group 429"><path id="Path_464" data-name="Path 464" class="cls-1" d="M132.47,76.26a.89.89,0,0,0,1.15.19C133.14,76.4,132.71,76.16,132.47,76.26Z"/></g><g id="Group_430" data-name="Group 430"><path id="Path_465" data-name="Path 465" class="cls-1" d="M135.44,112.46l.38-.19-.77.19Z"/></g></g></g></svg>