<svg id="Laag_1" data-name="Laag 1" xmlns="http://www.w3.org/2000/svg" viewBox="0 0 191.61 188.99"><defs><style>.cls-1{fill:#575756;}</style></defs><title>dokkum_2</title><g id="Group_595" data-name="Group 595"><g id="Group_595-2" data-name="Group 595-2"><path id="Path_643" data-name="Path 643" class="cls-1" d="M77.19,97a.48.48,0,0,0-.53.43c0-.1,0,.1,0,.62,0,0,0,0,.1.14a1,1,0,0,1,0,.62q.14.29.29.29v5.8h-.19c-.1,0-.14,0-.14.19a1.26,1.26,0,0,1,0,.34,12.33,12.33,0,0,1-1.49,1.68,2.2,2.2,0,0,1-.82.48l-1.58.1c-.91.1-1.44.14-1.49.14s-.38-.24-.58-.24-.14,0-.14.1.1.19.1.14c-.19-.24-.29-.34-.38-.34a.21.21,0,0,0-.14,0,.21.21,0,0,1-.14,0c-.1,0-.14,0-.1-.14s0-.19,0-.19l-.19.24H68.9c0-.19-.14-.67-.14-.86a5.8,5.8,0,0,1,.19-1c.14-.58.19-1,.24-1.29a4.47,4.47,0,0,1,0-1.2c.14-.48.19-.67.19-.58a.36.36,0,0,0-.19-.34.52.52,0,0,1,0-.24c0-.1.29-.19.34-.24v-.38c-.29-.29-.38-.43-.38-.58a.64.64,0,0,1,.14-.34,4.31,4.31,0,0,1-.14-.58c.14-.19.19-.29.19-.38a3.08,3.08,0,0,0-.34-.77v-.38a1.15,1.15,0,0,0,.34-.14.64.64,0,0,0,.29-.34.79.79,0,0,0-.62.1,3.2,3.2,0,0,1,.86-.48,13,13,0,0,0-1.06-.86,1.33,1.33,0,0,1,.86-.72,7.84,7.84,0,0,0,.43-.67c0-.1.1-.14.1-.34l-.1-.1a2.37,2.37,0,0,0-.38-1.06l-.24.24a.68.68,0,0,0-.53-.67,8,8,0,0,1,0-1.53c0-.72,0-1.25,0-1.53a2.35,2.35,0,0,0-.14-.58,2.18,2.18,0,0,1-.14-.53,1.92,1.92,0,0,1,.48-1.1l.82-.14a12.15,12.15,0,0,1,2,.53,1.94,1.94,0,0,0,.24-.43.77.77,0,0,1-.1.48s0,.19.24.19a1.77,1.77,0,0,0,1-.43l.24.24s0-.1,0-.19a.56.56,0,0,0,.43.48c.19,0,.1-.14.29-.14s.34.34.48.34a.5.5,0,0,0,.43-.24,1,1,0,0,0,.38.43,2.64,2.64,0,0,0,.43.34.5.5,0,0,1-.24.34c.1.1.1.19.19.29a.94.94,0,0,0,.43-.43,4.18,4.18,0,0,0,.38,1.1.41.41,0,0,0-.14.29c.29.1.58.19.58.38a2.9,2.9,0,0,1-.43,1.29,4.33,4.33,0,0,1,.24.77c-.19.43-.24.67-.19.77a1.08,1.08,0,0,0-.1.62,1.72,1.72,0,0,0,.24.43,2.37,2.37,0,0,0-.19,1.15,7.56,7.56,0,0,1,.77.48ZM69,93h.38a.77.77,0,0,0,.14-.53c-.38.15-.53.33-.53.53Zm.67.34v-.19h-.29v.19Zm.43,11.89h-.38c.1,0,.1.1.1.29Zm.58-11.65a1.6,1.6,0,0,1-.14-.72,3.57,3.57,0,0,0-.38.72Zm.24.72,0-.14-.29.14v.19Zm3.84,10.12c-.14,0-.19,0-.14-.1l.1-.14c.14-.19.19-.29.14-.38a15.58,15.58,0,0,0,.1-1.73c-.24-3-.38-5.13-.38-6.38,0-.19.14-.91.14-1,0-1.44,0-1.92,0-1.39A1.87,1.87,0,0,1,75,92.2c-.14,0-.24-.14-.43-.34,0-.14,0-.34,0-.53-.34-.62-.62-.91-.86-.91a3.89,3.89,0,0,0-.53.14c-.24,0-.38-.14-.53-.43-.29.14-.62.29-1.1.48a2.22,2.22,0,0,1-.34.34,15.69,15.69,0,0,0-.24,2.83,3.09,3.09,0,0,0,.24,1.15,14.53,14.53,0,0,0,0,1.63c0,.67,0,1.1,0,1.44a11.38,11.38,0,0,0,0,1.15q.05.55,0,1.1a4.42,4.42,0,0,1-.38,1.63c0-.1.24.1.14.77,0,.1.29.19.29.29l-.2.2c-.1,0-.14,0-.19.14a.66.66,0,0,1,0,.43c0,.14-.1.24-.14.24.19.14.24.38,0,.67l.43.29a.62.62,0,0,0-.1.38,6.47,6.47,0,0,1,.53-.43c.1.1.1.14.1.14s-.29.19-.29.29a.25.25,0,0,1,.19.1,11.32,11.32,0,0,1-1,.62c.19.19.34.29.48.29s.1,0,.1,0a.48.48,0,0,1,0-.14s0,0,.1,0h.34a.72.72,0,0,1,.58.24.36.36,0,0,1,0-.19c0-.14.1-.19.29-.19-.1,0,.14,0,.58.14,0-.14.14-.19.19-.19a1,1,0,0,0,.72.43s-.1-.19-.34-.58c.14-.1.34-.43.48-.43a.5.5,0,0,0,.38.19.85.85,0,0,1,.1-.53.26.26,0,0,0,.24.1q-.14-.07-.14-.14s.1-.1.19-.19.14-.1.24-.1a.61.61,0,0,0,0-.29.66.66,0,0,1-.35.09Zm-2.06-15v-.19H72.4v.19Zm.24,15.82a1.12,1.12,0,0,1-.1.53.56.56,0,0,1-.34-.53Zm0-16V89h-.19v.29Zm.1,16.83h-.14l-.14.34.14.1Zm.29.77-.38-.29-.1.14.38.29Zm1-2.11-.14.29L74,105l.14-.29Zm.24,1.06-.29-.38-.14.1.24.38Zm.67-16.4-.29.29c.34,0,.53,0,.53,0-.19,0-.24-.09-.24-.24Zm.91,14.14-.19-.19-.1.1.14.19Z"/><path id="Path_644" data-name="Path 644" class="cls-1" d="M87.5,100.49q-.14,1.65-.14,2.44c0,.29,0,1,0,1.2a2,2,0,0,1-.43,1.49c-.48.53-.77.81-.81.91,0-.14.34-.53.34-.81v-.15a2.54,2.54,0,0,0-.43.53s-.1-.1-.24-.24c-.1.1-.24.14-.38.29.29.14.43.34.43.48-.38.1-.77.1-1,.48,0-.14-.14-.48-.14-.67A.66.66,0,0,1,85,106l.43-.29s-.19-.24-.48-.72a.25.25,0,0,0-.1.19,1.56,1.56,0,0,1,.14.48l-.77-.19c.29,0,.67-.67.91-.67s.14,0,.24.1l.1-.38a.43.43,0,0,0-.24,0,.36.36,0,0,0-.34.19v-.34a1.63,1.63,0,0,1,.19-.77V91.77a.4.4,0,0,0-.34-.1.85.85,0,0,1,.19-.48,2.89,2.89,0,0,0-.53-.67l-.58-.43a1.48,1.48,0,0,0-.58-.29,1.77,1.77,0,0,0-1.49.86,2.84,2.84,0,0,0-.58,1.68,9.09,9.09,0,0,0,.29,3c-.24.1-.34.34-.34.67s.1.86.1,1.06a10.23,10.23,0,0,0,0,1.06v1.06c0,.58,0,1.06,0,1.44a4.17,4.17,0,0,0-.24.91c0,.34,0,.81.1,1.49s.1,1.15.1,1.44a1.24,1.24,0,0,1-.19.48.43.43,0,0,1,0,.24.75.75,0,0,1-.29.67,1.57,1.57,0,0,0,.29.38,1.94,1.94,0,0,0,.14-.48,1,1,0,0,1,.29-.48l.29-.19.14.14v.43h-.1a.35.35,0,0,0-.34.29,1,1,0,0,0,.19.29,1,1,0,0,1,.24-.43,3,3,0,0,1,.24.53c.1.24.19.38.24.38s.58.14.72.14c0-.19.14-.43.24-.77h.14c.38,0,.62,0,.67-.14a4.52,4.52,0,0,1,.47.48v.1a.15.15,0,0,1,0,.1.18.18,0,0,1-.16.19h0c.1,0,0,0-.19-.1l-.1,0a2,2,0,0,0,.44.67,2.19,2.19,0,0,1-1.15.38c-1.1,0-1.82-.24-2.11-.67l-.24.24c-.38-.19-.58-.38-.58-.62s.19-.48.19-.58a.25.25,0,0,0-.1-.19l0,0s.1,0,.1-.14-.14-.34-.34-.43c.1-.14.1-.24.14-.29a.69.69,0,0,0,.34.1l.1-.1a1.07,1.07,0,0,0-.1-.58l-.38-.14-.14.14a.77.77,0,0,0,.14.43l-.29-.24a1.93,1.93,0,0,1-.77.67.52.52,0,0,1-.1-.38.47.47,0,0,1,.14-.38,1.73,1.73,0,0,1-.24-.43.59.59,0,0,0,.19-.43c0-.38-.14-.58-.34-.62a.36.36,0,0,1,0-.24,1,1,0,0,0,.38-.29l-.14-.14a6.28,6.28,0,0,0,.62-.58.25.25,0,0,0-.19-.1.64.64,0,0,0-.38.14v0c0-.1,0-.19.1-.24-.1-.1-.48-.48-.48-.67a1.18,1.18,0,0,1,.38-.81,3.5,3.5,0,0,1,.48.43l.1,0s0-.1,0-.19-.24-.34-.62-.62v0a1.09,1.09,0,0,1,0-.19c0-.14-.1-.19-.19-.14h0a2.83,2.83,0,0,1,.19-.38q-.14-.22-.43-.58c.1,0,.24.1.34.1a.17.17,0,0,0,.1,0,.22.22,0,0,0-.14-.14s0,0,.1,0,.34-.14.38-.48c-.1.1-.14.19-.29.34h-.38v-.24c0-.19,0-.29.24-.34v0s0-.1.1-.19a1,1,0,0,1-.29-.19.81.81,0,0,1,0-.48c-.1-.29-.19-.67-.38-1.2a3.15,3.15,0,0,1,.58-.58.59.59,0,0,0-.53-.34h.24a1.52,1.52,0,0,0,.1-.67c0-.34-.14-1.1-.14-1.39a1.13,1.13,0,0,1,.24-.77l-.1-.14.24-.43h0a3.88,3.88,0,0,1,.19-1.34,7.26,7.26,0,0,0,.67-.43v-.1c0-.53.34-.91,1.06-1.15a4.42,4.42,0,0,1,1.71-.33l.29.34c.14-.14.19-.24.19-.34.43.1,1.06.19,1.87.38.34.24.62.48.91.67a2.73,2.73,0,0,1,.72.86,8.35,8.35,0,0,1,.48,3.12c0,.29.1,1,.1,1.2s0,1,0,1.29,0,.72,0,1.34,0,1,0,1.34C87.64,98.62,87.6,99.43,87.5,100.49ZM80,103.89v-.19h-.29v.19Zm.14,2.49-.1.1-.29-.29.1-.14Zm.34-2.44H80a.15.15,0,0,0,0,.1.51.51,0,0,0,.1.29c0-.1.1-.14.29-.14s.34.1.43.1Zm-.1,0-.14-.34-.14,0,.14.29Zm0-1a.43.43,0,0,0-.14.34s.14,0,.43,0Zm1.68,3.79a1.7,1.7,0,0,0-.43-.53,1.28,1.28,0,0,1,.14.58c0,.1,0,.14,0,.19Zm.48.14-.1-.14-.29.14v.14Zm.24-.43v-.1a.37.37,0,0,0-.1-.24,1.53,1.53,0,0,1-.29.34,2,2,0,0,0,.19-.43.46.46,0,0,1,.43-.29,1.18,1.18,0,0,1-.23.73Zm.77-18-.19-.19-.1.14.14.19Zm.34,17.26-.14.1-.19-.19.14-.1Zm1.87-10.07-.19-.19-.1.14.14.19Zm.24.14-.19-.1-.14.29.19.1Zm.43-2a2.64,2.64,0,0,0-.34.43.66.66,0,0,1,.43-.24.13.13,0,0,1,.14.14c0,.1-.1.24-.1.34q0-.14.29-.14a5.1,5.1,0,0,1-.43-.52Zm.24-1.2-.1-.53c-.1.14-.24.29-.43.53Zm-.14-2.73a3.87,3.87,0,0,0-.29.62v0a.82.82,0,0,1,.43.48,2.05,2.05,0,0,1,.24-.62,1.36,1.36,0,0,1-.38-.52Zm.19,5.56-.14,0-.14.29.14.1Zm-.19-.81a1.28,1.28,0,0,1,.14.58.26.26,0,0,1,.29-.19ZM87,96.12,87,96l-.29.14v.14Zm0-4.22v-.43h-.19v.43Z"/><path id="Path_645" data-name="Path 645" class="cls-1" d="M95.8,94.21a.28.28,0,0,1,0,.34A4,4,0,0,0,95,96.66c0,.19.34.67.38.81,0-.14,0,.1,0,.67a.34.34,0,0,0,.3.38h0a.51.51,0,0,0,0,.38,2.45,2.45,0,0,1,0,.43c0,.14.1.19.34.19,0,0-.1.14-.24.29.1.43.14,1,.34,1s.34,0,.34.14-.43.43-.43.62.1.24.34.14l-.24.29q0,.14.43.29l-.34.34a8,8,0,0,1,.72,1.49,9.55,9.55,0,0,1,.19,1.39,4.44,4.44,0,0,0,.34.91,3.24,3.24,0,0,1,.38,1c-.19,0-.24.1-.1.19a2.86,2.86,0,0,1-1.44-.19c-.19.19-.29.24-.29.19s0-.19-.24-.19-.29.24-.48.24-.19-.19-.14-.48a1.56,1.56,0,0,1-.48-1.15,3,3,0,0,1,.24-1c-.14-.14-.19-.19-.29-.19s-.29-.34-.38-.48q.14-.22.43-.58a2.3,2.3,0,0,1-.53-.24c0-.34-.34-.58-.53-.86a5.71,5.71,0,0,0-.48-.81l-.29.24-.19-.38a3.82,3.82,0,0,1-.38.29s.1.1.14.1a2.5,2.5,0,0,0-.72,1v1.06a6.46,6.46,0,0,1,.24,1c-.1.1-.14.19-.29.34a7.39,7.39,0,0,0,.1,2s-.19.1-.43.24a1.2,1.2,0,0,1-.53.24H89.32a1.79,1.79,0,0,1-.24-.67c0-.48.14-1.63.34-3.5,0-.14.19-.29.53-.58l-.1-.86a.69.69,0,0,0-.1.34,11.17,11.17,0,0,1-.28-1.78c0-.86.1-1.34.34-1.34s.34-.29.34-.77a.9.9,0,0,0-.48-.67,7.44,7.44,0,0,1,0-1.1s-.14-.1-.14-.29,0-.67.14-1.44c0-.29.14-.48.29-.53-.24-.14-.34-.38-.34-.86,0-.77,0-1.1,0-1.1a15.49,15.49,0,0,1-.14-2.3,6.89,6.89,0,0,1,.19-1.92,1.12,1.12,0,0,1,1.15-.58c1.1,0,1.68.34,1.68,1a5,5,0,0,1-.14,1.1c-.29,1.1-.38,1.63-.38,1.58a1.67,1.67,0,0,0,.29.67c.19.34.34.48.38.48s.34.24.53.24a1.18,1.18,0,0,0,.72-.43,2.41,2.41,0,0,0,.48-.62,3.06,3.06,0,0,0,.1-.43c.29-.72.67-1.73,1.29-3.12A3.75,3.75,0,0,1,97,88.08a4.72,4.72,0,0,1,1.58.48C98.38,88.94,97.47,90.81,95.8,94.21Zm-5.32,8.34a3.79,3.79,0,0,1-.38.62h.43a.59.59,0,0,1,.19-.38.25.25,0,0,0,.35.07l0,0A1.21,1.21,0,0,0,90.47,102.55Zm0-8.3,0-.19-.29.14v.14Zm0,8.2-.19-.19-.1.1.14.19Zm1.06-.53v-.19h-.38v.19Zm0,4.41-.19-.19-.1.14.14.14Z"/><path id="Path_646" data-name="Path 646" class="cls-1" d="M106.1,94.21a.28.28,0,0,1,0,.34,4,4,0,0,0-.72,2.11c0,.19.34.67.38.81,0-.14,0,.1,0,.67a.34.34,0,0,0,.3.38h0a.51.51,0,0,0,0,.38,2.45,2.45,0,0,1,0,.43c0,.14.1.19.34.19,0,0-.1.14-.24.29.1.43.14,1,.34,1s.34,0,.34.14-.43.43-.43.62.1.24.34.14l-.24.29q0,.14.43.29l-.29.19a8,8,0,0,1,.72,1.49,9.55,9.55,0,0,1,.19,1.39,4.45,4.45,0,0,0,.34.91,3.24,3.24,0,0,1,.38,1c-.19,0-.24.1-.1.19a2.86,2.86,0,0,1-1.44-.19c-.19.19-.29.24-.29.19s0-.19-.24-.19-.29.24-.48.24-.19-.19-.14-.48a1.56,1.56,0,0,1-.48-1.15,3,3,0,0,1,.24-1c-.14-.14-.19-.19-.29-.19s-.29-.34-.38-.48q.14-.22.43-.58a2.3,2.3,0,0,1-.53-.24c0-.34-.34-.58-.53-.86a5.71,5.71,0,0,0-.48-.81l-.29.24-.34-.34a3.82,3.82,0,0,1-.38.29s.1.1.14.1a2.5,2.5,0,0,0-.72,1v1a6.46,6.46,0,0,1,.24,1c-.1.1-.14.19-.29.34a7.39,7.39,0,0,0,.1,2s-.19.1-.43.24a1.2,1.2,0,0,1-.53.24H99.49a1.79,1.79,0,0,1-.24-.67c0-.48.14-1.63.34-3.5,0-.14.19-.29.53-.58l0-.77a.69.69,0,0,0-.1.34,11.17,11.17,0,0,1-.28-1.77c0-.86.1-1.34.34-1.34s.34-.29.34-.77A.9.9,0,0,0,100,98a7.44,7.44,0,0,1,0-1.1s-.14-.1-.14-.29,0-.67.14-1.44c0-.29.14-.48.29-.53-.24-.14-.34-.38-.34-.86,0-.77,0-1.1,0-1.1a15.49,15.49,0,0,1-.14-2.3,6.89,6.89,0,0,1,.19-1.92,1.12,1.12,0,0,1,1.15-.59c1.1,0,1.68.34,1.68,1a5,5,0,0,1-.14,1.1c-.29,1.1-.38,1.63-.38,1.58a1.67,1.67,0,0,0,.29.67c.19.34.34.48.38.48s.34.24.53.24a1.18,1.18,0,0,0,.72-.43,2.41,2.41,0,0,0,.48-.62,3.06,3.06,0,0,0,.1-.43c.29-.72.67-1.73,1.29-3.12a3.75,3.75,0,0,1,1.25-.29,4.72,4.72,0,0,1,1.58.48C108.69,88.94,107.78,90.81,106.1,94.21Zm-5.32,8.34a3.79,3.79,0,0,1-.38.62h.43a.59.59,0,0,1,.19-.38.25.25,0,0,0,.35.07l0,0A1.21,1.21,0,0,0,100.78,102.55Zm0-8.29,0-.19-.29.14v.14Zm0,8.2-.19-.19-.1.1.14.19Zm1.06-.53v-.19h-.38v.19Zm0,4.41-.19-.19-.1.14.14.14Z"/><path id="Path_647" data-name="Path 647" class="cls-1" d="M119,99a.9.9,0,0,0-.43.91,2.66,2.66,0,0,0,.14.72,4.31,4.31,0,0,1,.14.58c0,.1-.19.48-.19.58a1.48,1.48,0,0,1,0,.48,6.69,6.69,0,0,1-.14,1.15,5.32,5.32,0,0,0-.1,1.1c0,.1,0,.29,0,.34v0a11.44,11.44,0,0,1-.67,1.49,3.64,3.64,0,0,1-1,1,2.28,2.28,0,0,1-1.25.48c-.19,0-.14-.14-.29-.14s-.67.43-.86.43h-1c-.19,0-.48-.53-.57-.53s-.14,0-.14,0v0s0,0-.1,0c-.24,0-.57-.24-1-.67s-.82-.86-.86-.91a6.13,6.13,0,0,0-.38-1.15,4,4,0,0,1-.19-1.29c0-.14-.1-.19-.34-.19V93.92c0-.24.14-.19.19-.24a1.8,1.8,0,0,1,0-.53c0-1.1,0-2.68.1-4.7.19-.34.57-.48,1.2-.48a2.32,2.32,0,0,1,1.29.34,2.81,2.81,0,0,0,.38,1c0,.1-.14.24-.43.38v.82c0,.24,0,.43,0,.67h0c-.1,0-.14.1-.14.19,0,.43.14,1.44.14,1.87a2.75,2.75,0,0,0,.19.34,1.71,1.71,0,0,0-.19.91,2.36,2.36,0,0,0,.19.86,2.36,2.36,0,0,1,.19.81s-.1,1.44-.19,4.22c0,.72,0,1.77-.14,3.21a1,1,0,0,0-.14.43c0,.19.14.14.14.24a.61.61,0,0,0,0,.29.87.87,0,0,0,.43.86s-.1.14-.34.34a2.83,2.83,0,0,0,.19.38l.86-.43a.81.81,0,0,1-.1.24.31.31,0,0,0,0,.29.94.94,0,0,0-.34,0c-.1,0-.14,0-.19,0,.29.29.82.29,1.1.72.24-.24.34-.38.29-.53a.43.43,0,0,0,.24,0,.64.64,0,0,0,.38-.14l-.19,0v-.38l.29-.14c0,.1,0,.19-.1.29l0,.14a2.71,2.71,0,0,1,.67-.43,1.31,1.31,0,0,0-.19-.24l-.29.24c-.1-.14-.14-.19-.14-.24a2.5,2.5,0,0,0,.91-2.11s0-.67-.19-1.92c-.1-.86-.19-2.11-.29-3.84v-.14c0-.43.1-1.34.1-1.68,0,0-.14-.1-.14-.29s.24-.1.24-.24-.24-1-.24-1.25a3.52,3.52,0,0,1,.48-2c-.14-.14-.24-.19-.34-.19V89.27a2.35,2.35,0,0,1,.19-.48c.14-.24.24-.38.29-.38a5,5,0,0,1,1.34-.19.94.94,0,0,1,.82.48c0,.1,0,1.34.14,3.88,0,.48.1,1.44.19,2.88l0,0c0,.14-.19.43-.19.53v0a1.67,1.67,0,0,1,.29.43V99Zm-6.57,5.47-.29-.14-.1.14.29.14Zm2.83,2-.14.29.19,0,.14-.29Zm1.92-12v-.19h-.29v.19Z"/><path id="Path_648" data-name="Path 648" class="cls-1" d="M133.53,92.2c0,.24-.43.67-.43.91a1.24,1.24,0,0,0,.19.48,1.34,1.34,0,0,0-.29,0,1.36,1.36,0,0,0-.57.19h0s0,0,.1-.1-.14-.1-.34-.24a.77.77,0,0,0-.38-.14c-.1,0-.14,0-.24.14l-.24-.24a2.17,2.17,0,0,0-.1.38,1.6,1.6,0,0,1,.14.29.37.37,0,0,1-.24-.1c-.19.19-.19.58-.57.81a3.13,3.13,0,0,0,.24.72c0,.1-.24.19-.53.34a.29.29,0,0,1,0,.19,2,2,0,0,0,0,.43.44.44,0,0,0,0,.38h-.1a2.88,2.88,0,0,0,.62,1.2c-.14.1-.38.19-.62.34v.1s0,.1.1.14a.66.66,0,0,0,.14-.19h.43l0,.14a.25.25,0,0,0,.1.19,2,2,0,0,0,.53-.29v.38c-.19,0-.34,0-.38.14s-.29.29-.34.29.19.14.34.29a.52.52,0,0,1-.19.43,1.07,1.07,0,0,0-.62-.43s0,0-.19.19a1.43,1.43,0,0,0,.53.34h-.1c-.1,0-.24,0-.53.1,0,.14-.29.29-.67.53l-.24-.14s0,0,0,.1,0,.24,0,.34c0,.43-.43.58-.72.72a.82.82,0,0,0,.43.29,4.21,4.21,0,0,0-.29.48,1.48,1.48,0,0,0-.57.24l.14.14-.19-.14s-.1.1-.1.14a1.4,1.4,0,0,0,.1.43s0,0-.1,0,0,.1-.19.24a1.62,1.62,0,0,1,.53.67c-.34.1-.48.38-.48.91s-.14.77-.34.81a.71.71,0,0,1,0-.34.64.64,0,0,1,.14-.48v-.14c0-.1,0-.1-.19-.1s-.24.1-.24.1l0-.1.14-.14a2.1,2.1,0,0,1-.43-.24,2.87,2.87,0,0,0,.29-.34.5.5,0,0,0,.19-.38.36.36,0,0,0,0-.24c-.1,0-.14.1-.14.34,0-.1-.1-.14-.24-.19l-.19-.1s0-.1,0-.19v-.24a.36.36,0,0,1,0-.19c-.19,0-.24.24-.34.24s.1-.14.19-.29a.18.18,0,0,0-.16-.19h0l-.1,0c0-.38,0-.48,0-.43,0-.43.19-.67.53-.72l-.1-.43c-.14.29-.34.43-.53.43a.43.43,0,0,0-.34-.14,3.92,3.92,0,0,1,0-.67c0-.1-.38-.1-.34-.38-.19,0-.62-.1-.82-.1s-.48.19-.72.53a1.54,1.54,0,0,0-.38.91l-.1-.29s-.14-.1-.29-.19-.1.1-.1.14v.29a.36.36,0,0,0,0,.19.43.43,0,0,0-.24-.38c-.1,0-.1.1-.14.24a1.34,1.34,0,0,0,0,.29h-.1a1.92,1.92,0,0,0-.72.14,4.68,4.68,0,0,1-.53-.67,40.84,40.84,0,0,1-.14-4.94,14.2,14.2,0,0,0-.14-2.3c0-.1.24-.43.24-.62a11.86,11.86,0,0,0-.24-1.82,11.07,11.07,0,0,1-.19-1.82c0-.29.1-.82.1-1.06a3.91,3.91,0,0,0,.82-.48c0,.19,0,.24,1.2.24h.53c.19.67.48,1.68.82,3a32,32,0,0,1,1.1,3.07c.1.19.29.62.67,1.29a8.94,8.94,0,0,0,.48.77,1,1,0,0,0,.82.34c.48,0,.91-.58,1.29-1.77l0,0c0-.1,0-.14-.14-.24a7.92,7.92,0,0,0,.62-1.29c.14-.24.34-.62.57-1.1a2,2,0,0,0,.29-1c.1-.14.53-.14.57-.24a3.3,3.3,0,0,1-.62-.29,1.07,1.07,0,0,0,.14-.77c.1,0,.19,0,.29-.14a2.56,2.56,0,0,0,.48.34v0a2.09,2.09,0,0,0-.24-.62V89a.18.18,0,0,0,.14,0,1.4,1.4,0,0,0,.43-.1c0-.1,0-.14-.14-.14a.81.81,0,0,1-.1-.24v-.24c.1,0,.43-.24,1-.58,0,.1.14.19.24.34l.24-.19.72.38a.26.26,0,0,1,.19.29,1.15,1.15,0,0,1-.43.77c.1,0,.14.14.24.34v.1c0,.19.14.62.14.82a1.82,1.82,0,0,1-.29,1.06v.29a2.6,2.6,0,0,0,.53.29h.22Zm-9.69,15.39c-.34,0-1.15.24-1.44.24a1.63,1.63,0,0,1-.91-.34c-.1-.91-.14-1.39-.14-1.53a9.66,9.66,0,0,1,.14-1.39c.19-1.25,0-1.92.43-1.87a.36.36,0,0,0-.19-.1,3.08,3.08,0,0,1,.43-.53.41.41,0,0,0,.29.14c-.14.19-.24.43-.43.77,0,.1.19.14.34.29,0-.1.14-.24.14-.34a.15.15,0,0,0,0-.1l-.14-.14a.94.94,0,0,1,.57.29c.1-.24.53-.58.57-.67-.14-.14-.29-.29-.29-.38s.29-.14.29-.24a2.08,2.08,0,0,1,0-.24c0,.1.1.34.29.81a3.8,3.8,0,0,1,.24.72c0,.19-.14.38-.43.62.24.14.34.24.34.34s-.1.19-.19.34a2.1,2.1,0,0,1,.43.24.75.75,0,0,0-.29.38,4.43,4.43,0,0,1-.24.43,2.06,2.06,0,0,1,.53,1.44A4.34,4.34,0,0,1,123.84,107.59Zm-1-16.54v-.29h-.19V91Zm.34,7.62v-.48H123v.48Zm.19-.29v.48c.19,0,.34,0,.38.14a1.83,1.83,0,0,0-.38-.62Zm.48-2.78a2.41,2.41,0,0,0-.24.62.54.54,0,0,1,.38-.14A1.41,1.41,0,0,1,123.84,95.6Zm.82,2.54c-.1.14-.19.29-.38.53a.83.83,0,0,0,.62-.24Zm2.4,4a2.09,2.09,0,0,0-.43-.62,1.44,1.44,0,0,0,.19.38,1.63,1.63,0,0,0-.29.29Zm1.15-1.25-.29-.14,0,.14.29.14Zm.29,1.1v-.18H128V102Zm.19-1.82c0,.14.24.43.19.62a2.37,2.37,0,0,0,.14-.72.4.4,0,0,0-.34.1ZM129.84,98v-.29h-.19V98Zm.24-1a1.51,1.51,0,0,0-.19.58c0-.14.14-.19.34-.19a.54.54,0,0,0-.15-.38Zm.29-2.3-.1-.14-.24.14v.14Zm0-1.77-.14,0-.14.29.14.1Zm.14,5.8v-.19h-.29v.19Zm.24-5.18-.14,0-.14.29.19.1Zm3.16,12c0,1.15-.24,1.68-.62,1.68h-.82c-1.05,0-1.29-.48-1.29-1.53a3,3,0,0,1,0-.62,1.82,1.82,0,0,1,.29-.24c0-.1-.14-.14-.34-.14a1.19,1.19,0,0,0,0-.38c0-.24,0-.34-.19-.38a1.06,1.06,0,0,1,.43-.77.19.19,0,0,0-.19-.1v-.38l.43-.43c0-.14-.14-.29-.43-.38v-1.14a1,1,0,0,1,.48.1s.1,0,.1-.14a.43.43,0,0,0-.43-.1,4,4,0,0,0-.1-.62,1.27,1.27,0,0,0-.29.24,2.08,2.08,0,0,0-.34-.29s.19,0,.29,0a1,1,0,0,1,.72-.29c0,.14-.1.24-.24.38a2.22,2.22,0,0,0,.48.48q.29-.29.29-.43a.26.26,0,0,0-.14-.24c.19-.14.43-.34.72-.53a4.64,4.64,0,0,0-.43-.34h.19a.29.29,0,0,1,.19,0s0,.14.19.29a1.7,1.7,0,0,1,.19-.43s0,.14-.1.24.1.1.14.1.24-.1.29-.1a.62.62,0,0,1-.19.48,3.7,3.7,0,0,0,.29.72.61.61,0,0,1-.48.53c-.19,0-.14.24-.29.24s-.24,0-.24.1v0l.19.19c.19,0,.29-.1.29-.34a.9.9,0,0,1,.48.91,1.6,1.6,0,0,1-.14.72,3.55,3.55,0,0,1,.24.91,6.06,6.06,0,0,0,.19.91c-.1.1-.1.24-.1.48v.48Zm-2.59-5.9v-.29a.43.43,0,0,0-.14-.34,1.74,1.74,0,0,1,.38.43.24.24,0,0,1-.24.2Zm.1-7.91v-.38h-.19v.38Zm.43-1.2v-.19l-.62-.1v.19Zm.24,13.57V104h-.62v.19Zm-.53.29s.14.19.38.43a1,1,0,0,1,.29-.19,6.67,6.67,0,0,1-.68-.23Zm1.77-6.23c0-.1,0-.14-.14-.24a1.6,1.6,0,0,0-.14.29,2.75,2.75,0,0,1,.34.19s-.14.19-.34.38h-.62c0-.1.1-.14.1-.24s-.34-.38-.34-.67a.29.29,0,0,1,0-.19v-.19c0-.1,0-.19,0-.29a.64.64,0,0,0,.29-.24s-.14-.14-.43-.43c.24-.1.43-.24.67-.34,0,0,0-.1-.1-.14a2.7,2.7,0,0,1-.57.19c.29-.1.43-.29.43-.72a1,1,0,0,0-.24-.72c.1,0,.14,0,.29.19.14-.14.19-.24.19-.34s-.14-.29-.14-.34.24-.19.24-.24a.18.18,0,0,0-.14,0c-.1,0-.24,0-.29,0a2.67,2.67,0,0,1-.24-.38c.1,0,.34.1.43.1s.1,0,0-.19,0,0,.14,0a1.14,1.14,0,0,1,.57.14s-.1.14-.29.34c0,.1.14.1.29.1a1.64,1.64,0,0,0-.1.72,3,3,0,0,0,.29,1.39,7.88,7.88,0,0,0-.2,1.92Zm-1,4-.14-.34-.14.1.14.24Zm0-.29v.53a.41.41,0,0,1,.29.14A1.16,1.16,0,0,0,133,102c0-.1,0-.14,0-.24a1.88,1.88,0,0,1-.44.2Zm.57-6.57-.19-.19-.1.14.14.14Z"/></g><g id="Group_647" data-name="Group 647"><g id="Group_596" data-name="Group 596"><path id="Path_649" data-name="Path 649" class="cls-1" d="M67.22,118.81a.32.32,0,0,0-.34-.48,4,4,0,0,1-.34.62Z"/></g><g id="Group_597" data-name="Group 597"><path id="Path_650" data-name="Path 650" class="cls-1" d="M65,117.18a2.51,2.51,0,0,0-.77.29.75.75,0,0,0-.43.67,2,2,0,0,1,.72-.19,1.81,1.81,0,0,0,.72-.34c.34,0,.57.38.43.57.14-.1.57.24.81-.1a1.48,1.48,0,0,0-1.63-.53C64.73,117.37,64.92,117.28,65,117.18Z"/></g><g id="Group_598" data-name="Group 598"><path id="Path_651" data-name="Path 651" class="cls-1" d="M62.38,85.82l-.1.19A.25.25,0,0,0,62.38,85.82Z"/></g><g id="Group_599" data-name="Group 599"><path id="Path_652" data-name="Path 652" class="cls-1" d="M75.9,78.77a.24.24,0,0,0-.24.14C75.8,78.87,75.95,78.82,75.9,78.77Z"/></g><g id="Group_600" data-name="Group 600"><path id="Path_653" data-name="Path 653" class="cls-1" d="M79.35,79.44c-.1,0-.14,0-.19,0S79.3,79.5,79.35,79.44Z"/></g><g id="Group_601" data-name="Group 601"><path id="Path_654" data-name="Path 654" class="cls-1" d="M62.38,85.82l.19-.53C62.38,85.25,62.43,85.58,62.38,85.82Z"/></g><g id="Group_602" data-name="Group 602"><path id="Path_655" data-name="Path 655" class="cls-1" d="M60.41,114.59a1.63,1.63,0,0,0,.29.29,1,1,0,0,1-.19-.29Z"/></g><g id="Group_603" data-name="Group 603"><path id="Path_656" data-name="Path 656" class="cls-1" d="M62.9,94.79v.14a1,1,0,0,0,.24.14Z"/></g><g id="Group_604" data-name="Group 604"><path id="Path_657" data-name="Path 657" class="cls-1" d="M63,101.64c0-.14-.53-.19-.77-.29.24.1.34.19.38.34A1.35,1.35,0,0,0,63,101.64Z"/></g><g id="Group_605" data-name="Group 605"><path id="Path_658" data-name="Path 658" class="cls-1" d="M62.09,112.43l.1.14C62.14,112.53,62.14,112.48,62.09,112.43Z"/></g><g id="Group_606" data-name="Group 606"><path id="Path_659" data-name="Path 659" class="cls-1" d="M63,89.85c.1,0,.14,0,.19,0A.29.29,0,0,0,63,89.85Z"/></g><g id="Group_607" data-name="Group 607"><path id="Path_660" data-name="Path 660" class="cls-1" d="M75.18,120.06V120S75.13,120.06,75.18,120.06Z"/></g><g id="Group_608" data-name="Group 608"><path id="Path_661" data-name="Path 661" class="cls-1" d="M67.22,117.37l.1,0V117Z"/></g><g id="Group_609" data-name="Group 609"><path id="Path_662" data-name="Path 662" class="cls-1" d="M85.68,80.16h0C85.49,80.21,85.58,80.16,85.68,80.16Z"/></g><g id="Group_610" data-name="Group 610"><path id="Path_663" data-name="Path 663" class="cls-1" d="M139.47,82.56c.19-.24.38-.14.57,0s.38.29.57-.19c-.1,0-.34-.1-.57-.1S139.52,82.27,139.47,82.56Z"/></g><g id="Group_611" data-name="Group 611"><path id="Path_664" data-name="Path 664" class="cls-1" d="M60.41,114.35c0-.1-.1-.24-.14-.34A.74.74,0,0,0,60.41,114.35Z"/></g><g id="Group_612" data-name="Group 612"><path id="Path_665" data-name="Path 665" class="cls-1" d="M140.58,82.37h0s0,0,0-.1S140.63,82.32,140.58,82.37Z"/></g><g id="Group_613" data-name="Group 613"><path id="Path_666" data-name="Path 666" class="cls-1" d="M100.3,79.83c0-.1-.1-.14-.14-.24S100.21,79.69,100.3,79.83Z"/></g><g id="Group_614" data-name="Group 614"><path id="Path_667" data-name="Path 667" class="cls-1" d="M89.42,79.06l.29.1A.41.41,0,0,0,89.42,79.06Z"/></g><g id="Group_615" data-name="Group 615"><path id="Path_668" data-name="Path 668" class="cls-1" d="M106,79.06a.51.51,0,0,0,.38,0,0,0,0,0,0,0,0h0A.29.29,0,0,1,106,79.06Z"/></g><g id="Group_616" data-name="Group 616"><path id="Path_669" data-name="Path 669" class="cls-1" d="M111.81,79.06l-.1-.1a.29.29,0,0,0-.19,0Z"/></g><g id="Group_617" data-name="Group 617"><path id="Path_670" data-name="Path 670" class="cls-1" d="M93,119.81a2.54,2.54,0,0,1-.29-.48C92.87,119.67,92,119.81,93,119.81Z"/></g><g id="Group_618" data-name="Group 618"><path id="Path_671" data-name="Path 671" class="cls-1" d="M60.7,114.5c-.14,0-.24,0-.29-.1,0,.1.1.14.1.24A.66.66,0,0,0,60.7,114.5Z"/></g><g id="Group_619" data-name="Group 619"><path id="Path_672" data-name="Path 672" class="cls-1" d="M106.2,74.79l.91.1A5.31,5.31,0,0,0,106.2,74.79Z"/></g><g id="Group_620" data-name="Group 620"><path id="Path_673" data-name="Path 673" class="cls-1" d="M135.21,119.72l-.19,0C135.06,119.82,135.12,119.77,135.21,119.72Z"/></g><g id="Group_621" data-name="Group 621"><path id="Path_674" data-name="Path 674" class="cls-1" d="M109.89,74.79a1.36,1.36,0,0,0,.53.38s.1-.1.1-.14Z"/></g><g id="Group_623" data-name="Group 623"><path id="Path_676" data-name="Path 676" class="cls-1" d="M86.64,120.58c.91,0,.43-.67.62-1.1,1.06-.19.48.53.86.86.67-.19,1.15-.81,1.68-.81,0,.1.14.14,0,.29.72-.58,2.06,0,2.88-.72a.36.36,0,0,1,.1.19,2.45,2.45,0,0,1-.14-1c.38,0,.72-.43.91,0-.24,0-.29.19-.38.34l.43-.19c.38.67-.58.24-.58.72.81-.24,1.77-.77,2.4-.58.14.67-1.44.24-.62.81l-1-.24c.72,1-.58-.1.1,1,1.29.19,1.44-.34,2.69-.14.29-.38-.1-.53.19-.91,1.82-.67,1.44,1.63,2.73.77.34-.43.48-1.25,1.44-.81l-.34.72c1.25.1.72-1.06,2-.58-.24.29-1,.24-.77.34.81.58.58-.43,1.25-.43l.14.67c1.29-.1,2.73-.58,4.22-.67-.1.19-.34.38,0,.58a15,15,0,0,1,5.66.48l.67-.58a.24.24,0,0,1,.14.38c.67.19,0-.34.38-.58.38,0,.53.34.29.48,1.2-.48,3.45-1,4.75-.43l-.24.14c1,.24,1.1-1.15,2.06-.62l-.19.1c2.16.24,4.55-.29,6.19.58.34-.81,2.16.38,2.3-.77,1.25.58.86.77,2.64,1.15.48,0,.67-.72,1.25-.81v.57l.77-.62.43.72.53-.14c-.19,0-.48-.29-.43-.43a1.88,1.88,0,0,1,1.34.14l.34.14.34.14a1.19,1.19,0,0,1,.34.24,9,9,0,0,0,2.54-1.25c0,.24-.34.53-.62.77a2,2,0,0,1,.57-.43c.1,0,.19,0,.24.1s.1.14.24.1.29-.14.48-.43c-.24,0-.1-.34-.14-.48a1.56,1.56,0,0,0,.62-.19,3.13,3.13,0,0,0,.72-.48,5,5,0,0,0,1.15-1.49c0,.14.14.29.19.43a7,7,0,0,0,1.34-3.12c0-.29,0-.58.1-.86v-.91c0-.43,0-.81,0-1.25a.49.49,0,0,1-1,0l.53-.1c-.38-.34-.24.53-.72-.14.1-.62.72-.43.91,0l-.26-.77c.19,0,.29.14.53.19-.38-.29.62-1.29,0-1.73l.19,0c0-1.68-.19-2.4-.24-3.74-.53,0-.43-.58-.86-1a14,14,0,0,0,.53-3.31c-.29-.86-.48-.24-.77-.62.48,0,.43-1.25.82-.62a19.05,19.05,0,0,0-.48-3.65c-.19.19-.29.43-.48.29-.1-.34.19-.77.43-.72l0,.1c-.72-2,1.44-4.7.43-6.33l0,.1-.53-1.68c.1-.77.38.48.67-.1a4.14,4.14,0,0,1-.34-2.3,3.55,3.55,0,0,0,0-1,3.7,3.7,0,0,0-.1-.72,4.22,4.22,0,0,0-.24-.73,2.29,2.29,0,0,0,.14-1.73,4.88,4.88,0,0,0-1.1-1.92,10.41,10.41,0,0,0-1.73-1.53,15.29,15.29,0,0,1-1.58-1.3v.38c-.67.1-.57-.43-1-.67,0,.24.53.48.1.53a5.58,5.58,0,0,1-.87-.19,5.31,5.31,0,0,0-.91-.1h-1.53a24.49,24.49,0,0,1-2.64-.24c-1.78-.18-3.55-.52-5.32-.66-1.29-.1-.72,1.77-2.35,1l.48-.62c-2.59.76-5.27-.05-7.81.62.14-.14.14-.34.38-.34-.53-.48-2,0-2,.34-.38,0-.1-.34-.34-.53-.53-.29-1.34.57-1.63.14,0-.1.14-.14.24-.19-.34.24-1.63,0-1.29.48-1-.24-1.82.24-2.59-.1-.48.57-1.63-.29-1.77.57,0-.86-1.68-.72-2.25-.29.19-.24-.53-.29-.29-.62-.67,0-1.29.19-1.2.62-1.25-1-2.54.82-3.26-.47a56,56,0,0,1-5.75,1c0-.86,2-.1,2-1-1.73.34-2.73,1.1-4.46.91-.43-.1.24-.38.38-.53-1.73.34-3.36-.1-4.89.38,0-.1.19-.19.34-.24-.29,0-.72-.14-.67.29l.43-.19c.48.58-1.2,1.2-1.25,1.49.48-1.1-1.58-.29-.72-1.73-.19.1-.43.24-.38.53-.34,0-.43-.19-.14-.53-1.1.19-.72.62-1.68.62,0-.19.19-.29.29-.48a2.12,2.12,0,0,1-1.82.57c0-.1,0-.24.19-.24-1.44,0-2.44,1-4,.62.48-.82-.53-.29-.62-1l-.86.19.34.34c-.72,0-1.39.53-2,.29l.53-.29-1.39.14.77.29c-.77.38.1.91-.91.72.19-.1-.72,0-1.1-.43h0a1.38,1.38,0,0,1-1.3.29c-.14-.24.1-.82,0-1-.29.62-1.63.19-2.11.81a.76.76,0,0,0,.1-.62l-.29.48c-.34-.14-.38-.24-.34-.53-1.06-.1.34.91-.91.53.1,0,0-.1.24-.19a5.47,5.47,0,0,0-1.77,0l-.43,0c-.14,0-.34,0-.48,0a7.21,7.21,0,0,1-1,.1c-.29-.29,0-.43.29-.48s.57-.14.29-.38a6,6,0,0,0-2.78,1.44,15.88,15.88,0,0,0-1.92,2.16l.29-.24c.14.19.19.34.1.48s-.24.24-.43.38a2.51,2.51,0,0,0-.53.48.86.86,0,0,0-.19.67c0-.24-.43-.48-.34-.38A3.85,3.85,0,0,0,60.27,83a.61.61,0,0,0,0,.29c0,.1,0,.14,0,.24a1.72,1.72,0,0,1,.1.53c.1.34.14.72.24,1.15L60.47,85a12.59,12.59,0,0,0-.24,2.35c.24.19.24.57.57.34-1.49,2.11.82,4-.43,5.94,0-.24-.29-.53-.29-.38l.24,1.58c.43-.14.29-.19.62-.53a1.56,1.56,0,0,1,.48,1.06c-.29-.72-.72,0-1,.34.14,0,.29,0,.43,0-.77.82.91.14.38,1.3l-.29-.1c.1.43.43.82.38,1.3-.53.19-.24-.43-.67-.48,0,.67,1,1.3.48,1.87-.14-.29-.14-.67-.29-1-.62.62-.43.72-.53,1.2v0l-.29,1.1.14-.29c1.34.82.24,1.63,1.1,2.73-.81-1.06-.48-.19-1.05-.24-.14.29-.34.72-.53.58.48.53-.38.86.34,1.58-.19,0,0,.58-.48.43.14.67.34-.14.57-.1.62,1.05-.77,2.45.1,3.93.38,1.29,1,1.53,1.34,2.69a.25.25,0,0,1-.43,0,1.48,1.48,0,0,1-.24-.34,1.86,1.86,0,0,0,.34,1.92c-.24-.1-.34.1-.48.38a.6.6,0,0,0,.48.34c.19,0,.29.14.34.53a2.45,2.45,0,0,1-1-.14,7.62,7.62,0,0,0,1.73,1.34c-.1.34-.67,0-1,0a5.55,5.55,0,0,0,1.15.86c.43.19.82.29,1.05.14l-.3-.42c.24.14-.14.43-.38.38a.62.62,0,0,1-.58-.48.72.72,0,0,1,.1-.48,1.94,1.94,0,0,0,.43.24.79.79,0,0,0,0-.67,2.72,2.72,0,0,0-.53-.48c-.24-.14-.43-.34-.67-.48a2,2,0,0,1-.48-.62,2.61,2.61,0,0,0,.86,0,5.43,5.43,0,0,1-1-.62c.14-.24.53-.48.77-.14.1-.34,0-.43-.1-.53s-.14-.19,0-.48a.09.09,0,0,1,.13,0l0,0a5.23,5.23,0,0,1-.29-.53c.19.1.58-.1.48.24a1.22,1.22,0,0,0,.1-.34v-.34a5,5,0,0,0-.14-.58c-.14-.34-.24-.62,0-.81l0,.1c-.29-1.49-.58-.14-1.29-1.25l1.44-.77-.58-.14c0-.14,0-.48.29-.38-.38-.58-.24.1-.62-.24.53-.72-.24-2.06.67-2.21-.43-.29-.34.72-.67-.1,1-.24-.19-.91.29-1.58.53.19.24.86.72.19-.86-.43.19-1.34,0-1.87-.72,0-.29-1.25-.53-2.21.24,0,.38-1.82.62-2.68l.1,0c-.72-.19-.58-1.1-.72-1.77a.78.78,0,0,1,.77.53v-.62c-.24-.14-.34-.34-.43-.77l.53.14c.24-1-.34-1.87,0-2.92-.48,0-1.39.86-1.68-.29.29,0,.72-.1.82.19,0-.1-.24-.34-.1-.53l.43.48c.19-.48-.38-.24-.34-.67.38,0,.29-.29.58-.24,0,.1-.14.34,0,.48A1.77,1.77,0,0,1,63,89.85a.44.44,0,0,1-.56-.28l0-.06c0-.86.43-.29.67-.77-.24-.19,0-.72-.58-.77,0-.24.29-.29.43-.38-.24-.43,0-2-.67-1.53l0,.1a0,0,0,0,0,0,0h0a4.29,4.29,0,0,1-.1-2.21c.1-.81.29-1.34.34-2l.19,0a2.84,2.84,0,0,1,.24-1.1,2.34,2.34,0,0,0,.19-.53,1.72,1.72,0,0,0,.1-.53.49.49,0,0,1,.69.06l0,0c.14-.24.19-.43.34-.53a1.43,1.43,0,0,1,.72-.34c-.29.57.29.14-.34.48a3.24,3.24,0,0,1,.72-.19c.19,0,.34-.19.62-.53a.31.31,0,0,0,.23.38h.06c.19,0,.43,0,.53-.1a4.22,4.22,0,0,0-.48-.29,1.7,1.7,0,0,1,.48-.1,1.8,1.8,0,0,1,.48,0,2.93,2.93,0,0,0-.14.62s0,0,.1,0,.1,0,.14,0a.61.61,0,0,0,.29,0,2.33,2.33,0,0,0,.57,0,7.41,7.41,0,0,0,1.1-.34,1.67,1.67,0,0,1,2.06.19c.43-.43-.91-.34-.53-.82.77.1,1.63,1,1.87,1,1.1.34,1-.91,2.16-.67-.14-.24-.29-.82.57-1.05.77.1,1,1,.48,1.15q-.29,0-.29-.14c-.19.14-.53.24-.19.48l.1-.24c.38.24,1.49.19,1.2.57.58-.24.24-.38-.19-.48,1,.34,1.58,0,2.64.24C79,79.25,78.83,79,79,79c1.53.29.67-.43,1.73-.53.58.34-.19.82.82.53.62.24.14.62-.1.77,1-.43,1.77.29,2.3.38l-.48.19a2.38,2.38,0,0,1,.82-.1l-.29-.43c.29.1.53.1.53.29.29-.29-.24-.77.38-1.15.38.24,1.2-.24,1.34.34-1.25-.19.14.62-.91.72a1.21,1.21,0,0,1,.72,0s0,.14-.14.14c1.2.53.53-.67,1.77-.67-.14.34.29.62.48.57-.48,0-.24-.57.24-.82.77.29.86-.19,1.25-.14L89,79c.14-.34.53-.29,1.1-.38,0,.29-.48.19-.29.29.62-.58,1.39.62,2.21.24.38.24,0,.62.38.82,1-.43,1,.48,2,.1-.29-.48-.34-.34.38-.82l-1.63.34,1.06-.67c-.48,0-1.06.29-1.34.19.48-.38.43-.24.19-.62.67.67,1.34-.38,2.11,0v1.15c1.15.53,2.11-.57,3.6-.29l-.48-.19c.19-.43,1,0,1.44-.24,0,.38.24.53.48.77,0-.29,1.1,0,1.25-.72l.67.48c1.25.19,1.39-1.1,2.59-1-.34.43.19.67-.62,1,.38,0,.77.1.77-.19.24.24,1.1-.53,1.44-.14.14-.14.24-.57.67-.53a.23.23,0,0,1,0,.19c0-.19.67-.24.29-.67,1.2,1.2,3.4-.1,4.46.91.86-.14,1.92-.24,2.69-.29,0,.1,0,.19-.14.14,1.1.34.67-1.1,1.87-.67.62.62-.67.34-.24.57.19,1.25,1.49-.19,2.3.57l-.19.1c.62.43,1.53-.48,2.59-.38a.23.23,0,0,0,0,.19,6.46,6.46,0,0,1,3-1c-.29.48-.43.24-.24.77.43,0-.14-.82.77-.91.29.29.91.48,1,1l-.82,0c.43.67,1.1,0,1.53.1l0,.29c1.29-.1,1.29-.86,2.68-.82l-.14-.24c.77-.77.62.43,1.39-.14l.24.77a14.15,14.15,0,0,1,2.64-.86,7.57,7.57,0,0,1-2.21,1.2c.48,0,1.68,0,1.92-.43-.19.1-.43.24-.62.14a3.15,3.15,0,0,1,2.4-.86c-.24,1.49,2.78.34,2.78,1.58a1.58,1.58,0,0,1,1.53.62,12.44,12.44,0,0,1,.91,1.58c.43-.43.48-.38.53-.24s.14.34.67.1c.19.34.19.53.14.53a3.61,3.61,0,0,1-.29.62l-.14.29a1.2,1.2,0,0,1-.19.34c-.19.19-.24,0-.29-.1s0-.14-.1-.24a.18.18,0,0,0-.14,0v.14a.18.18,0,0,1,0,.14.25.25,0,0,1-.1.19c0,.1-.14.14-.19.19a.66.66,0,0,0-.48.43c.43-.14.62.34.43,1l.53-.81c.62,1.44-1,1.25-.38,2.69l-.38-.48c.24.77,0,2.78.91,3.5-.14.14-.48.29-.53,0-.14,1.77,1,4,.43,5.37l-.29-.14c.1.34.53.58.24,1-.1,0-.29-.14-.29,0a2.14,2.14,0,0,1,.34,1.34l-.34-.38c-.38,1.73.77,2.68,1,4.12-.86,0-1.1,1.39-1.25,2.06H139c-.1,2,.72,3.45,1.06,5.32a4.67,4.67,0,0,0-.61,2.63V112l0,.24c0,.14,0,.34-.1.48a1.36,1.36,0,0,1-.53.72c.19-.1.57.34.53.58s-.14.34-.19.48-.14.24-.43,0l.1,0c-.67-.34-.86.1-1.25.29.14.29.29.62.43.91a2.74,2.74,0,0,0-1.15-.19,2,2,0,0,0-.53.1c-.1,0-.14,0-.29,0s-.29,0-.43,0c-1.1.14-2.11.34-2.59-.34-.43.24-1,.24-1.44.53v-.53a15.25,15.25,0,0,0-3.36-.1l.29-.38c-.86,0-1.1,1.58-1.87,1.58l-.24-.81c-1.49,0-3-.72-4.51,0,0-.1,0-.34.29-.38-.72,0-2.73-.53-2.49.58,0-.72-1.53,0-2.35.24l.14-.53c-.67.67-.72.86-1.68,1.06-.24,0-.19-.43.1-.29-.77-.29-.58.53-1.49.24l.34-.34c-.77,0-.72.14-1.15.53-.48.19-1.49-.14-1.58-.62a.87.87,0,0,1-1,.53.29.29,0,0,1,.19-.34c-1.29-.38-1.92.62-2.83.1a.44.44,0,0,0-.14-.34,7.36,7.36,0,0,1,1.77.1c0-.48-.81-.58-.19-1.25-.67.38-1.82,1.2-2.64,1a.25.25,0,0,1-.1-.19l.1,0a.7.7,0,0,0-.53.1,1.69,1.69,0,0,0-.67-.14c-.1-.43-1-.24-1.39-.24,0,.53-.53.43,0,.91,0,0,.1,0,.34-.1,0,0,.14,0,.19,0a0,0,0,0,1,0,0h0c.29,0,.62,0,1.06,0-.34.29-.67.53-1.15.19a5.31,5.31,0,0,1-.58.86c-.58-.77-1.68-1.15-1.82-1.63-1.25.29-3,.19-3.79,1.2-.38.14-.43-.29-.53-.43.19-.1.48-.1.58-.24-.72.24-2.16.1-2.3.81-.91-.34.53-.67-.72-.53l.19-.24c-2.44-1.15-4,1.82-6.71.34.19.1.29.14.34.24-3.12-.77-6.42.48-9.49-.53-.86-.19-1,.24-1.49.58l-.19-.58-.91.67c-1.3.48-2.26-1.44-3.89-.48l.19.38c-.57-.1-1.87.24-1.77-.24,0,0-.19.38-.43.19v-.29l-1.44.53c-1.1-.24.19-1.2-1.44-1.25-.62.1-1.73.86-1.49,1.1.24,0,.62.19.62.48l-.57.14c-.1.91-.53,1.82.81,2.44l1-.53.29.43-.81,0c.43.43.72,0,1.06-.19A.79.79,0,0,0,70,120l.91-.86c.1.34-.43.67.19.86.43-.38-.43-.77.29-1.06.43.38.34.72.86.38.1.24,0,.38-.24.48.48-.29,1.25-.1,1.49-.58.48.48,1.58-.14,1.53.72a2.6,2.6,0,0,1,1.25-.72c-.81,1,1.63,0,1.44,1.15.58-.91,2.11-.38,3.16-.91,0,.1-.19.24-.29.19a3.21,3.21,0,0,1,1.15.53c.1-.77,1-.91,1.49-1.39.72.72-.43.86-.19,1.58,0-.62,1.25-.62,1-1.1.53.43.48.24.77.86.1-1,.53-.14,1-.72.82.48.19.86,1.06.58C87.41,120.25,86.64,120.58,86.64,120.58ZM107.4,119h0a1.65,1.65,0,0,1-.43,0A1.85,1.85,0,0,0,107.4,119Zm1.73,0a4.07,4.07,0,0,0-.77,0c0-.19,0-.38.19-.38-.09.1.34.24.58.38Zm-3.69-3.74c.29-.1.38,0,.38.14s-.29,0-.48,0l0,0A1,1,0,0,0,105.43,115.21Z"/></g><g id="Group_624" data-name="Group 624"><path id="Path_677" data-name="Path 677" class="cls-1" d="M105,115.93s0,0-.1,0l.14.14s0-.1.1-.19Z"/></g><g id="Group_625" data-name="Group 625"><path id="Path_678" data-name="Path 678" class="cls-1" d="M62.28,86.06h0a0,0,0,0,0,0,0h0a0,0,0,0,0,0,0Z"/></g><g id="Group_626" data-name="Group 626"><path id="Path_679" data-name="Path 679" class="cls-1" d="M133.24,120v-.14l-.14.1Z"/></g><g id="Group_627" data-name="Group 627"><path id="Path_680" data-name="Path 680" class="cls-1" d="M60.41,95.7s-.1,0-.14.14S60.37,95.75,60.41,95.7Z"/></g><g id="Group_628" data-name="Group 628"><path id="Path_681" data-name="Path 681" class="cls-1" d="M60.32,99.87l-.19.58C60.22,100.2,60.27,100,60.32,99.87Z"/></g><g id="Group_629" data-name="Group 629"><path id="Path_682" data-name="Path 682" class="cls-1" d="M60,103a.43.43,0,0,0,.24,0h0Z"/></g><g id="Group_630" data-name="Group 630"><path id="Path_683" data-name="Path 683" class="cls-1" d="M89.18,75.46a.18.18,0,0,0,.14,0C89.61,75.32,89.42,75.37,89.18,75.46Z"/></g><g id="Group_631" data-name="Group 631"><path id="Path_684" data-name="Path 684" class="cls-1" d="M74.08,76.71a2.24,2.24,0,0,1,.48-.24C74.32,76.42,74.12,76.37,74.08,76.71Z"/></g><g id="Group_633" data-name="Group 633"><path id="Path_686" data-name="Path 686" class="cls-1" d="M75.27,76.47a.93.93,0,0,0-.72,0A3.6,3.6,0,0,0,75.27,76.47Z"/></g><g id="Group_634" data-name="Group 634"><path id="Path_687" data-name="Path 687" class="cls-1" d="M62.57,117.56l.14.14a0,0,0,0,1,0,0h0Z"/></g><g id="Group_635" data-name="Group 635"><path id="Path_688" data-name="Path 688" class="cls-1" d="M62.76,117.61l.19.1A.36.36,0,0,0,62.76,117.61Z"/></g><g id="Group_636" data-name="Group 636"><path id="Path_689" data-name="Path 689" class="cls-1" d="M63.43,117.85,63,117.7A.48.48,0,0,0,63.43,117.85Z"/></g><g id="Group_637" data-name="Group 637"><path id="Path_690" data-name="Path 690" class="cls-1" d="M60.12,112.86l-.19,0S60,112.86,60.12,112.86Z"/></g><g id="Group_638" data-name="Group 638"><path id="Path_691" data-name="Path 691" class="cls-1" d="M60,111.38c0,.1,0,.14-.1.24s0,.1,0,.14,0,.14,0,.19a1.33,1.33,0,0,0,0,.86l.14,0c-.19-.1-.1-.43,0-.77S60.17,111.52,60,111.38Z"/></g><g id="Group_639" data-name="Group 639"><path id="Path_692" data-name="Path 692" class="cls-1" d="M62.43,106l-.14,1.06c.19-.19.48-.43.53,0C63.43,105.77,62.33,107.44,62.43,106Z"/></g><g id="Group_640" data-name="Group 640"><path id="Path_693" data-name="Path 693" class="cls-1" d="M62.71,102.65c.1.58.29,0,.43,0C63,102.31,62.9,102.22,62.71,102.65Z"/></g><g id="Group_641" data-name="Group 641"><path id="Path_694" data-name="Path 694" class="cls-1" d="M64.15,80l.29.38C64.63,80.11,64.34,80.21,64.15,80Z"/></g><g id="Group_642" data-name="Group 642"><path id="Path_695" data-name="Path 695" class="cls-1" d="M67.56,76.23a4.22,4.22,0,0,0-.48-.29,4.46,4.46,0,0,0-.24.48Z"/></g><g id="Group_643" data-name="Group 643"><path id="Path_696" data-name="Path 696" class="cls-1" d="M70.24,79.69l-.19.1.77-.19Z"/></g><g id="Group_644" data-name="Group 644"><path id="Path_697" data-name="Path 697" class="cls-1" d="M110.75,79.54l-.14-.62C110.32,79,110.28,79.73,110.75,79.54Z"/></g><g id="Group_645" data-name="Group 645"><path id="Path_698" data-name="Path 698" class="cls-1" d="M128.26,78.92a.7.7,0,0,0,1,.22l0,0C128.83,79.06,128.45,78.82,128.26,78.92Z"/></g><g id="Group_646" data-name="Group 646"><path id="Path_699" data-name="Path 699" class="cls-1" d="M137.08,115l.1-.24-.29.29A.36.36,0,0,1,137.08,115Z"/></g></g></g></svg>