<svg id="Laag_1" data-name="Laag 1" xmlns="http://www.w3.org/2000/svg" viewBox="0 0 191.61 188.99"><defs><style>.cls-1{fill:#b2b2b2;}</style></defs><title>harlingen_1</title><g id="Group_378" data-name="Group 378"><g id="Group_325" data-name="Group 325"><path id="Path_347" data-name="Path 347" class="cls-1" d="M61.51,103.53a.18.18,0,0,1,0,.14.76.76,0,0,1,0,.19l.1.14a16.46,16.46,0,0,1,.19,3.16,2.2,2.2,0,0,0,0,.48v.53c0,1.2-.29,1.82-.86,1.82-.14,0-.38-.14-.48-.14s-.14,0-.1,0a.18.18,0,0,1,0,.14s0,0-.1,0-.48-.24-.67-.24a.58.58,0,0,0-.24,0h-.19q0-.57-.29-.72c.1,0,.14-.14.29-.29a4.43,4.43,0,0,1,.38-1.29h.24c-.1-.38-.29-.53-.53-.53.29,0,.38-.14.38-.43s-.38-.62-.43-.81a1.56,1.56,0,0,0,.67-.19q-.29-.22-.29-.14c0-.24,0-.29,0-.24a.41.41,0,0,1,.14-.29v-1.15c-.19-.14-.29-.43-.34-.91a8.13,8.13,0,0,1,0-1.06c0-.24-.24-.43-.62-.62a1.52,1.52,0,0,0-.86-.34c-.38,0-1.25.24-1.53.24s-.29.34-.48.58a.82.82,0,0,1,.1.38v0c-.1,0-.19.1-.19.19,0,.58,0,1,0,1.15a7.13,7.13,0,0,1-.14,1.2,6.17,6.17,0,0,0-.1,1.2c0,.29,0,.58,0,.91a2.83,2.83,0,0,0-.38.19l.34.34s-.1.29-.29.29-.14,0-.24-.1a.44.44,0,0,0-.14.24l.14.19.1-.19h.62a.92.92,0,0,0-.24.58c0,.19.24.72.24.86,0,.53-.19.81-.58.81h-.91a4.12,4.12,0,0,1-.86-.38v-2.64c0-.1.1-.24.19-.43v-.14c0-.1,0-.43,0-.53s.19-.34.19-.48-.1-.29-.29-.38l.58.1s.1,0,.19-.19c-.14-.14-.24-.19-.34-.19a.42.42,0,0,0-.29.1c0-.1,0-.24.14-.48-.1,0-.1-.14-.1-.29a1.42,1.42,0,0,1,.1-.48V100.8c0-.1-.1-.19-.24-.24a1.28,1.28,0,0,0,.14-.58c0-.38,0-.91-.1-1.58a11.77,11.77,0,0,1-.1-1.63c0-1.15.1-3.21.19-6.18a1.66,1.66,0,0,1,.58-.34,5.3,5.3,0,0,0,.62-.19l.24.24a.68.68,0,0,1,.29-.1.9.9,0,0,1,.62.48,5.28,5.28,0,0,1,.1.86,6.79,6.79,0,0,1,0,.91,7.56,7.56,0,0,0,0,.91c0,.19,0,.72,0,.91s-.14,1-.14,1.29c0,.1.38.48.38.67s-.43.81-.43,1a1.48,1.48,0,0,0,1.16,1.3c.19,0,.29-.19.43-.19s.38.19.53.19c.91,0,1.34-.48,1.34-1.39a2.35,2.35,0,0,0,0-.53v-.58c0-.29,0-.67.1-1.25a8.65,8.65,0,0,0,.14-1.3c0-.38-.19-1.3-.19-1.63a2.28,2.28,0,0,1,.29-1.15,4.64,4.64,0,0,1,.43-.34,5.75,5.75,0,0,1,1-.14c.19,0,.43.24.53.24l0,2.73a4.43,4.43,0,0,0,.24.48A6.57,6.57,0,0,1,62,95.14c0,.19-.34.38-.34.81,0,.19.1.67.1.86a.5.5,0,0,1-.19.48v1.34c0,.19.19.77.19,1s.14,1,.14,1.25-.19.43-.19.58.34.43.34.62A5.72,5.72,0,0,0,61.51,103.53Zm-7.24,1.68a3.87,3.87,0,0,0-.29.62l0,0a1.53,1.53,0,0,1,.62-.24A.42.42,0,0,1,54.27,105.21Zm.1-.34v-.29h-.19v.29Zm.24,3v-.14l-.38-.14,0,.14Zm.34-6.47s0-.1-.1-.19,0-.14,0-.19a3.92,3.92,0,0,1-.43.38Zm-.2,3.78-.19-.19-.1.14.14.14ZM55,106.6v-.38h-.19v.38Zm4.65.72-.14.1-.14-.14.14-.14Zm.43-.72v.53a.86.86,0,0,1,.24.34,2.94,2.94,0,0,1,.14-.77.43.43,0,0,1,.34.14c0-.09-.29-.14-.72-.24Zm.67-8.73v-.19h-.39v.19Zm-.1,2v-.19h-.29v.19Zm.38-.29a2.51,2.51,0,0,0-.53-.48l.24.24c-.1.1-.14.19-.1.24Zm-.19-3.31c.1,0,.1-.1.1-.14s-.1-.14-.34-.19a.43.43,0,0,0-.14.34,1,1,0,0,0,.29.34s0-.1,0-.19a.37.37,0,0,1,0-.14,0,0,0,0,1,0,0h0Zm-.1,8.25v-.19h-.28v.19Zm0-9c0,.24.1.34.29.34s.1-.19.14-.34Zm.48.77a.79.79,0,0,0-.24.62.7.7,0,0,1,.38-.24.77.77,0,0,0-.14-.38Zm.24,2.11v-.19h-.29v.19Zm0-2.35v-.38h-.19V96Z"/><path id="Path_348" data-name="Path 348" class="cls-1" d="M64,109.48a8.71,8.71,0,0,0-.67-.67,3.66,3.66,0,0,1,.43-.43l-.19-.19c-.1,0-.29.1-.43.1s-.1,0-.14,0a6.67,6.67,0,0,0,.62-.29,7.88,7.88,0,0,0,1.06.86A1.3,1.3,0,0,1,64,109.48Zm-.38-4.17h-.38v-.19h.38ZM64,106l-.29.38-.14-.1.24-.38Zm0,1.92h-.29c.19-.19.34-.43.58-.43C64.09,107.41,64.14,107.89,64,107.89Zm0-.72-.29.14v-.14l.24-.14Zm1.58-2.35a.18.18,0,0,0,0,.14l0,.19c0-.1-.1-.1-.24-.1a.37.37,0,0,0-.24.1c-.14.14-.19.19-.24.19l.19.19.29-.14a2.16,2.16,0,0,1,.1.38.22.22,0,0,1-.14.24,2,2,0,0,1,.29.67l-.24-.24a1.4,1.4,0,0,1-1,.29c.38-.34.53-.53.53-.62l-.1,0a.35.35,0,0,0-.29.19,1.6,1.6,0,0,0-.14-.29c.14-.1.24-.19.34-.19a3.79,3.79,0,0,0-.62-.24.37.37,0,0,1,.24-.1l.24,0a1.07,1.07,0,0,0,.14-.48v-.72c0,.14.29.48.29.62a.18.18,0,0,1,0,.14h.29l.19-.19a3.37,3.37,0,0,0-.34-.53c.38.19.81.34.91.58a.74.74,0,0,1-.38-.09Zm-.81-3.26h-.19v-.29h.19Zm9.21,8v.1a1.3,1.3,0,0,1-.77.24c-.19,0-.14-.24-.34-.24s-.14.14-.24.14-.1,0-.1-.19,0,0-.1,0-.1,0-.1.14,0,0-.14.1a.91.91,0,0,1-.86-.48,10.7,10.7,0,0,1-.38-1.87Q70.6,106,70,106c-.19,0-.14.24-.34.24s-.24-.34-.43-.34-.14,0-.14,0l0,0s0,0-.14,0-.1,0-.1,0,.1-.14.1-.14v0a1.94,1.94,0,0,1-1-.62.8.8,0,0,0-.19.72h-.28a.47.47,0,0,1-.38-.14.86.86,0,0,1-.24.34.61.61,0,0,1,0-.29c0-.1.1-.34.1-.43a.35.35,0,0,0-.19-.29c-.24,0-.72-.1-.91-.1a1,1,0,0,1,.29-.38l0-.14s0-.1-.1-.14a1.06,1.06,0,0,1-.24.19.61.61,0,0,1,.19-.34.44.44,0,0,0-.24-.14s-.1,0-.14,0,0-.14.19-.24a3.82,3.82,0,0,1-.38-.29,2.33,2.33,0,0,0,0,.58c-.14-.1-.19-.14-.29-.14s.1-.14.29-.34a1.12,1.12,0,0,0-.34-.34,1.79,1.79,0,0,1-.38-.29c.1-.1.1-.19.14-.24s.14,0,.29.14a2.19,2.19,0,0,0,.29.19,2.94,2.94,0,0,1,.19-.29c0-.1-.29-.29-.81-.58h0A1.06,1.06,0,0,1,65,102a.9.9,0,0,1-.1-.38.8.8,0,0,1,.43-.81,3.82,3.82,0,0,1-.38-.29.4.4,0,0,0-.1.34.44.44,0,0,1-.29-.19,3.12,3.12,0,0,0,.72-.43l-.14-.14c-.1,0-.1.1-.14.14a2.29,2.29,0,0,1-.24-.58l.34.34s0-.1,0-.24,0-.1.14-.1.19.1.19.1a2.94,2.94,0,0,1,.19-.29l-.19-.14-.53.34a.86.86,0,0,1-.24-.34.74.74,0,0,1,.38.1l.14-.19,0-.14s0-.1-.1-.14a.31.31,0,0,1-.24.1,6.14,6.14,0,0,0-.24-.81,4.41,4.41,0,0,1,.81-.62v-.81c-.1-.1-.19-.1-.43-.1.1-.29.19-.62.34-1a.3.3,0,0,0,.1-.19c0-.1-.1-.19-.43-.29a1.14,1.14,0,0,1,.53-.67c-.24-.24-.34-.38-.34-.53a8.78,8.78,0,0,1,.34-1.63A8.92,8.92,0,0,0,66,90.64c.48-.14.91-.29,1.34-.43A4,4,0,0,1,68.7,90c.38,0,.77.82,1.15,2.49L72.77,105c.14.62.24,1.2.38,1.82.24.91.48,1.44.67,1.49a2.29,2.29,0,0,1,.09,1.25Zm-8.87-5.71-.14.29-.14-.1.14-.29Zm.1-5.94H65l-.14-.24.19,0Zm.19,3.4c-.1.14-.19.29-.34.48a5,5,0,0,0,.58-.34.51.51,0,0,0-.24-.14Zm-.05-3c-.14,0-.19.14-.19.38,0,0,.14,0,.38,0C65.39,98.45,65.29,98.35,65.29,98.26ZM65.63,95l-.1-.1-.29.24.1.14Zm.19,11-.43.14V106l.38-.14Zm.34-2.78-.29.24.1.14.29-.29Zm.19.58h-.43a2.15,2.15,0,0,0,.62.48,1,1,0,0,1-.19-.48Zm3-3.74c-.43-1.25-.81-1.87-1.29-1.87s-1,.67-1.2,2a6.94,6.94,0,0,1-.81,2.73c.14.1.34.29.62.53l-.19.24.48.29.24-.24c.34,0,1.15.24,1.49.24a1.06,1.06,0,0,0,.77-.48,1.35,1.35,0,0,0,.38-.91A8,8,0,0,0,69.32,100.08Zm-.81-3.16-.1-.1-.29.24.1.14Zm.29,8.34-.14,0,.14.24H69Zm1.39,0H70v.38h.19Z"/><path id="Path_349" data-name="Path 349" class="cls-1" d="M83.18,109.67a1.48,1.48,0,0,1-.43-.19.22.22,0,0,0-.24,0,1.22,1.22,0,0,1-.34.1q-.29,0-.57-.43a2.3,2.3,0,0,1-.24-.53c.1,0,.14-.1.14-.29a11.77,11.77,0,0,0-.34-1.44c0-.1.14-.19.24-.34l-.1-.14s-.14.29-.24.29a2.9,2.9,0,0,0,.19-1.06,5.91,5.91,0,0,0-.34-.91,10.49,10.49,0,0,1-.38-1.29,11.93,11.93,0,0,0-.38-1.63c-.29-.67-.62-1-1.1-1-.19,0-.67.19-.86.19s0,.1,0,.29a1.14,1.14,0,0,0-.29.53,3,3,0,0,1,.14.72c0,.29-.19.48-.19.72a26.11,26.11,0,0,0,.24,3,.65.65,0,0,1,0,.43,2.85,2.85,0,0,0,0,.53,1.08,1.08,0,0,0,.43,1c0,.1-.1.19-.19.38a.83.83,0,0,0,0,.72,1.51,1.51,0,0,1-1.2.81,2.25,2.25,0,0,1-1.25-.38q-.14-.07-.29-.72c0-.1-.14-.19-.24-.34s.1-.24.19-.43c0-.38-.1-1.49-.14-3.4l-.14-.14a1.83,1.83,0,0,0,.19-.81c0-.72,0-1.77,0-3.21s0-2.54,0-3.31,0-1.68-.1-2.49c0-.53,0-1.25-.1-2.3-.14-.19-.19-.29-.19-.38,0-1.06.34-1.58,1.06-1.58.19,0,.38.1.53.1s.34-.34.53-.34a4,4,0,0,1,.86.19l.86.14c.19,0,.53-.34.77-.34s.34.29.34.29a3.78,3.78,0,0,1,1,.1c.24.1.53.19,1,.34a4.9,4.9,0,0,0,.86.86c.14.29.43.86.91,1.68-.1-.1-.14-.1-.19,0a2.88,2.88,0,0,0-.1,1,1,1,0,0,1,.14.24,14.47,14.47,0,0,1-.14,2.88,7.65,7.65,0,0,1-1.06,2.4,1.05,1.05,0,0,0-.29.24q.07.36.86,3a3,3,0,0,0,.1.86,4.17,4.17,0,0,1,.19,1c.82,2.21,1.25,3.31,1.25,3.31C84.52,109.19,83.8,109.67,83.18,109.67ZM81.31,96.15a3.87,3.87,0,0,1,.14-.91c-.14-.19-.19-.34-.14-.38s.24-.24.14-.48a6.79,6.79,0,0,1-.38-.86c-.24-.43-.43-.62-.67-.62s0,.14-.24.14-.1-.34-.57-.34a5,5,0,0,0-1.44.34,1.47,1.47,0,0,0-.62,1A8.2,8.2,0,0,0,77.38,96a7,7,0,0,0,.34,1.87c.1.14.24.34.43.62a3.53,3.53,0,0,0,1.29.29,2,2,0,0,0,1.1-.48c.1-.1.48-.43,1.1-1.06A1.73,1.73,0,0,1,81.31,96.15Zm.38,10.31-.14,0-.14.29.19,0Zm.43-.1v-.29h-.2v.29Z"/><path id="Path_350" data-name="Path 350" class="cls-1" d="M93,109.76a.69.69,0,0,0-.34-.1.3.3,0,0,0-.29.24,5.43,5.43,0,0,0-1-.43,1,1,0,0,0-.29.19s0,.14,0,.34a1,1,0,0,1-.43-.24,1,1,0,0,0-.48-.19c-.19,0-.53.24-.72.24a3.34,3.34,0,0,1-.67-.14,2.44,2.44,0,0,0-.67-.19c-.19,0,.1.24-.1.24s-.72-.24-.86-.24-.29.34-.48.34-.72-.24-.82-.24c0-.38,0-.91,0-1.68s0-1.29,0-1.58c.1,0,.14,0,.19-.1s-.14-.1-.19-.1v-2.72s0-.38.1-1a10.89,10.89,0,0,0,.14-1.44,11.91,11.91,0,0,1,0-1.73c0-.67,0-1.63.1-3,.1-1.53.1-2.4.1-2.64s0-.72,0-1.25c0-.24,0-.72.1-1.39a1.48,1.48,0,0,0-.1-.82c.67,0,1,0,1.1.1a.77.77,0,0,1,.53-.24c.19,0,.91.24,1.2.24a3,3,0,0,1,.34.82l-1.2,15.72c.1,0,0,.29.24.29s0-.1.24-.1.38.24.62.62l.29-.19a.43.43,0,0,1,.34-.14,5.58,5.58,0,0,1,.77.14,3.89,3.89,0,0,0,.82.1c.1,0,.29,0,.62,0s.53-.1.62-.1h.77a3.06,3.06,0,0,1,.24,1.15C93.82,109.19,93.39,109.76,93,109.76Zm-5.94-3.21-.14-.34-.14.1.14.24Zm.19.67-.43-.14v.14l.34.14Zm3.21,1.39v-.19h-.53v.19Z"/><path id="Path_351" data-name="Path 351" class="cls-1" d="M95.69,92.12H95.5l-.14-.29.14,0Zm2.11,9.3a2.21,2.21,0,0,1,.38.81,8.53,8.53,0,0,0-.34.81,3.42,3.42,0,0,0-.34,1.39,3.26,3.26,0,0,0,.34,1.39,5.26,5.26,0,0,1,.34.81,1.69,1.69,0,0,1-.34.67c-.24.34-.38.53-.38.67h-.14c-.14,0-.29,0-.43-.1s-.1.1-.1.14,0,.1.1.19-.1-.1-.24-.1a.83.83,0,0,0-.53.29,1.35,1.35,0,0,0,.34.53,1.14,1.14,0,0,0-.57.14c0,.14.14.29.38.48a.81.81,0,0,1,.48-.14,1.71,1.71,0,0,1,1,.53l-1.44.38h-.48a1.77,1.77,0,0,1-.34-1.1c0-.38.19-1.2.19-1.53a1.33,1.33,0,0,0-.14-.62c-.1,0-.1-.1-.1-.14a5,5,0,0,1,.29-.77,24.45,24.45,0,0,0,.1-3c0-.19,0-.53,0-1.06a3.82,3.82,0,0,0,0-1.06.35.35,0,0,0,.29-.34,1.85,1.85,0,0,0-.29-1,.9.9,0,0,0,.1-.38c0-.29-.14-.91-.14-1.2a.83.83,0,0,1,.24-.62l-.43-.43a3.48,3.48,0,0,0,.24-.58,1.55,1.55,0,0,1-.1-.43v0a.68.68,0,0,0,.34-.67s0-.1-.1-.1-.24.19-.29.19a3.13,3.13,0,0,0,.1-.53c0-.43-.29-.62-.29-.81s.34-.58.34-.86,0-.29,0-.48a3.46,3.46,0,0,1,.14-.38,2.41,2.41,0,0,0-.43-1.25,3.18,3.18,0,0,1,.38-.82c.14-.19.43-.24.82-.24a.46.46,0,0,1,.48.34.36.36,0,0,0,.1-.19,1.59,1.59,0,0,1,.72.19l.34-.19a1,1,0,0,1-.29.38.72.72,0,0,1,.19.53c0,.29-.24.67-.24.86a.77.77,0,0,0,.14.43l-.86.24a1.54,1.54,0,0,0,.77.1,2.2,2.2,0,0,0,.34,1.05l-.14,0c-.1.14-.24.29-.38.48v1.25c.1,0,.14.1.24.1,0,.19-.14.62-.14.81s.1.24.29.29A7.48,7.48,0,0,0,98,98.83s.1.29.1.34a2.11,2.11,0,0,1,.1.48.41.41,0,0,1-.1.29,3.19,3.19,0,0,0,.38.86c-.25.05-.44.29-.68.63Zm-.19-8.15-.14,0-.14.29.14.1Zm.19-2.73,0-.14-.38.14v.14Zm0,15.63-.14-.19.1-.14.19.19ZM97.95,94v-.28h-.19V94Z"/><path id="Path_352" data-name="Path 352" class="cls-1" d="M108.92,99.84c-.1,0-.19,0-.34,0,.29.14.43.29.38.34v5.23a9.43,9.43,0,0,0,.19,1.58,9.75,9.75,0,0,1,.19,1.68c0,1-.34,1.06-1.29,1.06a2.08,2.08,0,0,1-1.53-.77,11.33,11.33,0,0,1-.38-1.63,7.24,7.24,0,0,1-.53-1.49q-.5-3.16-2.16-3.16c-.1,0-.19.1-.38.29l-.29.43a.43.43,0,0,1,0,.24c0,.53-.43.77-.72,1.06,0,0,0,0,.1,0s.48-.19.67-.19v4.51a2.8,2.8,0,0,1-.24.62,3.17,3.17,0,0,1-.72,0,5.31,5.31,0,0,1-1.15,0,.82.82,0,0,1-.67-.81l.14-18.8.14.1.1-.1s.1,0,.19,0c.29,0,.91-.14,1.1-.14-.14,0,.19,0,.86.14a2.07,2.07,0,0,1,.72,1.39v.24a.64.64,0,0,0,0,.24,2,2,0,0,0,.14.77,1.88,1.88,0,0,1,.29.62c0,.34-.29.43-.53.57a.18.18,0,0,0,.14,0c.1,0,.19,0,.34,0a4.57,4.57,0,0,1,.62,1.25c.24.67.43,1,.48,1s.24-.1.29-.1-.1.14-.24.29c.14.14.29.34.53.58,0,0,0-.1.1-.19s.1,0,.19,0,.14,0,.14,0v0s0,0,.1,0,.19-.1.14-.19.19.1.38.34c.14-.19.29-.43.48-.72a9.59,9.59,0,0,0,.19-1.44c0-.24-.19-.81-.19-1.06v0a1.53,1.53,0,0,0,.34-.29.36.36,0,0,1,0-.19.49.49,0,0,1,.24-.38l0,0q0,.57.72.58c.1,0,.29,0,.34,0s.14,0,.19,0,.14-.34.19-.53c.34.34.53.58.53.72s-.14.62-.14.77c-.19,0-.29-.1-.34-.1s-.14,0-.19,0,0,.29.24.29a1.49,1.49,0,0,0,.34-.1.18.18,0,0,0,0,.14c0,.1,0,.43,0,.53a.79.79,0,0,1-.24.58v3.84a1.83,1.83,0,0,0,.43.43C109.21,99.89,109.07,99.84,108.92,99.84Zm-6.09-2.78-.29-.15,0,.19.29.14Zm2.25,8.15s0,0,0-.14v-.14a2.08,2.08,0,0,1,0-.24q.29.29.29.43a.68.68,0,0,1-.29.1Zm3.55.38-.33-.38c-.19,0-.34-.19-.38-.19s0,.1-.14.1a.84.84,0,0,1-.29,0c-.1,0-.19,0-.19,0a2.37,2.37,0,0,1,0-.72l0-.1h0a.18.18,0,0,1-.14,0l.19-.14a1,1,0,0,1,.34.86,2.5,2.5,0,0,0,.29-.67c.1,0,.14,0,.14.1s-.1.24-.1.29a1,1,0,0,0,.38-.29.15.15,0,0,1-.1,0c-.14,0-.14-.14-.14-.43-.1,0-.24.19-.34.19s0,0-.1,0a3.71,3.71,0,0,1,.48-.58.81.81,0,0,0,.29.29,1.35,1.35,0,0,0,.19-.53,1,1,0,0,1-.38.14l-.14-.1c.14-.1.24-.14.24-.24s0-.29,0-.24a.26.26,0,0,1-.24.1.25.25,0,0,1-.29-.29c0-.14.1-.48.1-.62.14.14.24.19.29.19v.29c0-.1.19-.38.19-.58l-.43-.14v-.48l.19-.19a1.32,1.32,0,0,0,.38.29.89.89,0,0,1-.24-.48q.14-1.58.14-1.44v-.15l-.19.14s-.1,0-.1-.1.29-.77.43-1a.76.76,0,0,1-.24-.38.59.59,0,0,1-.43.14.64.64,0,0,1-.48-.14.36.36,0,0,1,0,.19c0,.58-.62,1-1,1.39a1.31,1.31,0,0,1,.62.62l-.29.14s0,0,0,.1-.1.19-.24.38-.34.34-.34.38v.38c.1,0,.14,0,.19.1a1.39,1.39,0,0,0-.43.67c.38.34.53.58.53.77s-.14.29-.43.53c.19.1.29.34.29.77a1,1,0,0,1-.19.58c.19,0,.34.14.38.38a.52.52,0,0,0,.53.38c.1,0,.19-.1.34-.24,0,0,0,.1,0,.24s0,.1.14.1H108c0-.24,0-.34.14-.34s.14.19.24.34a.72.72,0,0,1,.29-.14v-.24Zm-2,1.15v-.19h-.53v.19Zm.24-3.6-.1.14-.34-.14V103Zm2.35-11.27H109c-.14,0-.43-.1-.53-.1s-.38,0-.43.14v.43a1,1,0,0,1-.14.43s0,0,.1,0a1.33,1.33,0,0,1-.67-.43.66.66,0,0,0,.14-.19l0-.1c-.29.19-.34.24-.38.53a2.36,2.36,0,0,1-.34-1.1,1.45,1.45,0,0,1,.34-1.06,1.94,1.94,0,0,1,1.1-.19,2,2,0,0,1,1.25.43,9.43,9.43,0,0,0-.14,1.16Zm-2.11,13.23-.34.14v-.14l.24-.14Zm.14-2H107v-.19h.29Zm0-.58h-.19v-.38h.19Zm.29-3.07h-.29v-.19h.29Zm0-2.54v-.38h-.19v.38Zm.29,1.87-.43.14v-.19l.38-.14Zm.57-3c-.14,0-.24,0-.38,0l.24.14c-.1.1-.14.14-.14.19s0,0,.1.1l.1-.1.1.1-.29.14v0a.36.36,0,0,0,0,.19v.14a.44.44,0,0,1-.14.24c-.14-.14-.24-.24-.24-.29,0,.19-.24.43-.24.48.48,0,.77-.24.86-.53s.19-.58.29-.81c-.06-.1-.16-.1-.3-.1Zm-.34,3.64H108l-.14-.38.14-.1Zm.67-6.76a.7.7,0,0,0-.29,0s0,.1.1.14c-.1-.1-.19-.1-.38-.1l.14-.53a.36.36,0,0,0,.19,0,1.09,1.09,0,0,0,.53-.14c-.05.34-.15.53-.29.53Zm.1,14.1-.19-.19-.1.14.14.14Z"/><path id="Path_353" data-name="Path 353" class="cls-1" d="M112.9,102.14a1.36,1.36,0,0,1-.24-.29.1.1,0,0,1,.1-.1h0l-.19-.14a1,1,0,0,0-.53.43,1.46,1.46,0,0,1-.48-.62,6.21,6.21,0,0,1-.57.34c0-.19-.14-.72-.14-.91s0-.62.1-1.1.1-.86.1-1.06a2.75,2.75,0,0,0,.34-.19.35.35,0,0,1-.1-.29.45.45,0,0,1,.34-.43,2,2,0,0,0,.67.86.39.39,0,0,0,.24-.43c0-.19-.53-.72-.53-.91a.82.82,0,0,1,.38-.58,2.19,2.19,0,0,0,.82.34,17.11,17.11,0,0,0-.14,2.59c0,.1.24.62.24.81A4.54,4.54,0,0,1,112.9,102.14Zm6-2.64a.49.49,0,0,1-.19.34s0,0,0,0a.15.15,0,0,0,.14-.14,9.68,9.68,0,0,1-.14,1.58.37.37,0,0,0-.1.14v0s0,.1.14.19a1.63,1.63,0,0,0-.1.67,1.7,1.7,0,0,0,0,.29c-.1.1-.14.14-.19.14a2.43,2.43,0,0,0-.1-.43c-.14.1-.29.14-.48.29,0,0,.1.1.14.24a.26.26,0,0,0,.24.14c.19,0,.24-.1.24-.1v.48s-.14-.1-.38-.29c-.19.19-.29.29-.29.43a2.47,2.47,0,0,1-.53-.1l-.29.29a.18.18,0,0,0,.14,0c.14,0,.43-.1.57-.1s.14,0,.14,0a.15.15,0,0,0,0,.1s0,.1,0,.1l.34-.34a.74.74,0,0,0,.34.53h0a.1.1,0,0,1,.1.1h0a.43.43,0,0,1-.14.34c.14.14.24.19.29.19v.81a6.09,6.09,0,0,1-.34,2,13.69,13.69,0,0,0-.77,1.2,2.42,2.42,0,0,0-.62.38c-.38.29-.57.43-.62.48-.29,0-.67.14-1.15.24a1.16,1.16,0,0,0-.62-.77h-.14a.86.86,0,0,1-.43-.19,3.3,3.3,0,0,0-.14.38.82.82,0,0,0-.57.38.71.71,0,0,0-.38-.67c-.1.14-.29.14-.29.34-.1,0-.38-.24-.48-.14l.14-.24q-.22-.57-.43-.58a1,1,0,0,0-.34.1,14,14,0,0,1-.86-1.44,2.09,2.09,0,0,1,.72-.38c.14,0,.43.24.62.24s.53-.1.62-.34a1.19,1.19,0,0,1,.34.43c.29.48.19.48.48.58a.18.18,0,0,1,0,.14.37.37,0,0,1-.1.24l-.24-.24s-.1.1-.1.14V108a4.86,4.86,0,0,1,.91.43c.1-.1.19-.24.38-.43v.1a.25.25,0,0,1-.1.19,5.71,5.71,0,0,1,.82.48l.19-.19a2.75,2.75,0,0,1-.34-.19V108c.14,0,.24-.1.34-.24a.36.36,0,0,1,0,.24.44.44,0,0,1-.19.38.18.18,0,0,0,.14,0,1.22,1.22,0,0,0,.34-.1.41.41,0,0,1,.34,0,.59.59,0,0,0,.19-.43,1.44,1.44,0,0,1,.19-.62,1.81,1.81,0,0,0,.19-.58.43.43,0,0,0,.14.34c.1,0,.14-.1.14-.19h.62s-.1.14-.1.19,0,.1.1.14l.1-.58a.68.68,0,0,0-.29-.1,1.4,1.4,0,0,0-.43.1l-.24-.24c-.1,0-.1.1-.1.19v-.19c0-.1,0-.14,0-.19h.19a3.3,3.3,0,0,1,.62.1c.1-.1.1-.38.19-.38s0,0-.1,0-.53.19-.67.19a5.62,5.62,0,0,1,.53-.24l-.19-.19a.31.31,0,0,1-.24.1.59.59,0,0,1,.14-.43c.1.1.14.1.19.1s.1,0,.14,0v-.14s0-.1-.1-.14a.35.35,0,0,1-.29.1H117v-.55l.24,0a.25.25,0,0,0,.19-.1.18.18,0,0,1,0-.14s0,0-.14,0c-.29,0-.34-.19-.34-.38a1.27,1.27,0,0,0,0-.34c0-.1-.24-.19-.24-.38s0,0,0,0a.47.47,0,0,0,.19-.43c0-.29-.29-1.06-.29-1.34,0-.1.1-.14.19-.29a1,1,0,0,0-.38-.29c-.14,0-.24.1-.19.19,0-.14-.24-.29-.57-.34a.76.76,0,0,1-.57-.81,3.11,3.11,0,0,1,.38-1.49,26.8,26.8,0,0,1,3.26.24.35.35,0,0,0,.19.29V99c0,.14,0,.34-.19.67Zm-.1-5.56a4,4,0,0,1-.48.1c-.19,0-.29-.14-.34-.14s-.14.24-.34.24-.77-.29-1-.29a.57.57,0,0,0,.19-.38c0-.24-.14-.34-.38-.38a2.53,2.53,0,0,0-.29-.62,2.19,2.19,0,0,0-.72-.24.59.59,0,0,1-.14-.43c0-.1-.1-.19-.29-.19a.25.25,0,0,0-.1.19.74.74,0,0,1,.1.38.4.4,0,0,0-.34-.1,1.73,1.73,0,0,0-.72.38c-.14,0-.29.24-.48.58s-.34.53-.48.53a.52.52,0,0,1,.1.38c0,.29-.24.77-.24,1a1,1,0,0,1-.57-.53q-.14,0-.43.29c0-.1.1-.14.1-.19a1,1,0,0,0-.1-.29l-.34.34-.34-.34a.81.81,0,0,1-.29.29V93.32a.47.47,0,0,0,.43-.19.36.36,0,0,0-.19-.1,1.52,1.52,0,0,0,.19-.77c0-.1.29-.19.29-.38l.24.24a.64.64,0,0,0,.14-.38,2.08,2.08,0,0,0,0-.24c.1,0,.34-.29.82-.77l0,.14c0,.1,0,.14.1.24.38-.58.77-.86,1.1-.86a.59.59,0,0,1,.48.24c0-.1.14-.19.24-.34l.62.24a.4.4,0,0,0,.1-.34l.24.19.14-.1.24.24a6.4,6.4,0,0,1,1.58.58,2.12,2.12,0,0,1,.24.43l.48.19a.36.36,0,0,0,0,.19,4.37,4.37,0,0,1,.57,1.63c.09,0-.1.34,0,.54ZM112,103a.83.83,0,0,0-.57-.14.94.94,0,0,1,.19-.38c-.14-.1-.19-.14-.29-.14s-.19,0-.19,0l0,.14a.59.59,0,0,0-.14-.43h.14c.1,0,.19,0,.24.1s.14-.1.14-.19.14.14.43.29a3.31,3.31,0,0,0,.19.48C112.09,102.86,112,102.91,112,103Zm0-9.49v-.19h-.38v.19Zm.24,1.92-.1.1-.19-.14.14-.14Zm0,10.79h-.19v-.38h.19Zm.48-.38-.62-.24,0-.19.57.24Zm-.38-14.29c0,.19.14.24.14.29A6.79,6.79,0,0,1,113,91c-.39.14-.53.34-.53.53Zm.91.43c-.14,0-.38.14-.48.14a2.52,2.52,0,0,0,0,.82c.29-.24.43-.43.43-.53s-.1-.14-.1-.19,0,0,0-.1h0c.1,0,.14,0,.24-.14Zm-.14,16.21L113,108l-.1.1.14.19ZM113,95.91c0-.1,0-.19-.14-.29a1.74,1.74,0,0,1,.34-.14c0,.1-.1.43-.19.43Zm.82-4.89-.19,0-.14.29.14,0Zm1-.43a.47.47,0,0,1-.38-.14.5.5,0,0,1-.38.24v.53a3.12,3.12,0,0,0,.72-.24v-.38Zm.86.86v-.19h-.38v.19Zm.1,17-.1.14.14.14.14-.1ZM116,91.78v-.19h-.29v.19Zm1.2,7.14c-.1,0-.38.14-.53.14s.1.24.24.38.14,0,.29-.14Zm.19,2.11-.19-.1-.24.38.14.1Zm-.24,2.4v-.38H117v.38Zm.34-4.17a.49.49,0,0,0-.24.29s.1-.1.29-.1.29.29.38.29c-.15-.14-.3-.34-.44-.48Zm.1-6.62c0,.1-.1.1-.29.1.19.19.29.24.43.24a.44.44,0,0,1-.16-.34Zm.38,8a.79.79,0,0,0-.62-.24c0,.19.29.34.29.34a.26.26,0,0,0-.1.24v0Zm-.43.62a1,1,0,0,1,.19.29,1.88,1.88,0,0,0,.19-.67Z"/><path id="Path_354" data-name="Path 354" class="cls-1" d="M129.68,108.8a3.3,3.3,0,0,1-.24.86.7.7,0,0,1-.67.48c-.19,0-.72-.34-.91-.34s-.19.1-.34.24l-.24-.24a2,2,0,0,1-.53,0,3.87,3.87,0,0,1-.91-.14,4.75,4.75,0,0,0-.91-.14c-.14,0-.14.1-.14.29,0,0-.1-.14-.24-.29a1.19,1.19,0,0,1-.91.34,3.17,3.17,0,0,1-.53,0,.9.9,0,0,0-.53,0l0,0c0-.1-.1-.14-.24-.14s-.14.24-.29.24a6.87,6.87,0,0,0-1-.24l-.48-14.14c0-.77-.1-1.53-.19-2.4s-.14-1.44-.14-1.49a2.79,2.79,0,0,1,.43-1.2,1.38,1.38,0,0,1,.57-.1l5.27-.19c.29,0,.91-.14,1.2-.14.62,0,1,.14,1.2.48a2.29,2.29,0,0,1,.24,1.34c0,.91-.29,1.25-1.15,1.25-.48,0-1.2,0-2.21,0s-1.68-.1-2.21-.1c-.19,0-.38.19-.62.62a1.8,1.8,0,0,0-.34.86.25.25,0,0,0,.19.24,17.55,17.55,0,0,1,.1,2.06.43.43,0,0,1-.14.34,3.46,3.46,0,0,1,.1,1.15c.14.14.19.19.29.19s.24-.14.38-.14.48.34.67.34.82,0,1.44,0,1.15-.1,1.44-.1.67.38.67,1.15a3.85,3.85,0,0,1-.1,1.1.9.9,0,0,1-.91.43c-.38,0-1.34-.1-1.73-.1a3.12,3.12,0,0,0-.86.19,1.79,1.79,0,0,0-.82.29,2.17,2.17,0,0,0-.29,1,5.8,5.8,0,0,0-.19,1,1.27,1.27,0,0,1,.1.53,7.23,7.23,0,0,1-.24,1.34v0c0,.1-.1.29-.1.38a1.65,1.65,0,0,0,.19.62,6.24,6.24,0,0,1,.24.67l-.19.14v.38l.19.1s0,0,0-.1,0-.24,0-.34h.38a2.7,2.7,0,0,1,.34,1c.19-.1.1-.38.19-.43s0,0,.1.19,0,.24.1.24l.24-.19v.14a.4.4,0,0,0,.1.29,1.62,1.62,0,0,1,.38-.14l-.19-.1v-.4c.19,0,.53-.43.53-.43v.53a2.08,2.08,0,0,0,0,.24.72.72,0,0,0,.19-.38q.72-.22.86-.58c.1.19.24.43.43.43s.43-.24.53-.24a4.43,4.43,0,0,1,1.53-.19c.24,0,.43.24.57.67s.29.72.43.77C129.92,108.56,129.83,108.66,129.68,108.8Zm-6.81.14-.14-.19-.14.1.19.19Zm1.34.29c0-.1,0-.14,0-.19a.64.64,0,0,0-.34.14.7.7,0,0,0,.38.24c-.1,0-.1-.1-.1-.19Zm.34-.19c-.14,0-.19.1-.19.34l.43,0Z"/><path id="Path_355" data-name="Path 355" class="cls-1" d="M139.8,99.84c-.1,0-.19,0-.34,0,.29.14.43.29.38.34v5.23A9.43,9.43,0,0,0,140,107a9.75,9.75,0,0,1,.19,1.68c0,1-.34,1.06-1.29,1.06a2.08,2.08,0,0,1-1.53-.77,11.33,11.33,0,0,1-.38-1.63,7.24,7.24,0,0,1-.53-1.49q-.5-3.16-2.16-3.16c-.1,0-.19.1-.38.29l-.29.43a.43.43,0,0,1,0,.24c0,.53-.43.77-.72,1.06,0,0,0,0,.1,0s.48-.19.67-.19v4.51a2.8,2.8,0,0,1-.24.62,3.18,3.18,0,0,1-.72,0,5.31,5.31,0,0,1-1.15,0,.82.82,0,0,1-.67-.81l.14-18.8.14.1.1-.1s.1,0,.19,0c.29,0,.91-.14,1.1-.14-.14,0,.19,0,.86.14a2.07,2.07,0,0,1,.72,1.39v.24a.64.64,0,0,0,0,.24,2,2,0,0,0,.14.77,1.88,1.88,0,0,1,.29.62c0,.34-.29.43-.53.57a.18.18,0,0,0,.14,0c.1,0,.19,0,.34,0a4.57,4.57,0,0,1,.62,1.25c.24.67.43,1,.48,1s.24-.1.29-.1-.1.14-.24.29c.14.14.29.34.53.58,0,0,0-.1.1-.19s.1,0,.19,0,.14,0,.14,0v0s0,0,.1,0,.19-.1.14-.19.19.1.38.34c.14-.19.29-.43.48-.72a9.59,9.59,0,0,0,.19-1.44c0-.24-.19-.81-.19-1.06v0a1.53,1.53,0,0,0,.34-.29.36.36,0,0,1,0-.19.49.49,0,0,1,.24-.38l0,0q0,.57.72.58c.1,0,.29,0,.34,0s.14,0,.19,0,.14-.34.19-.53c.34.34.53.58.53.72s-.14.62-.14.77c-.19,0-.29-.1-.34-.1s-.14,0-.19,0,0,.29.24.29a1.49,1.49,0,0,0,.34-.1.18.18,0,0,0,0,.14c0,.1,0,.43,0,.53a.79.79,0,0,1-.24.58v3.84a1.83,1.83,0,0,0,.43.43C140.09,99.89,139.95,99.84,139.8,99.84Zm-6.09-2.78-.29-.15,0,.2.29.14Zm2.25,8.15s0,0,0-.14v-.14a2.07,2.07,0,0,1,0-.24q.29.29.29.43l-.29.1Zm3.5.38-.34-.38c-.19,0-.34-.19-.38-.19s0,.1-.14.1a.84.84,0,0,1-.29,0c-.1,0-.19,0-.19,0a2.38,2.38,0,0,1,0-.72l0-.1h0a.18.18,0,0,1-.14,0l.19-.14a1,1,0,0,1,.34.86,2.5,2.5,0,0,0,.29-.67c.1,0,.14,0,.14.1s-.1.24-.1.29a1,1,0,0,0,.38-.29.15.15,0,0,1-.1,0c-.14,0-.14-.14-.14-.43-.1,0-.24.19-.34.19s0,0-.1,0a3.71,3.71,0,0,1,.48-.58.81.81,0,0,0,.29.29,1.35,1.35,0,0,0,.19-.53,1,1,0,0,1-.38.14l-.14-.1c.14-.1.24-.14.24-.24s0-.29,0-.24a.26.26,0,0,1-.24.1.25.25,0,0,1-.29-.29c0-.14.1-.48.1-.62.14.14.24.19.29.19v.29c0-.1.19-.38.19-.58l-.43-.14v-.48l.19-.19a1.32,1.32,0,0,0,.38.29A.89.89,0,0,1,139,101q.14-1.58.14-1.44v-.15l-.19.14s-.1,0-.1-.1.29-.77.43-1a.76.76,0,0,1-.24-.38.59.59,0,0,1-.43.14.64.64,0,0,1-.48-.14.36.36,0,0,1,0,.19c0,.58-.62,1-1,1.39a1.31,1.31,0,0,1,.62.62l-.29.14s0,0,0,.1-.1.19-.24.38-.34.34-.34.38v.38c.1,0,.14,0,.19.1a1.39,1.39,0,0,0-.43.67c.38.34.53.58.53.77s-.14.29-.43.53c.19.1.29.34.29.77a1,1,0,0,1-.19.58c.19,0,.34.14.38.38a.52.52,0,0,0,.53.38c.1,0,.19-.1.34-.24,0,0,0,.1,0,.24s0,.1.14.1h.53c0-.24,0-.34.14-.34s.14.19.24.34a.72.72,0,0,1,.29-.14v-.24Zm-1.92,1.15v-.19H137v.19Zm.24-3.6-.1.14-.34-.14V103Zm2.3-11.27h-.24c-.14,0-.43-.1-.53-.1s-.38,0-.43.14v.43a1,1,0,0,1-.14.43s0,0,.1,0a1.33,1.33,0,0,1-.67-.43.66.66,0,0,0,.14-.19l0-.1c-.29.19-.34.24-.38.53a2.36,2.36,0,0,1-.34-1.1,1.45,1.45,0,0,1,.34-1.06,1.94,1.94,0,0,1,1.1-.19,2,2,0,0,1,1.25.43c0,.3-.14.87-.14,1.16ZM138,105.11l-.34.14v-.14l.24-.14Zm.19-2h-.29v-.19h.29Zm0-.58h-.19v-.38h.19Zm.24-3.07h-.28v-.19h.29Zm.1-2.54v-.38h-.19v.38Zm.29,1.87-.43.14v-.19l.38-.14Zm.57-3c-.14,0-.24,0-.38,0l.24.14c-.1.1-.14.14-.14.19s0,0,.1.1l.1-.1.1.1-.29.14v0a.36.36,0,0,0,0,.19v.14A.44.44,0,0,1,139,97c-.14-.14-.24-.24-.24-.29,0,.19-.24.43-.24.48.48,0,.77-.24.86-.53s.19-.58.29-.81a.35.35,0,0,0-.3-.1ZM139,99.4h-.14L138.7,99l.14-.1Zm.62-6.76a.7.7,0,0,0-.29,0s0,.1.1.14c-.1-.1-.19-.1-.38-.1l.14-.53a.36.36,0,0,0,.19,0,1.09,1.09,0,0,0,.53-.14c0,.34-.1.53-.3.53Zm.1,14.1-.19-.19-.1.14.14.14Z"/></g><g id="Group_377" data-name="Group 377"><g id="Group_326" data-name="Group 326"><path id="Path_356" data-name="Path 356" class="cls-1" d="M52,120.94c.14-.14.1-.53-.38-.48a4.38,4.38,0,0,1-.38.62Z"/></g><g id="Group_327" data-name="Group 327"><path id="Path_357" data-name="Path 357" class="cls-1" d="M49.42,119.11a6.16,6.16,0,0,0-.91.19.66.66,0,0,0-.53.62,3,3,0,0,1,.82-.1,1.8,1.8,0,0,0,.81-.24c.43.1.62.43.53.62.19-.1.67.34,1,0a2.2,2.2,0,0,0-1.92-.71C49.14,119.31,49.33,119.21,49.42,119.11Z"/></g><g id="Group_328" data-name="Group 328"><path id="Path_358" data-name="Path 358" class="cls-1" d="M48.18,82.48l-.19.14S48.13,82.53,48.18,82.48Z"/></g><g id="Group_329" data-name="Group 329"><path id="Path_359" data-name="Path 359" class="cls-1" d="M70.66,80.9a.32.32,0,0,0-.29.14C70.57,81,70.71,80.95,70.66,80.9Z"/></g><g id="Group_330" data-name="Group 330"><path id="Path_360" data-name="Path 360" class="cls-1" d="M74.74,81.57c-.1,0-.14,0-.24,0C74.6,81.62,74.69,81.62,74.74,81.57Z"/></g><g id="Group_331" data-name="Group 331"><path id="Path_361" data-name="Path 361" class="cls-1" d="M48.18,82.48c.14-.1.34-.19.48-.29C48.56,82,48.37,82.29,48.18,82.48Z"/></g><g id="Group_332" data-name="Group 332"><path id="Path_362" data-name="Path 362" class="cls-1" d="M44.77,115.23a1,1,0,0,0,.24.38,3.3,3.3,0,0,1-.14-.38Z"/></g><g id="Group_333" data-name="Group 333"><path id="Path_363" data-name="Path 363" class="cls-1" d="M47.7,92.22v.19c.1,0,.14.1.24.14Z"/></g><g id="Group_334" data-name="Group 334"><path id="Path_364" data-name="Path 364" class="cls-1" d="M47.79,100.32c0-.19-.53-.24-.77-.34a.6.6,0,0,1,.38.38A1.35,1.35,0,0,0,47.79,100.32Z"/></g><g id="Group_335" data-name="Group 335"><path id="Path_365" data-name="Path 365" class="cls-1" d="M46.83,113.12l.1.24A.37.37,0,0,1,46.83,113.12Z"/></g><g id="Group_336" data-name="Group 336"><path id="Path_366" data-name="Path 366" class="cls-1" d="M47.79,86.42a.25.25,0,0,0,.19-.1A.36.36,0,0,0,47.79,86.42Z"/></g><g id="Group_337" data-name="Group 337"><path id="Path_367" data-name="Path 367" class="cls-1" d="M61.41,122.19v-.1S61.36,122.19,61.41,122.19Z"/></g><g id="Group_338" data-name="Group 338"><path id="Path_368" data-name="Path 368" class="cls-1" d="M52,119.5l.14,0c0-.1,0-.19,0-.29Z"/></g><g id="Group_339" data-name="Group 339"><path id="Path_369" data-name="Path 369" class="cls-1" d="M82.22,82.29h0C82,82.34,82.12,82.29,82.22,82.29Z"/></g><g id="Group_340" data-name="Group 340"><path id="Path_370" data-name="Path 370" class="cls-1" d="M145.12,85.6c.48-.77.62,1.25,1.15.1-.1,0-.34-.24-.53-.34a.42.42,0,0,0-.34,0C145.32,85.31,145.22,85.36,145.12,85.6Z"/></g><g id="Group_341" data-name="Group 341"><path id="Path_371" data-name="Path 371" class="cls-1" d="M44.77,114.94c0-.14,0-.29,0-.43A3.72,3.72,0,0,0,44.77,114.94Z"/></g><g id="Group_342" data-name="Group 342"><path id="Path_372" data-name="Path 372" class="cls-1" d="M146.27,85.69h0l0-.14C146.32,85.65,146.32,85.65,146.27,85.69Z"/></g><g id="Group_343" data-name="Group 343"><path id="Path_373" data-name="Path 373" class="cls-1" d="M99.43,82a.84.84,0,0,0-.19-.24A1.31,1.31,0,0,1,99.43,82Z"/></g><g id="Group_344" data-name="Group 344"><path id="Path_374" data-name="Path 374" class="cls-1" d="M86.63,81.19l.34.1A.52.52,0,0,0,86.63,81.19Z"/></g><g id="Group_345" data-name="Group 345"><path id="Path_375" data-name="Path 375" class="cls-1" d="M106.1,81.19a.79.79,0,0,0,.48,0,0,0,0,0,0,0,0h0A.45.45,0,0,1,106.1,81.19Z"/></g><g id="Group_346" data-name="Group 346"><path id="Path_376" data-name="Path 376" class="cls-1" d="M113,81.19s-.1-.1-.14-.1a.52.52,0,0,0-.24,0Z"/></g><g id="Group_347" data-name="Group 347"><path id="Path_377" data-name="Path 377" class="cls-1" d="M82.51,121.94a2.91,2.91,0,0,1-.34-.48C82.27,121.8,81.26,121.94,82.51,121.94Z"/></g><g id="Group_348" data-name="Group 348"><path id="Path_378" data-name="Path 378" class="cls-1" d="M45.06,115.18a.38.38,0,0,1-.29-.24.68.68,0,0,0,.1.29C45,115.28,45,115.23,45.06,115.18Z"/></g><g id="Group_349" data-name="Group 349"><path id="Path_379" data-name="Path 379" class="cls-1" d="M106.38,76.92l1.1.1A7.27,7.27,0,0,0,106.38,76.92Z"/></g><g id="Group_350" data-name="Group 350"><path id="Path_380" data-name="Path 380" class="cls-1" d="M132.23,121.85l-.24,0A.21.21,0,0,0,132.23,121.85Z"/></g><g id="Group_351" data-name="Group 351"><path id="Path_381" data-name="Path 381" class="cls-1" d="M110.75,76.92a1.69,1.69,0,0,0,.62.38l.14-.14Z"/></g><g id="Group_353" data-name="Group 353"><path id="Path_383" data-name="Path 383" class="cls-1" d="M74.88,122.71c1.06,0,.48-.67.72-1.1,1.25-.19.58.53,1,.86.77-.19,1.39-.81,2-.81,0,.1.14.14,0,.29.81-.58,2.44,0,3.4-.72,0,0,.1.14.14.19a1.8,1.8,0,0,1-.14-1c.48,0,.86-.43,1.06,0-.29,0-.34.19-.43.34l.48-.19c.43.67-.67.24-.67.72,1-.24,2.06-.77,2.83-.58.14.67-1.73.24-.72.81l-1.15-.24c.86,1-.67-.1.1,1,1.49.19,1.68-.34,3.16-.14.34-.38-.1-.53.24-.91,2.11-.67,1.68,1.63,3.26.77.38-.43.58-1.25,1.68-.81l-.38.72c1.44.1.81-1.06,2.35-.58-.29.29-1.15.24-.91.34,1,.58.72-.43,1.44-.43l.14.67c1.53-.1,3.26-.58,5-.67-.1.19-.38.38,0,.58a21.08,21.08,0,0,1,6.71.48l.81-.58a.21.21,0,0,1,.14.38c.81.19,0-.34.43-.58.48,0,.62.34.34.48,1.44-.48,4.07-1,5.61-.43l-.29.14c1.2.24,1.34-1.15,2.4-.62l-.19.1c2.54.24,5.37-.29,7.34.58.38-.81,2.54.38,2.68-.77,1.44.58,1.06.77,3.07,1.15.53,0,.82-.72,1.49-.81v.57l.91-.62.48.72.62-.14c-.24,0-.53-.29-.48-.43a2.67,2.67,0,0,1,2.44.72l2.35-.48c0,.24-.43.34-.77.48,1.25-.62.24.62,1.39,0-.14-.14.1-.34.1-.48a4.92,4.92,0,0,0,2.83.19l-.19.38a6.28,6.28,0,0,0,1.34,0h.72a7.27,7.27,0,0,0,1-.14,9,9,0,0,0,3.79-1.68c-.48.24-.77.1-.82,0s0-.48.29-.72c.19.1.43.19.62.29,0-.34-.14-.24-.29-.19s-.24,0,0-.48c.38-.29.62-.29.72-.1s.1.48,0,.72a8.17,8.17,0,0,0,.72-1.06c.19,0,.1.34.19.58,0-.34.48-.62.91-1.1a1.67,1.67,0,0,0,.62-1.49h.19a5,5,0,0,1,.19-.48c0-.14.1-.34.14-.48a6,6,0,0,0,.14-.91,4.93,4.93,0,0,0,0-.81v-.62c0-.67-.1-1.29-.14-2.06-.53,0-.43-.67-.86-1.15a18.54,18.54,0,0,0,.53-3.88c-.29-1-.48-.29-.77-.72.48-.1.43-1.49.82-.77a26.81,26.81,0,0,0-.48-4.32c-.19.24-.29.48-.48.34-.1-.38.19-.86.43-.82l0,.1c-.72-2.4,1.44-5.56.43-7.48l0,.1-.53-2c.1-.91.38.53.67-.14-.82-2.16.1-3.4-.43-5.13a1.05,1.05,0,0,0,.38-.72c0-.14,0-.34.1-.53v-.59a5.76,5.76,0,0,0-.86-2.49,10.68,10.68,0,0,0-1.73-2.11c-.62-.62-1.25-1.1-1.77-1.63V78c-.77,0-.67-.53-1.15-.77,0,.29.57.53.14.57a10.53,10.53,0,0,0-2.07-.43l-.53,0h-1.25c-1.06,0-2.06-.1-3.12-.24-2.11-.19-4.22-.53-6.28-.67-1.53-.1-.86,1.77-2.78,1l.53-.62c-3.07.76-6.23-.05-9.21.62.19-.14.19-.34.48-.34-.62-.48-2.35,0-2.35.34-.48,0-.1-.34-.38-.53-.63-.29-1.58.57-1.92.14,0-.1.19-.14.29-.19-.43.24-1.92,0-1.53.48-1.1-.24-2.16.24-3-.1-.57.57-1.92-.29-2.11.57.1-.86-2-.72-2.69-.29.24-.24-.62-.29-.34-.62-.81,0-1.53.19-1.39.62-1.49-1-3,.82-3.84-.47-2.4.48-4.6.77-6.81,1,.1-.86,2.4-.1,2.3-1-2.06.34-3.21,1.1-5.27.91-.53-.1.29-.38.48-.53-2.06.34-4-.1-5.8.38,0-.1.19-.19.38-.24-.34,0-.81-.14-.81.29l.34-.1c.58.57-1.44,1.2-1.49,1.49.67-1.1-1.77-.29-.77-1.73-.24.1-.53.24-.48.53-.38,0-.48-.19-.14-.53-1.29.19-.81.62-2,.62,0-.19.24-.29.38-.48a2.83,2.83,0,0,1-2.16.57c0-.1,0-.24.24-.24-1.68,0-2.88,1-4.75.62.53-.81-.62-.29-.72-1l-1,.19.38.34c-.86,0-1.63.53-2.4.29l.67-.29L70,78.26l.91.29c-.86.38.1.91-1.06.72.24-.1-.86,0-1.34-.43h0a1.81,1.81,0,0,1-1.53.29c-.19-.24.14-.82,0-1-.43.57-2.06.14-2.59.81a.65.65,0,0,0,.14-.62l-.34.48c-.38-.14-.48-.24-.38-.53-1.2-.1.38.91-1.06.53.1,0,0-.1.29-.19-1.44-.19-2.78.29-4.12,0-.38-.72,1.15-.19.72-.77-1.92.14-4,.86-5.85.67l.34.1c-.14.53-.48.38-.91.19-.24,0-.48-.19-.72-.24a1.42,1.42,0,0,0-.77,0c.29-.1.34-.58.29-.48a5.69,5.69,0,0,0-4.7,2.54v-.38a3.37,3.37,0,0,0-1.2,1.15,17.18,17.18,0,0,0-.86,1.53c.14.38,0,.86.43.67a2.13,2.13,0,0,0-.58,1,4.23,4.23,0,0,0-.14,1,10.58,10.58,0,0,0,.19,1.77,4.64,4.64,0,0,1-.14,3.4c0-.34-.19-.72-.19-.48l.24,1.87c.43-.14.29-.24.62-.62a2,2,0,0,1,.48,1.25c-.29-.86-.72,0-1,.38.1-.1.24,0,.38,0-.77,1,.91.14.38,1.53l-.24-.1c.1.53.43,1,.38,1.53-.53.24-.24-.53-.67-.58,0,.77,1,1.49.48,2.21-.14-.34-.14-.82-.29-1.1a1.81,1.81,0,0,0-.53,1.39v0l-.29,1.3.14-.34c1.34,1,.24,2,1.1,3.26-.81-1.25-.48-.19-1.05-.29-.14.34-.34.82-.53.67.48.62-.38,1,.34,1.87-.19,0,0,.67-.48.53.14.82.34-.19.57-.14.62,1.2-.77,2.88.1,4.6.38,1.53,1,1.77,1.29,3.21-.29.48-.67-.38-.67-.38a2.69,2.69,0,0,0,0,2.11c-.19-.14-.29,0-.48.34a.83.83,0,0,0,.43.53c.19.1.24.24.29.67a1.74,1.74,0,0,1-.91-.43,7.29,7.29,0,0,0,1.62,2c-.14.38-.67-.14-1-.34a6.07,6.07,0,0,0,.53.62,6.81,6.81,0,0,0,.62.58,1.42,1.42,0,0,0,1.15.38l-.29-.53c.24.19-.19.43-.43.34a.88.88,0,0,1-.62-.62.8.8,0,0,1,.14-.48c.14.14.29.24.43.38a.76.76,0,0,0,0-.72,2,2,0,0,0-.48-.62,3.32,3.32,0,0,1-1-1.58l.86.29-.43-.43a2.13,2.13,0,0,1-.38-.53c.19-.24.62-.38.77.1.34-.67-.29-.62.14-1.25,0,0,.1,0,.14,0l-.24-.72c.14.14.58-.1.43.34.48-1.29-.58-2.06,0-2.54l0,.1c-.29-1.78-.58-.2-1.3-1.5l1.44-.91-.58-.19c0-.19,0-.53.29-.48-.38-.67-.24.1-.62-.29.53-.86-.24-2.4.67-2.64-.43-.34-.34.82-.67-.1,1-.29-.19-1.1.29-1.87.53.24.24,1,.72.19-.86-.48.19-1.58,0-2.25-.72,0-.29-1.49-.53-2.59.24,0,.38-2.11.62-3.16l.1,0c-.72-.19-.58-1.29-.72-2.06.43,0,.58.19.77.62V92.5a1.36,1.36,0,0,1-.43-.91l.53.19c0-1-.62-2-.29-3.26-.48,0-1.39,1-1.68-.34.29,0,.72-.1.82.24,0-.1-.24-.43-.1-.62l.43.53c.19-.57-.38-.29-.34-.77.38,0,.29-.34.58-.29,0,.1-.14.38,0,.57a3.07,3.07,0,0,1,.72-1.44.44.44,0,0,1-.58-.38c0-.48.1-.57.24-.62s.34,0,.43-.24c-.29-.19.1-.62-.48-.77.1-.19.34-.14.53-.19-.1-.24.1-.67.19-1s.19-.62-.19-.57c0,0,0,0-.1.1v-.1h0A2.38,2.38,0,0,1,49.42,81a20.12,20.12,0,0,1,2.16-.53v.19a12.06,12.06,0,0,1,1.49-.24,4.54,4.54,0,0,0,1.39-.34c.29,0,.67.34.57.58a3,3,0,0,1,2,0c-.77.34.29.29-.77.24,1,.14,1.2.48,2.25,0-.38.48.77.62,1.2.48L59,81a7.19,7.19,0,0,1,1.44,0l-.24.62c2,.77,3.64-1.34,5.18,0,.53-.43-1.1-.34-.62-.82.91.1,1.92,1,2.21,1,1.3.34,1.2-.91,2.54-.67-.19-.29-.34-.91.67-1.15.91.1,1.15,1,.58,1.15-.24,0-.34,0-.34-.14-.29.1-.72.19-.34.43l.14-.24c.48.24,1.73.19,1.44.57.72-.24.29-.38-.24-.48,1.2.34,1.87,0,3.12.24-.19-.14-.38-.38-.19-.38,1.82.29.82-.43,2-.53.67.34-.24.82,1,.53.77.24.14.62-.14.77,1.1-.43,2.11.29,2.73.38l-.58.19a3.26,3.26,0,0,1,1-.1L80,81.9c.34.1.62.1.62.29.34-.29-.29-.77.43-1.15.48.24,1.39-.24,1.58.34-1.44-.19.14.62-1.06.72a1.74,1.74,0,0,1,.86,0s0,.14-.14.14c1.39.53.62-.67,2.06-.67-.19.34.34.62.58.57-.58,0-.29-.57.24-.82.91.29,1-.19,1.49-.14L86.05,81c.19-.34.67-.29,1.29-.38,0,.29-.58.19-.34.29.72-.58,1.63.62,2.64.24.48.24,0,.62.43.82,1.1-.43,1.2.48,2.4.1-.34-.48-.38-.34.43-.82L91,81.62l1.25-.67c-.58,0-1.25.29-1.58.19.58-.38.53-.24.24-.62.81.67,1.58-.38,2.49,0l0,1.15c1.39.53,2.44-.57,4.27-.29L97,81.23c.24-.43,1.1,0,1.68-.24,0,.38.29.53.58.77,0-.29,1.29,0,1.49-.72l.81.48c1.44.19,1.68-1.1,3.07-1-.43.43.19.67-.72,1,.48,0,.86.1.91-.19.29.24,1.29-.53,1.73-.14.19-.14.24-.58.77-.53a.23.23,0,0,1,0,.19c0-.19.81-.24.38-.67,1.44,1.2,4-.1,5.27.91,1-.14,2.25-.24,3.16-.29,0,.1,0,.19-.19.14,1.29.34.77-1.1,2.25-.67.72.62-.77.34-.29.57.19,1.25,1.77-.19,2.73.57l-.24.1c.77.43,1.82-.48,3-.38a.23.23,0,0,0,0,.19,8.31,8.31,0,0,1,3.6-1c-.38.48-.53.24-.29.77.53,0-.14-.82.91-.91.34.29,1.1.48,1.2,1l-1,0c.53.67,1.29,0,1.82.1l0,.29c1.53-.1,1.53-.86,3.16-.82l-.19-.24c.91-.77.77.43,1.63-.14l.29.77a19.83,19.83,0,0,1,3.12-.86,9.15,9.15,0,0,1-2.59,1.2c.57,0,2,0,2.3-.43a1.11,1.11,0,0,1-.77.14,4.16,4.16,0,0,1,2.83-.86c-.1.72.67.82,1.53.86.24,0,.43,0,.67,0h.14l.14,0c.1,0,.14,0,.24,0a.77.77,0,0,1,.57.62,1.83,1.83,0,0,1,1.73.91,6,6,0,0,1,.48,1l.29,1c.48-.38.53-.29.57-.1s.1.43.67.34q.14.65,0,.72l-.72,1.68c-.34.38-.24-.53-.53-.48-.1,1.2-.48.53-.82,1.34.43-.14.62.43.43,1.1l.53-1c.62,1.73-1,1.49-.38,3.21l-.38-.53c.24.86,0,3.26.91,4.12-.14.14-.48.38-.53,0-.14,2.11,1,4.7.43,6.33l-.29-.14c.1.38.53.67.24,1.2-.1,0-.29-.14-.29,0a2.88,2.88,0,0,1,.34,1.58l-.34-.43c-.38,2.06.77,3.16,1,4.89-.86,0-1.1,1.63-1.25,2.44l-.1,0a9.68,9.68,0,0,0,0,1.68c0,.29.1.53.14.77s0,.24.1.38l0,.19,0,.1a3,3,0,0,1,0,2.06,16.49,16.49,0,0,0-1.87.91,2.84,2.84,0,0,1-1.1.24h-.43l-.24,0-.86-.14c.34.14,0,.67-.43.72-.53-.19-1.44.58-1.34-.19H139c-.38-.77-1.44-.58-2.3-.58l-.15,1c-2.16-1.49-5.71.53-6.9-.77A17.16,17.16,0,0,0,128,118l0-.53a21.28,21.28,0,0,0-4-.1l.38-.38c-1,0-1.29,1.58-2.21,1.58l-.29-.81c-1.77,0-3.55-.72-5.32,0,0-.1.1-.34.38-.38-.82,0-3.21-.53-2.93.58,0-.72-1.82,0-2.78.24l.14-.53c-.82.67-.82.86-2,1.06-.29,0-.24-.43.14-.29-.91-.29-.67.53-1.77.24l.38-.34c-.91,0-.86.14-1.34.53-.58.19-1.73-.14-1.87-.62a1.06,1.06,0,0,1-1.15.53c-.1-.19.14-.29.24-.34-1.53-.38-2.3.62-3.36.1a.35.35,0,0,0-.19-.34,11,11,0,0,1,2.11.1c0-.48-1-.58-.19-1.25-.77.38-2.16,1.2-3.12,1a.66.66,0,0,1-.14-.19l.1,0a.91.91,0,0,0-.62.1,2.24,2.24,0,0,0-.81-.14c-.1-.43-1.15-.24-1.63-.24,0,.53-.62.43,0,.91-.1,0,.1,0,.43-.1.1,0,.14,0,.19,0a0,0,0,0,1,0,0h0c.34,0,.72,0,1.2,0a1.08,1.08,0,0,1-1.34.19,9.29,9.29,0,0,1-.67.86c-.67-.77-2-1.15-2.16-1.63-1.49.29-3.55.19-4.46,1.2-.43.14-.48-.29-.67-.43.24-.1.53-.1.67-.24-.86.24-2.54.1-2.73.81-1.06-.34.62-.67-.86-.53l.19-.24c-2.88-1.15-4.7,1.82-7.91.34.24.1.34.14.38.24-3.64-.62-7.58.62-11.17-.43-1-.19-1.15.24-1.77.58l-.34-.72-1.06.67c-1.53.48-2.64-1.44-4.56-.48l.24.38c-.67-.1-2.21.24-2.06-.24,0,0-.24.38-.48.19v-.29l-1.68.53c-1.3-.24.19-1.2-1.73-1.25-.72.1-2,.86-1.77,1.1.29,0,.72.19.77.48l-.67.14c-.1.91-.62,1.82,1,2.44l1.1-.53.38.43-1,0c.53.43.86,0,1.25-.19a.79.79,0,0,0,.48.48l1.1-.86c.14.34-.48.67.24.86.53-.38-.48-.77.34-1.06.53.38.38.72,1,.38.1.24,0,.38-.29.48.57-.29,1.49-.1,1.77-.58.57.48,1.87-.14,1.82.72a3.59,3.59,0,0,1,1.49-.72c-1,1,1.92,0,1.68,1.15.67-.91,2.49-.38,3.74-.91,0,.1-.19.24-.34.19a3.92,3.92,0,0,1,1.34.53c.1-.77,1.15-.91,1.73-1.39.86.72-.53.86-.24,1.58,0-.62,1.49-.62,1.2-1.1.67.43.58.24.91.86.1-1,.62-.14,1.15-.72,1,.48.24.86,1.3.58C75.84,122.37,74.88,122.71,74.88,122.71Zm24.55-1.63h0c-.19,0-.38,0-.53,0A2.35,2.35,0,0,0,99.43,121.08Zm2.06,0a5.74,5.74,0,0,0-.91,0c-.1-.19,0-.38.19-.38-.1.1.38.24.71.38Zm-4.36-3.74c.34-.1.43,0,.48.14-.14,0-.34,0-.58,0l0,0A1,1,0,0,0,97.13,117.34Z"/></g><g id="Group_354" data-name="Group 354"><path id="Path_384" data-name="Path 384" class="cls-1" d="M96.55,118.06s-.1,0-.14,0,.14.1.19.14a.25.25,0,0,0,.1-.19Z"/></g><g id="Group_355" data-name="Group 355"><path id="Path_385" data-name="Path 385" class="cls-1" d="M47.94,82.63h-.1a.07.07,0,0,1,.09,0Z"/></g><g id="Group_356" data-name="Group 356"><path id="Path_386" data-name="Path 386" class="cls-1" d="M129.92,122.13V122l-.14.1Z"/></g><g id="Group_357" data-name="Group 357"><path id="Path_387" data-name="Path 387" class="cls-1" d="M45.2,93.32s-.1,0-.14.14S45.16,93.37,45.2,93.32Z"/></g><g id="Group_358" data-name="Group 358"><path id="Path_388" data-name="Path 388" class="cls-1" d="M45.11,98.21l-.19.67C45,98.59,45.06,98.35,45.11,98.21Z"/></g><g id="Group_359" data-name="Group 359"><path id="Path_389" data-name="Path 389" class="cls-1" d="M44.82,101.95c.1,0,.14,0,.24.1h0Z"/></g><g id="Group_360" data-name="Group 360"><path id="Path_390" data-name="Path 390" class="cls-1" d="M86.34,77.59a.18.18,0,0,0,.14,0C86.82,77.45,86.63,77.5,86.34,77.59Z"/></g><g id="Group_361" data-name="Group 361"><path id="Path_391" data-name="Path 391" class="cls-1" d="M68.51,78.84a2.93,2.93,0,0,1,.58-.24C68.79,78.55,68.55,78.5,68.51,78.84Z"/></g><g id="Group_363" data-name="Group 363"><path id="Path_393" data-name="Path 393" class="cls-1" d="M69.94,78.6a1.18,1.18,0,0,0-.81,0A4.62,4.62,0,0,0,69.94,78.6Z"/></g><g id="Group_364" data-name="Group 364"><path id="Path_394" data-name="Path 394" class="cls-1" d="M46.69,119.07l.14.14h.1A1,1,0,0,1,46.69,119.07Z"/></g><g id="Group_365" data-name="Group 365"><path id="Path_395" data-name="Path 395" class="cls-1" d="M46.93,119.21l.24.14C47.07,119.26,47,119.16,46.93,119.21Z"/></g><g id="Group_366" data-name="Group 366"><path id="Path_396" data-name="Path 396" class="cls-1" d="M47.65,119.54a1.5,1.5,0,0,1-.48-.24A.49.49,0,0,0,47.65,119.54Z"/></g><g id="Group_367" data-name="Group 367"><path id="Path_397" data-name="Path 397" class="cls-1" d="M44.82,113.31l-.19,0S44.73,113.31,44.82,113.31Z"/></g><g id="Group_368" data-name="Group 368"><path id="Path_398" data-name="Path 398" class="cls-1" d="M44.77,111.78c0,.38-.43.91-.29,1.39l.14,0C44.34,113,45.11,112.16,44.77,111.78Z"/></g><g id="Group_369" data-name="Group 369"><path id="Path_399" data-name="Path 399" class="cls-1" d="M47.22,105.45l-.19,1.3c.19-.24.48-.53.53,0C48.23,105.21,47.13,107.13,47.22,105.45Z"/></g><g id="Group_370" data-name="Group 370"><path id="Path_400" data-name="Path 400" class="cls-1" d="M47.5,101.52c.1.67.29,0,.43,0C47.74,101.13,47.7,101,47.5,101.52Z"/></g><g id="Group_371" data-name="Group 371"><path id="Path_401" data-name="Path 401" class="cls-1" d="M55.32,80.85l0,.48C55.8,81.28,55.27,81.19,55.32,80.85Z"/></g><g id="Group_372" data-name="Group 372"><path id="Path_402" data-name="Path 402" class="cls-1" d="M60.79,78.36,60.26,78,60,78.5Z"/></g><g id="Group_373" data-name="Group 373"><path id="Path_403" data-name="Path 403" class="cls-1" d="M64,81.82l-.24.1.86-.19Z"/></g><g id="Group_374" data-name="Group 374"><path id="Path_404" data-name="Path 404" class="cls-1" d="M111.8,81.67l-.14-.62C111.32,81.14,111.22,81.86,111.8,81.67Z"/></g><g id="Group_375" data-name="Group 375"><path id="Path_405" data-name="Path 405" class="cls-1" d="M132.47,81a.89.89,0,0,0,1.15.19C133.14,81.19,132.71,80.95,132.47,81Z"/></g><g id="Group_376" data-name="Group 376"><path id="Path_406" data-name="Path 406" class="cls-1" d="M135.44,117.24l.38-.19-.77.19Z"/></g></g></g></svg>