<svg id="Laag_1" data-name="Laag 1" xmlns="http://www.w3.org/2000/svg" viewBox="0 0 191.61 188.99"><defs><style>.cls-1{fill:#575756;}</style></defs><title>hindeloopen_2</title><g id="Group_486" data-name="Group 486"><g id="Group_433" data-name="Group 433"><path id="Path_466" data-name="Path 466" class="cls-1" d="M43.74,104.79a.18.18,0,0,1,0,.14.76.76,0,0,1,0,.19l.1.14a16.46,16.46,0,0,1,.19,3.16,2.2,2.2,0,0,0,0,.48v.53c0,1.2-.29,1.82-.86,1.82-.14,0-.38-.14-.48-.14s-.14,0-.1,0a.18.18,0,0,1,0,.14s0,0-.1,0-.48-.24-.67-.24a.58.58,0,0,0-.24,0h-.19q0-.57-.29-.72c.1,0,.14-.14.29-.29a4.43,4.43,0,0,1,.38-1.29h.24c-.1-.38-.29-.53-.53-.53.29,0,.38-.14.38-.43s-.38-.62-.43-.81a1.56,1.56,0,0,0,.67-.19q-.29-.22-.29-.14c0-.24,0-.29,0-.24a.41.41,0,0,1,.14-.29V105c-.19-.14-.29-.43-.34-.91a8.13,8.13,0,0,1,0-1.06c0-.24-.24-.43-.62-.62a1.52,1.52,0,0,0-.86-.34c-.38,0-1.25.24-1.53.24s-.29.34-.48.58a.82.82,0,0,1,.1.38v0c-.1,0-.19.1-.19.19,0,.58,0,1,0,1.15a7.13,7.13,0,0,1-.14,1.2,6.17,6.17,0,0,0-.1,1.2c0,.29,0,.58,0,.91a2.83,2.83,0,0,0-.38.19l.34.34s-.1.29-.29.29-.14,0-.24-.1a.44.44,0,0,0-.14.24l.14.19.1-.19H38a.92.92,0,0,0-.24.58c0,.19.24.72.24.86,0,.53-.19.81-.58.81h-.91a4.12,4.12,0,0,1-.86-.38v-2.64c0-.1.1-.24.19-.43v-.14c0-.1,0-.43,0-.53s.19-.34.19-.48-.1-.29-.29-.38l.58.1s.1,0,.19-.19c-.14-.14-.24-.19-.34-.19a.42.42,0,0,0-.29.1c0-.1,0-.24.14-.48-.1,0-.1-.14-.1-.29a1.42,1.42,0,0,1,.1-.48v-2.69c0-.1-.1-.19-.24-.24a1.28,1.28,0,0,0,.14-.58c0-.38,0-.91-.1-1.58a11.77,11.77,0,0,1-.1-1.63c0-1.15.1-3.21.19-6.18a1.66,1.66,0,0,1,.58-.34,5.3,5.3,0,0,0,.62-.19l.24.24a.68.68,0,0,1,.29-.1.9.9,0,0,1,.62.48,5.28,5.28,0,0,1,.1.86,6.79,6.79,0,0,1,0,.91,7.56,7.56,0,0,0,0,.91c0,.19,0,.72,0,.91s-.14,1-.14,1.29c0,.1.38.48.38.67s-.43.81-.43,1a1.48,1.48,0,0,0,1.16,1.3c.19,0,.29-.19.43-.19s.38.19.53.19c.91,0,1.34-.48,1.34-1.39a2.35,2.35,0,0,0,0-.53v-.58c0-.29,0-.67.1-1.25a8.65,8.65,0,0,0,.14-1.3c0-.38-.19-1.3-.19-1.63A2.28,2.28,0,0,1,41.88,92a4.64,4.64,0,0,1,.43-.34,5.75,5.75,0,0,1,1-.14c.19,0,.43.24.53.24v2.73A4.43,4.43,0,0,0,44,95a6.57,6.57,0,0,1,.19,1.44c0,.19-.34.38-.34.81,0,.19.1.67.1.86a.5.5,0,0,1-.21.48V99.9c0,.19.19.77.19,1s.14,1,.14,1.25-.19.43-.19.58.34.43.34.62A9.86,9.86,0,0,0,43.74,104.79Zm-7.24,1.68a3.87,3.87,0,0,0-.29.62l0,0a1.53,1.53,0,0,1,.62-.24A.42.42,0,0,1,36.5,106.47Zm.1-.34v-.29h-.19v.29Zm.24,3V109l-.38-.14,0,.14Zm.34-6.47s0-.1-.1-.19,0-.14,0-.19a3.92,3.92,0,0,1-.43.38Zm-.2,3.78-.19-.19-.1.14.14.14Zm.24,1.44v-.38H37v.38Zm4.65.72-.14.1-.14-.14.14-.14Zm.43-.72v.53a.86.86,0,0,1,.24.34,2.94,2.94,0,0,1,.14-.77.43.43,0,0,1,.34.14c0-.09-.29-.14-.72-.24ZM43,99.13v-.19h-.39v.19Zm-.1,2v-.19h-.29v.19Zm.38-.29a2.51,2.51,0,0,0-.53-.48l.24.24c-.1.1-.14.19-.1.24Zm-.19-3.31c.1,0,.1-.1.1-.14s-.1-.14-.34-.19a.43.43,0,0,0-.14.34,1,1,0,0,0,.29.34v-.19a.37.37,0,0,1,0-.14,0,0,0,0,1,0,0h0Zm-.1,8.25v-.19h-.28v.19Zm0-9c0,.24.1.34.29.34s.1-.19.14-.34Zm.48.77a.79.79,0,0,0-.24.62.7.7,0,0,1,.38-.24.77.77,0,0,0-.14-.38Zm.24,2.11v-.19h-.29v.19Zm0-2.35v-.38H43.4v.38Z"/><path id="Path_467" data-name="Path 467" class="cls-1" d="M46.14,93.38H46l-.1-.24.14,0Zm2.11,9.3a2.21,2.21,0,0,1,.38.81,8.53,8.53,0,0,0-.34.81A3.42,3.42,0,0,0,48,105.7a3.26,3.26,0,0,0,.34,1.39,5.26,5.26,0,0,1,.34.81,1.69,1.69,0,0,1-.34.67c-.24.34-.38.53-.38.67h-.14c-.14,0-.29,0-.43-.1s-.1.1-.1.14,0,.1.1.19-.1-.1-.24-.1a.83.83,0,0,0-.53.29,1.35,1.35,0,0,0,.34.53,1.14,1.14,0,0,0-.58.14c0,.14.14.29.38.48a.81.81,0,0,1,.48-.14,1.71,1.71,0,0,1,1,.53l-1.44.38h-.48a1.77,1.77,0,0,1-.34-1.1c0-.38.19-1.2.19-1.53a1.33,1.33,0,0,0-.14-.62c-.1,0-.1-.1-.1-.14a5,5,0,0,1,.29-.77,24.44,24.44,0,0,0,.1-3c0-.19,0-.53,0-1.06a3.82,3.82,0,0,0,0-1.06.35.35,0,0,0,.29-.34,1.85,1.85,0,0,0-.29-1,.9.9,0,0,0,.1-.38c0-.29-.14-.91-.14-1.2a.83.83,0,0,1,.24-.62l-.44-.42a3.48,3.48,0,0,0,.24-.58,1.55,1.55,0,0,1-.1-.43v0a.68.68,0,0,0,.34-.67s0-.1-.1-.1-.24.19-.29.19a3.13,3.13,0,0,0,.1-.53c0-.43-.29-.62-.29-.81s.34-.58.34-.86,0-.29,0-.48a3.45,3.45,0,0,1,.14-.38A2.41,2.41,0,0,0,46,92.42a3.18,3.18,0,0,1,.38-.82c.14-.19.43-.24.81-.24a.46.46,0,0,1,.48.34.36.36,0,0,0,.1-.19,1.59,1.59,0,0,1,.72.19l.34-.19a1,1,0,0,1-.29.38.72.72,0,0,1,.19.53c0,.29-.24.67-.24.86a.77.77,0,0,0,.14.43l-.91.19a1.54,1.54,0,0,0,.77.1,2.2,2.2,0,0,0,.34,1.06l-.14,0c-.1.14-.24.29-.38.48v1.25c.1,0,.14.1.24.1,0,.19-.14.62-.14.81s.1.24.29.29a7.48,7.48,0,0,0-.29,2.11s.1.29.1.34a2.11,2.11,0,0,1,.1.48.4.4,0,0,1-.1.29,3.19,3.19,0,0,0,.38.86,2.15,2.15,0,0,0-.62.67Zm-.19-8.15-.14,0-.14.29.14.1Zm.19-2.73,0-.14-.38.14v.14Zm0,15.63-.14-.19.1-.14.19.19Zm.14-12.18V95H48.2v.29Z"/><path id="Path_468" data-name="Path 468" class="cls-1" d="M59.42,101.1c-.1,0-.19,0-.34,0,.29.14.43.29.38.34v5.23a9.43,9.43,0,0,0,.19,1.58,9.75,9.75,0,0,1,.19,1.68c0,1-.34,1.06-1.29,1.06a2.08,2.08,0,0,1-1.53-.77,11.33,11.33,0,0,1-.38-1.63,7.24,7.24,0,0,1-.53-1.49Q55.61,104,54,104c-.1,0-.19.1-.38.29l-.29.43a.43.43,0,0,1,0,.24c0,.53-.43.77-.72,1.06,0,0,0,0,.1,0s.48-.19.67-.19v4.51a2.8,2.8,0,0,1-.24.62,3.17,3.17,0,0,1-.72,0,5.31,5.31,0,0,1-1.15,0,.78.78,0,0,1-.67-.82l.14-18.79.14.1.1-.1s.1,0,.19,0c.29,0,.91-.14,1.1-.14-.14,0,.19,0,.86.14a2.07,2.07,0,0,1,.72,1.39V93a.64.64,0,0,0,0,.24,2,2,0,0,0,.14.77,1.88,1.88,0,0,1,.29.62c0,.34-.29.43-.53.58,0,0,.1,0,.14,0l.34,0a4.57,4.57,0,0,1,.62,1.25c.24.67.43,1,.48,1s.24-.1.29-.1-.1.14-.24.29c.14.14.29.34.53.58,0,0,0-.1.1-.19s.1,0,.19,0,.14,0,.14,0v0s0,0,.1,0,.19-.1.14-.19.19.1.38.34c.14-.19.29-.43.48-.72a9.59,9.59,0,0,0,.18-1.44c0-.24-.19-.81-.19-1.06v0a1.53,1.53,0,0,0,.34-.29.36.36,0,0,1,0-.19.49.49,0,0,1,.24-.38l-.14,0q0,.57.72.58c.1,0,.29,0,.34,0s.14,0,.19,0,.14-.34.19-.53c.34.34.53.58.53.72s-.14.62-.14.77c-.19,0-.29-.1-.34-.1s-.14,0-.19,0,0,.29.24.29a1.49,1.49,0,0,0,.34-.1.18.18,0,0,0,0,.14c0,.1,0,.43,0,.53a.79.79,0,0,1-.24.58v3.84a1.83,1.83,0,0,0,.43.43A.59.59,0,0,0,59.42,101.1Zm-6.14-2.78L53,98.17l0,.19.29.14Zm2.25,8.15s0,0,0-.14v-.14a2.08,2.08,0,0,1,0-.24q.29.29.29.43A.68.68,0,0,1,55.54,106.47Zm3.55.38-.34-.38c-.19,0-.34-.19-.38-.19s0,.1-.14.1a.84.84,0,0,1-.29,0c-.1,0-.19,0-.19,0a2.37,2.37,0,0,1,0-.72v-.1h0a.18.18,0,0,1-.14,0l.2-.14a1,1,0,0,1,.34.86,2.5,2.5,0,0,0,.29-.67c.1,0,.14,0,.14.1s-.1.24-.1.29a1,1,0,0,0,.38-.29.15.15,0,0,1-.1,0c-.14,0-.14-.14-.14-.43-.1,0-.24.19-.34.19a.15.15,0,0,1-.1,0,3.71,3.71,0,0,1,.48-.58.81.81,0,0,0,.29.29,1.35,1.35,0,0,0,.19-.53,1,1,0,0,1-.38.14l-.14-.1c.14-.1.24-.14.24-.24s0-.29,0-.24a.26.26,0,0,1-.24.1.25.25,0,0,1-.29-.29c0-.14.1-.48.1-.62.14.14.24.19.29.19v.29c0-.1.19-.38.19-.58l-.43-.14v-.48l.19-.19a1.32,1.32,0,0,0,.38.29.89.89,0,0,1-.24-.48q.14-1.58.14-1.44v-.15l-.19.14s-.1,0-.1-.1.29-.77.43-1a.76.76,0,0,1-.24-.38.59.59,0,0,1-.43.14.64.64,0,0,1-.48-.14v.19c0,.58-.62,1-1,1.39a1.31,1.31,0,0,1,.62.62l-.29.14s0,0,0,.1-.1.19-.24.38-.34.34-.34.38V103c.1,0,.14,0,.19.1a1.39,1.39,0,0,0-.43.67c.38.34.53.58.53.77s-.14.29-.43.53c.19.1.29.34.29.77a1,1,0,0,1-.19.58c.19,0,.34.14.38.38a.51.51,0,0,0,.53.38c.1,0,.19-.1.34-.24v.34c0,.1,0,.1.14.1h.53c0-.24,0-.34.14-.34s.14.19.24.34a.72.72,0,0,1,.29-.14v-.34Zm-2,1.15v-.19h-.53V108Zm.24-3.6,0,.19-.34-.14v-.19Zm2.35-11.27h-.24c-.14,0-.43-.1-.53-.1s-.38,0-.43.14v.43a1,1,0,0,1-.14.43s0,0,.1,0a1.33,1.33,0,0,1-.67-.43.66.66,0,0,0,.14-.19l0-.1c-.29.19-.34.24-.38.53a2.36,2.36,0,0,1-.34-1.1,1.45,1.45,0,0,1,.34-1.06,1.94,1.94,0,0,1,1.1-.19,2,2,0,0,1,1.25.43C59.85,92.28,59.71,92.85,59.71,93.14ZM57.6,106.37l-.34.14v-.14l.24-.14Zm.19-2H57.5v-.19h.29Zm0-.58h-.19v-.38h.19Zm.24-3.07H57.7v-.19H58Zm.1-2.54v-.38h-.19v.38Zm.29,1.87-.43.14V100l.38-.14Zm.53-3c-.14,0-.24,0-.38,0l.24.14c-.1.1-.14.14-.14.19s0,0,.1.1l.1-.1.1.1-.29.14V98a.44.44,0,0,1-.14.24,3.72,3.72,0,0,1-.19-.34c0,.19-.24.43-.24.48.48,0,.77-.24.86-.53s.19-.58.29-.81a.5.5,0,0,0-.3,0Zm-.34,3.65h-.14l-.14-.38.14-.1Zm.67-6.76a.7.7,0,0,0-.29,0s0,.1.1.14c-.1-.1-.19-.1-.38-.1l.14-.53a.36.36,0,0,0,.19,0,1.09,1.09,0,0,0,.53-.14c0,.34-.1.53-.29.53Zm.1,14.1-.19-.19L59,108l.14.14Z"/><path id="Path_469" data-name="Path 469" class="cls-1" d="M70,100.38a.48.48,0,0,0-.53.43c0-.1,0,.1,0,.62,0,0,0,0,.1.14a1,1,0,0,1,0,.62q.14.29.29.29v5.8l-.24,0c-.1,0-.14,0-.14.19a1.26,1.26,0,0,1,0,.34,12.33,12.33,0,0,1-1.49,1.68,2.2,2.2,0,0,1-.82.48l-1.58.1c-.91.1-1.44.14-1.49.14s-.38-.24-.57-.24-.14,0-.14.1.1.19.1.14c-.19-.24-.29-.34-.38-.34a.21.21,0,0,0-.14,0,.21.21,0,0,1-.14,0c-.1,0-.14,0-.1-.14s0-.19,0-.19l-.19.24h-.91c0-.19-.14-.67-.14-.86a5.8,5.8,0,0,1,.19-1c.14-.58.19-1,.24-1.29a4.47,4.47,0,0,1,0-1.2c.14-.48.19-.67.19-.58a.36.36,0,0,0-.19-.34.52.52,0,0,1,0-.24c0-.1.29-.19.34-.24v-.38c-.29-.29-.38-.43-.38-.58a.64.64,0,0,1,.14-.34,4.31,4.31,0,0,1-.14-.58c.14-.19.19-.29.19-.38a3.08,3.08,0,0,0-.34-.77v-.43a1.15,1.15,0,0,0,.34-.14.65.65,0,0,0,.29-.34.79.79,0,0,0-.62.1,3.2,3.2,0,0,1,.86-.48,13,13,0,0,0-1.06-.86,1.33,1.33,0,0,1,.86-.72,7.84,7.84,0,0,0,.43-.67c0-.1.1-.14.1-.34l-.1-.1a2.37,2.37,0,0,0-.38-1.06l-.24.24a.68.68,0,0,0-.53-.67,8,8,0,0,1,0-1.53c0-.72,0-1.25,0-1.53a2.35,2.35,0,0,0-.14-.58,2.18,2.18,0,0,1-.14-.53,1.92,1.92,0,0,1,.48-1.1l.82-.14a12.15,12.15,0,0,1,2,.53,1.94,1.94,0,0,0,.24-.43.77.77,0,0,1-.1.48s0,.19.24.19a1.78,1.78,0,0,0,1-.43l.24.24a.3.3,0,0,0,.1-.29.56.56,0,0,0,.43.48c.19,0,.1-.14.29-.14s.34.34.48.34a.57.57,0,0,0,.43-.24,1,1,0,0,0,.38.43,2.64,2.64,0,0,0,.43.34.5.5,0,0,1-.24.34c.1.1.1.19.19.29a.94.94,0,0,0,.43-.43,4.18,4.18,0,0,0,.38,1.1.41.41,0,0,0-.14.29c.29.1.57.19.57.38a2.9,2.9,0,0,1-.43,1.29,4.33,4.33,0,0,1,.24.77c-.19.43-.24.67-.19.77a1.08,1.08,0,0,0-.1.62,1.73,1.73,0,0,0,.24.43,2.37,2.37,0,0,0-.19,1.15,7.56,7.56,0,0,1,.77.48C70.31,100.38,70.21,100.38,70,100.38Zm-8.2-4h.38a.77.77,0,0,0,.14-.53c-.33.15-.53.33-.53.53Zm.72.34v-.19h-.29v.19ZM63,108.63h-.38c.1,0,.1.1.1.29ZM63.5,97a1.6,1.6,0,0,1-.14-.72A3.57,3.57,0,0,0,63,97Zm.24.72,0-.14-.29.14v.19Zm3.88,10.12c-.14,0-.19,0-.14-.1l.1-.14c.14-.19.19-.29.14-.38a15.58,15.58,0,0,0,.1-1.73c-.29-3-.43-5.13-.43-6.38,0-.19.14-.91.14-1,0-1.44,0-1.92,0-1.39a1.87,1.87,0,0,1,.34-1.1c-.14,0-.24-.14-.43-.34a2.15,2.15,0,0,0,0-.53c-.34-.62-.62-.91-.86-.91a3.89,3.89,0,0,0-.53.14c-.24,0-.38-.14-.53-.43-.29.14-.62.29-1.1.48a2.21,2.21,0,0,1-.34.34,15.69,15.69,0,0,0-.24,2.83A3.09,3.09,0,0,0,64,98.32a15.5,15.5,0,0,0,0,1.68c0,.67,0,1.1,0,1.44a11.38,11.38,0,0,0,0,1.15q.05.55,0,1.1a4.42,4.42,0,0,1-.38,1.63c0-.1.24.1.14.77,0,.1.29.19.29.29l-.19.19c-.1,0-.14,0-.19.14a.67.67,0,0,1,0,.43c0,.14-.1.24-.14.24.19.14.24.38,0,.67l.43.29a.62.62,0,0,0-.1.38,6.47,6.47,0,0,1,.53-.43c.1.1.1.14.1.14s-.29.19-.29.29a.25.25,0,0,1,.19.1,11.32,11.32,0,0,1-1,.62c.19.19.34.29.48.29s.1,0,.1,0a.48.48,0,0,1,0-.14s0,0,.1,0h.29a.72.72,0,0,1,.57.24,1,1,0,0,0,0-.29c0-.14.1-.19.29-.19-.1,0,.14,0,.57.14,0-.14.14-.19.19-.19a1,1,0,0,0,.72.43s-.1-.19-.34-.58c.14-.1.34-.43.48-.43a.5.5,0,0,0,.38.19.85.85,0,0,1,.1-.53.26.26,0,0,0,.24.1q-.14-.07-.14-.14s.1-.1.19-.19.14-.1.24-.1a.61.61,0,0,0,0-.29.44.44,0,0,1-.36.14Zm-2.06-15v-.19h-.29v.19Zm.19,15.82a1.12,1.12,0,0,1-.1.53.56.56,0,0,1-.34-.53Zm0-16v-.29h-.19v.29Zm.1,16.83h-.14l-.14.34.14.1Zm.34.77-.38-.29-.1.14.38.29Zm1-2.11-.14.29-.14-.1.14-.29Zm.19,1.06-.29-.38-.1.1.24.38ZM68,92.85l-.29.29c.34,0,.53,0,.53,0a.23.23,0,0,1-.24-.24ZM69,107l-.19-.19-.1.1.14.19Z"/><path id="Path_470" data-name="Path 470" class="cls-1" d="M81.19,110.07a3.3,3.3,0,0,1-.24.86.7.7,0,0,1-.67.48c-.19,0-.72-.34-.91-.34s-.19.1-.34.24l-.24-.24a2,2,0,0,1-.53,0,3.87,3.87,0,0,1-.91-.14,4.75,4.75,0,0,0-.91-.14c-.14,0-.14.1-.14.29,0,0-.1-.14-.24-.29a1.19,1.19,0,0,1-.91.34,3.17,3.17,0,0,1-.53,0,.9.9,0,0,0-.53,0l0,0c0-.1-.1-.14-.24-.14s-.14.24-.29.24a6.87,6.87,0,0,0-1-.24l-.48-14.14a21.91,21.91,0,0,0-.19-2.4c-.1-1-.14-1.44-.14-1.49a2.79,2.79,0,0,1,.43-1.2,1.38,1.38,0,0,1,.57-.1l5.27-.19c.29,0,.91-.14,1.2-.14.62,0,1,.14,1.2.48a2.29,2.29,0,0,1,.24,1.34c0,.91-.29,1.25-1.15,1.25-.48,0-1.2,0-2.21,0s-1.68-.1-2.21-.1c-.19,0-.38.19-.62.62a1.8,1.8,0,0,0-.34.86.25.25,0,0,0,.19.24,17.55,17.55,0,0,1,.1,2.06.44.44,0,0,1-.14.34,3.46,3.46,0,0,1,.1,1.15c.14.14.19.19.29.19s.24-.14.38-.14.48.34.67.34.82,0,1.44,0,1.15-.1,1.44-.1.67.38.67,1.15a3.85,3.85,0,0,1-.1,1.1.9.9,0,0,1-.91.43c-.38,0-1.34-.1-1.73-.1a3.12,3.12,0,0,0-.86.19,1.79,1.79,0,0,0-.82.29,2.17,2.17,0,0,0-.29,1,5.8,5.8,0,0,0-.19,1,1.27,1.27,0,0,1,.1.53,7.23,7.23,0,0,1-.24,1.34v0c0,.1-.1.29-.1.38a1.65,1.65,0,0,0,.19.62,6.24,6.24,0,0,1,.24.67l-.19.14v.38l.19.1s0,0,0-.1,0-.24,0-.34h.38a2.7,2.7,0,0,1,.34,1c.19-.1.1-.38.19-.43s0,0,.1.19,0,.24.1.24l.24-.19v.14c0,.14,0,.24.1.29a1.62,1.62,0,0,1,.38-.14l-.19-.1v-.4c.19,0,.53-.43.53-.43v.53a2.08,2.08,0,0,0,0,.24.72.72,0,0,0,.19-.38q.72-.22.86-.58c.1.19.24.43.43.43s.43-.24.53-.24a4.43,4.43,0,0,1,1.53-.19c.24,0,.43.24.57.67s.29.72.43.77C81.38,109.83,81.28,109.92,81.19,110.07Zm-6.81.14-.14-.19-.14.14.19.19Zm1.34.29c0-.1,0-.14,0-.19a.64.64,0,0,0-.34.14.7.7,0,0,0,.38.24c-.1,0-.1-.1-.1-.19Zm.34-.19c-.14,0-.19.1-.19.34l.43,0Z"/><path id="Path_471" data-name="Path 471" class="cls-1" d="M89.68,111a.69.69,0,0,0-.34-.1.3.3,0,0,0-.29.24,5.43,5.43,0,0,0-1-.43,1,1,0,0,0-.29.19s0,.14,0,.34a1,1,0,0,1-.43-.24,1,1,0,0,0-.48-.19c-.19,0-.53.24-.72.24a3.34,3.34,0,0,1-.67-.14,2.44,2.44,0,0,0-.67-.19c-.19,0,.1.24-.1.24s-.72-.24-.86-.24-.29.34-.48.34-.72-.24-.82-.24c0-.38,0-.91,0-1.68s0-1.29,0-1.58c.1,0,.14,0,.19-.1s-.14-.1-.19-.1v-2.72s0-.38.1-1a10.89,10.89,0,0,0,.14-1.44,11.91,11.91,0,0,1,0-1.73c0-.67,0-1.63.1-3,.1-1.53.1-2.4.1-2.64s0-.72,0-1.25c0-.24,0-.72.1-1.39a1.48,1.48,0,0,0-.1-.82c.67,0,1,0,1.1.1a.77.77,0,0,1,.53-.24c.19,0,.91.24,1.2.24a3,3,0,0,1,.34.82l-1.2,15.72c.1,0,0,.29.24.29s0-.1.24-.1.38.24.62.62l.29-.19a.43.43,0,0,1,.34-.14,5.58,5.58,0,0,1,.77.14,3.89,3.89,0,0,0,.82.1c.1,0,.29,0,.62,0s.53-.1.62-.1h.77a3.06,3.06,0,0,1,.24,1.15C90.49,110.45,90.06,111,89.68,111Zm-5.94-3.21-.14-.34-.14.1.14.24Zm.19.67-.43-.14v.14l.34.14Zm3.21,1.39v-.19H86.6v.19Z"/><path id="Path_472" data-name="Path 472" class="cls-1" d="M100.18,103.88q-.14,1.65-.14,2.44c0,.29,0,1,0,1.2a2,2,0,0,1-.43,1.49c-.48.53-.77.81-.82.91,0-.14.34-.53.34-.81V109a2.54,2.54,0,0,0-.43.53s-.1-.1-.24-.24c-.1.1-.24.14-.38.29.29.14.43.34.43.48-.38.1-.77.1-1,.48,0-.14-.14-.48-.14-.67a.66.66,0,0,1,.24-.43l.43-.29s-.19-.24-.48-.72a.25.25,0,0,0-.1.19,1.56,1.56,0,0,1,.14.48l-.77-.19c.29,0,.67-.67.91-.67s.14,0,.24.1l.1-.38a.43.43,0,0,0-.24,0,.36.36,0,0,0-.34.19v-.34a1.63,1.63,0,0,1,.19-.77V95.15a.4.4,0,0,0-.34-.1.85.85,0,0,1,.19-.48,2.89,2.89,0,0,0-.53-.67l-.57-.43a1.48,1.48,0,0,0-.57-.29,1.77,1.77,0,0,0-1.49.86,2.84,2.84,0,0,0-.57,1.68,9.09,9.09,0,0,0,.29,3c-.24.1-.34.34-.34.67s.1.86.1,1.06a10.22,10.22,0,0,0,0,1.06v1.06c0,.58,0,1.06,0,1.44a4.18,4.18,0,0,0-.24.91c0,.34,0,.81.1,1.49s.1,1.15.1,1.44a1.24,1.24,0,0,1-.19.48c0,.1,0,.14,0,.24a.75.75,0,0,1-.29.67,1.57,1.57,0,0,0,.29.38,1.94,1.94,0,0,0,.14-.48,1,1,0,0,1,.29-.48l.29-.19.14.14v.43h-.1a.35.35,0,0,0-.34.29,1,1,0,0,0,.19.29,1,1,0,0,1,.24-.43,3,3,0,0,1,.24.53c.1.24.19.38.24.38s.57.14.72.14c0-.19.14-.43.24-.77h.13c.38,0,.62,0,.67-.14a4.52,4.52,0,0,1,.48.48v.1a.15.15,0,0,1,0,.1.18.18,0,0,1-.16.19h0c.1,0,0,0-.19-.1l-.1,0a2,2,0,0,0,.43.67,2.19,2.19,0,0,1-1.15.38c-1.1,0-1.82-.24-2.11-.67l-.24.24c-.38-.19-.57-.38-.57-.62s.19-.48.19-.58a.25.25,0,0,0-.1-.19l0,0s.1,0,.1-.14-.14-.34-.34-.43c.1-.14.1-.24.14-.29a.69.69,0,0,0,.34.1l.1-.1a1.07,1.07,0,0,0-.1-.58l-.38-.14,0,.14a.77.77,0,0,0,.14.43l-.29-.24a1.93,1.93,0,0,1-.77.67.52.52,0,0,1-.1-.38.47.47,0,0,1,.14-.38,1.72,1.72,0,0,1-.24-.43.59.59,0,0,0,.19-.43c0-.38-.14-.58-.34-.62a.36.36,0,0,1,0-.24,1,1,0,0,0,.38-.29l-.14-.14a6.28,6.28,0,0,0,.62-.58.25.25,0,0,0-.19-.1.64.64,0,0,0-.38.14v0a.18.18,0,0,1,.08-.23h0c-.1-.1-.48-.48-.48-.67a1.18,1.18,0,0,1,.38-.81,3.5,3.5,0,0,1,.48.43l.1,0s0-.1,0-.19-.24-.34-.62-.62v0a1.09,1.09,0,0,1,0-.19c0-.14-.1-.19-.19-.14h0a.94.94,0,0,1,.19-.38q-.14-.22-.43-.58c.1,0,.24.1.34.1a.17.17,0,0,0,.1,0,.22.22,0,0,0-.14-.14s0,0,.1,0,.34-.14.38-.48c-.1.1-.14.19-.29.34h-.53v-.24c0-.19,0-.29.24-.34v0s0-.1.1-.19a1,1,0,0,1-.29-.19.81.81,0,0,1,0-.48c-.1-.29-.19-.67-.38-1.2a3.15,3.15,0,0,1,.57-.58.59.59,0,0,0-.53-.34h.24a1.52,1.52,0,0,0,.1-.67c0-.34-.14-1.1-.14-1.39a1.13,1.13,0,0,1,.24-.77l-.1-.14.24-.43h0a3.88,3.88,0,0,1,.19-1.34A7.26,7.26,0,0,0,93,92.8v-.1c0-.53.34-.91,1.05-1.15a4.42,4.42,0,0,1,1.71-.33l.29.34c.14-.14.19-.24.19-.34.43.1,1.05.19,1.87.38.34.24.62.48.91.67a2.73,2.73,0,0,1,.72.86,8.35,8.35,0,0,1,.48,3.12c0,.29.1,1,.1,1.2s0,1,0,1.29,0,.72,0,1.34,0,1,0,1.34C100.32,102,100.27,102.82,100.18,103.88Zm-7.48,3.4v-.19h-.29v.19Zm.14,2.49-.1.1-.29-.29.1-.14Zm.34-2.44h-.53l0,.1a.51.51,0,0,0,.1.29c0-.1.1-.14.29-.14s.34.1.43.1Zm-.1,0-.14-.34-.14,0,.14.29Zm0-1a.43.43,0,0,0-.14.34s.14,0,.43,0Zm1.68,3.84a1.7,1.7,0,0,0-.43-.53,1.28,1.28,0,0,1,.14.58c0,.1,0,.14,0,.19Zm.48.14-.1-.14-.29.14v.14Zm.24-.43v-.1a.37.37,0,0,0-.1-.24,1.53,1.53,0,0,1-.29.34,2,2,0,0,0,.19-.43.46.46,0,0,1,.43-.29.79.79,0,0,1-.23.73Zm.77-18-.19-.19-.1.14.14.19Zm.34,17.26-.14.1-.19-.19.14-.1Zm1.87-10.07-.19-.19-.1.14.14.19Zm.24.14-.19-.1-.14.29.19.1Zm.43-2a2.63,2.63,0,0,0-.34.43.66.66,0,0,1,.43-.24.13.13,0,0,1,.14.14c0,.1-.1.24-.1.34q0-.14.29-.14a3.5,3.5,0,0,0-.43-.52Zm.29-1.2-.14-.53c-.1.14-.24.29-.43.53Zm-.14-2.73a3.87,3.87,0,0,0-.29.62v0a.82.82,0,0,1,.43.48,2.05,2.05,0,0,1,.24-.62,1,1,0,0,1-.38-.52Zm.19,5.56-.14,0-.14.29.14.1Zm-.24-.81a1.28,1.28,0,0,1,.14.58.26.26,0,0,1,.29-.19Zm.43,1.44,0-.14-.29.14v.14Zm0-4.22v-.43H99.5v.43Z"/><path id="Path_473" data-name="Path 473" class="cls-1" d="M110.48,103.88q-.14,1.65-.14,2.44c0,.29,0,1,0,1.2A2,2,0,0,1,110,109c-.48.53-.77.81-.82.91,0-.14.34-.53.34-.81V109a2.54,2.54,0,0,0-.43.53s-.1-.1-.24-.24c-.1.1-.24.14-.38.29.29.14.43.34.43.48-.38.1-.77.1-1,.48,0-.14-.14-.48-.14-.67a.66.66,0,0,1,.24-.43l.43-.29s-.19-.24-.48-.72a.25.25,0,0,0-.1.19,1.56,1.56,0,0,1,.14.48l-.77-.19c.29,0,.67-.67.91-.67s.14,0,.24.1l.1-.38a.43.43,0,0,0-.24,0,.36.36,0,0,0-.34.19v-.34a1.63,1.63,0,0,1,.19-.77V95.15a.4.4,0,0,0-.34-.1.85.85,0,0,1,.19-.48,2.89,2.89,0,0,0-.53-.67l-.57-.43a1.48,1.48,0,0,0-.57-.29,1.77,1.77,0,0,0-1.49.86,2.84,2.84,0,0,0-.57,1.68,9.09,9.09,0,0,0,.29,3c-.24.1-.34.34-.34.67s.1.86.1,1.06a10.22,10.22,0,0,0,0,1.06v1.06c0,.58,0,1.06,0,1.44a4.18,4.18,0,0,0-.24.91c0,.34,0,.81.1,1.49s.1,1.15.1,1.44a1.24,1.24,0,0,1-.19.48c0,.1,0,.14,0,.24a.75.75,0,0,1-.29.67,1.57,1.57,0,0,0,.29.38,1.94,1.94,0,0,0,.14-.48,1,1,0,0,1,.29-.48l.29-.19.14.14v.43h-.1a.35.35,0,0,0-.34.29,1,1,0,0,0,.19.29,1,1,0,0,1,.24-.43,3,3,0,0,1,.24.53c.1.24.19.38.24.38s.57.14.72.14c0-.19.14-.43.24-.77h.14c.38,0,.62,0,.67-.14a4.52,4.52,0,0,1,.48.48v.1a.15.15,0,0,1,0,.1.18.18,0,0,1-.16.19h0c.1,0,0,0-.19-.1l-.1,0a2,2,0,0,0,.43.67,2.19,2.19,0,0,1-1.15.38c-1.1,0-1.82-.24-2.11-.67l-.24.24c-.38-.19-.57-.38-.57-.62s.19-.48.19-.58a.25.25,0,0,0-.1-.19l0,0s.1,0,.1-.14-.14-.34-.34-.43c.1-.14.1-.24.14-.29a.69.69,0,0,0,.34.1l.1-.1a1.07,1.07,0,0,0-.1-.58l-.38-.14,0,.14a.77.77,0,0,0,.14.43l-.29-.24a1.93,1.93,0,0,1-.77.67.52.52,0,0,1-.1-.38.47.47,0,0,1,.14-.38,1.72,1.72,0,0,1-.24-.43.59.59,0,0,0,.19-.43c0-.38-.14-.58-.34-.62a.36.36,0,0,1,0-.24,1,1,0,0,0,.38-.29l-.14-.14a6.28,6.28,0,0,0,.62-.58.25.25,0,0,0-.19-.1.64.64,0,0,0-.38.14v0a.18.18,0,0,1,.08-.23h0c-.1-.1-.48-.48-.48-.67a1.18,1.18,0,0,1,.38-.81,3.5,3.5,0,0,1,.48.43l.1,0s0-.1,0-.19-.24-.34-.62-.62v0a1.09,1.09,0,0,1,0-.19c0-.14-.1-.19-.19-.14h0a.94.94,0,0,1,.19-.38q-.14-.22-.43-.58c.1,0,.24.1.34.1a.17.17,0,0,0,.1,0,.22.22,0,0,0-.14-.14s0,0,.1,0,.34-.14.38-.48c-.1.1-.14.19-.29.34h-.38v-.24c0-.19,0-.29.24-.34v0s0-.1.1-.19a1,1,0,0,1-.29-.19.81.81,0,0,1,0-.48c-.1-.29-.19-.67-.38-1.2a3.15,3.15,0,0,1,.57-.58A.59.59,0,0,0,102,98h.24a1.52,1.52,0,0,0,.1-.67c0-.34-.14-1.1-.14-1.39a1.13,1.13,0,0,1,.24-.77l-.1-.14.24-.43h0a3.88,3.88,0,0,1,.19-1.34,7.26,7.26,0,0,0,.67-.43v-.1c0-.53.34-.91,1.05-1.15a4.42,4.42,0,0,1,1.7-.33l.29.34c.14-.14.19-.24.19-.34.43.1,1.05.19,1.87.38.34.24.62.48.91.67a2.73,2.73,0,0,1,.72.86,8.35,8.35,0,0,1,.48,3.12c0,.29.1,1,.1,1.2s0,1,0,1.29,0,.72,0,1.34,0,1,0,1.34A12.46,12.46,0,0,0,110.48,103.88Zm-7.48,3.4v-.19h-.29v.19Zm.14,2.49-.1.1-.29-.29.1-.14Zm.34-2.44H103l0,.1a.51.51,0,0,0,.1.29c0-.1.1-.14.29-.14s.34.1.43.1Zm-.1,0-.14-.34-.14,0,.14.29Zm0-1a.43.43,0,0,0-.14.34s.14,0,.43,0Zm1.68,3.84a1.7,1.7,0,0,0-.43-.53,1.28,1.28,0,0,1,.14.58c0,.1,0,.14,0,.19Zm.48.14-.1-.14-.29.14v.14Zm.24-.43v-.1a.37.37,0,0,0-.1-.24,1.53,1.53,0,0,1-.29.34,2,2,0,0,0,.19-.43.46.46,0,0,1,.43-.29,1.18,1.18,0,0,1-.23.73Zm.77-18-.19-.19-.1.14.14.19Zm.34,17.26-.14.1-.19-.19.14-.1Zm1.87-10.07-.19-.19-.1.14.14.19Zm.24.14-.19-.1-.14.29.19.1Zm.43-2a2.63,2.63,0,0,0-.34.43.66.66,0,0,1,.43-.24.13.13,0,0,1,.14.14c0,.1-.1.24-.1.34q0-.14.29-.14a5.1,5.1,0,0,1-.42-.52Zm.24-1.2-.14-.53c-.1.14-.24.29-.43.53Zm-.14-2.73a3.87,3.87,0,0,0-.29.62v0a.82.82,0,0,1,.43.48,2.06,2.06,0,0,1,.24-.62,1.36,1.36,0,0,1-.38-.52Zm.19,5.56-.14,0-.14.29.14.1Zm-.19-.81a1.28,1.28,0,0,1,.14.58.26.26,0,0,1,.29-.19Zm.38,1.44,0-.14-.29.14v.14Zm0-4.22v-.43h-.19v.43Z"/><path id="Path_474" data-name="Path 474" class="cls-1" d="M121.18,97.79v.14a3.11,3.11,0,0,1-.62,2.21c-1.05,1.34-2,2-2.93,2-.38,0-1.39-.24-1.82-.24q-.29,0-.57.58a2.16,2.16,0,0,0-.29.91c0,.19.14.48.14.62,0,.43,0,1.06,0,1.92s0,1.49,0,1.92a19.29,19.29,0,0,0,.24,3,9.42,9.42,0,0,1-2.11.24c-.53,0-.82-.38-.82-1.15a6.19,6.19,0,0,1,.14-1.15,6.85,6.85,0,0,0,.14-1.1v-1c0-.81,0-2.06,0-3.69s0-2.88,0-3.69v-3c0-.24-.1-.34-.19-.34V92.8a2,2,0,0,1,.38-1.06,1.16,1.16,0,0,1,.86-.58c.1,0,.19.1.34.19s.57,0,1.05.1a10.55,10.55,0,0,0,1.1,0c.19,0,.48-.1.67-.1s.67.34.86.34.14-.14.29-.14a3.3,3.3,0,0,1,1.58.77,3.55,3.55,0,0,1,1.2,1.34,13.18,13.18,0,0,1,.29,3.45c0,.19.1.34.34.53C121.32,97.7,121.27,97.7,121.18,97.79Zm-2.88-3.5a5.08,5.08,0,0,1-.57-.48c0,.24-.1.34-.19.34v0q0-.36-.43-.43a3.24,3.24,0,0,0-.67-.1.59.59,0,0,0,.19-.43.61.61,0,0,0,0-.29c-.14,0-.24,0-.24.1s.1,0,.19.29a8.7,8.7,0,0,1-1.1.43c.14.14.19.24.19.29l0,.1a2.65,2.65,0,0,0-.43,0s-.14.24-.34.53-.29.38-.29.48.29.53.29.62,0,0,0,.1c-.24,0-.34.1-.38.34.19,0,.24.19.24.38s0,.43,0,.48a2.34,2.34,0,0,0-.14.34l.14,1.29c.14.58.34.91.62,1a4.07,4.07,0,0,0,1.34.34,4.25,4.25,0,0,1,.86-.72,1.48,1.48,0,0,0,.72-1.15A10.94,10.94,0,0,1,118.4,97a6.19,6.19,0,0,0,.14-1.15,6.88,6.88,0,0,0-.24-1.54Z"/><path id="Path_475" data-name="Path 475" class="cls-1" d="M132.25,110.07a3.3,3.3,0,0,1-.24.86.7.7,0,0,1-.67.48c-.19,0-.72-.34-.91-.34s-.19.1-.34.24l-.24-.24a2,2,0,0,1-.53,0,3.87,3.87,0,0,1-.91-.14,4.75,4.75,0,0,0-.91-.14c-.14,0-.14.1-.14.29,0,0-.1-.14-.24-.29a1.19,1.19,0,0,1-.91.34,3.17,3.17,0,0,1-.53,0,.9.9,0,0,0-.53,0l0,0c0-.1-.1-.14-.24-.14s-.14.24-.29.24a6.87,6.87,0,0,0-1-.24l-.48-14.14c0-.77-.1-1.53-.19-2.4s-.14-1.44-.14-1.49a2.79,2.79,0,0,1,.43-1.2,1.38,1.38,0,0,1,.57-.1l5.27-.19c.29,0,.91-.14,1.2-.14.62,0,1,.14,1.2.48a2.29,2.29,0,0,1,.24,1.34c0,.91-.29,1.25-1.15,1.25-.48,0-1.2,0-2.21,0s-1.68-.1-2.21-.1c-.19,0-.38.19-.62.62a1.8,1.8,0,0,0-.34.86.25.25,0,0,0,.19.24,17.55,17.55,0,0,1,.1,2.06.43.43,0,0,1-.14.34,3.46,3.46,0,0,1,.1,1.15c.14.14.19.19.29.19s.24-.14.38-.14.48.34.67.34.82,0,1.44,0,1.15-.1,1.44-.1.67.38.67,1.15a3.85,3.85,0,0,1-.1,1.1.9.9,0,0,1-.91.43c-.38,0-1.34-.1-1.73-.1a3.12,3.12,0,0,0-.86.19,1.79,1.79,0,0,0-.82.29,2.17,2.17,0,0,0-.29,1,5.8,5.8,0,0,0-.19,1,1.27,1.27,0,0,1,.1.53,7.23,7.23,0,0,1-.24,1.34v0c0,.1-.1.29-.1.38a1.65,1.65,0,0,0,.19.62,6.24,6.24,0,0,1,.24.67l-.19.14v.38l.19.1v-.1c0-.1,0-.24,0-.34h.38a2.7,2.7,0,0,1,.34,1c.19-.1.1-.38.19-.43s0,0,.1.19,0,.24.1.24l.24-.19v.14a.4.4,0,0,0,.1.29,1.62,1.62,0,0,1,.38-.14l-.19-.1v-.4c.19,0,.53-.43.53-.43v.53a2.07,2.07,0,0,0,0,.24.72.72,0,0,0,.19-.38q.72-.22.86-.58c.1.19.24.43.43.43s.43-.24.53-.24a4.43,4.43,0,0,1,1.53-.19c.24,0,.43.24.57.67s.29.72.43.77C132.44,109.83,132.35,109.92,132.25,110.07Zm-6.81.14-.14-.19-.14.1.19.19Zm1.34.29c0-.1,0-.14,0-.19a.64.64,0,0,0-.34.14.7.7,0,0,0,.38.24c-.1,0-.1-.1-.1-.19Zm.34-.19c-.14,0-.19.1-.19.34l.43,0Z"/><path id="Path_476" data-name="Path 476" class="cls-1" d="M142.32,101.1c-.1,0-.19,0-.34,0,.29.14.43.29.38.34v5.23a9.43,9.43,0,0,0,.19,1.58,9.75,9.75,0,0,1,.19,1.68c0,1-.34,1.06-1.29,1.06a2.08,2.08,0,0,1-1.53-.77,11.33,11.33,0,0,1-.38-1.63,7.24,7.24,0,0,1-.53-1.49q-.5-3.16-2.16-3.16c-.1,0-.19.1-.38.29l-.29.43a.43.43,0,0,1,0,.24c0,.53-.43.77-.72,1.06,0,0,0,0,.1,0s.48-.19.67-.19v4.51a2.8,2.8,0,0,1-.24.62,3.18,3.18,0,0,1-.72,0,5.31,5.31,0,0,1-1.15,0,.82.82,0,0,1-.67-.81l.14-18.8.14.1.1-.1s.1,0,.19,0c.29,0,.91-.14,1.1-.14-.14,0,.19,0,.86.14a2.07,2.07,0,0,1,.72,1.39v.48a2,2,0,0,0,.14.77,1.88,1.88,0,0,1,.29.62c0,.34-.29.43-.53.57a.18.18,0,0,0,.14,0c.1,0,.19,0,.34,0a4.57,4.57,0,0,1,.62,1.25c.24.67.43,1,.48,1s.24-.1.29-.1-.1.14-.24.29c.14.14.29.34.53.58,0,0,0-.1.1-.19s.1,0,.19,0,.14,0,.14,0v0s0,0,.1,0,.19-.1.14-.19.19.1.38.34c.14-.19.29-.43.48-.72a9.59,9.59,0,0,0,.19-1.44c0-.24-.19-.81-.19-1.06v0a1.53,1.53,0,0,0,.34-.29.36.36,0,0,1,0-.19.49.49,0,0,1,.24-.38l0,0q0,.57.72.58c.1,0,.29,0,.34,0s.14,0,.19,0,.14-.34.19-.53c.34.34.53.58.53.72s-.14.62-.14.77c-.19,0-.29-.1-.34-.1s-.14,0-.19,0,0,.29.24.29a1.49,1.49,0,0,0,.34-.1.18.18,0,0,0,0,.14c0,.1,0,.43,0,.53a.79.79,0,0,1-.24.58v3.84a1.83,1.83,0,0,0,.43.43C142.61,101.15,142.46,101.1,142.32,101.1Zm-6.09-2.78-.29-.15,0,.19.29.14Zm2.25,8.15s0,0,0-.14v-.14a2.07,2.07,0,0,1,0-.24q.29.29.29.43a.68.68,0,0,1-.29.1Zm3.55.38-.33-.38c-.19,0-.34-.19-.38-.19s0,.1-.14.1a.84.84,0,0,1-.29,0c-.1,0-.19,0-.19,0a2.38,2.38,0,0,1,0-.72l0-.1h0a.18.18,0,0,1-.14,0l.2-.14a1,1,0,0,1,.34.86,2.5,2.5,0,0,0,.29-.67c.1,0,.14,0,.14.1s-.1.24-.1.29a1,1,0,0,0,.38-.29.15.15,0,0,1-.1,0c-.14,0-.14-.14-.14-.43-.1,0-.24.19-.34.19s0,0-.1,0a3.71,3.71,0,0,1,.48-.58.81.81,0,0,0,.29.29,1.35,1.35,0,0,0,.19-.53,1,1,0,0,1-.38.14l-.14-.1c.14-.1.24-.14.24-.24s0-.29,0-.24a.26.26,0,0,1-.24.1.25.25,0,0,1-.29-.29c0-.14.1-.48.1-.62.14.14.24.19.29.19v.29c0-.1.19-.38.19-.58l-.43-.14v-.48l.19-.19a1.32,1.32,0,0,0,.38.29.89.89,0,0,1-.24-.48q.14-1.58.14-1.44v-.15l-.19.14s-.1,0-.1-.1.29-.77.43-1a.76.76,0,0,1-.23-.39.59.59,0,0,1-.43.14.64.64,0,0,1-.48-.14.36.36,0,0,1,0,.19c0,.58-.62,1-1,1.39a1.31,1.31,0,0,1,.62.62l-.29.14s0,0,0,.1-.1.19-.24.38-.34.34-.34.38V103c.1,0,.14,0,.19.1a1.39,1.39,0,0,0-.43.67c.38.34.53.58.53.77s-.14.29-.43.53c.19.1.29.34.29.77a1,1,0,0,1-.19.58c.19,0,.34.14.38.38a.5.5,0,0,0,.53.38c.1,0,.19-.1.34-.24,0,0,0,.1,0,.24s0,.1.14.1h.53c0-.24,0-.34.14-.34s.14.19.24.34a.72.72,0,0,1,.29-.14v-.24Zm-2,1.15v-.19h-.53V108Zm.24-3.6-.1.14-.34-.14v-.19Zm2.35-11.27h-.24c-.14,0-.43-.1-.53-.1s-.38,0-.43.14v.43a1,1,0,0,1-.14.43s0,0,.1,0a1.33,1.33,0,0,1-.67-.43.66.66,0,0,0,.14-.19l0-.1c-.29.19-.34.24-.38.53a2.36,2.36,0,0,1-.34-1.1,1.45,1.45,0,0,1,.34-1.06,1.94,1.94,0,0,1,1.1-.19,2,2,0,0,1,1.25.43c0,.3-.14.87-.14,1.16Zm-2.11,13.23-.34.14v-.14l.24-.14Zm.14-2h-.29v-.19h.29Zm0-.58h-.19v-.38h.19Zm.29-3.07h-.29v-.19h.29Zm.1-2.54v-.38h-.19v.38Zm.29,1.87-.43.14V100l.38-.14Zm.53-3c-.14,0-.24,0-.38,0l.24.14c-.1.1-.14.14-.14.19s0,0,.1.1.1-.1.1-.1l.1.1-.29.14v0a.36.36,0,0,0,0,.19V98a.44.44,0,0,1-.14.24c-.14-.14-.24-.24-.24-.29,0,.19-.24.43-.24.48.48,0,.77-.24.86-.53s.19-.58.29-.81c-.06-.1-.16-.1-.3-.1Zm-.34,3.64h-.14l-.14-.38.14-.1Zm.67-6.76a.7.7,0,0,0-.29,0s0,.1.1.14c-.1-.1-.19-.1-.38-.1l.14-.53a.36.36,0,0,0,.19,0,1.09,1.09,0,0,0,.53-.14c-.05.34-.15.53-.29.53Zm.1,14.1-.19-.19-.1.14.14.14Z"/></g><g id="Group_485" data-name="Group 485"><g id="Group_434" data-name="Group 434"><path id="Path_477" data-name="Path 477" class="cls-1" d="M34.25,122.2c.14-.14.1-.53-.43-.48a6,6,0,0,1-.43.57A5.28,5.28,0,0,0,34.25,122.2Z"/></g><g id="Group_435" data-name="Group 435"><path id="Path_478" data-name="Path 478" class="cls-1" d="M31.28,120.18a7.08,7.08,0,0,0-1,0c-.34.1-.57.24-.57.57a2.49,2.49,0,0,1,.91,0,1.75,1.75,0,0,0,.91-.14c.48.14.72.53.57.72.1,0,.29,0,.53.1a.6.6,0,0,0,.62-.1,3,3,0,0,0-2.16-.91C30.94,120.33,31.18,120.28,31.28,120.18Z"/></g><g id="Group_436" data-name="Group 436"><path id="Path_479" data-name="Path 479" class="cls-1" d="M35.74,81.78l-.29-.1C35.5,81.78,35.59,81.78,35.74,81.78Z"/></g><g id="Group_437" data-name="Group 437"><path id="Path_480" data-name="Path 480" class="cls-1" d="M63.55,82.16c-.19,0-.29.1-.29.14C63.45,82.26,63.59,82.21,63.55,82.16Z"/></g><g id="Group_438" data-name="Group 438"><path id="Path_481" data-name="Path 481" class="cls-1" d="M68.34,82.83c-.1,0-.19,0-.29,0A.23.23,0,0,0,68.34,82.83Z"/></g><g id="Group_439" data-name="Group 439"><path id="Path_482" data-name="Path 482" class="cls-1" d="M35.74,81.78l.77.19C36.5,81.78,36.07,81.82,35.74,81.78Z"/></g><g id="Group_440" data-name="Group 440"><path id="Path_483" data-name="Path 483" class="cls-1" d="M26.87,114.91a1.7,1.7,0,0,0,.19.43c0-.19,0-.29-.09-.43Z"/></g><g id="Group_441" data-name="Group 441"><path id="Path_484" data-name="Path 484" class="cls-1" d="M29.93,88.44v.24c.1,0,.14.14.24.19Z"/></g><g id="Group_442" data-name="Group 442"><path id="Path_485" data-name="Path 485" class="cls-1" d="M30,97.84c0-.19-.53-.29-.77-.38a.73.73,0,0,1,.38.48A.72.72,0,0,0,30,97.84Z"/></g><g id="Group_443" data-name="Group 443"><path id="Path_486" data-name="Path 486" class="cls-1" d="M29.07,112.8l.1.29A1,1,0,0,1,29.07,112.8Z"/></g><g id="Group_444" data-name="Group 444"><path id="Path_487" data-name="Path 487" class="cls-1" d="M31.52,83.45a.36.36,0,0,0,.19.1A.36.36,0,0,0,31.52,83.45Z"/></g><g id="Group_445" data-name="Group 445"><path id="Path_488" data-name="Path 488" class="cls-1" d="M45.18,123.45v-.1S45.09,123.45,45.18,123.45Z"/></g><g id="Group_446" data-name="Group 446"><path id="Path_489" data-name="Path 489" class="cls-1" d="M34.25,120.76l.14,0c0-.1,0-.19,0-.29Z"/></g><g id="Group_447" data-name="Group 447"><path id="Path_490" data-name="Path 490" class="cls-1" d="M77,83.55s0,0,0,0C76.73,83.6,76.87,83.55,77,83.55Z"/></g><g id="Group_448" data-name="Group 448"><path id="Path_491" data-name="Path 491" class="cls-1" d="M149.66,88.39c.48-.91.62,1.49,1.15.1C150.57,88.63,149.94,87.24,149.66,88.39Z"/></g><g id="Group_449" data-name="Group 449"><path id="Path_492" data-name="Path 492" class="cls-1" d="M27,114.67v-.38A.52.52,0,0,0,27,114.67Z"/></g><g id="Group_450" data-name="Group 450"><path id="Path_493" data-name="Path 493" class="cls-1" d="M150.81,88.49h0l0-.14A.18.18,0,0,0,150.81,88.49Z"/></g><g id="Group_451" data-name="Group 451"><path id="Path_494" data-name="Path 494" class="cls-1" d="M97.06,83.22c0-.1-.14-.14-.19-.24S96.92,83.08,97.06,83.22Z"/></g><g id="Group_452" data-name="Group 452"><path id="Path_495" data-name="Path 495" class="cls-1" d="M82.15,82.45l.38.1A.72.72,0,0,0,82.15,82.45Z"/></g><g id="Group_453" data-name="Group 453"><path id="Path_496" data-name="Path 496" class="cls-1" d="M104.83,82.45a1,1,0,0,0,.53,0s0,0-.1,0A.45.45,0,0,1,104.83,82.45Z"/></g><g id="Group_454" data-name="Group 454"><path id="Path_497" data-name="Path 497" class="cls-1" d="M112.88,82.45s-.1-.1-.14-.1a.36.36,0,0,0-.24,0Z"/></g><g id="Group_455" data-name="Group 455"><path id="Path_498" data-name="Path 498" class="cls-1" d="M69.68,123.2a1.68,1.68,0,0,1-.38-.48C69.44,123.06,68.29,123.2,69.68,123.2Z"/></g><g id="Group_456" data-name="Group 456"><path id="Path_499" data-name="Path 499" class="cls-1" d="M27.2,114.91a.31.31,0,0,1-.24-.24.61.61,0,0,0,0,.29A.29.29,0,0,0,27.2,114.91Z"/></g><g id="Group_457" data-name="Group 457"><path id="Path_500" data-name="Path 500" class="cls-1" d="M105.16,78.18l1.29.1A10.94,10.94,0,0,0,105.16,78.18Z"/></g><g id="Group_458" data-name="Group 458"><path id="Path_501" data-name="Path 501" class="cls-1" d="M127.6,123.11l-.29,0A.32.32,0,0,0,127.6,123.11Z"/></g><g id="Group_459" data-name="Group 459"><path id="Path_502" data-name="Path 502" class="cls-1" d="M110.24,78.18a2.63,2.63,0,0,0,.72.38l.14-.14Z"/></g><g id="Group_461" data-name="Group 461"><path id="Path_504" data-name="Path 504" class="cls-1" d="M60.86,124c1.2,0,.58-.67.81-1.1,1.44-.19.67.53,1.15.86.91-.19,1.63-.81,2.3-.81,0,.1.19.14,0,.29,1-.58,2.88,0,4-.72a.26.26,0,0,1,.14.19,1.9,1.9,0,0,1-.19-1c.53,0,1-.43,1.2,0-.34,0-.38.19-.53.34l.58-.19c.53.67-.77.24-.77.72,1.1-.24,2.44-.77,3.26-.58.19.67-2,.24-.86.81l-1.25-.29c1,1-.81-.1.14,1,1.73.19,2-.34,3.69-.14.38-.38-.14-.53.24-.91,2.49-.67,2,1.63,3.79.77.48-.43.67-1.25,2-.81l-.43.72c1.68.1,1-1.06,2.73-.58-.34.29-1.34.24-1.06.34,1.15.58.81-.43,1.68-.43l.19.67c1.82-.1,3.79-.58,5.75-.67-.1.19-.43.38,0,.58a28,28,0,0,1,7.77.48l.91-.58c.19,0,.38.24.14.38,1,.19,0-.34.48-.58.53,0,.72.34.38.48,1.68-.48,4.75-1,6.52-.43l-.34.14c1.39.24,1.53-1.15,2.83-.62l-.24.1c3,.24,6.23-.29,8.53.58.43-.81,2.93.38,3.12-.77,1.68.58,1.2.77,3.6,1.15.62,0,1-.72,1.73-.81v.58l1.05-.63.57.72.72-.14c-.29,0-.62-.29-.57-.43,1.15-.29,2.83.43,2.83.72l2.73-.48c0,.24-.53.34-.86.48,1.44-.62.29.62,1.58,0-.19-.14.1-.34.14-.48a6.69,6.69,0,0,0,3.31.19l-.19.38c2,.1,4.27-.19,6.57-.19-.82-.19-.62-.91,0-1l.29.62c.43-.38-.72-.24.19-.72.86.1.57.72.1.91l1.06-.24c0,.19-.19.29-.24.53.19-.19.67,0,1.15.1a3.7,3.7,0,0,0,.72.1h.14c.1,0,.14,0,.24,0a1,1,0,0,0,.38-.19l.1.19a7.47,7.47,0,0,0,3.79-1.39,10.35,10.35,0,0,0,2.43-2.55c-.19-.19-.14-.48,0-.81a2.44,2.44,0,0,0,.14-1.2,8.09,8.09,0,0,0,.53-1.29c0-.24.14-.48.19-.72s.1-.53.14-.72a9.53,9.53,0,0,0,.19-2.35c-.29-1.15-.48-.34-.77-.86.48-.1.43-1.73.82-.86a35.27,35.27,0,0,0-.48-5c-.19.29-.29.58-.48.43-.1-.43.19-1,.43-1l0,.1c-.72-2.78,1.44-6.47.43-8.68l0,.14-.53-2.3c.1-1.06.38.62.67-.14-.82-2.49.1-3.93-.43-6a2.77,2.77,0,0,0,.62-1.58,6.12,6.12,0,0,0,0-1.34c0-.24-.1-.53-.14-.77s-.14-.53-.24-.77a9.19,9.19,0,0,0-1.63-2.74c-.62-.77-1.34-1.44-1.87-2.06l-.19.48c-.82-.14-.72-.62-1.25-1,0,.29.67.67.14.62a8.34,8.34,0,0,0-2.4-.57c-.24,0-.43,0-.62-.1h-1.44c-1.2,0-2.4-.1-3.64-.24-2.44-.19-4.89-.53-7.28-.67-1.77-.1-1,1.77-3.21,1l.62-.62c-3.55.77-7.24,0-10.74.62.19-.14.19-.34.57-.34-.72-.48-2.73,0-2.73.34-.53,0-.14-.34-.48-.53-.72-.29-1.88.57-2.26.14,0-.1.19-.14.34-.19-.48.24-2.25,0-1.77.48-1.29-.24-2.49.24-3.55-.1-.67.57-2.25-.29-2.44.57.1-.86-2.3-.72-3.12-.29.29-.24-.72-.29-.38-.62-1,0-1.82.19-1.63.62-1.73-1.05-3.5.81-4.46-.48-2.78.48-5.37.77-7.91,1,.1-.86,2.78-.1,2.68-1-2.4.34-3.74,1.1-6.14.91-.62-.1.34-.38.58-.53-2.4.34-4.6-.1-6.71.38,0-.1.24-.19.43-.24-.43,0-1-.14-.91.29l.38-.1c.67.57-1.68,1.2-1.73,1.49.72-1.15-2.11-.29-1-1.73-.29.1-.62.24-.58.53-.38-.14-.53-.29-.1-.62-1.49.19-1,.62-2.3.62,0-.19.29-.29.43-.48a3.73,3.73,0,0,1-2.54.57c0-.1-.1-.24.24-.24-2,0-3.36,1-5.51.62.62-.82-.72-.29-.86-1l-1.15.2.48.34c-1,0-1.92.53-2.78.29l.77-.29-1.92.14,1.06.29c-1,.38.1.91-1.25.72.29-.1-1,0-1.53-.43h0a2.35,2.35,0,0,1-1.77.29c-.19-.24.14-.82,0-1-.48.57-2.4.14-3,.81a.55.55,0,0,0,.14-.62L56,80.1c-.48-.14-.53-.24-.48-.53-1.44-.1.43.91-1.25.53.14,0,0-.1.34-.19-1.63-.19-3.16.34-4.75.1-.48-.72,1.34-.19.82-.77-2.25.14-4.65.86-6.81.67l.38.1c-.29,1-1.63-.48-2.68,0,.29-.1.34-.58.29-.43a23.61,23.61,0,0,0-5.27.57l.29-.24a13,13,0,0,0-1.58-.19,5.21,5.21,0,0,1-.86,0h-1c-.34.29-.91.38-.48.67a3.46,3.46,0,0,0-2.49.43,4.94,4.94,0,0,0-1.68,1.77A13.5,13.5,0,0,0,28,84.7c-.1.38-.19.72-.29,1.1,0,.14-.1.34-.14.53l-.1.29c0,.1,0,.14-.1.24a.43.43,0,0,0,0-.24,2.08,2.08,0,0,0,0-.24c-.1-.14-.14-.24-.14,0v.34l0,.24,0,.53.14,1.1c.43-.19.29-.29.62-.77a2.57,2.57,0,0,1,.48,1.44c-.29-1-.72,0-1,.43.1,0,.24.14.38.1-.77,1.15.91.19.38,1.77l-.24-.1a7.31,7.31,0,0,1,.38,1.77c-.53.24-.24-.62-.67-.67,0,.91,1,1.77.48,2.54-.14-.38-.14-.91-.29-1.3a2.25,2.25,0,0,0-.53,1.63v0l-.28,1.49.14-.33c1.34,1.1.24,2.25,1.1,3.79-.81-1.44-.48-.24-1.05-.34-.14.38-.34,1-.53.82.48.72-.38,1.2.34,2.21-.19,0,0,.77-.48.58.14.91.34-.24.57-.14.62,1.44-.77,3.36.1,5.37.38,1.77,1,2.11,1.29,3.74-.29.58-.67-.43-.67-.43a3.73,3.73,0,0,0,0,2.4c-.14-.19-.29,0-.53.24,0,.67.67.43.48,1.44a2.2,2.2,0,0,1-.81-.72A6.08,6.08,0,0,0,28.4,118c-.1.19-.29.1-.48,0a5.75,5.75,0,0,1-.53-.58A5.94,5.94,0,0,0,28.45,119a2.89,2.89,0,0,0,.67.53,1.66,1.66,0,0,0,.58.14,6.71,6.71,0,0,1-.29-.62c.24.29-.24.43-.48.24a1.18,1.18,0,0,1-.62-.81,1.1,1.1,0,0,1,.19-.53c.14.19.29.34.43.53.29-.58,0-1-.38-1.63a4.22,4.22,0,0,1-.29-.48c-.1-.19-.14-.34-.24-.53a4.12,4.12,0,0,1-.19-1c.29.14.53.34.82.48-.24-.38-.43-.81-.67-1.2.19-.24.67-.43.77.14.38-.86-.29-.77.14-1.49.1-.1.14-.1.19,0l-.24-.81c.14.14.58-.14.43.34.48-1.49-.58-2.4,0-2.92l0,.14c-.29-2.06-.58-.19-1.3-1.72l1.44-1.06-.58-.19c0-.19,0-.62.29-.58-.38-.77-.24.14-.62-.34.53-1-.24-2.83.67-3-.43-.38-.34,1-.67-.1,1-.29-.19-1.25.29-2.21.53.29.24,1.15.72.24-.86-.58.19-1.82,0-2.59-.72,0-.29-1.73-.53-3,.34,0,.48-2.54.72-3.74l.1,0c-.72-.24-.58-1.49-.72-2.44.43,0,.58.19.77.72v-.86c-.24-.19-.34-.48-.43-1.06l.58.24a13.2,13.2,0,0,0-.24-1.63,2.11,2.11,0,0,1,.43-1.53c-.19-.14-.62,0-1-.1s-.63-.19-.39-1c.29.1.67.29.58.67,0-.19,0-.57.29-.72a3.7,3.7,0,0,0,.1.72c.48-.38-.19-.48.14-.86.29.24.43-.1.62.14,0,.1-.38.24-.34.43a1.57,1.57,0,0,1,1.25-.57c-.14-.14-.34-.38,0-.67s.53-.19.62-.1.14.24.43.24c0-.34.67-.24.53-.82.29,0,.38.19.48.34a2.43,2.43,0,0,1,1.29-.29c.53,0,.91-.19.57-.48l-.14,0s0,0,.1,0h0c2-.58,4.07.34,6,.1v.19c1.15-.24,2.59-.14,3.4-.53.34,0,.82.34.67.57a3.88,3.88,0,0,1,2.25,0c-.91.29.29.29-.91.24,1.15.14,1.39.48,2.64,0-.43.48.86.62,1.39.48L50,82.26a9.79,9.79,0,0,1,1.68,0l-.29.62c2.35.77,4.27-1.34,6,0,.62-.43-1.3-.34-.72-.82,1.1.1,2.21,1,2.54,1,1.49.34,1.39-.91,2.92-.67-.19-.24-.38-.82.77-1.05,1.1.1,1.34,1,.67,1.15-.24,0-.38,0-.38-.14-.34.1-.81.19-.38.43l.14-.24c.53.24,2,.19,1.68.57.81-.24.34-.38-.24-.48,1.39.34,2.16,0,3.6.24-.24-.14-.43-.38-.19-.38,2.11.29.91-.43,2.35-.53.81.34-.29.82,1.15.53.86.24.19.62-.14.77,1.29-.43,2.44.29,3.16.38l-.67.19a4.68,4.68,0,0,1,1.1-.1l-.38-.48c.38.1.77.1.72.29.43-.29-.34-.77.53-1.15.53.24,1.63-.24,1.82.34-1.68-.19.19.62-1.25.72a2.36,2.36,0,0,1,1,0s0,.14-.14.14c1.63.53.77-.67,2.4-.67-.19.34.38.62.67.57-.67,0-.34-.57.29-.82,1.06.29,1.15-.19,1.73-.14l-.62-.14c.24-.34.77-.29,1.49-.38,0,.29-.67.19-.43.29.81-.58,1.87.62,3,.24.53.24,0,.62.53.82,1.29-.43,1.39.48,2.78.1-.38-.48-.48-.34.48-.82L87.14,83l1.44-.68a16.91,16.91,0,0,1-1.82.19c.67-.38.62-.24.29-.62.91.67,1.82-.38,2.92,0l0,1.15c1.63.53,2.88-.57,4.94-.29l-.63-.34c.29-.43,1.29,0,2-.24,0,.38.38.53.67.77,0-.29,1.53,0,1.73-.72l1,.48c1.68.19,1.92-1.1,3.55-1-.48.43.24.67-.86,1,.53,0,1,.1,1.06-.19.34.24,1.49-.53,2-.14.24-.14.29-.57.91-.53a.23.23,0,0,1,0,.19c0-.19,1-.24.43-.67,1.68,1.2,4.65-.1,6.14.91,1.2-.14,2.59-.24,3.69-.29,0,.1,0,.19-.19.14,1.49.34.91-1.1,2.59-.67.86.62-.91.34-.34.57.24,1.25,2-.19,3.16.57l-.29.1c.86.43,2.11-.48,3.55-.38a.23.23,0,0,0,0,.19,11.12,11.12,0,0,1,4.17-1c-.43.48-.62.24-.38.77.62,0-.19-.82,1.06-.91.38.29,1.29.48,1.39,1l-1.15,0c.57.67,1.49,0,2.11.1l-.1.29c1.77-.1,1.77-.86,3.69-.82l-.29-.29c1.06-.77.86.43,1.92-.14l.34.77a25.8,25.8,0,0,1,3.64-.86,11.36,11.36,0,0,1-3,1.2c.67,0,2.3,0,2.64-.43a1.53,1.53,0,0,1-.91.14,5.25,5.25,0,0,1,3.26-.86c-.1.72.77.82,1.77.86.24,0,.53,0,.77,0h.19l.14,0c.1,0,.19,0,.29,0a3.48,3.48,0,0,1,.43.24,1,1,0,0,1,.24.38,2.24,2.24,0,0,1,1.92,1.25,3.26,3.26,0,0,1,.38,1.15c0,.19,0,.38.1.62v.67c.29-.24.43-.29.48-.29s.1.14.1.29,0,.72.62.62c.1.67,0,.91,0,1l-.72,2c-.34.48-.24-.62-.53-.57-.1,1.44-.48.57-.82,1.53.43-.19.62.48.43,1.3l.53-1.15c.62,2-1,1.73-.38,3.74l-.38-.62c.24,1,0,3.79.91,4.8-.14.19-.48.43-.53,0-.14,2.44,1,5.47.43,7.38l-.29-.19c.1.48.53.82.24,1.39-.1,0-.29-.19-.29,0a3.74,3.74,0,0,1,.34,1.82l-.34-.53c-.38,2.4.77,3.69,1,5.66a1.06,1.06,0,0,0-.53.24,3.1,3.1,0,0,0-.38.43l-.62.86-.1,0a10.62,10.62,0,0,1-1.2,1.68,3.46,3.46,0,0,1-.91.67c-.19.1-.38.14-.57.24l-.91.14c-1.58-.91-5.42-.38-8-.91.38.14,0,.67-.53.72-.62-.19-1.68.58-1.58-.19h.19c-.43-.77-1.68-.58-2.68-.58l-.14,1c-2.54-1.49-6.67.53-8-.77-.62.24-1.39.24-2,.53l0-.53a28.93,28.93,0,0,0-4.65-.1l.43-.38c-1.2,0-1.49,1.58-2.59,1.58l-.34-.81c-2.06,0-4.17-.72-6.18,0a.51.51,0,0,1,.43-.38c-1,0-3.74-.53-3.4.58,0-.72-2.11,0-3.26.24l.19-.53a3.69,3.69,0,0,1-2.3,1.06c-.29,0-.29-.43.14-.29-1.06-.29-.82.53-2.06.24l.48-.34c-1.06,0-1,.14-1.58.53-.67.19-2-.14-2.16-.62a1.29,1.29,0,0,1-1.35.52c-.1-.19.14-.29.24-.34-1.77-.38-2.64.62-3.88.1,0-.19-.1-.29-.19-.34a14.44,14.44,0,0,1,2.45.1c0-.48-1.15-.58-.24-1.25-.91.38-2.49,1.2-3.6,1a.66.66,0,0,1-.14-.19l.1,0a1.26,1.26,0,0,0-.72.1,3,3,0,0,0-.91-.14c-.14-.43-1.29-.24-1.87-.24,0,.53-.72.43,0,.91-.1,0,.1,0,.48-.1l.24,0,0,0c.38,0,.86,0,1.44,0a1.36,1.36,0,0,1-1.53.19,7.46,7.46,0,0,1-.81.86c-.77-.77-2.3-1.15-2.49-1.63-1.73.29-4.12.19-5.18,1.2-.48.14-.58-.29-.77-.43.29-.1.62-.1.77-.24-1,.24-2.92.1-3.16.81-1.25-.34.72-.67-1-.53l.24-.24c-3.36-1.15-5.47,1.82-9.21.34.24.1.38.14.43.24-4.17-.58-8.73.67-12.9-.34-1.2-.19-1.34.24-2.06.58l-.29-.58-1.25.67c-1.77.48-3.07-1.44-5.32-.48l.29.38c-.81-.1-2.54.24-2.4-.24-.1,0-.29.38-.57.19l0-.29-2,.53c-1.53-.24.24-1.2-2-1.25-.81.1-2.35.86-2.06,1.1.34,0,.86.19.86.48l-.77.14c-.13.9-.71,1.82,1.16,2.44l1.3-.53.43.43-1.1,0c.62.43,1,0,1.44-.19a.87.87,0,0,0,.53.48l1.3-.86c.14.34-.57.67.29.86.57-.38-.57-.77.43-1.06.62.38.43.72,1.15.38.1.24,0,.38-.34.48.67-.29,1.73-.1,2.06-.58.67.48,2.21-.14,2.11.72a4.15,4.15,0,0,1,1.73-.72c-1.1,1,2.25,0,2,1.15.82-.91,2.92-.38,4.36-.91-.1.1-.24.24-.38.19a4.35,4.35,0,0,1,1.53.53c.1-.77,1.34-.91,2-1.39,1,.72-.58.86-.29,1.58,0-.62,1.73-.62,1.39-1.1.77.43.67.24,1.06.86.14-1,.72-.14,1.34-.72,1.1.48.29.86,1.49.58C62,123.63,60.86,124,60.86,124Zm28.58-1.63h0c-.24,0-.43,0-.58,0a3.6,3.6,0,0,0,.57,0Zm2.4,0a7.71,7.71,0,0,0-1.06,0A.25.25,0,0,1,91,122c-.15.1.43.24.81.38Zm-5.09-3.74c.38-.1.53,0,.58.14-.19,0-.38,0-.67,0l0,0A.44.44,0,0,1,86.75,118.6Z"/></g><g id="Group_462" data-name="Group 462"><path id="Path_505" data-name="Path 505" class="cls-1" d="M86.08,119.32s-.1,0-.14,0,.14.1.24.14a.66.66,0,0,0,.14-.19Z"/></g><g id="Group_463" data-name="Group 463"><path id="Path_506" data-name="Path 506" class="cls-1" d="M35.4,81.73h.05a.1.1,0,0,1-.1-.1h0S35.35,81.68,35.4,81.73Z"/></g><g id="Group_464" data-name="Group 464"><path id="Path_507" data-name="Path 507" class="cls-1" d="M124.92,123.39v-.14l-.19.1Z"/></g><g id="Group_465" data-name="Group 465"><path id="Path_508" data-name="Path 508" class="cls-1" d="M27.44,89.69a.66.66,0,0,0-.14.19S27.4,89.79,27.44,89.69Z"/></g><g id="Group_466" data-name="Group 466"><path id="Path_509" data-name="Path 509" class="cls-1" d="M27.35,95.39l-.19.81A8.1,8.1,0,0,0,27.35,95.39Z"/></g><g id="Group_467" data-name="Group 467"><path id="Path_510" data-name="Path 510" class="cls-1" d="M27.06,99.8c.1,0,.19,0,.24.1h0Z"/></g><g id="Group_468" data-name="Group 468"><path id="Path_511" data-name="Path 511" class="cls-1" d="M81.81,78.85a.36.36,0,0,0,.19,0C82.39,78.71,82.1,78.76,81.81,78.85Z"/></g><g id="Group_469" data-name="Group 469"><path id="Path_512" data-name="Path 512" class="cls-1" d="M61.05,80.1a3.76,3.76,0,0,1,.67-.24C61.39,79.81,61.1,79.76,61.05,80.1Z"/></g><g id="Group_471" data-name="Group 471"><path id="Path_514" data-name="Path 514" class="cls-1" d="M62.68,79.86a1.63,1.63,0,0,0-1,0A6.39,6.39,0,0,0,62.68,79.86Z"/></g><g id="Group_472" data-name="Group 472"><path id="Path_515" data-name="Path 515" class="cls-1" d="M28.3,119.56l.14.24s0,0,.1,0Z"/></g><g id="Group_473" data-name="Group 473"><path id="Path_516" data-name="Path 516" class="cls-1" d="M28.54,119.75c.1,0,.14.14.24.19C28.69,119.85,28.59,119.75,28.54,119.75Z"/></g><g id="Group_474" data-name="Group 474"><path id="Path_517" data-name="Path 517" class="cls-1" d="M29.31,120.33c-.19-.1-.34-.24-.53-.34C28.93,120.13,29.07,120.33,29.31,120.33Z"/></g><g id="Group_475" data-name="Group 475"><path id="Path_518" data-name="Path 518" class="cls-1" d="M27.06,113l-.19,0S27,113,27.06,113Z"/></g><g id="Group_476" data-name="Group 476"><path id="Path_519" data-name="Path 519" class="cls-1" d="M27,111.26a5.22,5.22,0,0,0-.29,1.63l.14,0C26.58,112.65,27.34,111.65,27,111.26Z"/></g><g id="Group_477" data-name="Group 477"><path id="Path_520" data-name="Path 520" class="cls-1" d="M29.46,103.88l-.14,1.49c.19-.24.48-.58.53.1C30.46,103.54,29.36,105.8,29.46,103.88Z"/></g><g id="Group_478" data-name="Group 478"><path id="Path_521" data-name="Path 521" class="cls-1" d="M29.74,99.28c.1.81.29,0,.43,0C30,98.8,29.93,98.7,29.74,99.28Z"/></g><g id="Group_479" data-name="Group 479"><path id="Path_522" data-name="Path 522" class="cls-1" d="M45.71,82.11l-.1.48C46.28,82.54,45.66,82.45,45.71,82.11Z"/></g><g id="Group_480" data-name="Group 480"><path id="Path_523" data-name="Path 523" class="cls-1" d="M52.09,79.62l-.62-.34-.29.48Z"/></g><g id="Group_481" data-name="Group 481"><path id="Path_524" data-name="Path 524" class="cls-1" d="M55.83,83.08l-.29.1,1-.19Z"/></g><g id="Group_482" data-name="Group 482"><path id="Path_525" data-name="Path 525" class="cls-1" d="M111.44,82.93l-.19-.62C110.87,82.4,110.77,83.12,111.44,82.93Z"/></g><g id="Group_483" data-name="Group 483"><path id="Path_526" data-name="Path 526" class="cls-1" d="M135.46,82.3a1.15,1.15,0,0,0,1.34.19C136.28,82.45,135.75,82.21,135.46,82.3Z"/></g><g id="Group_484" data-name="Group 484"><path id="Path_527" data-name="Path 527" class="cls-1" d="M131.29,118.5l.48-.19-.91.19Z"/></g></g></g></svg>