<svg id="Laag_1" data-name="Laag 1" xmlns="http://www.w3.org/2000/svg" viewBox="0 0 191.61 188.99"><defs><style>.cls-1{fill:#b2b2b2;}</style></defs><title>ijlst_1</title><g id="Group_540" data-name="Group 540"><g id="Group_487" data-name="Group 487"><path id="Path_528" data-name="Path 528" class="cls-1" d="M73.85,92.07H73.7l-.14-.24.14,0Zm2.16,9.3a2.21,2.21,0,0,1,.38.81,8.53,8.53,0,0,0-.34.81,3.42,3.42,0,0,0-.34,1.39,3.26,3.26,0,0,0,.34,1.39,5.26,5.26,0,0,1,.34.81,1.69,1.69,0,0,1-.34.67c-.24.34-.38.53-.38.67h-.14a1.4,1.4,0,0,1-.43-.1s-.1.1-.1.14,0,.1.1.19-.1-.1-.24-.1a.83.83,0,0,0-.53.29,1.35,1.35,0,0,0,.34.53,1.14,1.14,0,0,0-.58.14c0,.14.14.29.38.48a.81.81,0,0,1,.48-.14,1.71,1.71,0,0,1,1,.54l-1.44.38H74a1.77,1.77,0,0,1-.34-1.1c0-.38.19-1.2.19-1.53a1.33,1.33,0,0,0-.14-.62.43.43,0,0,1,0-.24A5,5,0,0,1,74,106a24.45,24.45,0,0,0,.1-3c0-.19,0-.53,0-1.06a3.81,3.81,0,0,0,0-1.06.35.35,0,0,0,.29-.34,1.85,1.85,0,0,0-.29-1,.9.9,0,0,0,.1-.38c0-.29-.14-.91-.14-1.2a.83.83,0,0,1,.24-.62L73.91,97a3.48,3.48,0,0,0,.24-.58A1.55,1.55,0,0,1,74,96h0a.68.68,0,0,0,.34-.67s0-.1-.1-.1-.24.19-.29.19a3.13,3.13,0,0,0,.1-.53c0-.43-.29-.62-.29-.81s.34-.58.34-.86,0-.29,0-.48a3.45,3.45,0,0,1,.14-.38,2.41,2.41,0,0,0-.43-1.25,3.18,3.18,0,0,1,.38-.82c.14-.19.43-.24.82-.24a.46.46,0,0,1,.48.34.36.36,0,0,0,.1-.19,1.59,1.59,0,0,1,.72.19l.34-.19a1,1,0,0,1-.29.38.72.72,0,0,1,.19.53c0,.29-.24.67-.24.86a.77.77,0,0,0,.14.43l-.86.24a1.54,1.54,0,0,0,.77.1,2.2,2.2,0,0,0,.34,1.06l-.14,0c-.1.14-.24.29-.38.48v1.25c.1,0,.14.1.24.1,0,.19-.14.62-.14.81s.1.24.29.29a7.48,7.48,0,0,0-.29,2.11s.1.29.1.34a2.11,2.11,0,0,1,.1.48.41.41,0,0,1-.1.29,3.19,3.19,0,0,0,.38.86c-.35.09-.5.33-.74.66Zm-.19-8.15-.14,0-.14.29.14.1ZM76,90.49l0-.14-.38.14v.14Zm0,15.63-.15-.19.1-.14.19.19Zm.14-12.18v-.29H76v.29Z"/><path id="Path_529" data-name="Path 529" class="cls-1" d="M86.17,103.48a2.78,2.78,0,0,1-.19.62,1.27,1.27,0,0,1,.14.67,10.29,10.29,0,0,0-.24,2.06,2.75,2.75,0,0,1-.62,1.68.22.22,0,0,1,0,.24,2.86,2.86,0,0,1-.67.62,1.44,1.44,0,0,1-.86.38h-.58c-.14.1-.14.19-.1.19a.31.31,0,0,1,.1.24.65.65,0,0,0-.43,0,1.45,1.45,0,0,1-.48.1c-.19,0-.29-.34-.48-.34s-.43.1-.62.1a6.39,6.39,0,0,1-1.82-.34c-.82-.34-1.2-.72-1.2-1.25,0-.29.19-.62.62-1.15s.77-.77,1.1-.77.53.29,1,.77.86.77,1.15.77,0-.24.24-.24,0,.14.24.14,0-.24.24-.24.38-.1.38-.19a.17.17,0,0,0,0-.1.46.46,0,0,1,.34.1V98.69c0-.1,0-.43.1-1.06l.14-1.44a27,27,0,0,1,0-2.83c0-.38,0-1.3,0-1.58A3.31,3.31,0,0,1,84,90.06c1.49.14,2.25.24,2.3.24.29.14.38.62.38,1.44Zm-4.6,5.71-.14,0-.14.29.14,0Zm2-1V108H83.2v.19Zm.48-.14c-.14-.34-.29-.53-.53-.53,0,.1.14.43.14.53Zm.34-.86,0-.19-.29.19v.14Z"/><path id="Path_530" data-name="Path 530" class="cls-1" d="M95.47,109.72a.69.69,0,0,0-.34-.1.3.3,0,0,0-.29.24,5.43,5.43,0,0,0-1-.43,1,1,0,0,0-.29.19s0,.14,0,.34a1,1,0,0,1-.43-.24,1,1,0,0,0-.48-.19c-.19,0-.53.24-.72.24a3.34,3.34,0,0,1-.67-.14,2.44,2.44,0,0,0-.67-.19c-.19,0,.1.24-.1.24s-.72-.24-.86-.24-.29.34-.48.34-.72-.24-.81-.24c0-.38,0-.91,0-1.68s0-1.29,0-1.58c.1,0,.14,0,.19-.1s-.14-.1-.19-.1v-2.72s0-.38.1-1a10.89,10.89,0,0,0,.14-1.44,11.91,11.91,0,0,1,0-1.73c0-.67,0-1.63.1-3,.1-1.53.1-2.4.1-2.64s0-.72,0-1.25c0-.24,0-.72.1-1.39a1.48,1.48,0,0,0-.1-.82c.67,0,1,0,1.1.1a.77.77,0,0,1,.53-.24c.19,0,.91.24,1.2.24a3,3,0,0,1,.34.82l-1.2,15.72c.1,0,0,.29.24.29s0-.1.24-.1.38.24.62.62l.29-.19a.43.43,0,0,1,.34-.14,5.58,5.58,0,0,1,.77.14,3.89,3.89,0,0,0,.81.1,4.06,4.06,0,0,0,.62,0c.34,0,.53-.1.62-.1h.38a1.54,1.54,0,0,0,.38,0,3.06,3.06,0,0,1,.24,1.15C96.28,109.14,95.85,109.72,95.47,109.72Zm-5.94-3.21-.14-.34-.14.1.14.24Zm.24.67-.43-.14v.14l.34.14Zm3.16,1.39v-.19H92.4v.19Z"/><path id="Path_531" data-name="Path 531" class="cls-1" d="M106,94.66a1.75,1.75,0,0,1-.57.43,1.66,1.66,0,0,1-.57,0c-.19,0-.86-.1-1.1-.1s-.19-.14-.29-.29a2.28,2.28,0,0,0-.38-1.39c-.34-.62-.72-.91-1.2-.91a1.46,1.46,0,0,0-1.29.77,1.89,1.89,0,0,0-.34,1.3c0,.14-.14.62-.14.81a2.11,2.11,0,0,0,.29,1.2,6.8,6.8,0,0,0,.53.77c0,.1,0,.24-.19.38a.81.81,0,0,0,.43.1c-.1.1-.53.62-.72.62l-.24,0a.07.07,0,0,0-.09,0h0a.28.28,0,0,0,.1.24s.48-.24,1.29-.62a1.7,1.7,0,0,0,0,.34.26.26,0,0,0,.1-.24c.43.34,1,.77,1.68,1.39a27.94,27.94,0,0,1,2,2.64.36.36,0,0,1,0,.43,1.91,1.91,0,0,1,.34.43,2.7,2.7,0,0,0,0,1.06,5.09,5.09,0,0,1,.1.81c0,.1-.19.53-.19.62s0,.19.14.19a6.6,6.6,0,0,0-.43,2.16,2.22,2.22,0,0,0-.48.48c-.24.29-.38.48-.48.58a.51.51,0,0,1,.14.24.62.62,0,0,1-.38-.1s0,.1-.1.24-.24.19-.72.24h-.48s-.29.29-.48.29-.38,0-.91,0-.77,0-.86,0a3.92,3.92,0,0,1-1.39-.34,4,4,0,0,1-1-.77A3.4,3.4,0,0,1,97,106.17c0-1,.19-1.34,1.25-1.34a5,5,0,0,1,.57,0,2.86,2.86,0,0,1,.72.43,12.24,12.24,0,0,0,.48,1.39q.5.72.72.72c.14,0,.48.24.67.24s.34-.24.53-.24.34.34.34.34.19-.19.19-.24a.21.21,0,0,0-.19-.14s.1,0,.14,0a8.34,8.34,0,0,0,.53-.86,1.78,1.78,0,0,0,.34-1A1,1,0,0,0,103,105a1.53,1.53,0,0,0,.29-.34,6,6,0,0,1-.1-1.15,3.12,3.12,0,0,0-.43-.72c-.48-.48-1.15-1.2-2.11-2.25l.19-.62a.69.69,0,0,0,.1.34.36.36,0,0,0,.19,0c.19-.19.19-.62.29-.77l-.1-.1a2.3,2.3,0,0,1-.53-.24c0-.1.34-.24.43-.38,0,0-.1-.14-.29-.48,0,0-.1.1-.14.1s-.1.14-.1.19.1.1.29.1a.68.68,0,0,1-.67,0l-.29.29a.69.69,0,0,0,.34.1c-.14.19-.19.29-.1.38a1.33,1.33,0,0,1-.62,0c-1.39-.67-2.06-2.3-2.06-5a5.09,5.09,0,0,1,.1-1,2.56,2.56,0,0,0,.29-.77c.1-.1.24-.19.38-.34a1.11,1.11,0,0,1-.34-.24s.19-.24.38-.24.29,0,.29-.1a1.19,1.19,0,0,1,.34-1,3.06,3.06,0,0,1,1.06-.62,4,4,0,0,1,1.34-.29c.38,0,.67,0,.82,0,0,.14,0,.19.19.19s0-.24.24-.24a7.64,7.64,0,0,1,1.15.62,5.06,5.06,0,0,1,1.2.82c.14.24.24.43.34.62.24.38.43.58.57.62v2.11ZM98.63,92a.67.67,0,0,1-.24.48,5.63,5.63,0,0,0,.53-.24Z"/><path id="Path_532" data-name="Path 532" class="cls-1" d="M115,93.13a5.56,5.56,0,0,1-.57-.1,1.64,1.64,0,0,0-.53-.1,1,1,0,0,0-.67.24s-.29.29-.62.67c0,.1.1.38.1.43s-.34-.1-.57-.29a.25.25,0,0,0,.1.43.93.93,0,0,1,0,.38c-.19.1-.29.14-.29.19l.19.19c.14-.14.24-.19.34-.19a3.16,3.16,0,0,1-.53.58s0,.1.1.14a.25.25,0,0,0,.29-.29c0,.1.29.34.29.43a12.76,12.76,0,0,1-.14,1.34c.1.1.14.24.29.43a5.57,5.57,0,0,1,0,1.06V102c0,.19-.19.67-.19.81s.24.62.24.77a1.22,1.22,0,0,1-.1.34,1.43,1.43,0,0,1,.1.72,8.32,8.32,0,0,1,0,.86c0,.1-.14.62-.14.81a2.41,2.41,0,0,0,.24.62c0,.43.1.77.1,1.06,0,1.15-.29,1.73-.91,1.73a5.49,5.49,0,0,0-.72,0,6,6,0,0,1-.72,0,.75.75,0,0,1-.67-.53,2,2,0,0,1-.24-.91l.75-13.56q0-1.22-.29-1.3l-.82-.38a4.32,4.32,0,0,0-.72.14,3.31,3.31,0,0,1-.72.1c-.53,0-.77-.53-.77-1.58a3.74,3.74,0,0,1,.19-1c.19-.48.38-.67.67-.67s.48.14.62.14a7.42,7.42,0,0,1,.72.19,7.56,7.56,0,0,0,1.34,0,2.14,2.14,0,0,0,.24.38,2.56,2.56,0,0,1,.62-.29,2,2,0,0,0,.82.1A9,9,0,0,0,114,90.5l.86-.14a1,1,0,0,1,1,.43,2,2,0,0,1,.19,1C115.85,92.7,115.56,93.13,115,93.13Zm-4.27-1.34-.24-.19c.19.34.29.58.38.72,0-.1.19-.38.43-.91A3.9,3.9,0,0,0,110.76,91.78Zm1,.67v-.19h-.62v.19Zm0,11.17-.1-.14-.48.24v.19Zm-.29-10.69v-.38h-.19v.38Zm.34,1.87v-.38h-.19v.38Zm.62-3.74c-.14.19-.43.24-.82.24.19.1.48.14.82.29Zm-.67,1.1c.1,0,.29.34.29.34s.14-.58.14-.72a2.12,2.12,0,0,0-.43.39Z"/></g><g id="Group_539" data-name="Group 539"><g id="Group_488" data-name="Group 488"><path id="Path_533" data-name="Path 533" class="cls-1" d="M71.74,120.89c.1-.14,0-.53-.24-.48-.1.19-.19.43-.29.62Z"/></g><g id="Group_489" data-name="Group 489"><path id="Path_534" data-name="Path 534" class="cls-1" d="M69.92,119.4a3.86,3.86,0,0,0-.67.43,1.07,1.07,0,0,0-.38.72,2,2,0,0,1,.57-.29,1.54,1.54,0,0,0,.57-.43.44.44,0,0,1,.39.48v0c.14-.14.48.19.67-.14-.19-.29-.34-.43-.57-.48a.91.91,0,0,0-.77.1A.9.9,0,0,1,69.92,119.4Z"/></g><g id="Group_490" data-name="Group 490"><path id="Path_535" data-name="Path 535" class="cls-1" d="M66.9,94.61l-.1.19C66.85,94.71,66.9,94.66,66.9,94.61Z"/></g><g id="Group_491" data-name="Group 491"><path id="Path_536" data-name="Path 536" class="cls-1" d="M70.3,81.09a.19.19,0,0,0-.1.19C70.3,81.19,70.35,81.14,70.3,81.09Z"/></g><g id="Group_492" data-name="Group 492"><path id="Path_537" data-name="Path 537" class="cls-1" d="M72.7,81.52s-.1,0-.14,0S72.65,81.58,72.7,81.52Z"/></g><g id="Group_493" data-name="Group 493"><path id="Path_538" data-name="Path 538" class="cls-1" d="M66.89,94.61l.19-.43C66.89,94.13,66.94,94.37,66.89,94.61Z"/></g><g id="Group_494" data-name="Group 494"><path id="Path_539" data-name="Path 539" class="cls-1" d="M65.74,118.15c.1.1.19.1.34.14a.84.84,0,0,1-.24-.19C65.79,118.11,65.79,118.11,65.74,118.15Z"/></g><g id="Group_495" data-name="Group 495"><path id="Path_540" data-name="Path 540" class="cls-1" d="M67.42,101.8v.14c.1,0,.14.1.24.1Z"/></g><g id="Group_496" data-name="Group 496"><path id="Path_541" data-name="Path 541" class="cls-1" d="M67.52,107.37c0-.14-.53-.19-.77-.24.24,0,.34.14.38.29A1.35,1.35,0,0,0,67.52,107.37Z"/></g><g id="Group_497" data-name="Group 497"><path id="Path_542" data-name="Path 542" class="cls-1" d="M67,115.9l.14.1A.59.59,0,0,1,67,115.9Z"/></g><g id="Group_498" data-name="Group 498"><path id="Path_543" data-name="Path 543" class="cls-1" d="M67.52,97.83c.1,0,.14,0,.19,0S67.57,97.83,67.52,97.83Z"/></g><g id="Group_500" data-name="Group 500"><path id="Path_545" data-name="Path 545" class="cls-1" d="M71.74,119.45l.1,0v-.29Z"/></g><g id="Group_501" data-name="Group 501"><path id="Path_546" data-name="Path 546" class="cls-1" d="M77.83,82.24h0C77.63,82.29,77.73,82.24,77.83,82.24Z"/></g><g id="Group_502" data-name="Group 502"><path id="Path_547" data-name="Path 547" class="cls-1" d="M121.65,83.78a.36.36,0,0,1,.48-.17l0,0c.19,0,.43.1.53-.29-.1.1-.34,0-.57.1a.37.37,0,0,0-.48.33Z"/></g><g id="Group_503" data-name="Group 503"><path id="Path_548" data-name="Path 548" class="cls-1" d="M65.7,118a1,1,0,0,0-.14-.24A1,1,0,0,0,65.7,118Z"/></g><g id="Group_505" data-name="Group 505"><path id="Path_550" data-name="Path 550" class="cls-1" d="M89.62,81.91a.64.64,0,0,0-.14-.24S89.53,81.77,89.62,81.91Z"/></g><g id="Group_506" data-name="Group 506"><path id="Path_551" data-name="Path 551" class="cls-1" d="M80.8,81.14l.24.1A.26.26,0,0,0,80.8,81.14Z"/></g><g id="Group_507" data-name="Group 507"><path id="Path_552" data-name="Path 552" class="cls-1" d="M94.18,81.14a.36.36,0,0,0,.34,0,0,0,0,0,0,0,0h0C94.37,81.19,94.32,81.24,94.18,81.14Z"/></g><g id="Group_508" data-name="Group 508"><path id="Path_553" data-name="Path 553" class="cls-1" d="M98.92,81.14s0-.1-.1-.1a.18.18,0,0,0-.14,0Z"/></g><g id="Group_509" data-name="Group 509"><path id="Path_554" data-name="Path 554" class="cls-1" d="M92.64,121.89a2.24,2.24,0,0,1-.24-.48C92.5,121.75,91.78,121.89,92.64,121.89Z"/></g><g id="Group_510" data-name="Group 510"><path id="Path_555" data-name="Path 555" class="cls-1" d="M66,118q-.22.07-.29,0l.14.14Q66,118,66,118Z"/></g><g id="Group_511" data-name="Group 511"><path id="Path_556" data-name="Path 556" class="cls-1" d="M94.37,76.87l.77.1A3.73,3.73,0,0,0,94.37,76.87Z"/></g><g id="Group_512" data-name="Group 512"><path id="Path_557" data-name="Path 557" class="cls-1" d="M126.4,115l0,.24A.36.36,0,0,0,126.4,115Z"/></g><g id="Group_513" data-name="Group 513"><path id="Path_558" data-name="Path 558" class="cls-1" d="M97.39,76.87a1.55,1.55,0,0,0,.43.38s0-.1.1-.14Z"/></g><g id="Group_515" data-name="Group 515"><path id="Path_560" data-name="Path 560" class="cls-1" d="M87.42,122.66c.72,0,.34-.67.48-1.1.86-.19.38.53.67.86.53-.19,1-.81,1.34-.81,0,.1.1.14,0,.29.58-.58,1.68,0,2.35-.72a.36.36,0,0,1,.1.19,2.33,2.33,0,0,1-.1-1c.34,0,.58-.43.72,0-.19,0-.19.19-.29.34l.34-.19c.29.67-.48.24-.48.72.67-.24,1.44-.77,1.92-.58.1.67-1.2.24-.53.81l-.77-.24c.58,1-.48-.1.1,1,1,.19,1.15-.34,2.16-.14.24-.38-.1-.53.14-.91,1.44-.67,1.15,1.63,2.21.77.29-.43.38-1.25,1.15-.81l-.24.72c1,.1.58-1.06,1.63-.58-.19.29-.77.24-.62.34.67.58.48-.43,1-.43l.1.67c1.06-.1,2.21-.58,3.4-.67,0,.19-.29.38,0,.58a10,10,0,0,1,4.6.48l.53-.58c.14,0,.24.24.1.38.58.19,0-.34.29-.58a.28.28,0,0,1,.24.48c1-.48,2.78-1,3.84-.43l-.19.14c.81.24.91-1.15,1.68-.62l-.14.1a16.64,16.64,0,0,0,2.69,0,2.53,2.53,0,0,1,.62,0,94555217.28,94555217.28,0,0,1,1.53.1,4.2,4.2,0,0,1,.77.1.68.68,0,0,1,.38-.43,6.61,6.61,0,0,1,.77-.29,1.77,1.77,0,0,0,.67-.38.49.49,0,0,0,0-.62c.67-.14,1-.19,1.29-.24a1.84,1.84,0,0,0,.58-.24,4.42,4.42,0,0,0,.91-.72c.34-.43-.19-1.06,0-1.63l.53.24a6.17,6.17,0,0,0-.29-1,5.24,5.24,0,0,0,.81-.24v-.62a.54.54,0,0,1-.53.38,2.84,2.84,0,0,1,.34-1.39l.14-.29a.66.66,0,0,1,.14-.19c.1-.1.19-.19.29-.19l-.48-1.63c.24,0,.34.29.48.53-.62-.86.62-.14,0-1-.14.1-.34,0-.48-.1a2.44,2.44,0,0,0,.19-2l.38.14c.1-1.2-.19-2.54-.19-3.84-.19.48-.91.38-1,0l.62-.14c-.38-.24-.24.43-.72-.1.1-.48.72-.34.91,0l-.14-.72c.19,0,.29.1.53.14-.38-.24.62-1.06,0-1.39l.19,0c0-1.34-.19-2-.24-3-.53,0-.43-.43-.86-.77a9.2,9.2,0,0,0,.53-2.64c-.29-.67-.48-.19-.77-.53.48,0,.43-1,.81-.53a12.3,12.3,0,0,0-.48-2.92c-.19.14-.29.34-.48.24a.45.45,0,0,1,.43-.58l0,0c-.72-1.63,1.44-3.79.43-5.13l0,.1-.53-1.35c.1-.62.38.38.67-.1a3.11,3.11,0,0,1-.34-1c0-.43,0-.82-.1-1.2a4.44,4.44,0,0,0-.19-1.1,2.51,2.51,0,0,0-.62-1c.38-.91-.34-2-1.34-2.78s-2.21-1.25-2.92-2v.34c-.53.14-.48-.34-.81-.53,0,.29.43.43.1.53a3.7,3.7,0,0,0-.72-.1c-.24,0-.48,0-.72,0a10,10,0,0,1-1.2,0,16.5,16.5,0,0,1-2.16-.24c-1.44-.19-2.88-.53-4.31-.67-1.06-.1-.58,1.77-1.92,1l.38-.62c-2,.77-4.22,0-6.28.62.14-.14.14-.34.34-.34-.43-.48-1.58,0-1.58.34-.34,0-.1-.34-.29-.53-.43-.29-1.1.57-1.34.14,0-.1.14-.14.19-.19-.29.24-1.29,0-1.06.48-.77-.24-1.49.24-2.06-.1-.38.57-1.29-.29-1.44.57,0-.86-1.34-.72-1.82-.29.14-.24-.43-.29-.24-.62-.58,0-1.06.19-1,.62-1-1-2.06.82-2.64-.48a37,37,0,0,1-4.65,1c0-1,1.63-.14,1.58-1.05-1.39.34-2.21,1.1-3.6.91-.38-.1.19-.38.34-.53-1.39.34-2.73-.1-4,.38,0-.1.14-.19.29-.24-.24,0-.58-.14-.53.29l.24-.1c.38.57-1,1.2-1,1.49.39-1.15-1.3-.33-.62-1.77-.14.1-.38.24-.34.53-.24,0-.29-.19,0-.53-.86.19-.57.62-1.39.62,0-.19.14-.29.24-.48a1.53,1.53,0,0,1-1.49.57c0-.1,0-.24.19-.24-1.15,0-2,1-3.26.62.38-.82-.43-.29-.48-1l-.38.14-.43.14c.14.1.24.24.38.34a2.66,2.66,0,0,0-1.05.29,1.63,1.63,0,0,1-.91.24,4.32,4.32,0,0,1,.48-.43c-.24.1-.43.14-.67.24s-.43.19-.62.29h.81a.56.56,0,0,0-.14.67c0,.14,0,.24-.38.29.1-.14-.57.24-1.1.1h0c-.14.43-.24.77-.72,1-.24-.1-.48-.62-.62-.72a1.57,1.57,0,0,1-.43,1.05c-.24.38-.43.77-.24,1.1a.73.73,0,0,0-.48-.38c.1.14.19.34.29.48-.29.19-.38.24-.62,0-.24.43,0,.48.19.48s.34,0,0,.53c0-.1-.1-.1-.1-.29a2.36,2.36,0,0,0-.29.82v.86a5.13,5.13,0,0,1,0,1.49c-.72.29-.19-.82-.77-.48.14,1.3.86,2.73.67,4l.1-.29c1,.19-.48,1,0,1.58-.1-.14-.57-.19-.43-.14a8.63,8.63,0,0,0,.58,3.12L65,93.94a8.4,8.4,0,0,0-.24,1.92c.24.14.24.48.58.29-1.49,1.73.82,3.26-.43,4.8,0-.24-.29-.48-.29-.34l.24,1.3c.43-.1.29-.19.62-.43a1.13,1.13,0,0,1,.48.86c-.29-.58-.72,0-1,.24.14,0,.29,0,.43,0-.77.67.91.1.38,1.06l-.24,0c.1.34.43.67.38,1.06-.53.14-.24-.38-.67-.38,0,.53,1,1.06.48,1.49-.14-.24-.14-.53-.29-.77-.62.53-.43.58-.53,1v0l-.29.91.14-.24c1.34.67.24,1.34,1.1,2.21-.82-.86-.48-.14-1.05-.19-.14.24-.34.58-.53.48.48.43-.38.72.34,1.29-.19,0,0,.43-.48.34.14.53.34-.14.57-.1.62.81-.77,2,.1,3.16a5.15,5.15,0,0,0,.34.72,4.32,4.32,0,0,0,.43.48,3.1,3.1,0,0,0,.43.38l.48.48c-.14.43-.72,0-.72,0a1.15,1.15,0,0,0,.14.81,1.22,1.22,0,0,0,.53.58c-.19,0-.24.14-.34.43.34.34.72-.14.86.48a2.51,2.51,0,0,1-.86.14,4.39,4.39,0,0,0,.82.43l.86.29a.31.31,0,0,1-.34.24,2.63,2.63,0,0,1-.62,0,3.54,3.54,0,0,0,1.05.48,1,1,0,0,0,.91-.1,1.46,1.46,0,0,1-.24-.34c.19.1-.1.43-.34.43a.44.44,0,0,1-.53-.29.53.53,0,0,1,.1-.43l.38.14c.14-.58-.14-.72-.53-.86a2.11,2.11,0,0,1-1.15-.67,4,4,0,0,0,.82-.24,7,7,0,0,1-1-.24c.1-.24.43-.53.72-.34,0-.29-.1-.34-.19-.43s-.19-.1-.1-.38a.18.18,0,0,1,.14,0c-.14-.1-.24-.24-.38-.34.19,0,.53-.24.48,0a1,1,0,0,0,0-.53,1.68,1.68,0,0,0-.24-.38,1,1,0,0,1-.19-.29.35.35,0,0,1,.19-.29l0,0a1.45,1.45,0,0,0-.24-.48.3.3,0,0,0-.29-.1.87.87,0,0,1-.82-.38l1.44-.62-.58-.1c0-.14,0-.38.29-.34-.38-.48-.24.1-.62-.19.53-.62-.24-1.68.67-1.77-.43-.19-.34.58-.67,0,1-.19-.19-.72.29-1.29.53.19.24.67.72.14-.86-.34.19-1.06,0-1.53-.72,0-.29-1-.53-1.77.24,0,.38-1.44.62-2.21h.1c-.73-.12-.58-.84-.73-1.42a.71.71,0,0,1,.77.43v-.53a.88.88,0,0,1-.43-.62l.53.14c0-.67-.62-1.39-.29-2.25-.48,0-1.39.67-1.68-.24.29,0,.72,0,.82.19,0-.1-.24-.29-.1-.43l.43.38c.19-.38-.38-.19-.34-.53.38,0,.29-.24.58-.19,0,.1-.14.29,0,.38a1.43,1.43,0,0,1,.58-1c-.19,0-.53,0-.58-.24,0-.67.43-.24.67-.62-.24-.14,0-.58-.58-.62,0-.19.29-.24.43-.34-.24-.34,0-1.63-.67-1.25l0,.1a0,0,0,0,0,0,0h0c-.58-1.15.34-2.4.1-3.55h.19c-.24-.67-.14-1.53-.53-2a.5.5,0,0,1,.58-.38c-.14-.53-.34-.57,0-1.34.34.53.29-.19.24.53.14-.67.48-.81,0-1.58.48.24.62-.53.48-.81l-.34.48a2,2,0,0,1,0-.53c0-.14,0-.34,0-.43l.62.14c.38-.43.14-.82,0-1.3s0-1,.67-.91c-.1-.24-.24-.19-.38-.1s-.29.14-.48-.1a3.08,3.08,0,0,1,1.06-.19,5.21,5.21,0,0,1,.62,0c.34,0,.29-.29.24-.57v-.43a.38.38,0,0,1,.34-.24.71.71,0,0,1-.2-1l.1-.12c.62-.14.91.72.67,1-.1,0-.19,0-.19,0-.14.14-.24.29,0,.43l0-.24c.29.1.86,0,.82.34.24-.24,0-.38-.19-.43a1.33,1.33,0,0,0,.43,0h.34a2.26,2.26,0,0,1,1,0c-.14-.15-.24-.39-.14-.39,1.25.29.53-.43,1.39-.53.48.34-.19.82.67.53.53.24.1.62-.1.77.77-.43,1.44.29,1.87.38l-.38.19a1.52,1.52,0,0,1,.62-.1l-.24-.48c.24.1.43.1.43.29.24-.29-.19-.77.29-1.15.34.24,1-.24,1.06.34-1-.19.1.62-.72.72a.79.79,0,0,1,.57,0s0,.14-.1.14c1,.53.43-.67,1.44-.67a.43.43,0,0,0,.26.55l.12,0c-.38,0-.19-.57.19-.82.62.29.67-.19,1-.14L80.42,81c.14-.34.43-.29.86-.38.1.24-.34.19-.19.29.48-.58,1.1.62,1.77.24.34.24,0,.62.29.82.77-.43.82.48,1.63.1-.24-.48-.29-.34.29-.82l-1.3.34.86-.67c-.38,0-.86.29-1.1.19.38-.38.38-.24.19-.62.53.67,1.1-.38,1.73,0v1.15c1,.53,1.68-.57,2.92-.29L88,81.19c.14-.43.77,0,1.15-.24,0,.38.19.53.38.77,0-.29.91,0,1-.72l.53.48c1,.19,1.15-1.1,2.11-1-.29.43.14.67-.48,1,.34,0,.62.1.62-.19.19.24.86-.53,1.2-.14.14-.14.19-.57.53-.53a.23.23,0,0,1,0,.19c0-.19.58-.24.24-.67,1,1.2,2.73-.1,3.6.91a19.16,19.16,0,0,1,2.16-.29c0,.1,0,.19-.14.14.86.34.53-1.1,1.53-.67.53.57-.53.29-.19.53.14,1.25,1.2-.19,1.87.57l-.19,0c.53.43,1.25-.48,2.06-.38a.23.23,0,0,0,0,.19,4.46,4.46,0,0,1,2.44-1c-.24.48-.38.24-.19.77.38,0-.1-.82.62-.91.24.29.77.48.81,1l-.68,0c.34.67.86,0,1.25.1l0,.29c1.06-.1,1.06-.86,2.16-.82l-.1-.24c.62-.77.53.43,1.1-.14l.19.77a9.55,9.55,0,0,1,2.16-.86,6.1,6.1,0,0,1-1.77,1.2c.38,0,1.34,0,1.58-.43-.14.1-.38.24-.53.14a2.28,2.28,0,0,1,1.92-.86c-.19,1.49,2.25.34,2.25,1.58a1.21,1.21,0,0,1,1.29.38c.34.34.58.77.91,1.15.67-1,.19.24,1.15-.43.24.24.24.34.19.43l-.14.57a5,5,0,0,1-.19.48c-.29.24-.29-.14-.58,0a.31.31,0,0,1-.21.38h0a1,1,0,0,0-.43.24c.38-.14.62,0,.48.34.19-.14.34-.29.53-.43.34.34.1.53-.14.81a.82.82,0,0,0-.19,1.1l-.38-.38c.24.62,0,2.25.91,2.83-.14.1-.48.24-.53,0-.14,1.44,1,3.21.43,4.36l-.29-.1c.1.29.53.48.24.82-.1,0-.29-.1-.29,0s.48.72.34,1.06l-.34-.29c-.38,1.39.77,2.16,1,3.36-.86,0-1.1,1.1-1.25,1.68h-.1c-.1,1.63.72,2.78,1.06,4.32-.91,1-.38,3.21-.91,4.7.14-.24.67,0,.72.29-.19.34.58,1-.19.91v-.15c-.77.29-.58,1-.58,1.58l1,.1a2,2,0,0,0-.58,1.25V114l0,.24c.1.58,0,1.2-.67,1.15.14.29,0,.53,0,.86L121,116c-.48.38-.72.48-1.25.91,0-.14,0-.29,0-.38s-.1.14-.1.29v.58c0,.43,0,.86-.29,1-.1-.24-.19-.53-.29-.77h-.29c-.1,0-.19,0-.29,0l-.43-.1c-.14,0-.29,0-.48-.1a2.48,2.48,0,0,0-1.82.29c0-.1,0-.34.24-.38-.58,0-2.21-.53-2,.58,0-.72-1.25,0-1.92.24l.1-.53c-.58.67-.58.86-1.34,1.06-.19,0-.14-.43.1-.29-.62-.29-.48.53-1.2.24l.29-.34c-.62,0-.58.14-.91.53a1.08,1.08,0,0,1-1.29-.62c-.1.29-.43.67-.81.53a.32.32,0,0,1,.14-.34c-1.06-.38-1.58.62-2.3.1,0-.19,0-.29-.14-.34a5.3,5.3,0,0,1,1.44.1c0-.48-.67-.58-.14-1.25-.53.38-1.49,1.2-2.11,1,0,0,0-.1-.1-.19l0,0a.49.49,0,0,0-.43.1,1.09,1.09,0,0,0-.53-.14c-.1-.43-.77-.24-1.1-.24,0,.53-.43.43,0,.91,0,0,0,0,.29-.1,0,0,.1,0,.14,0v0c.24,0,.53,0,.81,0-.29.29-.53.53-.91.19-.19.34-.38.72-.48.86-.48-.77-1.34-1.15-1.49-1.63-1,.29-2.4.19-3.07,1.2-.29.14-.34-.29-.43-.43.19-.1.38-.1.48-.24-.58.24-1.73.1-1.87.81-.72-.34.43-.67-.58-.53l.14-.24c-2-1.15-3.21,1.82-5.42.34.14.1.24.14.24.24-2.49-.62-5.18.62-7.67-.43-.72-.19-.77.24-1.2.58l0-.58-.72.67c-1.06.48-1.82-1.44-3.12-.48l.19.38c-.48-.1-1.49.24-1.44-.24,0,0-.14.38-.34.19v-.29l-1.15.53c-.91-.24.14-1.2-1.2-1.25-.48.1-1.39.86-1.2,1.1a.56.56,0,0,1,.53.48l-.43.14c-.1.91-.43,1.82.67,2.44l.77-.53.24.43-.62,0c.38.43.57,0,.86-.19a.73.73,0,0,0,.34.48l.77-.86c.1.34-.34.67.14.86.34-.38-.34-.77.24-1.06.38.38.24.72.67.38a.43.43,0,0,1-.19.48c.38-.29,1-.1,1.2-.58.38.48,1.3-.14,1.25.72a2.27,2.27,0,0,1,1-.72c-.62,1,1.3,0,1.15,1.15.48-.91,1.73-.38,2.54-.91,0,.1-.14.24-.19.19a2.08,2.08,0,0,1,.91.53c0-.77.82-.91,1.2-1.39.58.72-.34.86-.19,1.58,0-.62,1-.62.82-1.1.43.43.38.24.62.86.1-1,.43-.14.77-.72.62.48.14.86.86.58C88,122.33,87.42,122.66,87.42,122.66ZM104.24,121h0a1.08,1.08,0,0,1-.34,0A1.27,1.27,0,0,0,104.24,121Zm1.39,0a2.7,2.7,0,0,0-.62,0c0-.19,0-.38.14-.38C105.11,120.74,105.44,120.89,105.63,121Zm-3-3.74c.24-.1.29,0,.34.14s-.24,0-.38,0a0,0,0,0,1,0,0h0S102.61,117.39,102.66,117.29Z"/></g><g id="Group_516" data-name="Group 516"><path id="Path_561" data-name="Path 561" class="cls-1" d="M102.28,118s0,0-.1,0l.14.14s0-.1.1-.19Z"/></g><g id="Group_517" data-name="Group 517"><path id="Path_562" data-name="Path 562" class="cls-1" d="M66.8,94.8h0a0,0,0,0,0,0,0h0a0,0,0,0,1,0,0Z"/></g><g id="Group_518" data-name="Group 518"><path id="Path_563" data-name="Path 563" class="cls-1" d="M126,117.15l-.1,0v.24Z"/></g><g id="Group_519" data-name="Group 519"><path id="Path_564" data-name="Path 564" class="cls-1" d="M64.93,102.57s-.1,0-.14.1S64.88,102.62,64.93,102.57Z"/></g><g id="Group_520" data-name="Group 520"><path id="Path_565" data-name="Path 565" class="cls-1" d="M64.83,105.93l-.19.48A3.31,3.31,0,0,0,64.83,105.93Z"/></g><g id="Group_521" data-name="Group 521"><path id="Path_566" data-name="Path 566" class="cls-1" d="M64.55,108.52a.43.43,0,0,0,.24,0h0Z"/></g><g id="Group_522" data-name="Group 522"><path id="Path_567" data-name="Path 567" class="cls-1" d="M80.65,77.54s0,0,.1,0C81,77.4,80.8,77.45,80.65,77.54Z"/></g><g id="Group_523" data-name="Group 523"><path id="Path_568" data-name="Path 568" class="cls-1" d="M68.14,79.85a2.25,2.25,0,0,1,.29-.43C68.19,79.51,68,79.61,68.14,79.85Z"/></g><g id="Group_525" data-name="Group 525"><path id="Path_570" data-name="Path 570" class="cls-1" d="M69,79.13a.85.85,0,0,0-.62.29A1.88,1.88,0,0,0,69,79.13Z"/></g><g id="Group_526" data-name="Group 526"><path id="Path_571" data-name="Path 571" class="cls-1" d="M67.85,120.17l.14.1a0,0,0,0,1,0,0h0Z"/></g><g id="Group_527" data-name="Group 527"><path id="Path_572" data-name="Path 572" class="cls-1" d="M68,120.22l.19,0C68.15,120.22,68.09,120.17,68,120.22Z"/></g><g id="Group_528" data-name="Group 528"><path id="Path_573" data-name="Path 573" class="cls-1" d="M68.62,120.31a1.06,1.06,0,0,1-.38,0C68.34,120.31,68.48,120.41,68.62,120.31Z"/></g><g id="Group_529" data-name="Group 529"><path id="Path_574" data-name="Path 574" class="cls-1" d="M65.22,116.81l-.19,0A.36.36,0,0,0,65.22,116.81Z"/></g><g id="Group_530" data-name="Group 530"><path id="Path_575" data-name="Path 575" class="cls-1" d="M64.74,115.61c0,.29-.19.91.14,1.29l.14,0c-.19,0-.14-.34-.14-.57S64.93,115.71,64.74,115.61Z"/></g><g id="Group_531" data-name="Group 531"><path id="Path_576" data-name="Path 576" class="cls-1" d="M66.94,110.91l-.14.86c.19-.14.48-.34.53,0C67.95,110.72,66.85,112.07,66.94,110.91Z"/></g><g id="Group_532" data-name="Group 532"><path id="Path_577" data-name="Path 577" class="cls-1" d="M67.23,108.23c.1.48.29,0,.43,0C67.47,107.94,67.42,107.85,67.23,108.23Z"/></g><g id="Group_533" data-name="Group 533"><path id="Path_578" data-name="Path 578" class="cls-1" d="M67.23,88.71l.48,0C67.66,88.38,67.52,88.76,67.23,88.71Z"/></g><g id="Group_534" data-name="Group 534"><path id="Path_579" data-name="Path 579" class="cls-1" d="M64.74,84.88c-.1.14-.24.29-.34.43.14.1.29.1.43.19A2.81,2.81,0,0,1,64.74,84.88Z"/></g><g id="Group_535" data-name="Group 535"><path id="Path_580" data-name="Path 580" class="cls-1" d="M68.52,83.83v-.34A.41.41,0,0,1,68.52,83.83Z"/></g><g id="Group_536" data-name="Group 536"><path id="Path_581" data-name="Path 581" class="cls-1" d="M98.11,81.62,98,81C97.72,81.1,97.68,81.81,98.11,81.62Z"/></g><g id="Group_537" data-name="Group 537"><path id="Path_582" data-name="Path 582" class="cls-1" d="M112.25,81c.14.29.57.48.82.19C112.73,81.14,112.4,80.9,112.25,81Z"/></g><g id="Group_538" data-name="Group 538"><path id="Path_583" data-name="Path 583" class="cls-1" d="M121.89,112.5l-.19-.29.14.53Z"/></g></g></g></svg>