<svg id="Laag_1" data-name="Laag 1" xmlns="http://www.w3.org/2000/svg" viewBox="0 0 191.61 188.99"><defs><style>.cls-1{fill:#575756;}</style></defs><title>leeuwarden_2</title><g id="Group_54" data-name="Group 54"><g id="Group_1" data-name="Group 1"><path id="Path_1" data-name="Path 1" class="cls-1" d="M45.68,111a.69.69,0,0,0-.34-.1.3.3,0,0,0-.29.24,5.43,5.43,0,0,0-1-.43,1,1,0,0,0-.29.19s0,.14,0,.34a1,1,0,0,1-.43-.24,1,1,0,0,0-.48-.19c-.19,0-.53.24-.72.24a3.34,3.34,0,0,1-.67-.14,2.44,2.44,0,0,0-.67-.19c-.19,0,.1.24-.1.24s-.72-.24-.86-.24-.29.34-.48.34-.72-.24-.82-.24c0-.38,0-.91,0-1.68s.06-1.29.06-1.58c.1,0,.14,0,.19-.1s-.14-.1-.19-.1v-2.72s0-.38.1-1a10.89,10.89,0,0,0,.14-1.44,11.91,11.91,0,0,1,0-1.73c0-.67,0-1.63.1-3,.1-1.53.1-2.4.1-2.64s0-.72,0-1.25c0-.24,0-.72.1-1.39a1.48,1.48,0,0,0-.1-.82c.67,0,1,0,1.1.1a.77.77,0,0,1,.53-.24c.19,0,.91.24,1.2.24a3,3,0,0,1,.34.82l-1.21,15.72c.1,0,0,.29.24.29s0-.1.24-.1.38.24.62.62l.29-.19a.43.43,0,0,1,.34-.14,5.58,5.58,0,0,1,.77.14,3.89,3.89,0,0,0,.82.1c.1,0,.29,0,.62,0s.53-.1.62-.1h.77a3.06,3.06,0,0,1,.24,1.15C46.49,110.45,46.11,111,45.68,111Zm-5.9-3.21-.14-.34-.14.1.14.24Zm.19.67-.43-.14v.14l.34.14Zm3.16,1.39v-.19h-.53v.19Z"/><path id="Path_2" data-name="Path 2" class="cls-1" d="M57,110.07a3.3,3.3,0,0,1-.24.86.7.7,0,0,1-.67.48c-.19,0-.72-.34-.91-.34s-.19.1-.34.24l-.24-.24a2,2,0,0,1-.53,0,3.87,3.87,0,0,1-.91-.14,4.75,4.75,0,0,0-.91-.14c-.14,0-.14.1-.14.29,0,0-.1-.14-.24-.29a1.19,1.19,0,0,1-.91.34,3.17,3.17,0,0,1-.53,0,.9.9,0,0,0-.53,0l0,0c0-.1-.1-.14-.24-.14s-.14.24-.29.24a6.87,6.87,0,0,0-1-.24L48,96.83c0-.77-.1-1.53-.19-2.4s-.14-1.44-.14-1.49a2.79,2.79,0,0,1,.43-1.2,1.38,1.38,0,0,1,.58-.1L54,91.45c.29,0,.91-.14,1.2-.14.62,0,1,.14,1.2.48a2.29,2.29,0,0,1,.24,1.34c0,.91-.29,1.25-1.15,1.25-.48,0-1.2,0-2.21,0s-1.68-.1-2.21-.1c-.19,0-.38.19-.62.62a1.8,1.8,0,0,0-.34.86.25.25,0,0,0,.19.24,3.89,3.89,0,0,1,.29,2,.43.43,0,0,1-.14.34,3.46,3.46,0,0,1,.1,1.15c.14.14.19.19.29.19s.24-.14.38-.14.48.34.67.34.81,0,1.44,0,1.15-.1,1.44-.1.67.38.67,1.15a3.85,3.85,0,0,1-.1,1.1c-.14.34-.43.48-.91.48s-1.34-.1-1.73-.1a3.12,3.12,0,0,0-.86.19,1.79,1.79,0,0,0-.81.29,2.17,2.17,0,0,0-.29,1,5.8,5.8,0,0,0-.19,1,1.27,1.27,0,0,1,.1.53,7.23,7.23,0,0,1-.24,1.34v0c0,.1-.1.29-.1.38a1.65,1.65,0,0,0,.19.62,6.24,6.24,0,0,1,.24.67l-.19.14v.41l.19.1s0,0,0-.1,0-.24,0-.34H51a2.7,2.7,0,0,1,.34,1c.19-.1.1-.38.19-.43s0,0,.1.19,0,.24.1.24l.24-.19v.14a.4.4,0,0,0,.1.29,1.62,1.62,0,0,1,.38-.14l-.19-.1V109c.19,0,.53-.43.53-.43v.53a2.08,2.08,0,0,0,0,.24.72.72,0,0,0,.19-.38q.72-.22.86-.58c.1.19.24.43.43.43s.43-.24.53-.24a4.43,4.43,0,0,1,1.53-.19c.24,0,.43.24.58.67s.29.72.43.77A.43.43,0,0,0,57,110.07Zm-6.81.14-.14-.14-.14.1.19.19Zm1.34.29c0-.1,0-.14,0-.19a.64.64,0,0,0-.34.14.7.7,0,0,0,.38.24c-.1,0-.1-.1-.1-.19Zm.34-.19c-.14,0-.19.1-.19.34l.43,0Z"/><path id="Path_3" data-name="Path 3" class="cls-1" d="M67.68,110.07a3.3,3.3,0,0,1-.24.86.7.7,0,0,1-.67.48c-.19,0-.72-.34-.91-.34s-.19.1-.34.24l-.24-.24a2,2,0,0,1-.53,0,3.87,3.87,0,0,1-.91-.14,4.75,4.75,0,0,0-.91-.14c-.14,0-.14.1-.14.29,0,0-.1-.14-.24-.29a1.19,1.19,0,0,1-.91.34,3.17,3.17,0,0,1-.53,0,.9.9,0,0,0-.53,0l0,0c0-.1-.1-.14-.24-.14s-.14.24-.29.24a6.87,6.87,0,0,0-1-.24l-.48-14.14c0-.77-.1-1.53-.19-2.4s-.14-1.44-.14-1.49a2.79,2.79,0,0,1,.43-1.2,1.38,1.38,0,0,1,.58-.1l5.27-.19c.29,0,.91-.14,1.2-.14.62,0,1,.14,1.2.48a2.29,2.29,0,0,1,.24,1.34c0,.91-.29,1.25-1.15,1.25-.48,0-1.2,0-2.21,0s-1.68-.1-2.21-.1c-.19,0-.38.19-.62.62a1.8,1.8,0,0,0-.34.86.25.25,0,0,0,.19.24A17.55,17.55,0,0,1,61,98a.43.43,0,0,1-.14.34A3.46,3.46,0,0,1,61,99.5c.14.14.19.19.29.19s.24-.14.38-.14.48.34.67.34.82,0,1.44,0,1.15-.1,1.44-.1.67.38.67,1.15a3.85,3.85,0,0,1-.1,1.1.9.9,0,0,1-.91.43c-.38,0-1.34-.1-1.73-.1a3.12,3.12,0,0,0-.86.19,1.79,1.79,0,0,0-.81.29,2.17,2.17,0,0,0-.29,1,5.8,5.8,0,0,0-.19,1,1.27,1.27,0,0,1,.1.53,7.23,7.23,0,0,1-.24,1.34v0c0,.1-.1.29-.1.38a1.65,1.65,0,0,0,.19.62,6.24,6.24,0,0,1,.24.67l-.19.14v.38l.19.1s0,0,0-.1,0-.24,0-.34h.38a2.7,2.7,0,0,1,.34,1c.19-.1.1-.38.19-.43s0,0,.1.19,0,.24.1.24l.24-.19v.14a.41.41,0,0,0,.1.29,1.62,1.62,0,0,1,.38-.14l-.19-.1v-.4c.19,0,.53-.43.53-.43v.53a2.08,2.08,0,0,0,0,.24.72.72,0,0,0,.19-.38q.72-.22.86-.58c.1.19.24.43.43.43s.43-.24.53-.24a4.43,4.43,0,0,1,1.53-.19c.24,0,.43.24.57.67s.29.72.43.77C67.92,109.83,67.83,109.92,67.68,110.07Zm-6.81.14-.14-.19-.1.14.19.19Zm1.34.29c0-.1,0-.14,0-.19a.64.64,0,0,0-.34.14.7.7,0,0,0,.38.24.25.25,0,0,1-.1-.19Zm.34-.19c-.14,0-.19.1-.19.34l.43,0Z"/><path id="Path_4" data-name="Path 4" class="cls-1" d="M78.14,102.35a.9.9,0,0,0-.43.91,2.66,2.66,0,0,0,.14.72,4.31,4.31,0,0,1,.14.58s-.19.48-.19.58a1.48,1.48,0,0,1,0,.48,6.69,6.69,0,0,1-.14,1.15,5.32,5.32,0,0,0-.1,1.1c0,.1,0,.29,0,.34v0a11.44,11.44,0,0,1-.67,1.49,3.64,3.64,0,0,1-1,1,2.28,2.28,0,0,1-1.25.48c-.19,0-.14-.14-.29-.14s-.67.43-.86.43h-1c-.19,0-.48-.53-.57-.53s-.14,0-.14,0v0s0,0-.1,0c-.24,0-.57-.24-1-.67s-.82-.86-.86-.91a6.13,6.13,0,0,0-.38-1.15,4,4,0,0,1-.19-1.29c0-.14-.1-.19-.34-.19V97.31c0-.24.14-.19.19-.24a1.8,1.8,0,0,1,0-.53c0-1.1,0-2.68.1-4.7.19-.34.57-.48,1.2-.48a2.32,2.32,0,0,1,1.29.34,2.81,2.81,0,0,0,.38,1c0,.1-.14.24-.43.38v.82c0,.24,0,.43,0,.67h0c-.1,0-.14.1-.14.19,0,.43.14,1.44.14,1.87a2.75,2.75,0,0,0,.19.34,1.71,1.71,0,0,0-.19.91,2.36,2.36,0,0,0,.19.86,2.36,2.36,0,0,1,.19.81s-.1,1.44-.19,4.22c0,.72,0,1.77-.14,3.21a1,1,0,0,0-.14.43c0,.19.14.14.14.24a.61.61,0,0,0,0,.29.87.87,0,0,0,.43.86s-.1.14-.34.34a2.83,2.83,0,0,0,.19.38l.86-.43a2.26,2.26,0,0,1-.1.24.31.31,0,0,0,0,.29.94.94,0,0,0-.34,0c-.1,0-.14,0-.19,0,.29.29.82.29,1.1.72.24-.24.34-.38.29-.53s.14,0,.24,0a.64.64,0,0,0,.38-.14l-.14-.24v-.38l.29-.14c0,.1,0,.19-.1.29l0,.14a2.71,2.71,0,0,1,.67-.43,1.31,1.31,0,0,0-.19-.24l-.29.24c-.1-.14-.14-.19-.14-.24a2.5,2.5,0,0,0,.91-2.11s0-.67-.19-1.92c-.1-.86-.19-2.11-.29-3.84v-.14c0-.43.1-1.34.1-1.68,0,0-.14-.1-.14-.29s.24-.1.24-.24-.24-1-.24-1.25a3.52,3.52,0,0,1,.48-2c-.14-.14-.24-.19-.34-.19V92.47A2.35,2.35,0,0,1,75.2,92c.14-.24.24-.38.29-.38a5,5,0,0,1,1.34-.19.94.94,0,0,1,.82.48c0,.1,0,1.34.14,3.88,0,.48.1,1.44.19,2.88l0,0c0,.14-.19.43-.19.53v0a1.67,1.67,0,0,1,.29.43Zm-6.57,5.47-.29-.14-.1.14.29.14Zm2.83,2-.14.29.19,0,.1-.24Zm1.92-12v-.19H76v.19Z"/><path id="Path_5" data-name="Path 5" class="cls-1" d="M93.1,93.57a6.17,6.17,0,0,0-.1,1.2c-.1.38-.24.86-.48,1.58a.74.74,0,0,1,.1.29v0a2.16,2.16,0,0,1-.48.43v.81c.1.1.24.19.38.34a.43.43,0,0,0,0,.24c0,.19.1.58.1.67s0,.86-.19,2.25q-.07,1.22-.29,3.6a.81.81,0,0,1-.53.53,1.19,1.19,0,0,1,.34.91,4.47,4.47,0,0,1-.1.67,4.19,4.19,0,0,0-.14.67,7.61,7.61,0,0,0-.1,1.49,5.64,5.64,0,0,1-.24,1.49,2,2,0,0,1-.91.38c-.19,0-.53-.1-.72-.1s-.24.24-.43.24-.48-.14-.82-.48v-1.39a2.89,2.89,0,0,0,.38-.38v-.58a2.41,2.41,0,0,1,.34-.77c0-.14.1-.38.24-.72a1.12,1.12,0,0,1-.53-.53c-.1,0-.14.1-.14.24-.19-.24-.29-.34-.38-.34s-.72.24-.91.24-.38-.34-.53-.34-.34.14-.57.38a2,2,0,0,0-.48.53,3.88,3.88,0,0,0-.1,1s-.1.14-.34.34c0,.14.1.19.34.19a14.64,14.64,0,0,0-.43,2.44c-.29,0-.43,0-.48,0a1.52,1.52,0,0,1-.82.14,2.63,2.63,0,0,1-.82,0c-.29,0-.43-.38-.53-1a5.13,5.13,0,0,0-.43-1.49,1.48,1.48,0,0,0,0-.48,7.41,7.41,0,0,0-.43-2.11,6.84,6.84,0,0,1-.38-1.68,1.84,1.84,0,0,1,.24-.91c.1-.1.24-.19.38-.34s0-.24-.14-.24-.43.1-.48.1l-2.15-10.7c.14-.48.48-.67,1.06-.67a1.55,1.55,0,0,1,1.15.34,12.75,12.75,0,0,1,.38,2.16,3.43,3.43,0,0,1-.43.62c0,.19,0,.48.29.48l.34-.1a.53.53,0,0,1,.14.34,1,1,0,0,1-.43.67.52.52,0,0,0,.43.19s-.1.19-.34.38a2.83,2.83,0,0,0,.19.38.44.44,0,0,0,.19-.29,1.73,1.73,0,0,0,.29,1,.87.87,0,0,0,.77.53A.76.76,0,0,0,84,98a5.48,5.48,0,0,1,.29-.67,4.94,4.94,0,0,1,2.3-1.25c0-.1-.34-.29-.34-.48s.24-.48.62-.72c0-.1,0-.19-.24-.19a.36.36,0,0,0-.29.14l0-.1a.66.66,0,0,1,.14-.19c0-.24-.14-.34-.38-.34s-.14,0-.14,0,0,0,0,0,0,0-.14,0-.53-.24-.53-.43c-.1.14-.24.38-.43.67a.81.81,0,0,1-.14-.48,3.76,3.76,0,0,1,.24-.67c0-.29,0-.62,0-1.15.1,0,.14,0,.19-.14s0-.19-.14-.24a1.12,1.12,0,0,0,.67-.34c.1.14.43.24,1.06.24.19,0,.14-.24.34-.24a1.24,1.24,0,0,1,.67.43c0,.86-.19,1.25-.53,1.25,0,.19.1.24.29.24a.37.37,0,0,0,.24-.1,4.86,4.86,0,0,1-.62.67.62.62,0,0,0,.48.19,2.08,2.08,0,0,0,.29-.34,2.25,2.25,0,0,1-.43.58c.34.24.67.43.67.82v0a7.53,7.53,0,0,0-.14.77,2.83,2.83,0,0,1,.38.19,2.5,2.5,0,0,0,.53,1.1c.34.53.62.77.86.77A.26.26,0,0,0,90,98v.58c.14.14.24.19.29.19s0,0,0-.1a.78.78,0,0,0-.19-.43l.29.24c.1,0,.14-.1.14-.34.1.1.14.19.29.34l.29-.29c0-.1-.14-.19-.19-.29s.29-.19.29-.38-.43-.58-.43-.67.14-.58.14-.72h.14a1.13,1.13,0,0,0,.38-.1,2.83,2.83,0,0,0-.19-.38.5.5,0,0,1-.38.19V95a.77.77,0,0,1,.19-.48,1.63,1.63,0,0,1,0-.48c0-.24,0-.58,0-1,.1-.91-.1-1.25.48-1.63l.1,0c.24,0,.72-.1.91-.1s.29.14.38.43a1.65,1.65,0,0,1,.14.62A3,3,0,0,1,93.1,93.57Zm-9.88,5.94c-.14.14-.24.24-.34.24a.68.68,0,0,1-.29-.1.92.92,0,0,0-.14-.58.69.69,0,0,1-.29.48,4.08,4.08,0,0,1,.48.62,1,1,0,0,1,.72-.34A.43.43,0,0,0,83.22,99.51Zm-.62,4.6-.19,0-.14.29.14.1Zm.43-1.77s-.14.38-.24.38h.14a.37.37,0,0,0,.24-.1.74.74,0,0,0-.14-.28Zm.38,3.84-.1-.1-.38.38.1.1Zm0,1.39a.88.88,0,0,1-.14-.72,1,1,0,0,0-.29.72Zm-.14-1.49v-.48h-.19v.48Zm1,1.44H83.8a1.14,1.14,0,0,0,.62.38.9.9,0,0,1-.1-.38Zm1.49-14.62V92.7h-.38v.19Zm1.1,2.59s0-.1,0-.19-.24.1-.38.1c0,.24.14.38.38.53,0,0,0-.28,0-.43Zm2.16,13.71c-.1,0-.14.38-.14.38s.19-.1.38-.14c-.1,0-.14-.23-.24-.23Zm1-1-.14,0-.14.29.14,0Zm0,.81-.14-.19-.14.1.19.19Zm.34-9.59-.29-.29-.14.14.29.29Zm-.1,8.44-.19,0-.14.29.14.1Zm.29-3.36-.1-.14-.38.24.1.14Zm.24,2.21-.19-.1-.14.29.14,0Zm.1-1.82-.14,0-.14.29.14.1Zm0,3.36,0-.14-.29.14v.14Zm0,.86-.19-.19-.1.14.14.14Zm.1-7-.15-.14-.14.1.19.14Zm.24,2.25a.37.37,0,0,1-.14,0,.25.25,0,0,1-.19-.1.59.59,0,0,0,.14.43s.14-.19.38-.38Zm0-4.84a.41.41,0,0,1,.29.14,1.07,1.07,0,0,0,.14-.48s0-.1,0-.14-.2.25-.39.49Zm.24-1.77.29.29a.61.61,0,0,1,.29-.19ZM92,96.06l-.1-.14-.24.14v.14Zm.24.67L92,96.35l-.19.1.29.38Z"/><path id="Path_6" data-name="Path 6" class="cls-1" d="M95.3,110.74a8.71,8.71,0,0,0-.67-.67,3.66,3.66,0,0,1,.43-.43l-.19-.19c-.1,0-.29.1-.43.1s-.1,0-.14,0a6.67,6.67,0,0,0,.62-.29,7.88,7.88,0,0,0,1.05.86A1.3,1.3,0,0,1,95.3,110.74Zm-.38-4.17h-.38v-.19h.38Zm.38.67-.29.38-.14-.1.24-.38Zm0,1.92H95c.19-.19.34-.43.57-.43C95.39,108.67,95.45,109.15,95.25,109.15Zm0-.72-.29.14v-.14l.24-.14Zm1.58-2.35s-.1.1-.1.14l0,.19c0-.1-.1-.1-.24-.1a.37.37,0,0,0-.24.1c-.14.14-.19.19-.24.19l.19.19.29-.14a2.15,2.15,0,0,1,.1.38.22.22,0,0,1-.14.24,2,2,0,0,1,.29.67l-.24-.24a1.4,1.4,0,0,1-1,.29c.38-.34.53-.53.53-.62l-.1,0a.35.35,0,0,0-.29.19,1.6,1.6,0,0,0-.14-.29c.14-.1.24-.19.34-.19a3.79,3.79,0,0,0-.62-.24.37.37,0,0,1,.24-.1l.24,0a1.07,1.07,0,0,0,.14-.48v-.72c0,.14.29.48.29.62a.18.18,0,0,1,0,.14h.29l.19-.19a3.36,3.36,0,0,0-.34-.53c.38.19.82.34.91.58a.69.69,0,0,1-.33-.09ZM96,102.83h-.19v-.29H96Zm9.21,8,0,.14a1.3,1.3,0,0,1-.77.24c-.19,0-.14-.24-.34-.24s-.14.14-.24.14-.1,0-.1-.19,0,0-.1,0-.1,0-.1.14,0,0-.14.1a.91.91,0,0,1-.86-.48,10.69,10.69,0,0,1-.38-1.87q-.29-1.44-.86-1.44c-.19,0-.14.24-.34.24s-.24-.34-.43-.34-.14,0-.14,0l0,0s0,0-.14,0-.1,0-.1,0,.1-.14.1-.14l-.1,0a1.94,1.94,0,0,1-1-.62.8.8,0,0,0-.19.72h-.29a.47.47,0,0,1-.38-.14.86.86,0,0,1-.24.34.61.61,0,0,1,0-.29c0-.1.1-.34.1-.43a.35.35,0,0,0-.19-.29c-.24,0-.72-.1-.91-.1a1,1,0,0,1,.29-.38l0-.14s0-.1-.1-.14a1.06,1.06,0,0,1-.24.19.61.61,0,0,1,.19-.34.44.44,0,0,0-.24-.14s-.1,0-.14,0,0-.14.19-.24a3.82,3.82,0,0,1-.38-.29c-.1.1-.1.19-.1.43-.14-.1-.19-.14-.29-.14s.1-.14.29-.34a1.12,1.12,0,0,0-.34-.34,1.79,1.79,0,0,1-.38-.29c.1-.1.1-.19.14-.24s.14,0,.29.14a2.19,2.19,0,0,0,.29.19,2.94,2.94,0,0,1,.19-.29c0-.1-.29-.29-.82-.58h0a1.07,1.07,0,0,1,.19-.24.9.9,0,0,1-.1-.38.8.8,0,0,1,.43-.81,3.83,3.83,0,0,1-.38-.29.4.4,0,0,0-.1.34.44.44,0,0,1-.29-.19,3.12,3.12,0,0,0,.72-.43l-.14-.14c-.1,0-.1.1-.14.14a2.29,2.29,0,0,1-.24-.58l.34.34s0-.1,0-.24,0-.1.14-.1.19.1.19.1a2.94,2.94,0,0,1,.19-.29l-.19-.14-.53.34a.86.86,0,0,1-.24-.34.74.74,0,0,1,.38.1l.14-.19,0-.14s0-.1-.1-.14a.31.31,0,0,1-.24.1,6.14,6.14,0,0,0-.24-.81,4.41,4.41,0,0,1,.82-.62v-.81c-.1-.1-.19-.1-.43-.1.1-.29.19-.62.34-1a.3.3,0,0,0,.1-.19c0-.1-.1-.19-.43-.29a1.14,1.14,0,0,1,.53-.67c-.24-.24-.34-.38-.34-.53a8.78,8.78,0,0,1,.34-1.63,8.92,8.92,0,0,0,.38-1.73c.48-.14.91-.29,1.34-.43a4,4,0,0,1,1.34-.24c.38,0,.77.82,1.15,2.49l2.93,12.51c.14.62.24,1.2.38,1.82.24.91.48,1.44.67,1.49.37.33.32.72.32,1.34Zm-8.92-5.71-.14.29-.14-.1.14-.29Zm.1-5.94h-.14l-.14-.24.19,0Zm.24,3.4c-.1.14-.19.29-.34.48a5,5,0,0,0,.57-.34.51.51,0,0,0-.24-.14Zm0-3c-.14,0-.19.14-.19.38,0,0,.14,0,.38,0-.1-.14-.2-.24-.2-.33Zm.34-3.21-.1-.1-.29.24.1.14Zm.19,11-.43.14v-.19l.38-.14Zm.34-2.78-.29.24.1.14.29-.29Zm.19.58h-.43a2.15,2.15,0,0,0,.62.48.69.69,0,0,1-.2-.48Zm3-3.74c-.43-1.25-.82-1.87-1.29-1.87s-1,.67-1.2,2a6.94,6.94,0,0,1-.82,2.73c.14.1.34.29.62.53l-.19.24.48.29.24-.24c.34,0,1.15.24,1.49.24a1.05,1.05,0,0,0,.77-.48,1.35,1.35,0,0,0,.38-.91,8,8,0,0,0-.48-2.49Zm-.86-3.16-.1-.1-.29.24.1.14Zm.29,8.34-.14.1.14.24h.19Zm1.44,0h-.2v.38h.19Z"/><path id="Path_7" data-name="Path 7" class="cls-1" d="M114.48,110.93a1.47,1.47,0,0,1-.43-.19.22.22,0,0,0-.24,0,1.22,1.22,0,0,1-.34.1q-.29,0-.57-.43a2.3,2.3,0,0,1-.24-.53c.1,0,.14-.1.14-.29a11.77,11.77,0,0,0-.34-1.44c0-.1.14-.19.24-.34l-.19-.14s-.14.29-.24.29a2.9,2.9,0,0,0,.19-1.06,5.91,5.91,0,0,0-.34-.91,10.49,10.49,0,0,1-.38-1.29,11.93,11.93,0,0,0-.38-1.63c-.29-.67-.62-1-1.1-1-.19,0-.67.19-.86.19s0,.1,0,.29a1.14,1.14,0,0,0-.29.53,3,3,0,0,1,.14.72c0,.29-.19.48-.19.72a26.1,26.1,0,0,0,.24,3,.65.65,0,0,1,0,.43,2.85,2.85,0,0,0,0,.53,1.08,1.08,0,0,0,.43,1c0,.1-.1.19-.19.38a.83.83,0,0,0,0,.72,1.51,1.51,0,0,1-1.2.81,2.25,2.25,0,0,1-1.25-.38q-.14-.07-.29-.72c0-.1-.14-.19-.24-.34s.1-.24.19-.43c0-.38-.1-1.49-.14-3.4l-.14-.14a1.83,1.83,0,0,0,.19-.81c0-.72,0-1.77,0-3.21s0-2.54,0-3.31,0-1.68-.1-2.49c0-.53,0-1.25-.1-2.3-.14-.19-.19-.29-.19-.38,0-1.06.34-1.58,1.05-1.58.19,0,.38.1.53.1s.34-.34.53-.34a4,4,0,0,1,.86.19l.86.14c.19,0,.53-.34.77-.34s.34.29.34.29a3.78,3.78,0,0,1,1,.1c.24.1.53.19,1,.34a4.9,4.9,0,0,0,.86.86c.14.29.43.86.91,1.68-.1-.1-.14-.1-.19,0a2.88,2.88,0,0,0-.1,1,1,1,0,0,1,.14.24,14.47,14.47,0,0,1-.14,2.88,7.65,7.65,0,0,1-1.05,2.4,1.05,1.05,0,0,0-.29.24q.07.36.86,3a3,3,0,0,0,.1.86,4.17,4.17,0,0,1,.19,1c.82,2.21,1.25,3.31,1.25,3.31C115.77,110.45,115.1,110.93,114.48,110.93Zm-1.92-13.52a3.87,3.87,0,0,1,.14-.91c-.14-.19-.19-.34-.14-.38s.24-.24.14-.48a6.8,6.8,0,0,1-.38-.86c-.24-.43-.43-.62-.67-.62s0,.14-.24.14-.1-.34-.57-.34a5,5,0,0,0-1.44.34,1.47,1.47,0,0,0-.62,1,8.2,8.2,0,0,0-.14,1.92,7,7,0,0,0,.34,1.87c.1.14.24.34.43.62a3.53,3.53,0,0,0,1.29.29,2,2,0,0,0,1.1-.48c.1-.1.48-.43,1.1-1.06A2.11,2.11,0,0,1,112.56,97.41Zm.43,10.31-.14,0-.14.29.19,0Zm.43-.1v-.29h-.19v.29Z"/><path id="Path_8" data-name="Path 8" class="cls-1" d="M125.65,100.38a.48.48,0,0,0-.53.43c0-.1,0,.1,0,.62,0,0,0,0,.1.14a1,1,0,0,1,0,.62q.14.29.29.29v5.8l-.24,0c-.1,0-.14,0-.14.19a1.27,1.27,0,0,1,0,.34,12.33,12.33,0,0,1-1.49,1.68,2.2,2.2,0,0,1-.82.48l-1.58.1c-.91.1-1.44.14-1.49.14s-.38-.24-.57-.24-.14,0-.14.1.1.19.1.14c-.19-.24-.29-.34-.38-.34a.21.21,0,0,0-.14,0,.21.21,0,0,1-.14,0c-.1,0-.14,0-.1-.14s0-.19,0-.19l-.19.24h-.91c0-.19-.14-.67-.14-.86a5.8,5.8,0,0,1,.19-1c.14-.58.19-1,.24-1.29a4.47,4.47,0,0,1,0-1.2c.14-.48.19-.67.19-.58a.36.36,0,0,0-.19-.34.52.52,0,0,1,0-.24c0-.1.29-.19.34-.24v-.38c-.29-.29-.38-.43-.38-.58a.64.64,0,0,1,.14-.34,4.31,4.31,0,0,1-.14-.58c.14-.19.19-.29.19-.38a3.08,3.08,0,0,0-.34-.77v-.43a1.15,1.15,0,0,0,.34-.14.65.65,0,0,0,.29-.34.79.79,0,0,0-.62.1,3.2,3.2,0,0,1,.86-.48,12.94,12.94,0,0,0-1.05-.86,1.33,1.33,0,0,1,.86-.72,7.84,7.84,0,0,0,.43-.67c0-.1.1-.14.1-.34l-.1-.1a2.37,2.37,0,0,0-.38-1.06l-.24.24a.68.68,0,0,0-.53-.67,8,8,0,0,1,0-1.53c0-.72,0-1.25,0-1.53a2.35,2.35,0,0,0-.14-.58,2.18,2.18,0,0,1-.14-.53,1.92,1.92,0,0,1,.48-1.1l.82-.14a12.15,12.15,0,0,1,2,.53,1.94,1.94,0,0,0,.24-.43.77.77,0,0,1-.1.48s0,.19.24.19a1.77,1.77,0,0,0,1-.43l.24.24a.3.3,0,0,0,.1-.29.56.56,0,0,0,.43.48c.19,0,.1-.14.29-.14s.34.34.48.34a.57.57,0,0,0,.43-.24,1,1,0,0,0,.38.43,2.63,2.63,0,0,0,.43.34.5.5,0,0,1-.24.34c.1.1.1.19.19.29a.94.94,0,0,0,.43-.43,4.18,4.18,0,0,0,.38,1.1.41.41,0,0,0-.14.29c.29.1.57.19.57.38a2.9,2.9,0,0,1-.43,1.29,4.33,4.33,0,0,1,.24.77c-.19.43-.24.67-.19.77a1.08,1.08,0,0,0-.1.62,1.72,1.72,0,0,0,.24.43,2.37,2.37,0,0,0-.19,1.15,7.56,7.56,0,0,1,.77.48A.52.52,0,0,1,125.65,100.38Zm-8.2-4h.38a.77.77,0,0,0,.14-.53c-.38.15-.53.33-.53.53Zm.67.34v-.19h-.29v.19Zm.48,11.89h-.38c.1,0,.1.1.1.29ZM119.13,97a1.6,1.6,0,0,1-.14-.72,3.57,3.57,0,0,0-.38.72Zm.24.72,0-.14-.29.14v.19Zm3.84,10.12c-.14,0-.19,0-.14-.1l.1-.14c.14-.19.19-.29.14-.38a15.58,15.58,0,0,0,.1-1.73c-.24-3-.38-5.13-.38-6.38,0-.19.14-.91.14-1,0-1.44,0-1.92,0-1.39a1.87,1.87,0,0,1,.34-1.1c-.14,0-.24-.14-.43-.34,0-.14,0-.34,0-.53-.34-.62-.62-.91-.86-.91a3.89,3.89,0,0,0-.53.14c-.24,0-.38-.14-.53-.43-.29.14-.62.29-1.1.48a2.22,2.22,0,0,1-.34.34,15.69,15.69,0,0,0-.24,2.83,3.09,3.09,0,0,0,.24,1.15,15.5,15.5,0,0,0,0,1.68c0,.67,0,1.1,0,1.44a11.38,11.38,0,0,0,0,1.15q.05.55,0,1.1a4.42,4.42,0,0,1-.38,1.63c0-.1.24.1.14.77,0,.1.29.19.29.29l-.19.19c-.1,0-.14,0-.19.14a.66.66,0,0,1,0,.43c0,.14-.1.24-.14.24.19.14.24.38,0,.67l.43.29a.62.62,0,0,0-.1.38,6.48,6.48,0,0,1,.53-.43c.1.1.1.14.1.14s-.29.19-.29.29a.25.25,0,0,1,.19.1,11.32,11.32,0,0,1-1,.62c.19.19.34.29.48.29s.1,0,.1,0a.48.48,0,0,1,0-.14s0,0,.1,0H120a.72.72,0,0,1,.57.24.36.36,0,0,1,0-.19c0-.14.1-.19.29-.19-.1,0,.14,0,.57.14,0-.14.14-.19.19-.19a1,1,0,0,0,.72.43s-.1-.19-.34-.58c.14-.1.34-.43.48-.43a.5.5,0,0,0,.38.19.85.85,0,0,1,.1-.53.26.26,0,0,0,.24.1q-.14-.07-.14-.14s.1-.1.19-.19.14-.1.24-.1a.61.61,0,0,0,0-.29s-.07,0-.31,0Zm-2.06-15v-.19h-.29v.19Zm.24,15.82a1.12,1.12,0,0,1-.1.53.56.56,0,0,1-.34-.53Zm0-16v-.29h-.19v.29Zm.1,16.83h-.14l-.14.34.14.1Zm.29.77-.38-.29-.1.14.38.29Zm1-2.11-.14.29-.14-.1.14-.29Zm.24,1.06-.29-.38-.14.1.24.38Zm.67-16.4-.29.29c.34,0,.53,0,.53,0-.19,0-.24-.09-.24-.24Zm.91,14.14-.19-.19-.1.1.14.19Z"/><path id="Path_9" data-name="Path 9" class="cls-1" d="M136.78,110.07a3.3,3.3,0,0,1-.24.86.7.7,0,0,1-.67.48c-.19,0-.72-.34-.91-.34s-.19.1-.34.24l-.24-.24a2,2,0,0,1-.53,0,3.87,3.87,0,0,1-.91-.14,4.75,4.75,0,0,0-.91-.14c-.14,0-.14.1-.14.29,0,0-.1-.14-.24-.29a1.19,1.19,0,0,1-.91.34,3.17,3.17,0,0,1-.53,0,.9.9,0,0,0-.53,0l0,0c0-.1-.1-.14-.24-.14s-.14.24-.29.24a6.87,6.87,0,0,0-1-.24l-.48-14.14c0-.77-.1-1.53-.19-2.4s-.14-1.44-.14-1.49a2.79,2.79,0,0,1,.43-1.2,1.38,1.38,0,0,1,.57-.1l5.27-.19c.29,0,.91-.14,1.2-.14.62,0,1,.14,1.2.48a2.29,2.29,0,0,1,.24,1.34c0,.91-.29,1.25-1.15,1.25-.48,0-1.2,0-2.21,0s-1.68-.1-2.21-.1c-.19,0-.38.19-.62.62a1.8,1.8,0,0,0-.34.86A.25.25,0,0,0,130,96a17.55,17.55,0,0,1,.1,2.06.43.43,0,0,1-.14.34,3.46,3.46,0,0,1,.1,1.15c.14.14.19.19.29.19s.24-.14.38-.14.48.34.67.34.82,0,1.44,0,1.15-.1,1.44-.1.67.38.67,1.15a3.85,3.85,0,0,1-.1,1.1.9.9,0,0,1-.91.43c-.38,0-1.34-.1-1.73-.1a3.12,3.12,0,0,0-.86.19,1.79,1.79,0,0,0-.82.29,2.17,2.17,0,0,0-.29,1,5.8,5.8,0,0,0-.19,1,1.27,1.27,0,0,1,.1.53,7.23,7.23,0,0,1-.24,1.34v0c0,.1-.1.29-.1.38a1.65,1.65,0,0,0,.19.62,6.24,6.24,0,0,1,.24.67l-.19.14v.38l.19.1s0,0,0-.1,0-.24,0-.34h.38a2.71,2.71,0,0,1,.34,1c.19-.1.1-.38.19-.43s0,0,.1.19,0,.24.1.24l.24-.19v.14a.4.4,0,0,0,.1.29,1.62,1.62,0,0,1,.38-.14l-.19-.1v-.4c.19,0,.53-.43.53-.43v.53a2.08,2.08,0,0,0,0,.24.72.72,0,0,0,.19-.38q.72-.22.86-.58c.1.19.24.43.43.43s.43-.24.53-.24a4.43,4.43,0,0,1,1.53-.19c.24,0,.43.24.57.67s.29.72.43.77C137,109.83,136.92,109.92,136.78,110.07Zm-6.81.14-.14-.19-.14.1.19.19Zm1.34.29c0-.1,0-.14,0-.19a.64.64,0,0,0-.34.14.7.7,0,0,0,.38.24.25.25,0,0,1-.1-.19Zm.34-.19c-.14,0-.19.1-.19.34l.43,0Z"/><path id="Path_10" data-name="Path 10" class="cls-1" d="M146.89,101.1c-.1,0-.19,0-.34,0,.29.14.43.29.38.34v5.23a9.43,9.43,0,0,0,.19,1.58,9.75,9.75,0,0,1,.19,1.68c0,1-.34,1.06-1.29,1.06a2.08,2.08,0,0,1-1.53-.77,11.33,11.33,0,0,1-.38-1.63,7.24,7.24,0,0,1-.53-1.49q-.5-3.16-2.16-3.16c-.1,0-.19.1-.38.29l-.29.43a.43.43,0,0,1,0,.24c0,.53-.43.77-.72,1.06,0,0,0,0,.1,0s.48-.19.67-.19v4.51a2.8,2.8,0,0,1-.24.62,3.18,3.18,0,0,1-.72,0,5.31,5.31,0,0,1-1.15,0,.82.82,0,0,1-.67-.81l.14-18.8.14.1.1-.1s.1,0,.19,0c.29,0,.91-.14,1.1-.14-.14,0,.19,0,.86.14a2.07,2.07,0,0,1,.72,1.39V93a.64.64,0,0,0,0,.24,2,2,0,0,0,.14.77,1.88,1.88,0,0,1,.29.62c0,.34-.29.43-.53.57a.18.18,0,0,0,.14,0c.1,0,.19,0,.34,0a4.57,4.57,0,0,1,.62,1.25c.24.67.43,1,.48,1s.24-.1.29-.1-.1.14-.24.29c.14.14.29.34.53.58,0,0,0-.1.1-.19s.1,0,.19,0,.14,0,.14,0v0s0,0,.1,0,.19-.1.14-.19.19.1.38.34c.14-.19.29-.43.48-.72a9.59,9.59,0,0,0,.19-1.44c0-.24-.19-.81-.19-1.06v0a1.53,1.53,0,0,0,.34-.29.36.36,0,0,1,0-.19.49.49,0,0,1,.24-.38l0,0q0,.57.72.58c.1,0,.29,0,.34,0s.14,0,.19,0,.14-.34.19-.53c.34.34.53.58.53.72s-.14.62-.14.77c-.19,0-.29-.1-.34-.1s-.14,0-.19,0,0,.29.24.29a1.49,1.49,0,0,0,.34-.1.18.18,0,0,0,0,.14c0,.1,0,.43,0,.53a.79.79,0,0,1-.24.58v3.84a1.83,1.83,0,0,0,.43.43C147.18,101.15,147,101.1,146.89,101.1Zm-6.09-2.78-.29-.15,0,.19.29.14Zm2.25,8.15s0,0,0-.14v-.14a2.07,2.07,0,0,1,0-.24q.29.29.29.43l-.29.1Zm3.5.38-.34-.38c-.19,0-.34-.19-.38-.19s0,.1-.14.1a.84.84,0,0,1-.29,0c-.1,0-.19,0-.19,0a2.38,2.38,0,0,1,0-.72l0-.1h0a.18.18,0,0,1-.14,0l.19-.14a1,1,0,0,1,.34.86,2.5,2.5,0,0,0,.29-.67c.1,0,.14,0,.14.1s-.1.24-.1.29a1,1,0,0,0,.38-.29.15.15,0,0,1-.1,0c-.14,0-.14-.14-.14-.43-.1,0-.24.19-.34.19s0,0-.1,0a3.71,3.71,0,0,1,.48-.58.81.81,0,0,0,.29.29,1.35,1.35,0,0,0,.19-.53,1,1,0,0,1-.38.14l-.14-.1c.14-.1.24-.14.24-.24s0-.29,0-.24a.26.26,0,0,1-.24.1.25.25,0,0,1-.29-.29c0-.14.1-.48.1-.62.14.14.24.19.29.19v.29c0-.1.19-.38.19-.58l-.43-.14v-.48l.19-.19a1.32,1.32,0,0,0,.38.29.89.89,0,0,1-.24-.48q.14-1.58.14-1.44v-.15l-.19.14s-.1,0-.1-.1.29-.77.43-1a.76.76,0,0,1-.24-.38.59.59,0,0,1-.43.14.64.64,0,0,1-.48-.14.36.36,0,0,1,0,.19c0,.58-.62,1-1,1.39a1.31,1.31,0,0,1,.62.62l-.29.14s0,0,0,.1-.1.19-.24.38-.34.34-.34.38V103c.1,0,.14,0,.19.1a1.39,1.39,0,0,0-.43.67c.38.34.53.58.53.77s-.14.29-.43.53c.19.1.29.34.29.77a1,1,0,0,1-.19.58c.19,0,.34.14.38.38a.52.52,0,0,0,.53.38c.1,0,.19-.1.34-.24,0,0,0,.1,0,.24s0,.1.14.1H146c0-.24,0-.34.14-.34s.14.19.24.34a.72.72,0,0,1,.29-.14v-.24ZM144.64,108v-.19h-.53V108Zm.24-3.6-.1.14-.34-.14v-.19Zm2.3-11.27h-.24c-.14,0-.43-.1-.53-.1s-.38,0-.43.14v.43a1,1,0,0,1-.14.43s0,0,.1,0a1.33,1.33,0,0,1-.67-.43.66.66,0,0,0,.14-.19l0-.1c-.29.19-.34.24-.38.53a2.36,2.36,0,0,1-.34-1.1,1.45,1.45,0,0,1,.34-1.06,1.94,1.94,0,0,1,1.1-.19,2,2,0,0,1,1.25.43c0,.3-.14.87-.14,1.16Zm-2.11,13.23-.34.14v-.14l.24-.14Zm.19-2H145v-.19h.29Zm0-.58H145v-.38h.19Zm.24-3.07h-.28v-.19h.29Zm.1-2.54v-.38h-.19v.38Zm.29,1.87-.43.14V100l.38-.14Zm.57-3c-.14,0-.24,0-.38,0l.24.14c-.1.1-.14.14-.14.19s0,0,.1.1l.1-.1.1.1-.29.14v0a.36.36,0,0,0,0,.19V98a.44.44,0,0,1-.14.24c-.14-.14-.24-.24-.24-.29,0,.19-.24.43-.24.48.48,0,.77-.24.86-.53s.19-.58.29-.81a.35.35,0,0,0-.3-.1Zm-.34,3.64h-.14l-.14-.38.14-.1Zm.62-6.76a.7.7,0,0,0-.29,0s0,.1.1.14c-.1-.1-.19-.1-.38-.1l.14-.53a.36.36,0,0,0,.19,0,1.09,1.09,0,0,0,.53-.14c0,.39-.1.53-.29.53Zm.1,14.1-.19-.19-.1.14.14.14Z"/></g><g id="Group_53" data-name="Group 53"><g id="Group_2" data-name="Group 2"><path id="Path_11" data-name="Path 11" class="cls-1" d="M37.09,122.2c.14-.14.1-.53-.43-.48a6,6,0,0,1-.43.57A5.28,5.28,0,0,0,37.09,122.2Z"/></g><g id="Group_3" data-name="Group 3"><path id="Path_12" data-name="Path 12" class="cls-1" d="M34.12,120.18a7.08,7.08,0,0,0-1,0c-.34.1-.57.24-.57.57a2.49,2.49,0,0,1,.91,0,1.75,1.75,0,0,0,.91-.14c.48.14.72.53.57.72.1,0,.29,0,.53.1a.6.6,0,0,0,.62-.1,3,3,0,0,0-2.16-.91C33.79,120.33,34,120.28,34.12,120.18Z"/></g><g id="Group_4" data-name="Group 4"><path id="Path_13" data-name="Path 13" class="cls-1" d="M38.58,81.78l-.29-.1C38.34,81.78,38.44,81.78,38.58,81.78Z"/></g><g id="Group_5" data-name="Group 5"><path id="Path_14" data-name="Path 14" class="cls-1" d="M66.39,82.16c-.19,0-.29.1-.29.14C66.29,82.26,66.44,82.21,66.39,82.16Z"/></g><g id="Group_6" data-name="Group 6"><path id="Path_15" data-name="Path 15" class="cls-1" d="M71.18,82.83c-.1,0-.19,0-.29,0A.23.23,0,0,0,71.18,82.83Z"/></g><g id="Group_7" data-name="Group 7"><path id="Path_16" data-name="Path 16" class="cls-1" d="M38.58,81.78l.77.19C39.35,81.78,38.92,81.82,38.58,81.78Z"/></g><g id="Group_8" data-name="Group 8"><path id="Path_17" data-name="Path 17" class="cls-1" d="M29.71,114.91a1.7,1.7,0,0,0,.19.43c0-.19,0-.29-.09-.43Z"/></g><g id="Group_9" data-name="Group 9"><path id="Path_18" data-name="Path 18" class="cls-1" d="M32.78,88.44v.24c.1,0,.14.14.24.19Z"/></g><g id="Group_10" data-name="Group 10"><path id="Path_19" data-name="Path 19" class="cls-1" d="M32.88,97.84c0-.19-.53-.29-.77-.38a.73.73,0,0,1,.38.48A.72.72,0,0,0,32.88,97.84Z"/></g><g id="Group_11" data-name="Group 11"><path id="Path_20" data-name="Path 20" class="cls-1" d="M31.92,112.8l.1.29A1,1,0,0,1,31.92,112.8Z"/></g><g id="Group_12" data-name="Group 12"><path id="Path_21" data-name="Path 21" class="cls-1" d="M34.36,83.45a.36.36,0,0,0,.19.1A.36.36,0,0,0,34.36,83.45Z"/></g><g id="Group_13" data-name="Group 13"><path id="Path_22" data-name="Path 22" class="cls-1" d="M48,123.45v-.1S47.93,123.45,48,123.45Z"/></g><g id="Group_14" data-name="Group 14"><path id="Path_23" data-name="Path 23" class="cls-1" d="M37.09,120.76l.14,0c0-.1,0-.19,0-.29Z"/></g><g id="Group_15" data-name="Group 15"><path id="Path_24" data-name="Path 24" class="cls-1" d="M79.86,83.55s0,0,0,0C79.57,83.6,79.72,83.55,79.86,83.55Z"/></g><g id="Group_16" data-name="Group 16"><path id="Path_25" data-name="Path 25" class="cls-1" d="M152.5,88.39c.48-.91.62,1.49,1.15.1C153.41,88.63,152.79,87.24,152.5,88.39Z"/></g><g id="Group_17" data-name="Group 17"><path id="Path_26" data-name="Path 26" class="cls-1" d="M29.81,114.67v-.38A.52.52,0,0,0,29.81,114.67Z"/></g><g id="Group_18" data-name="Group 18"><path id="Path_27" data-name="Path 27" class="cls-1" d="M153.65,88.49h0l0-.14A.18.18,0,0,0,153.65,88.49Z"/></g><g id="Group_19" data-name="Group 19"><path id="Path_28" data-name="Path 28" class="cls-1" d="M99.9,83.22c0-.1-.14-.14-.19-.24S99.76,83.08,99.9,83.22Z"/></g><g id="Group_20" data-name="Group 20"><path id="Path_29" data-name="Path 29" class="cls-1" d="M85,82.45l.38.1A.72.72,0,0,0,85,82.45Z"/></g><g id="Group_21" data-name="Group 21"><path id="Path_30" data-name="Path 30" class="cls-1" d="M107.67,82.45a1,1,0,0,0,.53,0s0,0-.1,0A.45.45,0,0,1,107.67,82.45Z"/></g><g id="Group_22" data-name="Group 22"><path id="Path_31" data-name="Path 31" class="cls-1" d="M115.73,82.45s-.1-.1-.14-.1a.36.36,0,0,0-.24,0Z"/></g><g id="Group_23" data-name="Group 23"><path id="Path_32" data-name="Path 32" class="cls-1" d="M72.53,123.2a1.68,1.68,0,0,1-.38-.48C72.29,123.06,71.14,123.2,72.53,123.2Z"/></g><g id="Group_24" data-name="Group 24"><path id="Path_33" data-name="Path 33" class="cls-1" d="M30,114.91a.31.31,0,0,1-.24-.24.61.61,0,0,0,0,.29A.29.29,0,0,0,30,114.91Z"/></g><g id="Group_25" data-name="Group 25"><path id="Path_34" data-name="Path 34" class="cls-1" d="M108,78.18l1.29.1A10.94,10.94,0,0,0,108,78.18Z"/></g><g id="Group_26" data-name="Group 26"><path id="Path_35" data-name="Path 35" class="cls-1" d="M130.45,123.11l-.29,0A.32.32,0,0,0,130.45,123.11Z"/></g><g id="Group_27" data-name="Group 27"><path id="Path_36" data-name="Path 36" class="cls-1" d="M113.09,78.18a2.63,2.63,0,0,0,.72.38l.14-.14Z"/></g><g id="Group_29" data-name="Group 29"><path id="Path_38" data-name="Path 38" class="cls-1" d="M63.71,124c1.2,0,.58-.67.81-1.1,1.44-.19.67.53,1.15.86.91-.19,1.63-.81,2.3-.81,0,.1.19.14,0,.29,1-.58,2.88,0,4-.72a.26.26,0,0,1,.14.19,1.9,1.9,0,0,1-.19-1c.53,0,1-.43,1.2,0-.34,0-.38.19-.53.34l.58-.19c.53.67-.77.24-.77.72,1.1-.24,2.44-.77,3.26-.58.19.67-2,.24-.86.81l-1.25-.29c1,1-.81-.1.14,1,1.73.19,2-.34,3.69-.14.38-.38-.14-.53.24-.91,2.49-.67,2,1.63,3.79.77.48-.43.67-1.25,2-.81l-.43.72c1.68.1,1-1.06,2.73-.58-.34.29-1.34.24-1.06.34,1.15.58.81-.43,1.68-.43l.19.67c1.82-.1,3.79-.58,5.75-.67-.1.19-.43.38,0,.58a28,28,0,0,1,7.77.48L101,123c.19,0,.38.24.14.38,1,.19,0-.34.48-.58.53,0,.72.34.38.48,1.68-.48,4.75-1,6.52-.43l-.34.14c1.39.24,1.53-1.15,2.83-.62l-.24.1c3,.24,6.23-.29,8.53.58.43-.81,2.93.38,3.12-.77,1.68.58,1.2.77,3.6,1.15.62,0,1-.72,1.73-.81v.58l1.05-.63.57.72.72-.14c-.29,0-.62-.29-.57-.43,1.15-.29,2.83.43,2.83.72l2.73-.48c0,.24-.53.34-.86.48,1.44-.62.29.62,1.58,0-.19-.14.1-.34.14-.48a6.69,6.69,0,0,0,3.31.19l-.19.38c2,.1,4.27-.19,6.57-.19-.82-.19-.62-.91,0-1l.29.62c.43-.38-.72-.24.19-.72.86.1.57.72.1.91l1.06-.24c0,.19-.19.29-.24.53.19-.19.67,0,1.15.1a3.7,3.7,0,0,0,.72.1h.14c.1,0,.14,0,.24,0a1,1,0,0,0,.38-.19l.1.19a7.47,7.47,0,0,0,3.79-1.39A10.35,10.35,0,0,0,156,119.7c-.19-.19-.14-.48,0-.81a2.44,2.44,0,0,0,.14-1.2,8.09,8.09,0,0,0,.53-1.29c0-.24.14-.48.19-.72s.1-.53.14-.72a9.53,9.53,0,0,0,.19-2.35c-.29-1.15-.48-.34-.77-.86.48-.1.43-1.73.82-.86a35.27,35.27,0,0,0-.48-5c-.19.29-.29.58-.48.43-.1-.43.19-1,.43-1l0,.1c-.72-2.78,1.44-6.47.43-8.68l0,.14-.53-2.3c.1-1.06.38.62.67-.14-.82-2.49.1-3.93-.43-6a2.77,2.77,0,0,0,.62-1.58,6.12,6.12,0,0,0,0-1.34c0-.24-.1-.53-.14-.77s-.14-.53-.24-.77a9.19,9.19,0,0,0-1.63-2.74c-.62-.77-1.34-1.44-1.87-2.06l-.19.48c-.82-.14-.72-.62-1.25-1,0,.29.67.67.14.62a8.34,8.34,0,0,0-2.4-.57c-.24,0-.43,0-.62-.1H147.9c-1.2,0-2.4-.1-3.64-.24-2.44-.19-4.89-.53-7.28-.67-1.77-.1-1,1.77-3.21,1l.62-.62c-3.55.77-7.24,0-10.74.62.19-.14.19-.34.57-.34-.72-.48-2.73,0-2.73.34-.53,0-.14-.34-.48-.53-.72-.29-1.88.57-2.26.14,0-.1.19-.14.34-.19-.48.24-2.25,0-1.77.48-1.29-.24-2.49.24-3.55-.1-.67.57-2.25-.29-2.44.57.1-.86-2.3-.72-3.12-.29.29-.24-.72-.29-.38-.62-1,0-1.82.19-1.63.62-1.73-1.05-3.5.81-4.46-.48-2.78.48-5.37.77-7.91,1,.1-.86,2.78-.1,2.68-1-2.4.34-3.74,1.1-6.14.91-.62-.1.34-.38.58-.53-2.4.34-4.6-.1-6.71.38,0-.1.24-.19.43-.24-.43,0-1-.14-.91.29l.38-.1c.67.57-1.68,1.2-1.73,1.49.72-1.15-2.11-.29-1-1.73-.29.1-.62.24-.58.53-.38-.14-.53-.29-.1-.62-1.49.19-1,.62-2.3.62,0-.19.29-.29.43-.48a3.73,3.73,0,0,1-2.54.57c0-.1-.1-.24.24-.24-2,0-3.36,1-5.51.62.62-.82-.72-.29-.86-1l-1.15.2.48.34c-1,0-1.92.53-2.78.29l.77-.29-1.92.14,1.06.29c-1,.38.1.91-1.25.72.29-.1-1,0-1.53-.43h0a2.35,2.35,0,0,1-1.77.29c-.19-.24.14-.82,0-1-.48.57-2.4.14-3,.81a.55.55,0,0,0,.14-.62l-.43.48c-.48-.14-.53-.24-.48-.53-1.44-.1.43.91-1.25.53.14,0,0-.1.34-.19-1.63-.19-3.16.34-4.75.1-.48-.72,1.34-.19.82-.77-2.25.14-4.65.86-6.81.67l.38.1c-.29,1-1.63-.48-2.68,0,.29-.1.34-.58.29-.43a23.61,23.61,0,0,0-5.27.57l.29-.24a13,13,0,0,0-1.58-.19,5.21,5.21,0,0,1-.86,0h-1c-.34.29-.91.38-.48.67a3.46,3.46,0,0,0-2.49.43,4.94,4.94,0,0,0-1.68,1.77,13.5,13.5,0,0,0-.86,2.16c-.1.38-.19.72-.29,1.1,0,.14-.1.34-.14.53l-.1.29c0,.1,0,.14-.1.24a.43.43,0,0,0,0-.24,2.08,2.08,0,0,0,0-.24c-.1-.14-.14-.24-.14,0v.34l0,.24,0,.53.14,1.1c.43-.19.29-.29.62-.77a2.57,2.57,0,0,1,.48,1.44c-.29-1-.72,0-1,.43.1,0,.24.14.38.1-.77,1.15.91.19.38,1.77l-.24-.1a7.31,7.31,0,0,1,.38,1.77c-.53.24-.24-.62-.67-.67,0,.91,1,1.77.48,2.54-.14-.38-.14-.91-.29-1.3a2.25,2.25,0,0,0-.53,1.63v0L30,96.83l.14-.33c1.34,1.1.24,2.25,1.1,3.79-.82-1.44-.48-.24-1.05-.34-.14.38-.34,1-.53.82.48.72-.38,1.2.34,2.21-.19,0,0,.77-.48.58.14.91.34-.24.57-.14.62,1.44-.77,3.36.1,5.37.38,1.77,1,2.11,1.29,3.74-.29.58-.67-.43-.67-.43a3.73,3.73,0,0,0,0,2.4c-.14-.19-.29,0-.53.24,0,.67.67.43.48,1.44a2.2,2.2,0,0,1-.81-.72A6.08,6.08,0,0,0,31.25,118c-.1.19-.29.1-.48,0a5.75,5.75,0,0,1-.53-.58A5.94,5.94,0,0,0,31.29,119a2.89,2.89,0,0,0,.67.53,1.66,1.66,0,0,0,.58.14,6.71,6.71,0,0,1-.29-.62c.24.29-.24.43-.48.24a1.18,1.18,0,0,1-.62-.81,1.1,1.1,0,0,1,.19-.53c.14.19.29.34.43.53.29-.58,0-1-.38-1.63a4.22,4.22,0,0,1-.29-.48c-.1-.19-.14-.34-.24-.53a4.12,4.12,0,0,1-.19-1c.29.14.53.34.82.48-.24-.38-.43-.81-.67-1.2.19-.24.67-.43.77.14.38-.86-.29-.77.14-1.49.1-.1.14-.1.19,0l-.24-.81c.14.14.58-.14.43.34.48-1.49-.58-2.4,0-2.92l0,.14c-.29-2.06-.58-.19-1.3-1.72l1.44-1.06-.58-.19c0-.19,0-.62.29-.58-.38-.77-.24.14-.62-.34.53-1-.24-2.83.67-3-.43-.38-.34,1-.67-.1,1-.29-.19-1.25.29-2.21.53.29.24,1.15.72.24-.86-.58.19-1.82,0-2.59-.72,0-.29-1.73-.53-3,.34,0,.48-2.54.72-3.74l.1,0C32,91,32.11,89.78,32,88.82c.43,0,.58.19.77.72v-.86c-.24-.19-.34-.48-.43-1.06l.58.24a13.2,13.2,0,0,0-.24-1.63,2.11,2.11,0,0,1,.43-1.53c-.19-.14-.62,0-1-.1s-.63-.19-.39-1c.29.1.67.29.58.67,0-.19,0-.57.29-.72a3.7,3.7,0,0,0,.1.72c.48-.38-.19-.48.14-.86.29.24.43-.1.62.14,0,.1-.38.24-.34.43a1.57,1.57,0,0,1,1.25-.57c-.14-.14-.34-.38,0-.67s.53-.19.62-.1.14.24.43.24c0-.34.67-.24.53-.82.29,0,.38.19.48.34a2.43,2.43,0,0,1,1.29-.29c.53,0,.91-.19.57-.48l-.14,0s0,0,.1,0h0c2-.58,4.07.34,6,.1v.19c1.15-.24,2.59-.14,3.4-.53.34,0,.82.34.67.57a3.88,3.88,0,0,1,2.25,0c-.91.29.29.29-.91.24,1.15.14,1.39.48,2.64,0-.43.48.86.62,1.39.48l-.82-.34a9.79,9.79,0,0,1,1.68,0l-.29.62c2.35.77,4.27-1.34,6,0,.62-.43-1.3-.34-.72-.82,1.1.1,2.21,1,2.54,1,1.49.34,1.39-.91,2.92-.67-.19-.24-.38-.82.77-1.05,1.1.1,1.34,1,.67,1.15-.24,0-.38,0-.38-.14-.34.1-.81.19-.38.43l.14-.24c.53.24,2,.19,1.68.57.81-.24.34-.38-.24-.48,1.39.34,2.16,0,3.6.24-.24-.14-.43-.38-.19-.38,2.11.29.91-.43,2.35-.53.81.34-.29.82,1.15.53.86.24.19.62-.14.77,1.29-.43,2.44.29,3.16.38l-.67.19a4.68,4.68,0,0,1,1.1-.1l-.38-.43c.38.1.77.1.72.29.43-.29-.34-.77.53-1.15.53.24,1.63-.24,1.82.34-1.68-.19.19.62-1.25.72a2.36,2.36,0,0,1,1,0s0,.14-.14.14c1.63.53.77-.67,2.4-.67-.19.34.38.62.67.57-.67,0-.34-.57.29-.82,1.06.29,1.15-.19,1.73-.14l-.62-.14c.24-.34.77-.29,1.49-.38,0,.29-.67.19-.43.29.81-.58,1.87.62,3,.24.53.24,0,.62.53.82,1.29-.43,1.39.48,2.78.1-.38-.48-.48-.34.48-.82L90,83l1.44-.67a16.91,16.91,0,0,1-1.82.19c.67-.38.62-.24.29-.62.91.67,1.82-.38,2.92,0l0,1.15c1.63.53,2.88-.57,4.94-.29l-.63-.39c.29-.43,1.29,0,2-.24,0,.38.38.53.67.77,0-.29,1.53,0,1.73-.72l1,.48c1.68.19,1.92-1.1,3.55-1-.48.43.24.67-.86,1,.53,0,1,.1,1.06-.19.34.24,1.49-.53,2-.14.24-.14.29-.57.91-.53a.23.23,0,0,1,0,.19c0-.19,1-.24.43-.67,1.68,1.2,4.65-.1,6.14.91,1.2-.14,2.59-.24,3.69-.29,0,.1,0,.19-.19.14,1.49.34.91-1.1,2.59-.67.86.62-.91.34-.34.57.24,1.25,2-.19,3.16.57l-.29.1c.86.43,2.11-.48,3.55-.38a.23.23,0,0,0,0,.19,11.12,11.12,0,0,1,4.17-1c-.43.48-.62.24-.38.77.62,0-.19-.82,1.06-.91.38.29,1.29.48,1.39,1l-1.15,0c.57.67,1.49,0,2.11.1l-.1.29c1.77-.1,1.77-.86,3.69-.82l-.29-.29c1.06-.77.86.43,1.92-.14l.34.77a25.8,25.8,0,0,1,3.64-.86,11.36,11.36,0,0,1-3,1.2c.67,0,2.3,0,2.64-.43a1.53,1.53,0,0,1-.91.14,5.25,5.25,0,0,1,3.26-.86c-.1.72.77.82,1.77.86.24,0,.53,0,.77,0h.19l.14,0c.1,0,.19,0,.29,0a3.48,3.48,0,0,1,.43.24,1,1,0,0,1,.24.38,2.24,2.24,0,0,1,1.92,1.25,3.26,3.26,0,0,1,.38,1.15c0,.19,0,.38.1.62v.67c.29-.24.43-.29.48-.29s.1.14.1.29,0,.72.62.62c.1.67,0,.91,0,1l-.72,2c-.34.48-.24-.62-.53-.57-.1,1.44-.48.57-.82,1.53.43-.19.62.48.43,1.3l.53-1.15c.62,2-1,1.73-.38,3.74l-.38-.62c.24,1,0,3.79.91,4.8-.14.19-.48.43-.53,0-.14,2.44,1,5.47.43,7.38l-.29-.19c.1.48.53.82.24,1.39-.1,0-.29-.19-.29,0a3.74,3.74,0,0,1,.34,1.82l-.34-.53c-.38,2.4.77,3.69,1,5.66a1.06,1.06,0,0,0-.53.24,3.1,3.1,0,0,0-.38.43l-.62.86-.1,0a10.62,10.62,0,0,1-1.2,1.68,3.46,3.46,0,0,1-.91.67c-.19.1-.38.14-.57.24l-.91.14c-1.58-.91-5.42-.38-8-.91.38.14,0,.67-.53.72-.62-.19-1.68.58-1.58-.19H138c-.43-.77-1.68-.58-2.68-.58l-.14,1c-2.54-1.49-6.67.53-8-.77-.62.24-1.39.24-2,.48l0-.53a28.93,28.93,0,0,0-4.65-.1l.43-.38c-1.2,0-1.49,1.58-2.59,1.58l-.34-.81c-2.06,0-4.17-.72-6.18,0a.51.51,0,0,1,.43-.38c-1,0-3.74-.53-3.4.58,0-.72-2.11,0-3.26.24l.19-.53a3.69,3.69,0,0,1-2.3,1.06c-.29,0-.29-.43.14-.29-1.06-.29-.82.53-2.06.24l.48-.34c-1.06,0-1,.14-1.58.53-.67.19-2-.14-2.16-.62a1.29,1.29,0,0,1-1.34.53c-.1-.19.14-.29.24-.34-1.77-.38-2.64.62-3.88.1,0-.19-.1-.29-.19-.34a14.44,14.44,0,0,1,2.45.1c0-.48-1.15-.58-.24-1.25-.91.38-2.49,1.2-3.6,1a.66.66,0,0,1-.14-.19l.1,0a1.26,1.26,0,0,0-.72.1,3,3,0,0,0-.91-.14c-.14-.43-1.29-.24-1.87-.24,0,.53-.72.43,0,.91-.1,0,.1,0,.48-.1a.36.36,0,0,0,.24,0l0,0c.38,0,.86,0,1.44,0a1.36,1.36,0,0,1-1.53.19,7.46,7.46,0,0,1-.81.86c-.77-.77-2.3-1.15-2.49-1.63-1.73.29-4.12.19-5.18,1.2-.48.14-.58-.29-.77-.43.29-.1.62-.1.77-.24-1,.24-2.92.1-3.16.81-1.25-.34.72-.67-1-.53l.24-.24c-3.36-1.15-5.47,1.82-9.21.34.24.1.38.14.43.24-4.17-.53-8.73.72-12.9-.29-1.2-.19-1.34.24-2.06.58l-.29-.58-1.25.67c-1.77.48-3.07-1.44-5.32-.48l.29.38c-.81-.1-2.54.24-2.4-.24-.1,0-.29.38-.57.19l0-.29-2,.53c-1.53-.24.24-1.2-2-1.25-.81.1-2.35.86-2.06,1.1.34,0,.86.19.86.48l-.77.14c-.14.9-.71,1.81,1.16,2.43l1.3-.53.43.43-1.1,0c.62.43,1,0,1.44-.19a.87.87,0,0,0,.53.48l1.3-.86c.14.34-.57.67.29.86.57-.38-.57-.77.43-1.06.62.38.43.72,1.15.38.1.24,0,.38-.34.48.67-.29,1.73-.1,2.06-.58.67.48,2.21-.14,2.11.72a4.15,4.15,0,0,1,1.73-.72c-1.1,1,2.25,0,2,1.15.82-.91,2.92-.38,4.36-.91-.1.1-.24.24-.38.19a4.35,4.35,0,0,1,1.53.53c.1-.77,1.34-.91,2-1.39,1,.72-.58.86-.29,1.58,0-.62,1.73-.62,1.39-1.1.77.43.67.24,1.06.86.14-1,.72-.14,1.34-.72,1.1.48.29.86,1.49.58C64.81,123.63,63.71,124,63.71,124Zm28.58-1.63h0c-.24,0-.43,0-.58,0a3.6,3.6,0,0,0,.57,0Zm2.4,0a7.71,7.71,0,0,0-1.06,0,.25.25,0,0,1,.24-.38c-.15.1.43.24.81.38ZM89.6,118.6c.38-.1.53,0,.58.14-.19,0-.38,0-.67,0l0,0A.44.44,0,0,1,89.6,118.6Z"/></g><g id="Group_30" data-name="Group 30"><path id="Path_39" data-name="Path 39" class="cls-1" d="M88.92,119.32s-.1,0-.14,0,.14.1.24.14a.66.66,0,0,0,.14-.19Z"/></g><g id="Group_31" data-name="Group 31"><path id="Path_40" data-name="Path 40" class="cls-1" d="M38.25,81.73h.05a.1.1,0,0,1-.1-.1h0S38.2,81.68,38.25,81.73Z"/></g><g id="Group_32" data-name="Group 32"><path id="Path_41" data-name="Path 41" class="cls-1" d="M127.76,123.39v-.14l-.19.1Z"/></g><g id="Group_33" data-name="Group 33"><path id="Path_42" data-name="Path 42" class="cls-1" d="M30.29,89.69a.66.66,0,0,0-.14.19S30.24,89.79,30.29,89.69Z"/></g><g id="Group_34" data-name="Group 34"><path id="Path_43" data-name="Path 43" class="cls-1" d="M30.19,95.39l-.19.81A8.1,8.1,0,0,0,30.19,95.39Z"/></g><g id="Group_35" data-name="Group 35"><path id="Path_44" data-name="Path 44" class="cls-1" d="M29.9,99.8c.1,0,.19,0,.24.1h0Z"/></g><g id="Group_36" data-name="Group 36"><path id="Path_45" data-name="Path 45" class="cls-1" d="M84.66,78.85a.36.36,0,0,0,.19,0C85.23,78.71,84.95,78.76,84.66,78.85Z"/></g><g id="Group_37" data-name="Group 37"><path id="Path_46" data-name="Path 46" class="cls-1" d="M63.9,80.1a3.76,3.76,0,0,1,.67-.24C64.23,79.81,63.94,79.76,63.9,80.1Z"/></g><g id="Group_39" data-name="Group 39"><path id="Path_48" data-name="Path 48" class="cls-1" d="M65.53,79.86a1.63,1.63,0,0,0-1,0A6.39,6.39,0,0,0,65.53,79.86Z"/></g><g id="Group_40" data-name="Group 40"><path id="Path_49" data-name="Path 49" class="cls-1" d="M31.15,119.56l.14.24s0,0,.1,0Z"/></g><g id="Group_41" data-name="Group 41"><path id="Path_50" data-name="Path 50" class="cls-1" d="M31.39,119.75c.1,0,.14.14.24.19C31.53,119.85,31.44,119.75,31.39,119.75Z"/></g><g id="Group_42" data-name="Group 42"><path id="Path_51" data-name="Path 51" class="cls-1" d="M32.16,120.33c-.19-.1-.34-.24-.53-.34C31.77,120.13,31.92,120.33,32.16,120.33Z"/></g><g id="Group_43" data-name="Group 43"><path id="Path_52" data-name="Path 52" class="cls-1" d="M29.9,113l-.19,0S29.81,113,29.9,113Z"/></g><g id="Group_44" data-name="Group 44"><path id="Path_53" data-name="Path 53" class="cls-1" d="M29.86,111.26a5.22,5.22,0,0,0-.29,1.63l.14,0C29.42,112.65,30.19,111.65,29.86,111.26Z"/></g><g id="Group_45" data-name="Group 45"><path id="Path_54" data-name="Path 54" class="cls-1" d="M32.3,103.88l-.14,1.49c.19-.24.48-.58.53.1C33.31,103.54,32.2,105.8,32.3,103.88Z"/></g><g id="Group_46" data-name="Group 46"><path id="Path_55" data-name="Path 55" class="cls-1" d="M32.59,99.28c.1.81.29,0,.43,0C32.83,98.8,32.78,98.7,32.59,99.28Z"/></g><g id="Group_47" data-name="Group 47"><path id="Path_56" data-name="Path 56" class="cls-1" d="M48.56,82.11l-.1.48C49.13,82.54,48.51,82.45,48.56,82.11Z"/></g><g id="Group_48" data-name="Group 48"><path id="Path_57" data-name="Path 57" class="cls-1" d="M54.93,79.62l-.62-.34-.29.48Z"/></g><g id="Group_49" data-name="Group 49"><path id="Path_58" data-name="Path 58" class="cls-1" d="M58.67,83.08l-.29.1,1-.19Z"/></g><g id="Group_50" data-name="Group 50"><path id="Path_59" data-name="Path 59" class="cls-1" d="M114.29,82.93l-.19-.62C113.71,82.4,113.62,83.12,114.29,82.93Z"/></g><g id="Group_51" data-name="Group 51"><path id="Path_60" data-name="Path 60" class="cls-1" d="M138.31,82.3a1.15,1.15,0,0,0,1.34.19C139.12,82.45,138.6,82.21,138.31,82.3Z"/></g><g id="Group_52" data-name="Group 52"><path id="Path_61" data-name="Path 61" class="cls-1" d="M134.14,118.5l.48-.19-.91.19Z"/></g></g></g></svg>