<svg id="Laag_1" data-name="Laag 1" xmlns="http://www.w3.org/2000/svg" viewBox="0 0 48.58 47.92"><defs><style>.cls-1{fill:#e54f00;}.cls-2{fill:#fff;}</style></defs><title>nfc_icon</title><g id="Group_656" data-name="Group 656"><circle id="Ellipse_1-2" data-name="Ellipse 1-2" class="cls-1" cx="24.29" cy="24.19" r="23.6"/><g id="Group_655" data-name="Group 655"><path id="Path_704" data-name="Path 704" class="cls-2" d="M22.25,1.27c5.67,1.13,8.85,4.31,8.85,18.15V33L19.75,21.69V28.5L35.63,44.39V14.89c0-8.62-2.72-12-4.09-13.16A25.57,25.57,0,0,0,24.29.59a26.16,26.16,0,0,0-5.9.68Z"/><path id="Path_705" data-name="Path 705" class="cls-2" d="M26.33,46.66c-5.67-1.13-8.85-4.31-8.85-18.15V14.89L28.83,26.23V19.43L12.94,3.54V33c0,11.12,4.54,13.62,4.54,13.62H17a25.57,25.57,0,0,0,7.26,1.13,25.57,25.57,0,0,0,7.26-1.13Z"/></g></g></svg>