<svg id="Laag_1" data-name="Laag 1" xmlns="http://www.w3.org/2000/svg" viewBox="0 0 49.14 48.47"><defs><style>.cls-1{fill:#244994;}.cls-2{fill:#fff;}</style></defs><title>qr_code_icon</title><g id="Add-button"><path id="Oval-9-2" class="cls-1" d="M24.71,48.72a24,24,0,1,0-24-24A24,24,0,0,0,24.71,48.72Z"/></g><g id="Group_653" data-name="Group 653"><g id="Group_648" data-name="Group 648"><rect id="Rectangle_12" data-name="Rectangle 12" class="cls-2" x="14.61" y="14.59" width="0.96" height="6.75"/><rect id="Rectangle_13" data-name="Rectangle 13" class="cls-2" x="14.61" y="22.3" width="0.96" height="0.96"/><rect id="Rectangle_14" data-name="Rectangle 14" class="cls-2" x="14.61" y="25.19" width="0.96" height="0.96"/><rect id="Rectangle_15" data-name="Rectangle 15" class="cls-2" x="14.61" y="28.08" width="0.96" height="6.75"/><rect id="Rectangle_16" data-name="Rectangle 16" class="cls-2" x="15.57" y="14.59" width="0.96" height="0.96"/><rect id="Rectangle_17" data-name="Rectangle 17" class="cls-2" x="15.57" y="20.37" width="0.96" height="0.96"/><rect id="Rectangle_18" data-name="Rectangle 18" class="cls-2" x="15.57" y="22.3" width="0.96" height="4.82"/><rect id="Rectangle_19" data-name="Rectangle 19" class="cls-2" x="15.57" y="28.08" width="0.96" height="0.96"/><rect id="Rectangle_20" data-name="Rectangle 20" class="cls-2" x="15.57" y="33.86" width="0.96" height="0.96"/><rect id="Rectangle_21" data-name="Rectangle 21" class="cls-2" x="16.54" y="14.59" width="0.96" height="0.96"/><rect id="Rectangle_22" data-name="Rectangle 22" class="cls-2" x="16.54" y="16.51" width="0.96" height="2.89"/><rect id="Rectangle_23" data-name="Rectangle 23" class="cls-2" x="16.54" y="20.37" width="0.96" height="0.96"/><rect id="Rectangle_24" data-name="Rectangle 24" class="cls-2" x="16.54" y="22.3" width="0.96" height="0.96"/><rect id="Rectangle_25" data-name="Rectangle 25" class="cls-2" x="16.54" y="24.22" width="0.96" height="2.89"/><rect id="Rectangle_26" data-name="Rectangle 26" class="cls-2" x="16.54" y="28.08" width="0.96" height="0.96"/><rect id="Rectangle_27" data-name="Rectangle 27" class="cls-2" x="16.54" y="30.01" width="0.96" height="2.89"/><rect id="Rectangle_28" data-name="Rectangle 28" class="cls-2" x="16.54" y="33.86" width="0.96" height="0.96"/><rect id="Rectangle_29" data-name="Rectangle 29" class="cls-2" x="17.5" y="14.59" width="0.96" height="0.96"/><rect id="Rectangle_30" data-name="Rectangle 30" class="cls-2" x="17.5" y="16.51" width="0.96" height="2.89"/><rect id="Rectangle_31" data-name="Rectangle 31" class="cls-2" x="17.5" y="20.37" width="0.96" height="0.96"/><rect id="Rectangle_32" data-name="Rectangle 32" class="cls-2" x="17.5" y="28.08" width="0.96" height="0.96"/><rect id="Rectangle_33" data-name="Rectangle 33" class="cls-2" x="17.5" y="30.01" width="0.96" height="2.89"/><rect id="Rectangle_34" data-name="Rectangle 34" class="cls-2" x="17.5" y="33.86" width="0.96" height="0.96"/><rect id="Rectangle_35" data-name="Rectangle 35" class="cls-2" x="18.46" y="14.59" width="0.96" height="0.96"/><rect id="Rectangle_36" data-name="Rectangle 36" class="cls-2" x="18.46" y="16.51" width="0.96" height="2.89"/><rect id="Rectangle_37" data-name="Rectangle 37" class="cls-2" x="18.46" y="20.37" width="0.96" height="0.96"/><rect id="Rectangle_38" data-name="Rectangle 38" class="cls-2" x="18.46" y="24.22" width="0.96" height="0.96"/><rect id="Rectangle_39" data-name="Rectangle 39" class="cls-2" x="18.46" y="28.08" width="0.96" height="0.96"/><rect id="Rectangle_40" data-name="Rectangle 40" class="cls-2" x="18.46" y="30.01" width="0.96" height="2.89"/><rect id="Rectangle_41" data-name="Rectangle 41" class="cls-2" x="18.46" y="33.86" width="0.96" height="0.96"/><rect id="Rectangle_42" data-name="Rectangle 42" class="cls-2" x="19.43" y="14.59" width="0.96" height="0.96"/><rect id="Rectangle_43" data-name="Rectangle 43" class="cls-2" x="19.43" y="20.37" width="0.96" height="0.96"/><rect id="Rectangle_44" data-name="Rectangle 44" class="cls-2" x="19.43" y="22.3" width="0.96" height="4.82"/><rect id="Rectangle_45" data-name="Rectangle 45" class="cls-2" x="19.43" y="28.08" width="0.96" height="0.96"/><rect id="Rectangle_46" data-name="Rectangle 46" class="cls-2" x="19.43" y="33.86" width="0.96" height="0.96"/><rect id="Rectangle_47" data-name="Rectangle 47" class="cls-2" x="20.39" y="14.59" width="0.96" height="6.75"/><rect id="Rectangle_48" data-name="Rectangle 48" class="cls-2" x="20.39" y="22.3" width="0.96" height="0.96"/><rect id="Rectangle_49" data-name="Rectangle 49" class="cls-2" x="20.39" y="24.22" width="0.96" height="0.96"/><rect id="Rectangle_50" data-name="Rectangle 50" class="cls-2" x="20.39" y="26.15" width="0.96" height="0.96"/><rect id="Rectangle_51" data-name="Rectangle 51" class="cls-2" x="20.39" y="28.08" width="0.96" height="6.75"/><rect id="Rectangle_52" data-name="Rectangle 52" class="cls-2" x="21.35" y="24.22" width="0.96" height="2.89"/><rect id="Rectangle_53" data-name="Rectangle 53" class="cls-2" x="22.32" y="14.59" width="0.96" height="1.93"/><rect id="Rectangle_54" data-name="Rectangle 54" class="cls-2" x="22.32" y="18.44" width="0.96" height="4.82"/><rect id="Rectangle_55" data-name="Rectangle 55" class="cls-2" x="22.32" y="27.12" width="0.96" height="0.96"/><rect id="Rectangle_56" data-name="Rectangle 56" class="cls-2" x="22.32" y="29.04" width="0.96" height="0.96"/><rect id="Rectangle_57" data-name="Rectangle 57" class="cls-2" x="22.32" y="31.94" width="0.96" height="2.89"/><rect id="Rectangle_58" data-name="Rectangle 58" class="cls-2" x="23.28" y="14.59" width="0.96" height="3.86"/><rect id="Rectangle_59" data-name="Rectangle 59" class="cls-2" x="23.28" y="21.33" width="0.96" height="3.86"/><rect id="Rectangle_60" data-name="Rectangle 60" class="cls-2" x="23.28" y="27.12" width="0.96" height="1.93"/><rect id="Rectangle_61" data-name="Rectangle 61" class="cls-2" x="23.28" y="31.94" width="0.96" height="0.96"/><rect id="Rectangle_62" data-name="Rectangle 62" class="cls-2" x="24.25" y="14.59" width="0.96" height="0.96"/><rect id="Rectangle_63" data-name="Rectangle 63" class="cls-2" x="24.25" y="16.51" width="0.96" height="0.96"/><rect id="Rectangle_64" data-name="Rectangle 64" class="cls-2" x="24.25" y="19.4" width="0.96" height="3.86"/><rect id="Rectangle_65" data-name="Rectangle 65" class="cls-2" x="24.25" y="24.22" width="0.96" height="0.96"/><rect id="Rectangle_66" data-name="Rectangle 66" class="cls-2" x="24.25" y="27.12" width="0.96" height="2.89"/><rect id="Rectangle_67" data-name="Rectangle 67" class="cls-2" x="24.25" y="30.97" width="0.96" height="1.93"/><rect id="Rectangle_68" data-name="Rectangle 68" class="cls-2" x="25.21" y="14.59" width="0.96" height="3.86"/><rect id="Rectangle_69" data-name="Rectangle 69" class="cls-2" x="25.21" y="21.33" width="0.96" height="1.93"/><rect id="Rectangle_70" data-name="Rectangle 70" class="cls-2" x="25.21" y="27.12" width="0.96" height="3.86"/><rect id="Rectangle_71" data-name="Rectangle 71" class="cls-2" x="26.17" y="14.59" width="0.96" height="1.93"/><rect id="Rectangle_72" data-name="Rectangle 72" class="cls-2" x="26.17" y="17.48" width="0.96" height="1.93"/><rect id="Rectangle_73" data-name="Rectangle 73" class="cls-2" x="26.17" y="20.37" width="0.96" height="0.96"/><rect id="Rectangle_74" data-name="Rectangle 74" class="cls-2" x="26.17" y="22.3" width="0.96" height="0.96"/><rect id="Rectangle_75" data-name="Rectangle 75" class="cls-2" x="26.17" y="25.19" width="0.96" height="0.96"/><rect id="Rectangle_76" data-name="Rectangle 76" class="cls-2" x="26.17" y="28.08" width="0.96" height="0.96"/><rect id="Rectangle_77" data-name="Rectangle 77" class="cls-2" x="26.17" y="30.01" width="0.96" height="0.96"/><rect id="Rectangle_78" data-name="Rectangle 78" class="cls-2" x="26.17" y="32.9" width="0.96" height="0.96"/><rect id="Rectangle_79" data-name="Rectangle 79" class="cls-2" x="27.14" y="22.3" width="0.96" height="0.96"/><rect id="Rectangle_80" data-name="Rectangle 80" class="cls-2" x="27.14" y="26.15" width="0.96" height="4.82"/><rect id="Rectangle_81" data-name="Rectangle 81" class="cls-2" x="28.1" y="14.59" width="0.96" height="6.75"/><rect id="Rectangle_82" data-name="Rectangle 82" class="cls-2" x="28.1" y="22.3" width="0.96" height="0.96"/><rect id="Rectangle_83" data-name="Rectangle 83" class="cls-2" x="28.1" y="24.22" width="0.96" height="0.96"/><rect id="Rectangle_84" data-name="Rectangle 84" class="cls-2" x="28.1" y="26.15" width="0.96" height="1.93"/><rect id="Rectangle_85" data-name="Rectangle 85" class="cls-2" x="28.1" y="29.04" width="0.96" height="1.93"/><rect id="Rectangle_86" data-name="Rectangle 86" class="cls-2" x="28.1" y="31.94" width="0.96" height="0.96"/><rect id="Rectangle_87" data-name="Rectangle 87" class="cls-2" x="28.1" y="33.86" width="0.96" height="0.96"/><rect id="Rectangle_88" data-name="Rectangle 88" class="cls-2" x="29.07" y="14.59" width="0.96" height="0.96"/><rect id="Rectangle_89" data-name="Rectangle 89" class="cls-2" x="29.07" y="20.37" width="0.96" height="0.96"/><rect id="Rectangle_90" data-name="Rectangle 90" class="cls-2" x="29.07" y="22.3" width="0.96" height="0.96"/><rect id="Rectangle_91" data-name="Rectangle 91" class="cls-2" x="29.07" y="26.15" width="0.96" height="1.93"/><rect id="Rectangle_92" data-name="Rectangle 92" class="cls-2" x="29.07" y="29.04" width="0.96" height="0.96"/><rect id="Rectangle_93" data-name="Rectangle 93" class="cls-2" x="29.07" y="32.9" width="0.96" height="1.93"/><rect id="Rectangle_94" data-name="Rectangle 94" class="cls-2" x="30.03" y="14.59" width="0.96" height="0.96"/><rect id="Rectangle_95" data-name="Rectangle 95" class="cls-2" x="30.03" y="16.51" width="0.96" height="2.89"/><rect id="Rectangle_96" data-name="Rectangle 96" class="cls-2" x="30.03" y="20.37" width="0.96" height="0.96"/><rect id="Rectangle_97" data-name="Rectangle 97" class="cls-2" x="30.03" y="22.3" width="0.96" height="2.89"/><rect id="Rectangle_98" data-name="Rectangle 98" class="cls-2" x="30.03" y="26.15" width="0.96" height="3.86"/><rect id="Rectangle_99" data-name="Rectangle 99" class="cls-2" x="30.03" y="30.97" width="0.96" height="3.86"/><rect id="Rectangle_100" data-name="Rectangle 100" class="cls-2" x="30.99" y="14.59" width="0.96" height="0.96"/><rect id="Rectangle_101" data-name="Rectangle 101" class="cls-2" x="30.99" y="16.51" width="0.96" height="2.89"/><rect id="Rectangle_102" data-name="Rectangle 102" class="cls-2" x="30.99" y="20.37" width="0.96" height="0.96"/><rect id="Rectangle_103" data-name="Rectangle 103" class="cls-2" x="30.99" y="25.19" width="0.96" height="2.89"/><rect id="Rectangle_104" data-name="Rectangle 104" class="cls-2" x="30.99" y="29.04" width="0.96" height="0.96"/><rect id="Rectangle_105" data-name="Rectangle 105" class="cls-2" x="30.99" y="30.97" width="0.96" height="2.89"/><rect id="Rectangle_106" data-name="Rectangle 106" class="cls-2" x="31.96" y="14.59" width="0.96" height="0.96"/><rect id="Rectangle_107" data-name="Rectangle 107" class="cls-2" x="31.96" y="16.51" width="0.96" height="2.89"/><rect id="Rectangle_108" data-name="Rectangle 108" class="cls-2" x="31.96" y="20.37" width="0.96" height="0.96"/><rect id="Rectangle_109" data-name="Rectangle 109" class="cls-2" x="31.96" y="23.26" width="0.96" height="1.93"/><rect id="Rectangle_110" data-name="Rectangle 110" class="cls-2" x="31.96" y="28.08" width="0.96" height="0.96"/><rect id="Rectangle_111" data-name="Rectangle 111" class="cls-2" x="31.96" y="31.94" width="0.96" height="0.96"/><rect id="Rectangle_112" data-name="Rectangle 112" class="cls-2" x="32.92" y="14.59" width="0.96" height="0.96"/><rect id="Rectangle_113" data-name="Rectangle 113" class="cls-2" x="32.92" y="20.37" width="0.96" height="0.96"/><rect id="Rectangle_114" data-name="Rectangle 114" class="cls-2" x="32.92" y="22.3" width="0.96" height="0.96"/><rect id="Rectangle_115" data-name="Rectangle 115" class="cls-2" x="32.92" y="30.01" width="0.96" height="0.96"/><rect id="Rectangle_116" data-name="Rectangle 116" class="cls-2" x="32.92" y="31.94" width="0.96" height="0.96"/><rect id="Rectangle_117" data-name="Rectangle 117" class="cls-2" x="33.88" y="14.59" width="0.96" height="6.75"/><rect id="Rectangle_118" data-name="Rectangle 118" class="cls-2" x="33.88" y="22.3" width="0.96" height="4.82"/><rect id="Rectangle_119" data-name="Rectangle 119" class="cls-2" x="33.88" y="28.08" width="0.96" height="0.96"/><rect id="Rectangle_120" data-name="Rectangle 120" class="cls-2" x="33.88" y="31.94" width="0.96" height="0.96"/><rect id="Rectangle_121" data-name="Rectangle 121" class="cls-2" x="33.88" y="33.86" width="0.96" height="0.96"/></g><g id="Group_649" data-name="Group 649"><path id="Path_700" data-name="Path 700" class="cls-2" d="M38.45,18.48H37.6V11.81H30.93v-.87h7.52Z"/></g><g id="Group_650" data-name="Group 650"><path id="Path_701" data-name="Path 701" class="cls-2" d="M30.92,38.49v-.87h6.66V31h.87v7.52Z"/></g><g id="Group_651" data-name="Group 651"><path id="Path_702" data-name="Path 702" class="cls-2" d="M11,31h.85v6.66H18.5v.85H11Z"/></g><g id="Group_652" data-name="Group 652"><path id="Path_703" data-name="Path 703" class="cls-2" d="M18.5,10.95v.87H11.84v6.66H11V10.95Z"/></g></g></svg>