<svg id="Laag_1" data-name="Laag 1" xmlns="http://www.w3.org/2000/svg" viewBox="0 0 191.61 188.99"><defs><style>.cls-1{fill:#b2b2b2;}</style></defs><title>sloten_1</title><g id="Group_324" data-name="Group 324"><g id="Group_271" data-name="Group 271"><path id="Path_291" data-name="Path 291" class="cls-1" d="M74.31,91.91a1.75,1.75,0,0,1-.58.43,1.65,1.65,0,0,1-.58,0c-.19,0-.86-.1-1.1-.1s-.19-.14-.29-.29a2.66,2.66,0,0,0-.38-1.39c-.34-.62-.72-.91-1.2-.91a1.46,1.46,0,0,0-1.3.77,1.89,1.89,0,0,0-.34,1.3c0,.14-.14.62-.14.81a2.11,2.11,0,0,0,.29,1.2,6.8,6.8,0,0,0,.53.77c0,.1,0,.24-.19.38a.81.81,0,0,0,.43.1c-.1.1-.53.62-.72.62l-.24,0s-.1,0-.1,0a.28.28,0,0,0,.1.24s.48-.24,1.3-.62a1.7,1.7,0,0,0,0,.34.26.26,0,0,0,.1-.24c.43.34,1,.77,1.68,1.39a27.94,27.94,0,0,1,2,2.64.36.36,0,0,1,0,.43,1.91,1.91,0,0,1,.34.43,2.71,2.71,0,0,0,0,1.06,5.09,5.09,0,0,1,.1.81c0,.1-.19.53-.19.62s0,.19.14.19a6.6,6.6,0,0,0-.43,2.16,2.22,2.22,0,0,0-.48.48c-.24.29-.38.48-.48.58s.1.1.14.24a.62.62,0,0,1-.38-.1s0,.1-.1.24-.24.19-.72.24H71.1s-.29.29-.48.29-.38,0-.91,0-.77,0-.86,0a3.92,3.92,0,0,1-1.39-.34,4,4,0,0,1-1-.77,3.4,3.4,0,0,1-1.1-2.59c0-1,.19-1.34,1.25-1.34a5,5,0,0,1,.58,0,2.86,2.86,0,0,1,.72.43,12.24,12.24,0,0,0,.48,1.39q.5.72.72.72c.19,0,.48.24.67.24s.34-.24.53-.24.34.34.34.34.19-.19.19-.24a.21.21,0,0,0-.19-.14s.1,0,.14,0a8.34,8.34,0,0,0,.53-.86,1.78,1.78,0,0,0,.34-1,1,1,0,0,0-.24-.62,1.53,1.53,0,0,0,.29-.34,6,6,0,0,1-.1-1.15,3.12,3.12,0,0,0-.43-.72c-.48-.48-1.15-1.2-2.11-2.25l.19-.62a.69.69,0,0,0,.1.34.36.36,0,0,0,.19,0c.19-.19.19-.62.29-.77l-.1-.19a2.3,2.3,0,0,1-.53-.24c0-.1.34-.24.43-.38,0,0-.1-.14-.29-.48,0,0-.1.1-.14.1s-.1.14-.1.19.1.1.29.1a.68.68,0,0,1-.67,0l-.29.29a.69.69,0,0,0,.34.1c-.14.19-.19.29-.1.38a1.33,1.33,0,0,1-.62,0c-1.39-.67-2.06-2.3-2.06-5a5.09,5.09,0,0,1,.1-1,2.56,2.56,0,0,0,.29-.77c.1-.1.24-.19.38-.34a1.11,1.11,0,0,1-.34-.24s.19-.24.38-.24.29,0,.29-.1a1.19,1.19,0,0,1,.34-1,3.06,3.06,0,0,1,1.06-.62,4,4,0,0,1,1.34-.29c.38,0,.67,0,.82,0,0,.14,0,.19.19.19s0-.24.24-.24a7.64,7.64,0,0,1,1.15.62,5.06,5.06,0,0,1,1.2.82c.14.24.24.43.34.62.24.38.43.58.58.62v2.16ZM67,89.27a.67.67,0,0,1-.24.48,5.62,5.62,0,0,0,.53-.24Z"/><path id="Path_292" data-name="Path 292" class="cls-1" d="M83.09,107a.69.69,0,0,0-.34-.1.3.3,0,0,0-.29.24,5.43,5.43,0,0,0-1-.43,1,1,0,0,0-.29.19v.29a1,1,0,0,1-.43-.24,1,1,0,0,0-.48-.19c-.19,0-.53.24-.72.24a3.34,3.34,0,0,1-.67-.14,2.44,2.44,0,0,0-.67-.19c-.19,0,.1.24-.1.24s-.72-.24-.86-.24-.29.34-.48.34-.72-.24-.81-.24c0-.38,0-.91,0-1.68s0-1.29,0-1.58c.1,0,.14,0,.19-.1s-.14-.1-.19-.1v-2.72s0-.38.1-1a10.89,10.89,0,0,0,.14-1.44,11.91,11.91,0,0,1,0-1.73c0-.67,0-1.63.1-3,.1-1.53.1-2.4.1-2.64s0-.72,0-1.25c0-.24,0-.72.1-1.39a1.48,1.48,0,0,0-.1-.82c.67,0,1,0,1.1.1a.77.77,0,0,1,.53-.24c.19,0,.91.24,1.2.24a3,3,0,0,1,.34.82l-1.21,15.72c.1,0,0,.29.24.29s0-.1.24-.1.38.24.62.62l.29-.19a.43.43,0,0,1,.34-.14,5.58,5.58,0,0,1,.77.14,3.89,3.89,0,0,0,.81.1,4.06,4.06,0,0,0,.62,0c.34,0,.53-.1.62-.1h.38a1.54,1.54,0,0,0,.38,0,3.06,3.06,0,0,1,.24,1.15C83.9,106.38,83.47,107,83.09,107Zm-5.9-3.21-.14-.34-.14.1.14.24Zm.19.67-.43-.14v.14l.34.14Zm3.16,1.39v-.19H80v.19Z"/><path id="Path_293" data-name="Path 293" class="cls-1" d="M93.58,99.82q-.14,1.65-.14,2.44c0,.29,0,1,0,1.2a2,2,0,0,1-.43,1.49c-.48.53-.77.81-.82.91,0-.14.34-.53.34-.81v-.15a2.54,2.54,0,0,0-.43.53s-.1-.1-.24-.24c-.1.1-.24.14-.38.29.29.14.43.34.43.48-.38.1-.77.1-1,.48,0-.14-.14-.48-.14-.67a.66.66,0,0,1,.24-.43l.43-.29s-.19-.24-.48-.72a.25.25,0,0,0-.1.19,1.56,1.56,0,0,1,.14.48l-.77-.19c.29,0,.67-.67.91-.67s.14,0,.24.1l.1-.38a.43.43,0,0,0-.24,0A.36.36,0,0,0,91,104v-.34a1.63,1.63,0,0,1,.19-.77V91.09a.4.4,0,0,0-.34-.1.85.85,0,0,1,.19-.48,2.89,2.89,0,0,0-.53-.67l-.58-.43a1.48,1.48,0,0,0-.58-.29,1.77,1.77,0,0,0-1.49.86,2.84,2.84,0,0,0-.58,1.68,9.09,9.09,0,0,0,.29,3c-.24.1-.34.34-.34.67s.1.86.1,1.06a10.23,10.23,0,0,0,0,1.06v1.06c0,.58,0,1.06,0,1.44a4.18,4.18,0,0,0-.24.91c0,.34,0,.81.1,1.49s.1,1.15.1,1.44a1.24,1.24,0,0,1-.19.48c0,.1,0,.14,0,.24a.75.75,0,0,1-.29.67,1.57,1.57,0,0,0,.29.38,1.94,1.94,0,0,0,.14-.48,1,1,0,0,1,.29-.48l.29-.19.14.14V105h-.1a.35.35,0,0,0-.34.29,1,1,0,0,0,.19.29,1,1,0,0,1,.24-.43,3,3,0,0,1,.24.53c.1.24.19.38.24.38s.58.14.72.14c0-.19.14-.43.24-.77h.13c.38,0,.62,0,.67-.14a4.52,4.52,0,0,1,.48.48v.1a.15.15,0,0,1,0,.1.18.18,0,0,1-.16.19h0c.1,0,0,0-.19-.1l-.1,0a2,2,0,0,0,.43.67,2.19,2.19,0,0,1-1.15.38c-1.1,0-1.82-.24-2.11-.67l-.24.24c-.38-.19-.58-.38-.58-.62s.19-.48.19-.58a.25.25,0,0,0-.1-.19l0,0s.1,0,.1-.14-.14-.34-.34-.43c.1-.14.1-.24.14-.29s.19.1.34.1l.1-.1a1.07,1.07,0,0,0-.1-.58l-.38-.14-.14.14a.77.77,0,0,0,.14.43l-.29-.24a1.93,1.93,0,0,1-.77.67.52.52,0,0,1-.1-.38.47.47,0,0,1,.14-.38,1.73,1.73,0,0,1-.24-.43.59.59,0,0,0,.19-.43c0-.38-.14-.58-.34-.62a.36.36,0,0,1,0-.24,1,1,0,0,0,.38-.29l-.19-.14a6.28,6.28,0,0,0,.62-.58.25.25,0,0,0-.19-.1.64.64,0,0,0-.38.14v0a.18.18,0,0,1,.08-.23h0c-.1-.1-.48-.48-.48-.67a1.18,1.18,0,0,1,.38-.81,3.5,3.5,0,0,1,.48.43l.1,0s0-.1,0-.19-.24-.34-.62-.62v0l0-.19c0-.14-.1-.19-.19-.14h0a.94.94,0,0,1,.19-.38q-.14-.22-.43-.58c.1,0,.24.1.34.1a.17.17,0,0,0,.1,0s-.1-.14-.14-.14,0,0,.1,0,.34-.14.38-.48c-.1.1-.14.19-.29.34h-.38v-.24c0-.19,0-.29.24-.34v0s0-.1.1-.19a1,1,0,0,1-.29-.19.81.81,0,0,1,0-.48c-.1-.29-.19-.67-.38-1.2a3.15,3.15,0,0,1,.58-.58.59.59,0,0,0-.53-.34h.24a1.52,1.52,0,0,0,.1-.67c0-.34-.14-1.1-.14-1.39a1.13,1.13,0,0,1,.24-.77l-.1-.14.24-.43h0a3.88,3.88,0,0,1,.19-1.34,7.26,7.26,0,0,0,.67-.43v-.1c0-.53.34-.91,1.06-1.15a4.42,4.42,0,0,1,1.71-.33l.29.34c.14-.14.19-.24.19-.34.43.1,1.06.19,1.87.38.34.24.62.48.91.67a2.73,2.73,0,0,1,.72.86,8.35,8.35,0,0,1,.48,3.12c0,.29.1,1,.1,1.2s0,1,0,1.29,0,.72,0,1.34,0,1,0,1.34A18.53,18.53,0,0,1,93.58,99.82Zm-7.43,3.4V103h-.29v.19Zm.14,2.49-.1.1-.29-.29.1-.14Zm.29-2.44h-.53a.17.17,0,0,1,0,.1.51.51,0,0,0,.1.29c0-.1.1-.14.29-.14s.34.1.43.1Zm0,0-.14-.34-.14,0,.14.29Zm0-1a.43.43,0,0,0-.14.34s.14,0,.43,0Zm1.73,3.79a1.7,1.7,0,0,0-.43-.53,1.28,1.28,0,0,1,.14.58c0,.1,0,.14,0,.19Zm.43.14-.1-.14-.29.14v.14Zm.24-.43v-.1a.37.37,0,0,0-.1-.24,1.53,1.53,0,0,1-.29.34,2,2,0,0,0,.19-.43.46.46,0,0,1,.43-.29.79.79,0,0,1-.24.73Zm.77-18-.19-.19-.1.14.14.19ZM90,105.09l-.14.1L89.7,105l.14-.1ZM91.91,95l-.14-.19-.1.14.14.19Zm.24.14-.19-.1-.15.29.19.1Zm.43-2a2.63,2.63,0,0,0-.34.43.66.66,0,0,1,.43-.24.13.13,0,0,1,.14.14c0,.1-.1.24-.1.34q0-.14.29-.14a3.5,3.5,0,0,0-.43-.53Zm.29-1.2-.14-.53c-.1.14-.24.29-.43.53Zm-.14-2.73a3.87,3.87,0,0,0-.29.62v0a.82.82,0,0,1,.43.48,2.05,2.05,0,0,1,.24-.62,1,1,0,0,1-.38-.52Zm.19,5.56-.14,0-.14.29.14.1ZM92.67,94a1.28,1.28,0,0,1,.14.58.26.26,0,0,1,.29-.19Zm.43,1.44,0-.14-.29.14v.14Zm0-4.22V90.8H93v.43Z"/><path id="Path_295" data-name="Path 295" class="cls-1" d="M104.75,90.37c-.11,0-.31,0-.63-.1a1.94,1.94,0,0,0-.58-.1,1.2,1.2,0,0,0-.73.24c-.05,0-.31.29-.68.67-.05.1.11.38.11.43-.16,0-.37-.1-.63-.29a.24.24,0,0,0,0,.36.28.28,0,0,0,.13.08.86.86,0,0,1,.05.38c-.21.1-.31.14-.31.19l.21.19a.55.55,0,0,1,.37-.19,3.29,3.29,0,0,1-.58.58c-.05,0,0,.1.11.14a.27.27,0,0,0,.31-.21.23.23,0,0,0,0-.07c0,.1.31.34.31.43a11.71,11.71,0,0,1-.16,1.34c.11.1.16.24.31.43v4.41c0,.19-.21.67-.21.81s.26.62.26.77a1.14,1.14,0,0,1-.11.34,1.32,1.32,0,0,1,.11.72,7.62,7.62,0,0,1,.05.86c.05.1-.16.62-.16.81a2.29,2.29,0,0,0,.26.62,9.94,9.94,0,0,1,.11,1.06c0,1.15-.31,1.73-1,1.73a6.55,6.55,0,0,0-.79,0,7.1,7.1,0,0,1-.79,0,.81.81,0,0,1-.73-.53,1.85,1.85,0,0,1-.26-.91l.84-13.57q0-1.22-.31-1.3l-.89-.38a5.11,5.11,0,0,0-.79.14,3.94,3.94,0,0,1-.79.1c-.58,0-.84-.53-.84-1.58a3.46,3.46,0,0,1,.21-1c.21-.48.42-.67.73-.67s.52.14.68.14.68.19.79.19h1.47a2.12,2.12,0,0,0,.26.38,2.93,2.93,0,0,1,.68-.29,2.38,2.38,0,0,0,.89.1,10.77,10.77,0,0,0,1.57-.14l.94-.14a1.11,1.11,0,0,1,1,.43,1.84,1.84,0,0,1,.21,1C105.64,89.94,105.32,90.37,104.75,90.37ZM100.09,89l-.26-.19c.21.34.31.58.42.72.05-.1.21-.38.47-.91a4.31,4.31,0,0,0-.63.38Zm1.1.67v-.19h-.68v.19Zm0,11.17-.11-.14-.52.24v.19Zm-.31-10.69V89.8h-.21v.38Zm.37,1.87v-.38H101V92Zm.68-3.74c-.16.19-.47.24-.89.24.21.1.52.14.89.29Zm-.73,1.1c.11,0,.31.34.31.34s.16-.58.16-.72a2.09,2.09,0,0,0-.47.39Z"/></g><g id="Group_323" data-name="Group 323"><g id="Group_272" data-name="Group 272"><path id="Path_296" data-name="Path 296" class="cls-1" d="M64.25,118.13c.1-.14,0-.53-.28-.48-.1.19-.19.43-.28.62Z"/></g><g id="Group_273" data-name="Group 273"><path id="Path_297" data-name="Path 297" class="cls-1" d="M62.42,116.64a4.69,4.69,0,0,0-.66.38,1,1,0,0,0-.38.72,1.67,1.67,0,0,1,.61-.29,1.11,1.11,0,0,0,.57-.43.41.41,0,0,1,.39.43.42.42,0,0,1,0,.1c.14-.14.47.24.71-.14a1,1,0,0,0-.57-.48,1.57,1.57,0,0,0-.8,0C62.18,116.84,62.37,116.74,62.42,116.64Z"/></g><g id="Group_274" data-name="Group 274"><path id="Path_298" data-name="Path 298" class="cls-1" d="M59.5,90.8l-.1.19A.37.37,0,0,0,59.5,90.8Z"/></g><g id="Group_275" data-name="Group 275"><path id="Path_299" data-name="Path 299" class="cls-1" d="M64.06,78.1a.15.15,0,0,0-.14.14C64,78.2,64.11,78.14,64.06,78.1Z"/></g><g id="Group_276" data-name="Group 276"><path id="Path_300" data-name="Path 300" class="cls-1" d="M66.89,78.77s-.1,0-.19,0C66.8,78.82,66.84,78.82,66.89,78.77Z"/></g><g id="Group_277" data-name="Group 277"><path id="Path_301" data-name="Path 301" class="cls-1" d="M59.49,90.8l.19-.43C59.49,90.32,59.54,90.56,59.49,90.8Z"/></g><g id="Group_278" data-name="Group 278"><path id="Path_302" data-name="Path 302" class="cls-1" d="M58.22,115.16a.42.42,0,0,0,.33.14c-.1,0-.14-.14-.24-.19S58.27,115.16,58.22,115.16Z"/></g><g id="Group_279" data-name="Group 279"><path id="Path_303" data-name="Path 303" class="cls-1" d="M60,98.28v.14c.1,0,.14.1.24.1Z"/></g><g id="Group_280" data-name="Group 280"><path id="Path_304" data-name="Path 304" class="cls-1" d="M60.11,104c0-.14-.52-.19-.75-.24a.64.64,0,0,1,.38.29A1.3,1.3,0,0,0,60.11,104Z"/></g><g id="Group_281" data-name="Group 281"><path id="Path_305" data-name="Path 305" class="cls-1" d="M59.49,112.91l.1.14S59.54,113,59.49,112.91Z"/></g><g id="Group_282" data-name="Group 282"><path id="Path_306" data-name="Path 306" class="cls-1" d="M60.11,94.16c.1,0,.14,0,.19,0S60.15,94.16,60.11,94.16Z"/></g><g id="Group_283" data-name="Group 283"><path id="Path_307" data-name="Path 307" class="cls-1" d="M70.8,119.38v-.1S70.75,119.38,70.8,119.38Z"/></g><g id="Group_284" data-name="Group 284"><path id="Path_308" data-name="Path 308" class="cls-1" d="M64.25,116.69l.1,0v-.29Z"/></g><g id="Group_285" data-name="Group 285"><path id="Path_309" data-name="Path 309" class="cls-1" d="M72.12,79.49h0C71.93,79.53,72,79.49,72.12,79.49Z"/></g><g id="Group_286" data-name="Group 286"><path id="Path_310" data-name="Path 310" class="cls-1" d="M132.62,81.12c.18-.24.42-.19.66-.14s.48.14.66-.29c-.12,0-.42,0-.72,0A.78.78,0,0,0,132.62,81.12Z"/></g><g id="Group_287" data-name="Group 287"><path id="Path_311" data-name="Path 311" class="cls-1" d="M58.18,115c0-.1-.1-.14-.14-.24A1.05,1.05,0,0,0,58.18,115Z"/></g><g id="Group_289" data-name="Group 289"><path id="Path_313" data-name="Path 313" class="cls-1" d="M84.14,79.15c0-.1-.1-.14-.14-.24S84,79,84.14,79.15Z"/></g><g id="Group_290" data-name="Group 290"><path id="Path_314" data-name="Path 314" class="cls-1" d="M75.18,78.38l.24.1A.3.3,0,0,0,75.18,78.38Z"/></g><g id="Group_291" data-name="Group 291"><path id="Path_315" data-name="Path 315" class="cls-1" d="M97.32,78.38c.18,0,.18.1.42,0a.05.05,0,0,0-.06,0h0A.31.31,0,0,1,97.32,78.38Z"/></g><g id="Group_292" data-name="Group 292"><path id="Path_316" data-name="Path 316" class="cls-1" d="M103.4,78.39c-.06,0-.06-.1-.12-.1a.25.25,0,0,0-.18,0Z"/></g><g id="Group_293" data-name="Group 293"><path id="Path_317" data-name="Path 317" class="cls-1" d="M85.55,119.14a2.26,2.26,0,0,1-.24-.48C85.36,119,84.65,119.14,85.55,119.14Z"/></g><g id="Group_294" data-name="Group 294"><path id="Path_318" data-name="Path 318" class="cls-1" d="M58.46,115a.28.28,0,0,1-.28,0l.14.14S58.46,115.07,58.46,115Z"/></g><g id="Group_295" data-name="Group 295"><path id="Path_319" data-name="Path 319" class="cls-1" d="M97.56,74.12l1,.1A5.11,5.11,0,0,0,97.56,74.12Z"/></g><g id="Group_296" data-name="Group 296"><path id="Path_320" data-name="Path 320" class="cls-1" d="M137.81,114.1a.3.3,0,0,1-.06.24C137.88,114.25,137.88,114.15,137.81,114.1Z"/></g><g id="Group_297" data-name="Group 297"><path id="Path_321" data-name="Path 321" class="cls-1" d="M101.43,74.12a1.86,1.86,0,0,0,.54.38c.06,0,.06-.1.12-.14Z"/></g><g id="Group_299" data-name="Group 299"><path id="Path_323" data-name="Path 323" class="cls-1" d="M86.46,119.9c1,0,.42-.67.66-1.1,1.13-.19.54.53.89.86.72-.19,1.19-.81,1.73-.81.06.1.12.14,0,.29.72-.58,2.15,0,3-.72a.35.35,0,0,1,.12.19,1.9,1.9,0,0,1-.12-1c.42,0,.77-.43,1,0-.24,0-.3.19-.42.34l.42-.19c.42.67-.6.24-.6.72.83-.24,1.85-.77,2.51-.58.12.67-1.55.24-.66.81l-1-.24c.77,1-.6-.1.12,1,1.31.19,1.49-.34,2.8-.14.3-.38-.12-.53.18-.91,1.91-.67,1.49,1.63,2.86.77.36-.43.48-1.25,1.49-.81l-.36.72c1.31.1.72-1.06,2.09-.58-.24.29-1,.24-.83.34.89.58.6-.43,1.31-.43l.12.67c1.37-.1,2.86-.58,4.41-.67-.06.19-.36.38,0,.58a16.34,16.34,0,0,1,5.9.48l.72-.58a.21.21,0,0,1,.12.38c.72.19.06-.34.36-.58a.35.35,0,0,1,.41.21.25.25,0,0,1-.11.27c1.25-.48,3.58-1,5-.43l-.24.14c1,.24,1.19-1.15,2.15-.62l-.18.1c2.27.24,4.77-.29,6.44.58.24-.43,1-.34,1.67-.38s1.37-.24,1.25-.77c.89,0,1.25.1,1.73.1a5.5,5.5,0,0,0,2.15-.58c.6-.34.12-1.06.54-1.63l.6.34a6.22,6.22,0,0,0,0-1.06,8,8,0,0,0,1.07,0l.18-.62a.73.73,0,0,1-.77.24,3.34,3.34,0,0,1,.83-1.34,2.3,2.3,0,0,1,1-.72l-.06-.62-.12-.58c0-.1-.06-.19-.06-.29l-.06-.19-.18-.43c.3,0,.42.34.6.53-.77-.91.77-.14.06-1-.18.1-.42,0-.6-.1a2.11,2.11,0,0,0,.24-2l.48.14c.12-1.25-.24-2.59-.24-4-.24.48-1.13.38-1.19,0l.77-.14c-.48-.24-.3.43-.89-.1.12-.53.89-.34,1.13,0l-.3-.62c.24,0,.36.1.66.14-.48-.24.77-1.1-.06-1.49l.24,0c0-1.39-.24-2-.3-3.16-.66,0-.54-.48-1.07-.82A8.19,8.19,0,0,0,138.6,95c-.36-.72-.6-.19-1-.53.6,0,.54-1.06,1-.53a11.3,11.3,0,0,0-.6-3.07c-.24.14-.36.34-.6.24-.12-.29.24-.62.54-.58l.06.1c-.89-1.73,1.79-3.93.54-5.27l.06.1L138,84.08c.12-.67.48.38.83-.1a2.9,2.9,0,0,1-.42-1.06v-1.1a3.15,3.15,0,0,0-.89-2.24c.54-.91-.36-2.06-1.61-2.92s-2.8-1.35-3.76-2.11v.34c-.72.14-.6-.38-1.07-.53,0,.29.54.43.12.53a12,12,0,0,0-1.85-.14q-.78,0-1.56,0a26.48,26.48,0,0,1-2.74-.24c-1.85-.19-3.7-.53-5.55-.67-1.31-.1-.77,1.77-2.45,1l.48-.62c-2.62.72-5.49-.1-8.11.57.18-.14.18-.34.42-.34-.54-.48-2.09,0-2.09.34-.42,0-.12-.34-.36-.53-.54-.29-1.43.57-1.73.14,0-.1.24-.14.3-.19-.36.24-1.67,0-1.37.48-1-.24-1.91.24-2.68-.1-.54.57-1.67-.29-1.85.57.06-.86-1.73-.72-2.39-.29.24-.24-.54-.29-.3-.62-.72,0-1.37.19-1.25.62-1.31-1.05-2.62.81-3.4-.48q-3,.65-6,1c.06-.86,2.09-.1,2-1-1.79.34-2.86,1.1-4.65.91-.48-.1.24-.38.42-.53-1.79.34-3.52-.1-5.13.38,0-.1.18-.19.36-.24-.3,0-.72-.14-.72.29l.42-.19c.48.58-1.25,1.2-1.31,1.49.54-1.1-1.55-.29-.72-1.73a.49.49,0,0,0-.42.53c-.3,0-.42-.19-.12-.53-1.13.19-.72.62-1.79.62,0-.19.24-.29.3-.48a2.35,2.35,0,0,1-1.91.58c.12-.1,0-.24.24-.24-1.49,0-2.56,1-4.17.62.48-.82-.54-.29-.66-1L68,75l.36.34c-.77,0-1.43.53-2.15.29l.6-.29-.77.1a5.79,5.79,0,0,0-.89.14c.36,0,.72.14,1,.19a.51.51,0,0,0-.42.58c0,.14-.06.24-.6.19.12,0-.12,0-.42,0a2.62,2.62,0,0,1-1-.14h0a4.51,4.51,0,0,1-.48.48.94.94,0,0,1-.66.29c-.3-.14-.36-.77-.54-.86,0,.38-.48.62-.83.91a2.18,2.18,0,0,0-.54.48,1.08,1.08,0,0,0-.18.58.73.73,0,0,0-.48-.48,1.52,1.52,0,0,1,.24.53c-.42.14-.54.14-.77-.1-.42.38-.12.48.06.53s.36.1-.18.48c0-.1-.06-.1-.06-.29a3.39,3.39,0,0,0-.89,1.58c-.06.29-.12.57-.18.82a4.21,4.21,0,0,1-.24.82c-.48.14-.54-.1-.48-.38s.06-.48-.36-.34a3.12,3.12,0,0,0,.12,1.29c.12.34.24.72.36,1.06a4.23,4.23,0,0,1,.3,2.06l.06-.24c1.25.19-.6,1,0,1.63-.12-.14-.72-.19-.54-.19a7.38,7.38,0,0,0,.71,3.22L57.84,90a7.19,7.19,0,0,0-.3,2c.3.19.3.48.72.29-1.85,1.77,1,3.4-.54,5,0-.19-.3-.43-.3-.29l.3,1.35c.54-.1.36-.19.77-.48a1.18,1.18,0,0,1,.6.86c-.36-.62-.89,0-1.19.29.18,0,.36,0,.54,0-1,.72,1.13.1.48,1.06l-.42.1c.12.34.54.67.48,1.06-.66.14-.3-.38-.83-.38.06.53,1.19,1.06.6,1.58-.18-.24-.18-.58-.36-.82-.77.53-.54.58-.66,1v0l-.36.91.18-.24c1.67.67.3,1.39,1.37,2.3-1-.91-.6-.14-1.31-.19-.18.24-.42.58-.66.48.6.43-.48.72.42,1.34-.24,0,0,.48-.6.38.18.58.42-.14.72-.1.77.86-1,2,.12,3.26.06.14.12.24.18.38a1.17,1.17,0,0,0,.24.34,5.24,5.24,0,0,0,.48.53,9.65,9.65,0,0,1,1.07,1c-.18.43-1,0-.89-.1a1.36,1.36,0,0,0,.77,1.49c-.24,0-.3.14-.42.43.36.38.89-.14,1.07.53a4.08,4.08,0,0,1-1.13.1,10.78,10.78,0,0,0,2.09.81c-.12.34-.72.14-1.13.14a7.12,7.12,0,0,0,.66.29,4.18,4.18,0,0,0,.72.24,1.65,1.65,0,0,0,1.19,0,1,1,0,0,1-.3-.38c.24.1-.18.43-.42.43a.55.55,0,0,1-.65-.31v0a.45.45,0,0,1,.12-.43l.48.14a.46.46,0,0,0-.06-.58,1.08,1.08,0,0,0-.6-.29c-.24-.1-.54-.19-.83-.29a1.66,1.66,0,0,1-.6-.43,6.1,6.1,0,0,0,1-.19,5.4,5.4,0,0,1-1.19-.29c.12-.24.6-.53.89-.29.06-.29-.06-.38-.18-.43s-.24-.14-.06-.38a.25.25,0,0,1,.18,0,4.7,4.7,0,0,1-.54-.38c.24,0,.66-.24.6,0a.79.79,0,0,0,0-.53,1,1,0,0,0-.3-.38c-.18-.24-.36-.43,0-.62l.06,0c-.36-1.25-.72-.1-1.62-1.05l1.79-.62-.72-.14c0-.14.06-.38.36-.34-.48-.48-.3.1-.77-.19.66-.62-.3-1.73.83-1.87-.54-.24-.42.58-.83,0,1.25-.19-.24-.77.36-1.34.66.19.3.72.89.14-1.07-.34.24-1.1,0-1.58-.89,0-.36-1.06-.66-1.87.3,0,.48-1.53.77-2.25h.12c-.89-.14-.72-.91-.89-1.49a1,1,0,0,1,1,.43v-.53a.91.91,0,0,1-.54-.62l.66.14c-.06-.72-.77-1.44-.36-2.3-.6,0-1.73.72-2.09-.24.36,0,.89,0,1,.19-.06-.1-.3-.29-.12-.48l.54.38c.24-.43-.48-.19-.42-.53.48,0,.36-.24.72-.19.06.1-.18.29,0,.43a1.31,1.31,0,0,1,.72-1c-.24,0-.66,0-.72-.29-.06-.72.6-.24.83-.67-.3-.19,0-.62-.72-.62,0-.19.36-.24.54-.34-.12-.34.12-1.68-.66-1.3l-.06.1A.05.05,0,0,0,60,91h0c-.72-1.2.42-2.49.12-3.64h.24c-.3-.72-.18-1.58-.66-2.06a.63.63,0,0,1,.72-.38c-.18-.57-.42-.67-.06-1.44.42.53.36-.19.3.57.12-.34.24-.57.3-.77a.67.67,0,0,0-.07-.34,1.88,1.88,0,0,0-.3-.43c.6.19.77-.34.66-.57a1.56,1.56,0,0,0-.48.34,1.37,1.37,0,0,1,.18-.91l.72.29a.73.73,0,0,0,.42-.57V80.4c0-.48.24-1,1.13-.77-.12-.53-.77.14-1-.38a.84.84,0,0,1,.54-.1c.18,0,.42,0,.6,0,.36.1.66.24.72.19.24,0,.3,0,.36-.14a.77.77,0,0,0,.12-.38c.06-.29.18-.57.66-.53-.06-.24-.36-.77.42-1.1a.72.72,0,0,1,.74.74.61.61,0,0,1-.2.36.17.17,0,0,1-.24-.14c-.18.1-.42.24-.18.43l.06-.24a1.4,1.4,0,0,0,.3.14l.42.1c.3,0,.54.14.36.34.6-.24.24-.38-.18-.48,1.07.34,1.67,0,2.74.24-.18-.14-.36-.38-.18-.38,1.61.29.72-.43,1.79-.53.6.34-.24.82.89.53.66.24.12.62-.12.77,1-.43,1.85.29,2.45.38l-.54.19a2.66,2.66,0,0,1,.83-.1l-.3-.48c.3.1.54.1.54.29.3-.29-.24-.77.36-1.15.42.24,1.25-.24,1.37.34-1.31-.19.12.62-1,.72a1.41,1.41,0,0,1,.77,0c.06,0-.06.14-.12.14,1.25.53.54-.67,1.85-.67a.41.41,0,0,0,.33.55l.15,0c-.54,0-.24-.57.24-.82.83.29.89-.19,1.31-.14l-.48-.14c.18-.34.6-.29,1.13-.38.06.29-.54.19-.3.29.66-.58,1.43.62,2.33.24.42.24.06.62.42.82,1-.43,1.07.48,2.09.1-.3-.48-.36-.34.36-.82l-1.73.34L85,78.15c-.54,0-1.07.29-1.37.19.54-.38.48-.24.24-.62.72.67,1.37-.38,2.21,0v1.14c1.25.53,2.15-.57,3.76-.29l-.54-.19c.24-.43,1,0,1.49-.24-.06.38.3.53.48.77,0-.29,1.19,0,1.31-.72l.72.48c1.31.19,1.49-1.1,2.68-1-.36.43.18.67-.66,1,.42,0,.77.1.77-.19.24.24,1.13-.53,1.55-.14.18-.14.24-.57.72-.53a.19.19,0,0,1,0,.19c0-.19.72-.24.3-.67,1.25,1.2,3.58-.1,4.65.91q1.39-.21,2.8-.29c-.06.1,0,.19-.18.14,1.13.34.72-1.1,2-.67.66.62-.66.34-.3.57.18,1.25,1.55-.19,2.39.57h-.12c.66.43,1.61-.48,2.68-.38a.19.19,0,0,0,0,.19,6.81,6.81,0,0,1,3.17-1c-.3.48-.48.24-.3.77.48,0-.12-.82.77-.91.3.29,1,.48,1.07,1h-.83c.48.67,1.13,0,1.61.1l-.06.29c1.31-.1,1.37-.86,2.8-.82l-.18-.2c.77-.77.66.43,1.43-.14l.24.77a17.92,17.92,0,0,1,2.75-.86,8.23,8.23,0,0,1-2.27,1.2c.54,0,1.73,0,2-.43-.18.1-.48.24-.66.14a3.44,3.44,0,0,1,2.51-.86c-.24,1.49,2.86.34,2.92,1.58a1.72,1.72,0,0,1,1.67.43c.42.38.72.82,1.13,1.2.42-.48.48-.43.6-.34s.24.24.83-.1c.3.24.3.38.24.43l-.18.57a2.37,2.37,0,0,1-.3.53c-.36.24-.42-.19-.72-.1a.3.3,0,0,1-.26.38h0a1,1,0,0,0-.54.24c.24,0,.48,0,.54,0a.16.16,0,0,1,.06.14v.1s-.06.1-.06.19l.18-.19c.06,0,.12,0,.18-.1a.67.67,0,0,0,.3-.24.47.47,0,0,1,.18.53c-.06.19-.24.29-.36.43a.76.76,0,0,0-.24,1.15l-.48-.38c.3.62,0,2.3,1.13,2.93-.18.1-.6.24-.66,0-.18,1.49,1.25,3.36.54,4.51l-.36-.1c.12.29.66.48.3.82-.12,0-.36-.1-.36,0s.6.72.42,1.1l-.42-.34c-.48,1.44,1,2.25,1.19,3.45-1.07,0-1.37,1.15-1.55,1.73h-.12c-.12,1.68.89,2.88,1.31,4.46-1.13,1-.48,3.31-1.13,4.89.18-.24.83,0,.89.34-.24.38.72,1-.24,1v-.14c-1,.29-.72,1.06-.72,1.63l1.25.1a1.23,1.23,0,0,0-.48.62s-.06.1-.06.14-.06,0-.06.1a.25.25,0,0,0-.06.19c-.06.29-.06.58-.12.86-.06.62-.36,1.25-1.19,1,.06.34-.18.53-.24.86l-.42-.43a3.7,3.7,0,0,1-.89.24,1.39,1.39,0,0,0-.42.14l-.54.14a1,1,0,0,0,.06-.38c-.24,0-.3.43-.42.81-.06.19-.18.43-.24.58a1.12,1.12,0,0,1-.54.29l-.24-.81c-1.55,0-3.16-.72-4.71,0a.39.39,0,0,1,.3-.38c-.72,0-2.86-.53-2.56.58,0-.72-1.61,0-2.45.24l.12-.53c-.72.67-.72.86-1.73,1.06-.24,0-.18-.43.12-.29-.77-.29-.6.53-1.55.24l.36-.34c-.83,0-.77.14-1.19.53a1.51,1.51,0,0,1-1.67-.62.9.9,0,0,1-1,.53.3.3,0,0,1,.18-.34c-1.37-.38-2,.62-2.92.1,0-.19-.06-.29-.18-.34a8,8,0,0,1,1.85.1c0-.48-.89-.58-.18-1.25-.72.38-1.91,1.2-2.74,1-.06,0-.06-.1-.12-.19l.06,0a.72.72,0,0,0-.54.1,1.91,1.91,0,0,0-.72-.14c-.12-.43-1-.24-1.43-.24.06.53-.54.43,0,.91-.06,0,.06,0,.36-.1a.25.25,0,0,0,.18,0v0c.3,0,.66,0,1.07,0-.36.29-.72.53-1.19.19-.24.34-.48.72-.6.86-.6-.77-1.73-1.15-1.91-1.63-1.31.29-3.1.19-3.94,1.2-.36.14-.42-.29-.6-.43.24-.1.48-.1.6-.24-.77.24-2.21.1-2.39.81-1-.34.54-.67-.77-.53l.18-.24c-2.56-1.15-4.17,1.82-7,.34.18.1.3.14.36.24-3.22-.62-6.68.62-9.9-.43-.89-.19-1,.24-1.55.58l-.12-.48-1,.67c-1.37.48-2.33-1.44-4.06-.48l.24.38c-.6-.1-1.91.24-1.85-.24-.06,0-.18.38-.42.19v-.3l-1.49.53c-1.19-.24.18-1.2-1.49-1.25-.66.1-1.79.86-1.55,1.1a.66.66,0,0,1,.66.48l-.6.14c-.12.91-.54,1.82.89,2.44l1-.53.3.43-.83,0c.48.43.77,0,1.13-.19a.76.76,0,0,0,.42.48l1-.86c.12.34-.42.67.24.86.48-.38-.42-.77.3-1.06.48.38.36.72.89.38a.39.39,0,0,1-.24.48c.48-.29,1.31-.1,1.55-.58.48.48,1.67-.14,1.61.72a3.14,3.14,0,0,1,1.31-.72c-.83,1,1.67,0,1.49,1.15.6-.91,2.21-.38,3.28-.91-.06.1-.18.24-.3.19a3.66,3.66,0,0,1,1.19.53c.06-.77,1-.91,1.55-1.39.77.72-.48.86-.24,1.58-.06-.62,1.31-.62,1.07-1.1.6.43.48.24.77.86.12-1,.54-.14,1-.72.83.48.24.86,1.13.58C87.3,119.57,86.46,119.9,86.46,119.9Zm21.71-1.63h0c-.18,0-.36,0-.48,0A2.07,2.07,0,0,0,108.17,118.27Zm1.79,0a4.17,4.17,0,0,0-.77,0c-.06-.19,0-.38.18-.38C109.25,118,109.72,118.13,110,118.27Zm-3.82-3.74c.3-.1.36,0,.42.14-.12,0-.3,0-.48,0a.05.05,0,0,1-.06,0h0A.73.73,0,0,1,106.15,114.53Z"/></g><g id="Group_300" data-name="Group 300"><path id="Path_324" data-name="Path 324" class="cls-1" d="M105.61,115.25c-.06,0-.06,0-.12,0l.18.14c.06,0,.06-.1.12-.19Z"/></g><g id="Group_301" data-name="Group 301"><path id="Path_325" data-name="Path 325" class="cls-1" d="M59.4,91h0a0,0,0,0,0,0,0h0a0,0,0,0,0,0,0Z"/></g><g id="Group_302" data-name="Group 302"><path id="Path_326" data-name="Path 326" class="cls-1" d="M136.68,116.17l-.12,0-.06.19Z"/></g><g id="Group_303" data-name="Group 303"><path id="Path_327" data-name="Path 327" class="cls-1" d="M57.56,99s-.1,0-.14.1S57.52,99.15,57.56,99Z"/></g><g id="Group_304" data-name="Group 304"><path id="Path_328" data-name="Path 328" class="cls-1" d="M57.47,102.55l-.19.48A3.34,3.34,0,0,0,57.47,102.55Z"/></g><g id="Group_305" data-name="Group 305"><path id="Path_329" data-name="Path 329" class="cls-1" d="M57.19,105.23a.42.42,0,0,0,.24,0h0Z"/></g><g id="Group_306" data-name="Group 306"><path id="Path_330" data-name="Path 330" class="cls-1" d="M75,74.79s0,0,.1,0C75.33,74.64,75.18,74.7,75,74.79Z"/></g><g id="Group_307" data-name="Group 307"><path id="Path_331" data-name="Path 331" class="cls-1" d="M62.32,76.32a1.45,1.45,0,0,1,.38-.38C62.46,76,62.23,76,62.32,76.32Z"/></g><g id="Group_309" data-name="Group 309"><path id="Path_333" data-name="Path 333" class="cls-1" d="M63.4,75.84a.93.93,0,0,0-.66.1A1.11,1.11,0,0,0,63.4,75.84Z"/></g><g id="Group_310" data-name="Group 310"><path id="Path_334" data-name="Path 334" class="cls-1" d="M60.29,117.32l.14.1a0,0,0,0,1,0,0h0Z"/></g><g id="Group_311" data-name="Group 311"><path id="Path_335" data-name="Path 335" class="cls-1" d="M60.53,117.36l.19,0A.35.35,0,0,0,60.53,117.36Z"/></g><g id="Group_312" data-name="Group 312"><path id="Path_336" data-name="Path 336" class="cls-1" d="M61.1,117.46c-.14,0-.28,0-.38,0C60.82,117.51,61,117.6,61.1,117.46Z"/></g><g id="Group_313" data-name="Group 313"><path id="Path_337" data-name="Path 337" class="cls-1" d="M57.7,113.77l-.19,0A.28.28,0,0,0,57.7,113.77Z"/></g><g id="Group_314" data-name="Group 314"><path id="Path_338" data-name="Path 338" class="cls-1" d="M57.28,112.52c0,.34-.19.91.1,1.34h.14c-.19,0-.14-.34-.14-.62S57.47,112.62,57.28,112.52Z"/></g><g id="Group_315" data-name="Group 315"><path id="Path_339" data-name="Path 339" class="cls-1" d="M59.54,107.73l-.14.91c.19-.14.47-.38.52,0C60.53,107.53,59.45,108.93,59.54,107.73Z"/></g><g id="Group_316" data-name="Group 316"><path id="Path_340" data-name="Path 340" class="cls-1" d="M59.82,104.9c.1.48.28,0,.42,0C60.06,104.61,60,104.56,59.82,104.9Z"/></g><g id="Group_317" data-name="Group 317"><path id="Path_341" data-name="Path 341" class="cls-1" d="M59.82,84.71l.47,0C60.25,84.38,60.11,84.71,59.82,84.71Z"/></g><g id="Group_318" data-name="Group 318"><path id="Path_342" data-name="Path 342" class="cls-1" d="M57.66,80.45c-.14.1-.28.24-.42.34.14.1.24.19.38.29A2.38,2.38,0,0,0,57.66,80.45Z"/></g><g id="Group_319" data-name="Group 319"><path id="Path_343" data-name="Path 343" class="cls-1" d="M61.61,80.3v.14l.14-.43Z"/></g><g id="Group_320" data-name="Group 320"><path id="Path_344" data-name="Path 344" class="cls-1" d="M102.33,78.86l-.12-.62C101.91,78.34,101.79,79.06,102.33,78.86Z"/></g><g id="Group_321" data-name="Group 321"><path id="Path_345" data-name="Path 345" class="cls-1" d="M120.58,78.24a.71.71,0,0,0,1,.19C121.17,78.38,120.82,78.14,120.58,78.24Z"/></g><g id="Group_322" data-name="Group 322"><path id="Path_346" data-name="Path 346" class="cls-1" d="M132.86,111l-.24-.29.12.29c.06.1.06.14.12.19S132.86,111.13,132.86,111Z"/></g></g><path id="Path_354" data-name="Path 354" class="cls-1" d="M116.49,106.3a3.3,3.3,0,0,1-.24.86.7.7,0,0,1-.67.48c-.19,0-.72-.34-.91-.34s-.19.1-.34.24l-.24-.24a2,2,0,0,1-.53,0,3.87,3.87,0,0,1-.91-.14,4.75,4.75,0,0,0-.91-.14c-.14,0-.14.1-.14.29,0,0-.1-.14-.24-.29a1.19,1.19,0,0,1-.91.34,3.17,3.17,0,0,1-.53,0,.9.9,0,0,0-.53,0l0,0c0-.1-.1-.14-.24-.14s-.14.24-.29.24a6.87,6.87,0,0,0-1-.24l-.48-14.14c0-.77-.1-1.53-.19-2.4s-.14-1.44-.14-1.49a2.79,2.79,0,0,1,.43-1.2,1.38,1.38,0,0,1,.57-.1l5.27-.19c.29,0,.91-.14,1.2-.14.62,0,1,.14,1.2.48a2.29,2.29,0,0,1,.24,1.34c0,.91-.29,1.25-1.15,1.25-.48,0-1.2,0-2.21,0s-1.68-.1-2.21-.1c-.19,0-.38.19-.62.62a1.8,1.8,0,0,0-.34.86.25.25,0,0,0,.19.24,17.55,17.55,0,0,1,.1,2.06.43.43,0,0,1-.14.34,3.46,3.46,0,0,1,.1,1.15c.14.14.19.19.29.19s.24-.14.38-.14.48.34.67.34.82,0,1.44,0,1.15-.1,1.44-.1.67.38.67,1.15a3.85,3.85,0,0,1-.1,1.1.9.9,0,0,1-.91.43c-.38,0-1.34-.1-1.73-.1a3.12,3.12,0,0,0-.86.19,1.79,1.79,0,0,0-.82.29,2.17,2.17,0,0,0-.29,1,5.8,5.8,0,0,0-.19,1,1.27,1.27,0,0,1,.1.53,7.23,7.23,0,0,1-.24,1.34v0c0,.1-.1.29-.1.38a1.65,1.65,0,0,0,.19.62,6.24,6.24,0,0,1,.24.67l-.19.14v.38l.19.1s0,0,0-.1,0-.24,0-.34h.38a2.7,2.7,0,0,1,.34,1c.19-.1.1-.38.19-.43s0,0,.1.19,0,.24.1.24l.24-.19v.14a.4.4,0,0,0,.1.29,1.62,1.62,0,0,1,.38-.14l-.19-.1v-.4c.19,0,.53-.43.53-.43v.53a2.08,2.08,0,0,0,0,.24.72.72,0,0,0,.19-.38q.72-.22.86-.58c.1.19.24.43.43.43s.43-.24.53-.24a4.43,4.43,0,0,1,1.53-.19c.24,0,.43.24.57.67s.29.72.43.77C116.73,106.06,116.63,106.15,116.49,106.3Zm-6.81.14-.14-.19-.14.1.19.19Zm1.34.29c0-.1,0-.14,0-.19a.64.64,0,0,0-.34.14.7.7,0,0,0,.38.24c-.1,0-.1-.1-.1-.19Zm.34-.19c-.14,0-.19.1-.19.34l.43,0Z"/><path id="Path_355" data-name="Path 355" class="cls-1" d="M126.61,97.33c-.1,0-.19,0-.34,0,.29.14.43.29.38.34v5.23a9.43,9.43,0,0,0,.19,1.58,9.75,9.75,0,0,1,.19,1.68c0,1-.34,1.06-1.29,1.06a2.08,2.08,0,0,1-1.53-.77,11.33,11.33,0,0,1-.38-1.63,7.24,7.24,0,0,1-.53-1.49q-.5-3.16-2.16-3.16c-.1,0-.19.1-.38.29l-.29.43a.43.43,0,0,1,0,.24c0,.53-.43.77-.72,1.06,0,0,0,0,.1,0s.48-.19.67-.19v4.51a2.8,2.8,0,0,1-.24.62,3.18,3.18,0,0,1-.72,0,5.31,5.31,0,0,1-1.15,0,.82.82,0,0,1-.67-.81l.14-18.8.14.1.1-.1s.1,0,.19,0c.29,0,.91-.14,1.1-.14-.14,0,.19,0,.86.14A2.07,2.07,0,0,1,121,89v.24a.64.64,0,0,0,0,.24,2,2,0,0,0,.14.77,1.88,1.88,0,0,1,.29.62c0,.34-.29.43-.53.57a.18.18,0,0,0,.14,0c.1,0,.19,0,.34,0a4.57,4.57,0,0,1,.62,1.25c.24.67.43,1,.48,1s.24-.1.29-.1-.1.14-.24.29c.14.14.29.34.53.58,0,0,0-.1.1-.19s.1,0,.19,0,.14,0,.14,0v0s0,0,.1,0,.19-.1.14-.19.19.1.38.34c.14-.19.29-.43.48-.72a9.59,9.59,0,0,0,.19-1.44c0-.24-.19-.81-.19-1.06v0a1.53,1.53,0,0,0,.34-.29.36.36,0,0,1,0-.19.49.49,0,0,1,.24-.38l0,0q0,.57.72.58c.1,0,.29,0,.34,0s.14,0,.19,0,.14-.34.19-.53c.34.34.53.58.53.72s-.14.62-.14.77c-.19,0-.29-.1-.34-.1s-.14,0-.19,0,0,.29.24.29a1.49,1.49,0,0,0,.34-.1.18.18,0,0,0,0,.14c0,.1,0,.43,0,.53a.79.79,0,0,1-.24.58v3.84a1.83,1.83,0,0,0,.43.43C126.89,97.38,126.75,97.33,126.61,97.33Zm-6.09-2.78-.29-.15,0,.2.29.14Zm2.25,8.15s0,0,0-.14v-.14a2.07,2.07,0,0,1,0-.24q.29.29.29.43l-.29.1Zm3.5.38-.34-.38c-.19,0-.34-.19-.38-.19s0,.1-.14.1a.84.84,0,0,1-.29,0c-.1,0-.19,0-.19,0a2.38,2.38,0,0,1,0-.72l0-.1h0a.18.18,0,0,1-.14,0l.19-.14a1,1,0,0,1,.34.86,2.5,2.5,0,0,0,.29-.67c.1,0,.14,0,.14.1s-.1.24-.1.29a1,1,0,0,0,.38-.29.15.15,0,0,1-.1,0c-.14,0-.14-.14-.14-.43-.1,0-.24.19-.34.19s0,0-.1,0a3.71,3.71,0,0,1,.48-.58.81.81,0,0,0,.29.29,1.35,1.35,0,0,0,.19-.53,1,1,0,0,1-.38.14l-.14-.1c.14-.1.24-.14.24-.24s0-.29,0-.24a.26.26,0,0,1-.24.1.25.25,0,0,1-.29-.29c0-.14.1-.48.1-.62.14.14.24.19.29.19v.29c0-.1.19-.38.19-.58l-.43-.14v-.48l.19-.19A1.32,1.32,0,0,0,126,99a.89.89,0,0,1-.24-.48q.14-1.58.14-1.44V96.9l-.19.14s-.1,0-.1-.1.29-.77.43-1a.76.76,0,0,1-.24-.38.59.59,0,0,1-.43.14.64.64,0,0,1-.48-.14.36.36,0,0,1,0,.19c0,.58-.62,1-1,1.39a1.31,1.31,0,0,1,.62.62l-.29.14s0,0,0,.1-.1.19-.24.38-.34.34-.34.38v.38c.1,0,.14,0,.19.1a1.39,1.39,0,0,0-.43.67c.38.34.53.58.53.77s-.14.29-.43.53c.19.1.29.34.29.77a1,1,0,0,1-.19.58c.19,0,.34.14.38.38a.52.52,0,0,0,.53.38c.1,0,.19-.1.34-.24,0,0,0,.1,0,.24s0,.1.14.1h.53c0-.24,0-.34.14-.34s.14.19.24.34a.72.72,0,0,1,.29-.14v-.24Zm-1.92,1.15V104h-.53v.19Zm.24-3.6-.1.14-.34-.14v-.19Zm2.3-11.27h-.24c-.14,0-.43-.1-.53-.1s-.38,0-.43.14v.43a1,1,0,0,1-.14.43s0,0,.1,0a1.33,1.33,0,0,1-.67-.43.66.66,0,0,0,.14-.19l0-.1c-.29.19-.34.24-.38.53a2.36,2.36,0,0,1-.34-1.1,1.45,1.45,0,0,1,.34-1.06,1.94,1.94,0,0,1,1.1-.19,2,2,0,0,1,1.25.43c0,.3-.14.87-.14,1.16Zm-2.11,13.23-.34.14v-.14l.24-.14Zm.19-2h-.29v-.19H125Zm0-.58h-.19v-.38h.19Zm.24-3.07h-.28v-.19h.29Zm.1-2.54V94h-.19v.38Zm.29,1.87-.43.14v-.19l.38-.14Zm.57-3c-.14,0-.24,0-.38,0l.24.14c-.1.1-.14.14-.14.19s0,0,.1.1l.1-.1.1.1-.29.14v0a.36.36,0,0,0,0,.19v.14a.44.44,0,0,1-.14.24c-.14-.14-.24-.24-.24-.29,0,.19-.24.43-.24.48.48,0,.77-.24.86-.53s.19-.58.29-.81a.35.35,0,0,0-.3-.1Zm-.34,3.64h-.14l-.14-.38.14-.1Zm.62-6.76a.7.7,0,0,0-.29,0s0,.1.1.14c-.1-.1-.19-.1-.38-.1l.14-.53a.36.36,0,0,0,.19,0,1.09,1.09,0,0,0,.53-.14c0,.34-.1.53-.3.53Zm.1,14.1-.19-.19-.1.14.14.14Z"/></g></svg>