<svg id="Laag_1" data-name="Laag 1" xmlns="http://www.w3.org/2000/svg" viewBox="0 0 191.61 188.99"><defs><style>.cls-1{fill:#b2b2b2;}</style></defs><title>sneek_1</title><g id="Group_108" data-name="Group 108"><g id="Group_55" data-name="Group 55"><path id="Path_62" data-name="Path 62" class="cls-1" d="M77.41,94.71a1.75,1.75,0,0,1-.58.43,1.65,1.65,0,0,1-.58,0c-.19,0-.86-.1-1.1-.1s-.19-.14-.29-.29a2.66,2.66,0,0,0-.38-1.39c-.34-.62-.72-.91-1.2-.91a1.46,1.46,0,0,0-1.3.77,1.89,1.89,0,0,0-.34,1.3c0,.14-.14.62-.14.81a2.11,2.11,0,0,0,.29,1.2,6.8,6.8,0,0,0,.53.77c0,.1,0,.24-.19.38a.81.81,0,0,0,.43.1c-.1.1-.53.62-.72.62l-.24,0a.07.07,0,0,0-.09,0h0a.28.28,0,0,0,.1.24s.48-.24,1.3-.62a1.7,1.7,0,0,0,0,.34.26.26,0,0,0,.1-.24c.43.34,1,.77,1.68,1.39a27.94,27.94,0,0,1,2,2.64.36.36,0,0,1,0,.43A1.91,1.91,0,0,1,77,103a2.71,2.71,0,0,0,0,1.06,5.09,5.09,0,0,1,.1.81c0,.1-.19.53-.19.62s0,.19.14.19a6.6,6.6,0,0,0-.43,2.16,2.22,2.22,0,0,0-.48.48c-.24.29-.38.48-.48.58s.1.1.14.24a.62.62,0,0,1-.38-.1s0,.1-.1.24-.24.19-.72.24H74.2s-.29.29-.48.29-.38,0-.91,0a8.32,8.32,0,0,1-.86,0,3.92,3.92,0,0,1-1.39-.34,4,4,0,0,1-1-.77,3.4,3.4,0,0,1-1.1-2.59c0-1,.19-1.34,1.25-1.34a5,5,0,0,1,.58,0,2.86,2.86,0,0,1,.72.43,12.24,12.24,0,0,0,.48,1.39q.5.72.72.72c.19,0,.48.24.67.24s.34-.24.53-.24.34.34.34.34.19-.19.19-.24-.1-.14-.19-.14.1,0,.14,0a8.34,8.34,0,0,0,.53-.86,1.78,1.78,0,0,0,.34-1,1,1,0,0,0-.24-.62,1.53,1.53,0,0,0,.29-.34,6,6,0,0,1-.1-1.15,3.12,3.12,0,0,0-.43-.72c-.48-.48-1.15-1.2-2.11-2.25l.19-.62a.69.69,0,0,0,.1.34.36.36,0,0,0,.19,0c.19-.19.19-.62.29-.77l-.1-.14a2.3,2.3,0,0,1-.53-.24c0-.1.34-.24.43-.38,0,0-.1-.14-.29-.48,0,0-.1.1-.14.1s-.1.14-.1.19.1.1.29.1a.68.68,0,0,1-.67,0l-.29.29a.69.69,0,0,0,.34.1c-.14.19-.19.29-.1.38a1.33,1.33,0,0,1-.62,0c-1.39-.67-2.06-2.3-2.06-5a5.09,5.09,0,0,1,.1-1,2.56,2.56,0,0,0,.29-.77c.1-.1.24-.19.38-.34a1.11,1.11,0,0,1-.34-.24s.19-.24.38-.24.29,0,.29-.1a1.19,1.19,0,0,1,.34-1,3.06,3.06,0,0,1,1.06-.62,4,4,0,0,1,1.34-.29c.38,0,.67,0,.82,0,0,.14,0,.19.19.19s0-.24.24-.24a7.64,7.64,0,0,1,1.15.62,7.31,7.31,0,0,1,1.2.82c.14.24.24.43.34.62.24.38.43.58.58.62v2.16Zm-7.34-2.64a.67.67,0,0,1-.24.48,5.62,5.62,0,0,0,.53-.24Z"/><path id="Path_63" data-name="Path 63" class="cls-1" d="M87.81,99.84c-.1,0-.19,0-.34,0,.29.14.43.29.38.34v5.23A9.43,9.43,0,0,0,88,107a9.75,9.75,0,0,1,.19,1.68c0,1-.34,1.06-1.29,1.06a2.08,2.08,0,0,1-1.53-.77,11.33,11.33,0,0,1-.38-1.63,7.24,7.24,0,0,1-.53-1.49q-.5-3.16-2.16-3.16c-.1,0-.19.1-.38.29l-.29.43a.43.43,0,0,1,0,.24c0,.53-.43.77-.72,1.06,0,0,0,0,.1,0s.48-.19.67-.19v4.51a2.8,2.8,0,0,1-.24.62,3.17,3.17,0,0,1-.72,0,5.31,5.31,0,0,1-1.15,0,.82.82,0,0,1-.67-.81l.14-18.79.14.1.1-.1s.1,0,.19,0c.29,0,.91-.14,1.1-.14-.14,0,.19,0,.86.14a2.07,2.07,0,0,1,.72,1.39V92a2,2,0,0,0,.14.77,1.88,1.88,0,0,1,.29.62c0,.34-.29.43-.53.58a.18.18,0,0,0,.14,0c.1,0,.19,0,.34,0a4.57,4.57,0,0,1,.62,1.25c.24.67.43,1,.48,1s.24-.1.29-.1-.1.14-.24.29c.14.14.29.34.53.58,0,0,0-.1.1-.19s.1,0,.19,0,.14,0,.14,0v0s0,0,.1,0,.19-.1.14-.19.19.1.38.34c.14-.19.29-.43.48-.72A9.59,9.59,0,0,0,86,94.85c0-.24-.19-.81-.19-1.06v0a1.53,1.53,0,0,0,.34-.29.36.36,0,0,1,0-.19.49.49,0,0,1,.24-.38l-.19,0q0,.57.72.58c.1,0,.29,0,.34,0s.14,0,.19,0,.14-.34.19-.53c.34.34.53.58.53.72s-.14.62-.14.77c-.19,0-.29-.1-.34-.1s-.14,0-.19,0,0,.29.24.29a1.49,1.49,0,0,0,.34-.1.18.18,0,0,0,0,.14c0,.1,0,.43,0,.53a.79.79,0,0,1-.24.58v3.84a1.83,1.83,0,0,0,.43.43A.59.59,0,0,0,87.81,99.84Zm-6.14-2.78-.28-.15,0,.19.29.14Zm2.3,8.15s0,0,0-.14v-.14a2.08,2.08,0,0,1,0-.24q.29.29.29.43l-.29.1Zm3.5.38-.34-.38c-.19,0-.34-.19-.38-.19s0,.1-.14.1a.84.84,0,0,1-.29,0c-.1,0-.19,0-.19,0a2.37,2.37,0,0,1,0-.72l0,0h0a.18.18,0,0,1-.14,0l.19-.14a1,1,0,0,1,.34.86,2.5,2.5,0,0,0,.29-.67c.1,0,.14,0,.14.1s-.1.24-.1.29a1,1,0,0,0,.38-.29.15.15,0,0,1-.1,0c-.14,0-.14-.14-.14-.43-.1,0-.24.19-.34.19s0,0-.1,0a3.71,3.71,0,0,1,.48-.58.81.81,0,0,0,.29.29,1.35,1.35,0,0,0,.19-.53,1,1,0,0,1-.38.14l-.14-.1c.14-.1.24-.14.24-.24s0-.29,0-.24a.26.26,0,0,1-.24.1.25.25,0,0,1-.29-.29c0-.14.1-.48.1-.62.14.14.24.19.29.19v.29c0-.1.19-.38.19-.58l-.48,0v-.48l.19-.19a1.32,1.32,0,0,0,.38.29.89.89,0,0,1-.24-.48q.14-1.58.14-1.44v-.14L87,99.7s-.1,0-.1-.1.29-.77.43-1a.76.76,0,0,1-.24-.38.59.59,0,0,1-.43.14.64.64,0,0,1-.48-.14.36.36,0,0,1,0,.19c0,.58-.62,1-1,1.39a1.31,1.31,0,0,1,.62.62l-.29.14s0,0,0,.1-.1.19-.24.38-.34.34-.34.38v.38c.1,0,.14,0,.19.1a1.39,1.39,0,0,0-.43.67c.38.34.53.58.53.77s-.14.29-.43.53c.19.1.29.34.29.77a1,1,0,0,1-.19.58c.19,0,.34.14.38.38a.51.51,0,0,0,.53.38c.1,0,.19-.1.34-.24,0,0,0,.1,0,.24s0,.1.14.1h.53c0-.24,0-.34.14-.34s.14.19.24.34a.72.72,0,0,1,.29-.14v-.38Zm-1.92,1.15v-.19H85v.19Zm.24-3.6-.1.14-.34-.14V103Zm2.3-11.27h-.24c-.14,0-.43-.1-.53-.1s-.38,0-.43.14v.43a1,1,0,0,1-.14.43s0,0,.1,0a1.33,1.33,0,0,1-.67-.43.66.66,0,0,0,.14-.19l-.1-.1c-.29.19-.34.24-.38.53a2.36,2.36,0,0,1-.34-1.1,1.45,1.45,0,0,1,.34-1.06,1.94,1.94,0,0,1,1.1-.19,2,2,0,0,1,1.25.43,9.31,9.31,0,0,1-.09,1.16ZM86,105.11l-.34.14v-.14l.24-.14Zm.19-2h-.29v-.19h.29Zm0-.58h-.19v-.38h.19Zm.24-3.07h-.28v-.19h.29Zm.1-2.54v-.38h-.19v.38Zm.29,1.87-.43.14v-.19l.38-.14Zm.58-3c-.14,0-.24,0-.38,0l.24.14c-.1.1-.14.14-.14.19s0,0,.1.1.1-.1.1-.1l.1.1-.29.14v0a.36.36,0,0,0,0,.19v.14A.44.44,0,0,1,87,97c-.14-.14-.24-.24-.24-.29,0,.19-.24.43-.24.48.48,0,.77-.24.86-.53s.19-.58.29-.81a.35.35,0,0,0-.3-.1Zm-.38,3.65H86.8L86.7,99l.14-.1Zm.67-6.76a.7.7,0,0,0-.29,0s0,.1.1.14c-.1-.1-.19-.1-.38-.1l.14-.53a.36.36,0,0,0,.19,0,1.09,1.09,0,0,0,.53-.14c0,.38-.1.53-.29.53Zm.1,14.1-.19-.19-.1.14.14.14Z"/><path id="Path_64" data-name="Path 64" class="cls-1" d="M99.22,108.8a3.3,3.3,0,0,1-.24.86.7.7,0,0,1-.67.48c-.19,0-.72-.34-.91-.34s-.19.1-.34.24l-.24-.24a2,2,0,0,1-.53,0,3.87,3.87,0,0,1-.91-.14,4.75,4.75,0,0,0-.91-.14c-.14,0-.14.1-.14.29,0,0-.1-.14-.24-.29a1.19,1.19,0,0,1-.91.34,3.17,3.17,0,0,1-.53,0,.9.9,0,0,0-.53,0l0,0c0-.1-.1-.14-.24-.14s-.14.24-.29.24a6.87,6.87,0,0,0-1-.24l-.48-14.14c0-.77-.1-1.53-.19-2.4s-.14-1.44-.14-1.49a2.79,2.79,0,0,1,.43-1.2,1.38,1.38,0,0,1,.58-.1l5.27-.19c.29,0,.91-.14,1.2-.14.62,0,1,.14,1.2.48a2.29,2.29,0,0,1,.24,1.34c0,.91-.29,1.25-1.15,1.25-.48,0-1.2,0-2.21,0s-1.68-.1-2.21-.1c-.19,0-.38.19-.62.62a1.8,1.8,0,0,0-.34.86.25.25,0,0,0,.19.24,17.55,17.55,0,0,1,.1,2.06.44.44,0,0,1-.14.34,3.46,3.46,0,0,1,.1,1.15c.14.14.19.19.29.19s.24-.14.38-.14.48.34.67.34.82,0,1.44,0,1.15-.1,1.44-.1.67.38.67,1.15a3.85,3.85,0,0,1-.1,1.1.9.9,0,0,1-.91.43c-.38,0-1.34-.1-1.73-.1a3.12,3.12,0,0,0-.86.19,1.79,1.79,0,0,0-.82.29,2.17,2.17,0,0,0-.29,1,5.8,5.8,0,0,0-.19,1,1.27,1.27,0,0,1,.1.53,7.23,7.23,0,0,1-.24,1.34v0c0,.1-.1.29-.1.38a1.65,1.65,0,0,0,.19.62,6.24,6.24,0,0,1,.24.67l-.19.14v.38l.19.1v-.1c0-.1,0-.24,0-.34H93a2.7,2.7,0,0,1,.34,1c.19-.1.1-.38.19-.43s0,0,.1.19,0,.24.1.24L94,108v.14a.41.41,0,0,0,.1.29,1.62,1.62,0,0,1,.38-.14l-.1-.19v-.43c.19,0,.53-.43.53-.43v.53a2.08,2.08,0,0,0,0,.24.72.72,0,0,0,.19-.38q.72-.22.86-.58c.1.19.24.43.43.43s.43-.24.53-.24a4.43,4.43,0,0,1,1.53-.19c.24,0,.43.24.57.67s.29.72.43.77Zm-6.81.14-.14-.19-.14.1.19.19Zm1.34.29c0-.1,0-.14,0-.19a.64.64,0,0,0-.34.14.7.7,0,0,0,.38.24.25.25,0,0,1-.1-.19Zm.34-.19c-.14,0-.19.1-.19.34l.43,0Z"/><path id="Path_65" data-name="Path 65" class="cls-1" d="M109.91,108.8a3.3,3.3,0,0,1-.24.86.7.7,0,0,1-.67.48c-.19,0-.72-.34-.91-.34s-.19.1-.34.24l-.24-.24a2,2,0,0,1-.53,0,3.87,3.87,0,0,1-.91-.14,4.75,4.75,0,0,0-.91-.14c-.14,0-.14.1-.14.29,0,0-.1-.14-.24-.29a1.19,1.19,0,0,1-.91.34,3.17,3.17,0,0,1-.53,0,.9.9,0,0,0-.53,0l0,0c0-.1-.1-.14-.24-.14s-.14.24-.29.24a6.87,6.87,0,0,0-1-.24l-.48-14.14a21.92,21.92,0,0,0-.19-2.4c-.1-1-.14-1.44-.14-1.49a2.79,2.79,0,0,1,.43-1.2,1.38,1.38,0,0,1,.57-.1l5.27-.19c.29,0,.91-.14,1.2-.14.62,0,1,.14,1.2.48a2.29,2.29,0,0,1,.24,1.34c0,.91-.29,1.25-1.15,1.25-.48,0-1.2,0-2.21,0s-1.68-.1-2.21-.1c-.19,0-.38.19-.62.62a1.8,1.8,0,0,0-.34.86.25.25,0,0,0,.19.24,17.55,17.55,0,0,1,.1,2.06.44.44,0,0,1-.14.34,3.46,3.46,0,0,1,.1,1.15c.14.14.19.19.29.19s.24-.14.38-.14.48.34.67.34.82,0,1.44,0,1.15-.1,1.44-.1.67.38.67,1.15a3.85,3.85,0,0,1-.1,1.1.9.9,0,0,1-.91.43c-.38,0-1.34-.1-1.73-.1a3.12,3.12,0,0,0-.86.19,1.79,1.79,0,0,0-.82.29,2.17,2.17,0,0,0-.29,1,5.8,5.8,0,0,0-.19,1,1.27,1.27,0,0,1,.1.53,7.23,7.23,0,0,1-.24,1.34v0c0,.1-.1.29-.1.38a1.65,1.65,0,0,0,.19.62,6.24,6.24,0,0,1,.24.67l-.19.14v.38l.19.1s0,0,0-.1,0-.24,0-.34h.38a2.7,2.7,0,0,1,.34,1c.19-.1.1-.38.19-.43s0,0,.1.19,0,.24.1.24l.24-.19v.14c0,.14,0,.24.1.29a1.62,1.62,0,0,1,.38-.14l-.19-.1v-.4c.19,0,.53-.43.53-.43v.53a2.08,2.08,0,0,0,0,.24.72.72,0,0,0,.19-.38q.72-.22.86-.58c.1.19.24.43.43.43s.43-.24.53-.24a4.43,4.43,0,0,1,1.53-.19c.24,0,.43.24.57.67s.29.72.43.77C110.1,108.56,110,108.66,109.91,108.8Zm-6.81.14-.14-.19-.14.1.19.19Zm1.34.29c0-.1,0-.14,0-.19a.64.64,0,0,0-.34.14.7.7,0,0,0,.38.24c-.1,0-.1-.1-.1-.19Zm.34-.19c-.14,0-.19.1-.19.34l.43,0Z"/><path id="Path_66" data-name="Path 66" class="cls-1" d="M117.78,96.34a.28.28,0,0,1,0,.34,4,4,0,0,0-.72,2.11c0,.19.34.67.38.81,0-.14,0,.1,0,.67a.34.34,0,0,0,.3.38h0a.51.51,0,0,0,0,.38,2,2,0,0,0,0,.43c0,.14.1.19.34.19,0,0-.1.14-.24.29.1.43.14,1,.34,1s.34,0,.34.14-.43.43-.43.62.1.24.34.14l-.24.29q0,.14.43.29l-.34.34a8,8,0,0,1,.72,1.49,9.55,9.55,0,0,1,.19,1.39,4.45,4.45,0,0,0,.34.91,4.37,4.37,0,0,1,.38,1c-.19,0-.24.1-.1.19a2.86,2.86,0,0,1-1.44-.19c-.19.19-.29.24-.29.19s0-.19-.24-.19-.29.24-.48.24-.19-.19-.14-.48a1.56,1.56,0,0,1-.48-1.15,3,3,0,0,1,.24-1c-.14-.14-.19-.19-.29-.19s-.29-.34-.38-.48q.14-.22.43-.58a2.3,2.3,0,0,1-.53-.24c0-.34-.34-.58-.53-.86a5.71,5.71,0,0,0-.48-.81l-.29.24-.34-.34a3.82,3.82,0,0,1-.38.29s.1.1.14.1a2.5,2.5,0,0,0-.72,1v1.06a6.46,6.46,0,0,1,.24,1c-.1.1-.14.19-.29.34a7.39,7.39,0,0,0,.1,2s-.19.1-.43.24a1.2,1.2,0,0,1-.53.24h-1.39a1.79,1.79,0,0,1-.24-.67c0-.48.14-1.63.34-3.5,0-.14.19-.29.53-.58l-.1-.91a.69.69,0,0,0-.1.34,11.17,11.17,0,0,1-.28-1.78c0-.86.1-1.34.34-1.34s.34-.29.34-.77a.9.9,0,0,0-.48-.67,7.44,7.44,0,0,1,0-1.1s-.14-.1-.14-.29,0-.67.14-1.44c0-.29.14-.48.29-.53-.24-.14-.34-.38-.34-.86,0-.77,0-1.1,0-1.1a15.49,15.49,0,0,1-.14-2.3,6.89,6.89,0,0,1,.19-1.92,1.12,1.12,0,0,1,1.15-.58c1.1,0,1.68.34,1.68,1a5,5,0,0,1-.14,1.1c-.29,1.1-.38,1.63-.38,1.58a1.67,1.67,0,0,0,.29.67c.19.34.34.48.38.48s.34.24.53.24a1.18,1.18,0,0,0,.72-.43,2.41,2.41,0,0,0,.48-.62,3.06,3.06,0,0,0,.1-.43c.29-.72.67-1.73,1.29-3.12a3.75,3.75,0,0,1,1.25-.29,4.72,4.72,0,0,1,1.58.48C120.36,91.06,119.45,92.93,117.78,96.34Zm-5.32,8.34a3.79,3.79,0,0,1-.38.62h.43a.59.59,0,0,1,.19-.38.25.25,0,0,0,.35.07l0,0A1.39,1.39,0,0,0,112.45,104.68Zm0-8.29,0-.19-.29.14v.14Zm0,8.2-.19-.19-.1.1.14.19Zm1-.53v-.19h-.38v.19Zm0,4.41-.19-.19-.1.14.14.14Z"/></g><g id="Group_107" data-name="Group 107"><g id="Group_56" data-name="Group 56"><path id="Path_67" data-name="Path 67" class="cls-1" d="M67.48,120.94c.1-.14,0-.53-.29-.48-.1.19-.19.43-.29.62Z"/></g><g id="Group_57" data-name="Group 57"><path id="Path_68" data-name="Path 68" class="cls-1" d="M65.51,119.4c-.43.19-1.1.43-1.1,1.1a2.93,2.93,0,0,1,.62-.29,1.32,1.32,0,0,0,.62-.38.42.42,0,0,1,.38.57c.14-.14.48.24.72-.14a1.12,1.12,0,0,0-1.44-.43A.9.9,0,0,1,65.51,119.4Z"/></g><g id="Group_58" data-name="Group 58"><path id="Path_69" data-name="Path 69" class="cls-1" d="M62.64,92.31l-.1.19A.25.25,0,0,0,62.64,92.31Z"/></g><g id="Group_59" data-name="Group 59"><path id="Path_70" data-name="Path 70" class="cls-1" d="M69.3,80.9a.17.17,0,0,0-.19.14C69.21,81,69.3,80.95,69.3,80.9Z"/></g><g id="Group_60" data-name="Group 60"><path id="Path_71" data-name="Path 71" class="cls-1" d="M72.32,81.57s-.1,0-.19,0a.12.12,0,0,0,.15.07Z"/></g><g id="Group_61" data-name="Group 61"><path id="Path_72" data-name="Path 72" class="cls-1" d="M62.64,92.31l.19-.48C62.64,91.83,62.69,92.07,62.64,92.31Z"/></g><g id="Group_62" data-name="Group 62"><path id="Path_73" data-name="Path 73" class="cls-1" d="M61.15,117.67a.77.77,0,0,0,.34.19c-.1,0-.14-.14-.24-.24S61.2,117.67,61.15,117.67Z"/></g><g id="Group_63" data-name="Group 63"><path id="Path_74" data-name="Path 74" class="cls-1" d="M63.17,100.13v.14c.1,0,.14.1.24.1Z"/></g><g id="Group_64" data-name="Group 64"><path id="Path_75" data-name="Path 75" class="cls-1" d="M63.26,106.17c0-.14-.53-.19-.77-.24a.65.65,0,0,1,.38.29C63,106.22,63.07,106.17,63.26,106.17Z"/></g><g id="Group_65" data-name="Group 65"><path id="Path_76" data-name="Path 76" class="cls-1" d="M62.54,115.47l.14.1S62.59,115.52,62.54,115.47Z"/></g><g id="Group_66" data-name="Group 66"><path id="Path_77" data-name="Path 77" class="cls-1" d="M63.26,95.86c.1,0,.14,0,.19,0A.29.29,0,0,0,63.26,95.86Z"/></g><g id="Group_67" data-name="Group 67"><path id="Path_78" data-name="Path 78" class="cls-1" d="M74.43,122.19v-.1S74.38,122.19,74.43,122.19Z"/></g><g id="Group_68" data-name="Group 68"><path id="Path_79" data-name="Path 79" class="cls-1" d="M67.48,119.5l.1,0v-.29Z"/></g><g id="Group_69" data-name="Group 69"><path id="Path_80" data-name="Path 80" class="cls-1" d="M77.84,82.29h0C77.69,82.34,77.74,82.29,77.84,82.29Z"/></g><g id="Group_70" data-name="Group 70"><path id="Path_81" data-name="Path 81" class="cls-1" d="M125.16,84.11c.14-.24.34-.19.57-.1s.43.14.53-.29a2.23,2.23,0,0,1-.57,0A.48.48,0,0,0,125.16,84.11Z"/></g><g id="Group_71" data-name="Group 71"><path id="Path_82" data-name="Path 82" class="cls-1" d="M61.15,117.48,61,117.2A.29.29,0,0,0,61.15,117.48Z"/></g><g id="Group_72" data-name="Group 72"><path id="Path_83" data-name="Path 83" class="cls-1" d="M126.26,83.73h0l0-.1S126.26,83.68,126.26,83.73Z"/></g><g id="Group_73" data-name="Group 73"><path id="Path_84" data-name="Path 84" class="cls-1" d="M90.64,82c0-.1-.1-.14-.14-.24S90.54,81.82,90.64,82Z"/></g><g id="Group_74" data-name="Group 74"><path id="Path_85" data-name="Path 85" class="cls-1" d="M81.1,81.19l.24.1A.26.26,0,0,0,81.1,81.19Z"/></g><g id="Group_75" data-name="Group 75"><path id="Path_86" data-name="Path 86" class="cls-1" d="M95.58,81.19c.14,0,.19.1.34,0a0,0,0,0,0,0,0h0A.21.21,0,0,1,95.58,81.19Z"/></g><g id="Group_76" data-name="Group 76"><path id="Path_87" data-name="Path 87" class="cls-1" d="M100.71,81.19s0-.1-.1-.1a.18.18,0,0,0-.14,0Z"/></g><g id="Group_77" data-name="Group 77"><path id="Path_88" data-name="Path 88" class="cls-1" d="M90.06,121.94a2.24,2.24,0,0,1-.24-.48C89.92,121.8,89.15,121.94,90.06,121.94Z"/></g><g id="Group_78" data-name="Group 78"><path id="Path_89" data-name="Path 89" class="cls-1" d="M61.44,117.53c-.14,0-.24,0-.29,0a.66.66,0,0,1,.14.19S61.44,117.58,61.44,117.53Z"/></g><g id="Group_79" data-name="Group 79"><path id="Path_90" data-name="Path 90" class="cls-1" d="M95.77,76.92l.82.1A4.22,4.22,0,0,0,95.77,76.92Z"/></g><g id="Group_80" data-name="Group 80"><path id="Path_91" data-name="Path 91" class="cls-1" d="M128,118.92l-.14.24A.26.26,0,0,0,128,118.92Z"/></g><g id="Group_81" data-name="Group 81"><path id="Path_92" data-name="Path 92" class="cls-1" d="M99,76.92a1.22,1.22,0,0,0,.48.38s.1-.1.1-.14Z"/></g><g id="Group_83" data-name="Group 83"><path id="Path_94" data-name="Path 94" class="cls-1" d="M84.46,122.71c.77,0,.38-.67.53-1.1.91-.19.43.53.77.86.58-.19,1-.81,1.44-.81,0,.1.1.14,0,.29.62-.58,1.82,0,2.54-.72a.36.36,0,0,1,.1.19,2.33,2.33,0,0,1-.1-1c.34,0,.67-.43.77,0-.19,0-.24.19-.34.34l.38-.19c.34.67-.48.24-.48.72.72-.24,1.53-.77,2.11-.58.1.67-1.3.24-.53.81l-.86-.24c.62,1-.53-.1.1,1,1.1.19,1.25-.34,2.35-.14.24-.38-.1-.53.14-.91,1.58-.67,1.25,1.63,2.4.77.29-.43.43-1.25,1.25-.81l-.29.72c1.06.1.62-1.06,1.73-.58-.19.29-.86.24-.67.34.72.58.53-.43,1.1-.43l.1.67c1.15-.1,2.4-.58,3.69-.67,0,.19-.29.38,0,.58a11.82,11.82,0,0,1,5,.48l.58-.58c.14,0,.24.24.1.38.62.19,0-.34.34-.58a.28.28,0,0,1,.24.48c1.06-.48,3-1,4.12-.43l-.24.14c.86.24,1-1.15,1.77-.62l-.14.1c1.87.24,4-.29,5.42.58.29-.81,1.87.38,2-.77.34.14.58.24.77.34a3.64,3.64,0,0,0,.53.19,2.5,2.5,0,0,0,.67.1h.53c.19,0,.43,0,.72-.1.57-.19.48-1,1-1.44l.34.48a4.48,4.48,0,0,0,.34-1.06,5,5,0,0,0,.82.19,3.58,3.58,0,0,0,.34-.58c-.19.19-.57.24-.67,0a2,2,0,0,1,.48-.62,7.17,7.17,0,0,1,.62-.53c.38-.29.82-.53,1-.48a7.26,7.26,0,0,0,.29-2.44.61.61,0,0,1,.24.34c0,.14,0,.34.1.53-.14-.72,0-.72.19-.77s.34,0,.14-.67c-.14.14-.34-.1-.48-.14a1.6,1.6,0,0,0,.24-.58,1.72,1.72,0,0,0,.1-.53,3,3,0,0,0-.1-1.15l.38.14c.1-1.29-.19-2.73-.19-4.17a.5.5,0,0,1-1,0l.62-.19c-.38-.29-.24.43-.72-.1.1-.53.72-.38.91,0l-.24-.67c.19,0,.29.1.53.14-.38-.29.62-1.15,0-1.53l.17,0c0-1.44-.19-2.11-.24-3.31-.53,0-.43-.48-.86-.82a10.58,10.58,0,0,0,.53-2.88c-.29-.72-.48-.19-.77-.53.48,0,.43-1.1.82-.58a15.33,15.33,0,0,0-.48-3.21c-.19.19-.29.38-.48.29-.1-.29.19-.67.43-.62l0,.1c-.72-1.77,1.44-4.12.43-5.51l0,.1-.53-1.49c.1-.67.38.38.67-.1a3.59,3.59,0,0,1-.34-1.1V85a3.66,3.66,0,0,0-.57-2.4c.43-.91-.24-2.16-1.25-3.07s-2.3-1.49-3.07-2.25v.39c-.57.14-.53-.38-.86-.57,0,.29.43.43.1.53-.53-.1-1.06-.15-1.59-.19a11.68,11.68,0,0,1-1.29,0,18.73,18.73,0,0,1-2.3-.24c-1.54-.19-3.12-.53-4.65-.67-1.1-.1-.62,1.77-2.06,1l.38-.62c-2.25.76-4.6-.05-6.86.62.19,0,.19-.24.38-.24-.48-.48-1.73,0-1.73.34-.34-.05-.09-.34-.29-.53-.48-.29-1.2.57-1.44.14,0-.1.14-.14.24-.19-.29.24-1.44,0-1.15.48-.81-.24-1.58.24-2.25-.1-.43.58-1.44-.29-1.58.58,0-.86-1.44-.72-2-.29.19-.24-.48-.29-.24-.62-.62,0-1.15.19-1.06.62-1.1-1.05-2.21.81-2.83-.48a44.48,44.48,0,0,1-5,1c0-.86,1.77-.1,1.73-1-1.53.34-2.4,1.1-3.88.91-.38-.1.24-.38.34-.53-1.53.34-2.92-.1-4.27.38,0-.1.14-.19.29-.24-.29,0-.62-.14-.58.29l.24-.1c.38.48-1.1,1.1-1.15,1.39.48-1.1-1.34-.29-.62-1.73a.48.48,0,0,0-.34.53c-.24,0-.34-.19-.1-.53-1,.19-.62.62-1.49.62,0-.19.19-.29.29-.48a1.74,1.74,0,0,1-1.63.57c.1-.1,0-.24.19-.24-1.25,0-2.16,1-3.5.62.38-.81-.48-.29-.53-1l-.72.19.29.34c-.67,0-1.2.53-1.77.29l.48-.29-1.2.14.62.29c-.67.38,0,.91-.81.72.19-.1-.67,0-1-.43h0a1.16,1.16,0,0,1-.48.29,1.48,1.48,0,0,1-.67,0c-.19-.19,0-.82-.14-1-.14.34-.57.43-1,.62s-.82.43-.86.82a.7.7,0,0,0-.19-.58c0,.19,0,.38,0,.58-.38,0-.48,0-.58-.29-.48.38-.24.53-.1.62s.29.24-.34.43c0,0,0-.1.1-.29a3.22,3.22,0,0,0-1.2,1.34c-.14.24-.24.53-.38.77s-.29.53-.43.77c-.38,0-.34-.24-.29-.48s.19-.48-.19-.43a5.94,5.94,0,0,0-.28,2.74c0,.24,0,.48.1.62s0,.38.1.53a3.89,3.89,0,0,1,0,1.06l.1-.19c1,.19-.48,1,0,1.73-.1-.19-.57-.24-.43-.19A9.8,9.8,0,0,0,61,91.74l-.24-.19a10.08,10.08,0,0,0-.24,2.06c.24.19.24.53.57.34-1.49,1.87.82,3.55-.43,5.18,0-.19-.24-.48-.24-.34l.24,1.39c.43-.1.29-.19.62-.48a1.32,1.32,0,0,1,.48.91c-.29-.62-.72,0-1,.29a1.49,1.49,0,0,0,.34.1c-.77.72.91.14.38,1.1l-.24,0c.1.38.43.72.38,1.1-.53.14-.24-.38-.67-.43,0,.58,1,1.1.48,1.63-.14-.24-.14-.58-.29-.82-.62.58-.43.62-.53,1.06v0l-.29,1,.14-.24c1.34.72.24,1.44,1.1,2.4-.81-.91-.48-.14-1.05-.24-.14.24-.34.62-.53.53.48.43-.38.77.34,1.39-.19,0,0,.48-.48.38.14.58.34-.14.57-.1.62.91-.77,2.11.1,3.45a2.51,2.51,0,0,0,.34.72,4,4,0,0,0,.38.58c.14.19.29.34.38.48a6,6,0,0,1,.43.58c-.24.38-.77-.14-.77-.14a1.54,1.54,0,0,0,.58,1.58c-.19,0-.29.14-.34.43.34.43.72,0,.86.58a1.88,1.88,0,0,1-.91,0,6.65,6.65,0,0,0,1.73.91c-.1.34-.62.14-.91.1a6,6,0,0,0,1.1.62,1.1,1.1,0,0,0,1,0l-.24-.38c.19.1-.14.43-.34.43a.58.58,0,0,1-.58-.34.72.72,0,0,1,.1-.48l.38.14c.14-.58-.14-.77-.58-1a4.38,4.38,0,0,1-.67-.34,1.15,1.15,0,0,1-.48-.48l.86-.14a3.35,3.35,0,0,1-1-.38c.1-.24.48-.53.72-.24,0-.34,0-.38-.14-.43s-.19-.19,0-.48a.18.18,0,0,1,.14,0c-.14-.14-.24-.29-.34-.38.19,0,.53-.19.48.1a1.16,1.16,0,0,0,0-.58c0-.14-.14-.29-.19-.43s-.24-.48,0-.67l0,.1c-.29-1.29-.62-.1-1.29-1.1l1.44-.67-.58-.15c0-.14,0-.38.29-.34-.38-.48-.24.1-.62-.19.53-.67-.24-1.77.67-1.92-.43-.24-.34.62-.67-.1,1-.19-.19-.82.29-1.39.53.19.24.77.72.14-.86-.34.19-1.15,0-1.68-.72,0-.29-1.1-.53-1.92.29.1.43-1.53.67-2.35h.1c-.72-.14-.58-1-.72-1.53a.77.77,0,0,1,.77.43v-.58a.88.88,0,0,1-.43-.67l.53.14c0-.72-.62-1.49-.29-2.44-.48,0-1.39.77-1.68-.24.29,0,.72-.1.82.19,0-.1-.24-.29-.1-.48l.43.38c.19-.43-.38-.24-.34-.58.38,0,.29-.24.58-.19,0,.1-.14.29,0,.43a1.43,1.43,0,0,1,.58-1c-.19,0-.53,0-.58-.29,0-.72.48-.24.67-.67-.24-.19,0-.62-.58-.67,0-.19.29-.24.43-.34-.24-.38,0-1.77-.67-1.34l0,.1a0,0,0,0,0,0,0h0c-.58-1.25.34-2.59.1-3.84h.19c-.24-.72-.14-1.63-.53-2.16,0-.24.34-.53.58-.43-.14-.53-.38-.67,0-1.34.29.48.29-.14.19.48a2.34,2.34,0,0,1,.14-.34,1,1,0,0,1,.14-.24.9.9,0,0,0-.14-.72.32.32,0,0,0,.45,0l0,0a.86.86,0,0,0,.19-.43,2,2,0,0,0-.48.19,1.32,1.32,0,0,1,.38-.72c.14.14.34.29.48.43.57-.19.57-.67.77-1.2s.53-.91,1.15-.43c0-.24-.1-.29-.29-.29s-.38,0-.34-.34a.67.67,0,0,1,.43,0,1.7,1.7,0,0,1,.43.19c.29.19.43.38.53.38.34.1.43-.1.57-.34a.82.82,0,0,1,1-.38.7.7,0,0,1,.48-1.05c.67.1.86,1,.43,1.15-.14,0-.24,0-.24-.14-.24.1-.53.19-.24.43l.1-.24c.34.24,1.3.19,1.06.57.53-.24.24-.38-.14-.48.86.34,1.39,0,2.3.24-.14-.14-.29-.38-.14-.38,1.34.29.57-.43,1.49-.53.53.34-.19.82.72.53.57.24.1.62-.1.77.81-.43,1.53.29,2,.38l-.43.19a1.75,1.75,0,0,1,.67-.1L76.16,82c.24.1.48.1.48.29.29-.29-.19-.77.34-1.15.34.24,1.06-.24,1.15.34-1.06-.19.1.62-.82.72a1.06,1.06,0,0,1,.67,0s0,.14-.1.14c1.06.53.48-.67,1.53-.67a.44.44,0,0,0,.28.55l.16,0c-.43,0-.19-.57.19-.82.67.29.77-.19,1.1-.14l-.43-.14c.14-.34.48-.29,1-.38,0,.29-.43.19-.24.29.53-.58,1.2.62,1.92.24.34.24,0,.62.34.82.82-.43.91.48,1.77.1-.24-.48-.29-.34.34-.82l-1.43.33.91-.67c-.43,0-.91.29-1.15.19.43-.38.38-.24.19-.62.58.67,1.15-.38,1.87,0v1.15c1,.53,1.82-.57,3.16-.29l-.43-.19c.19-.43.82,0,1.25-.24,0,.38.24.53.43.77,0-.29,1,0,1.1-.72l.57.48c1.06.19,1.25-1.1,2.25-1-.34.43.14.67-.53,1,.34,0,.67.1.67-.19.19.24,1-.53,1.29-.14.14-.14.19-.57.58-.53a.23.23,0,0,1,0,.19c0-.19.62-.24.29-.67,1.06,1.2,3-.1,3.88.91a22.35,22.35,0,0,1,2.35-.29c0,.1,0,.19-.14.14,1,.34.58-1.1,1.68-.67.53.62-.58.34-.24.57.14,1.25,1.29-.19,2,.57l-.19.1c.58.43,1.34-.48,2.25-.38a.23.23,0,0,0,0,.19,5.08,5.08,0,0,1,2.64-1c-.29.48-.38.24-.24.77.38,0-.1-.82.67-.91.24.29.81.48.91,1l-.72,0c.38.67,1,0,1.34.1l0,.29c1.1-.1,1.15-.86,2.35-.82l-.14-.24c.67-.77.58.43,1.2-.14l.19.77a12.3,12.3,0,0,1,2.3-.86,6.15,6.15,0,0,1-1.92,1.2c.43,0,1.49,0,1.68-.43-.19.1-.38.24-.58.14a2.59,2.59,0,0,1,2.11-.86c-.19,1.49,2.44.34,2.44,1.58a1.3,1.3,0,0,1,1.39.48,12.51,12.51,0,0,1,.91,1.3c.77-1,.19.24,1.2-.34.24.29.24.38.19.48a2.7,2.7,0,0,1-.19.57l-.1.24-.14.24c-.29.24-.29-.24-.53-.14,0,.53-.43.29-.72.62a.43.43,0,0,1,.43.1.69.69,0,0,1,0,.62l.29-.38c.1-.1.19-.24.29-.34a.54.54,0,0,1,.14.38v.34a1.6,1.6,0,0,1-.29.48.93.93,0,0,0-.19,1.2l-.38-.38c.24.67,0,2.4.91,3.07-.14.1-.48.29-.53,0-.14,1.58,1,3.5.43,4.7l-.29-.1c.1.29.53.53.24.86-.1,0-.29-.1-.29,0s.48.77.34,1.15l-.34-.34c-.38,1.53.77,2.35,1,3.6-.86,0-1.1,1.2-1.25,1.77H125c-.1,1.77.72,3,1.06,4.65-.91,1-.38,3.45-.91,5.08.14-.24.67,0,.72.34-.19.38.57,1.06-.19,1v-.14a.87.87,0,0,0-.57.72v.62c.34,0,.67.14,1,.19a4.15,4.15,0,0,0-.48.34c-.1.14-.24.24-.29.38a4.61,4.61,0,0,0-.34.86c-.24.58-.67,1.15-1.25.72,0,.34-.34.48-.53.77l-.14-.53H121.8c-.24,0-.53,0-.86,0l.29-.38c-.77,0-1,1.58-1.63,1.58l-.19-.81c-1.29,0-2.64-.72-3.93,0a.38.38,0,0,1,.29-.38c-.62,0-2.4-.53-2.16.58,0-.72-1.34,0-2.06.24l.1-.53c-.58.67-.62.86-1.44,1.06-.19,0-.19-.43.1-.29-.67-.29-.53.53-1.29.24l.29-.34c-.67,0-.62.14-1,.53a1.17,1.17,0,0,1-1.39-.62c-.1.29-.48.67-.86.53a.32.32,0,0,1,.14-.34c-1.15-.38-1.68.62-2.49.1,0-.19,0-.29-.14-.34a6.33,6.33,0,0,1,1.58.1c0-.48-.72-.58-.14-1.25-.58.38-1.58,1.2-2.3,1,0,0,0-.1-.1-.19l.1,0a.49.49,0,0,0-.43.1,1.45,1.45,0,0,0-.58-.14c-.1-.43-.81-.24-1.2-.24,0,.53-.43.43,0,.91,0,0,0,0,.29-.1a.18.18,0,0,0,.14,0,0,0,0,0,1,0,0h0c.24,0,.53,0,.91,0-.29.29-.58.53-1,.19a5.67,5.67,0,0,1-.53.86c-.48-.77-1.44-1.15-1.58-1.63-1.1.29-2.64.19-3.31,1.2-.34.14-.38-.29-.48-.43.19-.1.38-.1.48-.24-.62.24-1.87.1-2,.81-.81-.34.43-.67-.62-.53l.14-.24c-2.16-1.15-3.5,1.82-5.9.34.14.1.24.14.29.24-2.92-.72-5.8.53-8.49-.48-.77-.19-.86.24-1.3.58l-.19-.58-.82.67c-1.15.48-2-1.44-3.4-.48l.19.38c-.53-.1-1.63.24-1.53-.24,0,0-.19.38-.38.19v-.29l-1.25.53c-1-.24.14-1.2-1.3-1.25-.53.1-1.49.86-1.3,1.1a.65.65,0,0,1,.57.48l-.48.14c-.1.91-.48,1.82.72,2.44l.81-.53.29.43-.72,0c.38.43.62,0,.91-.19a.73.73,0,0,0,.34.48l.81-.86c.1.34-.38.67.19.86.38-.38-.38-.77.29-1.06.38.38.29.72.77.38a.4.4,0,0,1-.24.48c.43-.29,1.1-.1,1.3-.58.43.48,1.39-.14,1.34.72a2.33,2.33,0,0,1,1.1-.72c-.72,1,1.44,0,1.25,1.15.53-.91,1.87-.38,2.78-.91,0,.1-.14.24-.24.19a2.49,2.49,0,0,1,1,.53c0-.77.86-.91,1.3-1.39.62.72-.38.86-.19,1.58,0-.62,1.1-.62.86-1.1.48.43.43.24.67.86.1-1,.43-.14.86-.72.72.48.19.86,1,.58C85.13,122.37,84.46,122.71,84.46,122.71Zm18.17-1.63h0c-.14,0-.29,0-.38,0a1.35,1.35,0,0,0,.38,0Zm1.53,0a3.13,3.13,0,0,0-.67,0c0-.19,0-.38.14-.38-.05.1.28.24.52.38ZM101,117.34c.24-.1.34,0,.34.14s-.24,0-.43,0a0,0,0,0,1,0,0h0a1,1,0,0,0,.14-.24Z"/></g><g id="Group_84" data-name="Group 84"><path id="Path_95" data-name="Path 95" class="cls-1" d="M100.52,118.06s0,0-.1,0l.14.14s0-.1.1-.19Z"/></g><g id="Group_85" data-name="Group 85"><path id="Path_96" data-name="Path 96" class="cls-1" d="M62.54,92.55h0a0,0,0,0,0,0,0h0a0,0,0,0,1,0,0Z"/></g><g id="Group_86" data-name="Group 86"><path id="Path_97" data-name="Path 97" class="cls-1" d="M126.45,120.74l-.1-.14-.1.19Z"/></g><g id="Group_87" data-name="Group 87"><path id="Path_98" data-name="Path 98" class="cls-1" d="M60.67,100.94s-.1,0-.14.1S60.63,101,60.67,100.94Z"/></g><g id="Group_88" data-name="Group 88"><path id="Path_99" data-name="Path 99" class="cls-1" d="M60.58,104.59l-.19.53C60.48,104.87,60.53,104.73,60.58,104.59Z"/></g><g id="Group_89" data-name="Group 89"><path id="Path_100" data-name="Path 100" class="cls-1" d="M60.29,107.37a.43.43,0,0,0,.24,0h0Z"/></g><g id="Group_90" data-name="Group 90"><path id="Path_101" data-name="Path 101" class="cls-1" d="M80.91,77.59s.1,0,.1,0C81.29,77.45,81.1,77.5,80.91,77.59Z"/></g><g id="Group_91" data-name="Group 91"><path id="Path_102" data-name="Path 102" class="cls-1" d="M67.67,78.84a1.94,1.94,0,0,1,.43-.24C67.86,78.55,67.72,78.5,67.67,78.84Z"/></g><g id="Group_93" data-name="Group 93"><path id="Path_104" data-name="Path 104" class="cls-1" d="M68.73,78.6a.71.71,0,0,0-.62,0A2.71,2.71,0,0,0,68.73,78.6Z"/></g><g id="Group_94" data-name="Group 94"><path id="Path_105" data-name="Path 105" class="cls-1" d="M63.31,120s.1.1.14.1a0,0,0,0,1,0,0h0A.36.36,0,0,1,63.31,120Z"/></g><g id="Group_95" data-name="Group 95"><path id="Path_106" data-name="Path 106" class="cls-1" d="M63.5,120.07l.19,0S63.6,120.07,63.5,120.07Z"/></g><g id="Group_96" data-name="Group 96"><path id="Path_107" data-name="Path 107" class="cls-1" d="M64.13,120.22a1.4,1.4,0,0,1-.43-.1C63.84,120.22,64,120.31,64.13,120.22Z"/></g><g id="Group_98" data-name="Group 98"><path id="Path_109" data-name="Path 109" class="cls-1" d="M60.34,114.89c0,.34-.24,1,0,1.39h.14c-.19,0-.14-.34-.1-.67S60.53,115,60.34,114.89Z"/></g><g id="Group_99" data-name="Group 99"><path id="Path_110" data-name="Path 110" class="cls-1" d="M62.69,110l-.14,1c.19-.14.48-.38.53,0C63.69,109.76,62.59,111.2,62.69,110Z"/></g><g id="Group_100" data-name="Group 100"><path id="Path_111" data-name="Path 111" class="cls-1" d="M63,107.08c.1.53.29,0,.43,0C63.21,106.74,63.17,106.69,63,107.08Z"/></g><g id="Group_101" data-name="Group 101"><path id="Path_112" data-name="Path 112" class="cls-1" d="M63,85.93l.48,0C63.41,85.6,63.26,86,63,85.93Z"/></g><g id="Group_102" data-name="Group 102"><path id="Path_113" data-name="Path 113" class="cls-1" d="M61.68,81.38a2.57,2.57,0,0,0-.53.24l.29.43A5.81,5.81,0,0,0,61.68,81.38Z"/></g><g id="Group_103" data-name="Group 103"><path id="Path_114" data-name="Path 114" class="cls-1" d="M65.66,82.39l0,.1c.1-.1.14-.24.24-.34A.48.48,0,0,0,65.66,82.39Z"/></g><g id="Group_104" data-name="Group 104"><path id="Path_115" data-name="Path 115" class="cls-1" d="M99.8,81.67,99.65,81C99.41,81.14,99.37,81.86,99.8,81.67Z"/></g><g id="Group_105" data-name="Group 105"><path id="Path_116" data-name="Path 116" class="cls-1" d="M115.09,81a.55.55,0,0,0,.73.28l.13-.09C115.62,81.19,115.28,80.95,115.09,81Z"/></g><g id="Group_106" data-name="Group 106"><path id="Path_117" data-name="Path 117" class="cls-1" d="M125.11,114.8l-.14-.24a.89.89,0,0,0,.1.34A.17.17,0,0,0,125.11,114.8Z"/></g></g></g></svg>