<svg id="Laag_1" data-name="Laag 1" xmlns="http://www.w3.org/2000/svg" viewBox="0 0 191.61 188.99"><defs><style>.cls-1{fill:#575756;}</style></defs><title>stavoren_2</title><g id="Group_594" data-name="Group 594"><g id="Group_541" data-name="Group 541"><path id="Path_584" data-name="Path 584" class="cls-1" d="M56.25,89.84a1.75,1.75,0,0,1-.58.43,1.65,1.65,0,0,1-.58,0c-.19,0-.86-.1-1.1-.1s-.19-.14-.29-.29a2.28,2.28,0,0,0-.38-1.39c-.34-.62-.72-.91-1.2-.91a1.46,1.46,0,0,0-1.3.77,1.89,1.89,0,0,0-.34,1.3c0,.14-.14.62-.14.81a2.11,2.11,0,0,0,.29,1.2,6.8,6.8,0,0,0,.53.77c0,.1,0,.24-.19.38a.81.81,0,0,0,.43.1c-.1.1-.53.62-.72.62l-.24,0s-.1,0-.1,0a.28.28,0,0,0,.1.24s.48-.24,1.3-.62a1.7,1.7,0,0,0,0,.34.26.26,0,0,0,.1-.24c.43.34,1,.77,1.68,1.39a27.94,27.94,0,0,1,2,2.64.36.36,0,0,1,0,.43,1.91,1.91,0,0,1,.34.43,2.71,2.71,0,0,0,0,1.06,5.09,5.09,0,0,1,.1.81c0,.1-.19.53-.19.62s0,.19.14.19a6.6,6.6,0,0,0-.43,2.16,2.22,2.22,0,0,0-.48.48c-.24.29-.38.48-.48.58a.51.51,0,0,1,.14.24.62.62,0,0,1-.38-.1s0,.1-.1.24-.24.19-.72.24H53s-.29.29-.48.29-.38,0-.91,0-.77,0-.86,0a3.92,3.92,0,0,1-1.39-.34,4,4,0,0,1-1-.77,3.4,3.4,0,0,1-1.1-2.59c0-1,.19-1.34,1.25-1.34a5,5,0,0,1,.58,0,2.86,2.86,0,0,1,.72.43,12.24,12.24,0,0,0,.48,1.39q.5.72.72.72c.19,0,.48.24.67.24s.34-.24.53-.24.34.34.34.34.19-.19.19-.24a.21.21,0,0,0-.19-.14s.1,0,.14,0a8.34,8.34,0,0,0,.53-.86,1.78,1.78,0,0,0,.34-1,1,1,0,0,0-.24-.62,1.53,1.53,0,0,0,.29-.34,6,6,0,0,1-.1-1.15,3.12,3.12,0,0,0-.43-.72c-.48-.48-1.15-1.2-2.11-2.25l.19-.62a.69.69,0,0,0,.1.34.36.36,0,0,0,.19,0c.19-.19.19-.62.29-.77l-.1-.19a2.3,2.3,0,0,1-.53-.24c0-.1.34-.24.43-.38,0,0-.1-.14-.29-.48,0,0-.1.1-.14.1s-.1.14-.1.19.1.1.29.1a.68.68,0,0,1-.67,0l-.29.29a.69.69,0,0,0,.34.1c-.14.19-.19.29-.1.38a1.33,1.33,0,0,1-.62,0c-1.39-.67-2.06-2.3-2.06-5a5.09,5.09,0,0,1,.1-1,2.56,2.56,0,0,0,.29-.77c.1-.1.24-.19.38-.34a1.11,1.11,0,0,1-.34-.24s.19-.24.38-.24.29,0,.29-.1a1.19,1.19,0,0,1,.34-1,3.06,3.06,0,0,1,1.06-.62A4,4,0,0,1,51.74,85c.38,0,.67,0,.82,0,0,.14,0,.19.19.19s0-.24.24-.24a7.64,7.64,0,0,1,1.15.62,5.06,5.06,0,0,1,1.2.82c.14.24.24.43.34.62.24.38.43.58.58.62v2.16ZM48.91,87.2a.67.67,0,0,1-.24.48,5.62,5.62,0,0,0,.53-.24Z"/><path id="Path_585" data-name="Path 585" class="cls-1" d="M65.31,88.3a5.56,5.56,0,0,1-.58-.1,1.64,1.64,0,0,0-.53-.1,1,1,0,0,0-.67.24s-.29.29-.62.67c0,.1.1.38.1.43s-.34-.1-.58-.29a.25.25,0,0,0,.1.43.94.94,0,0,1,0,.38c-.19.1-.29.14-.29.19l.19.19c.14-.14.24-.19.34-.19a3.16,3.16,0,0,1-.53.58s0,.1.1.14a.25.25,0,0,0,.29-.29c0,.1.29.34.29.43a12.76,12.76,0,0,1-.14,1.34c.1.1.14.24.29.43v4.41c0,.19-.19.67-.19.81s.24.62.24.77a1.22,1.22,0,0,1-.1.34,1.43,1.43,0,0,1,.1.72,8.32,8.32,0,0,1,0,.86c0,.1-.14.62-.14.81a2.41,2.41,0,0,0,.24.62c0,.43.1.77.1,1.06,0,1.15-.29,1.73-.91,1.73a5.49,5.49,0,0,0-.72,0,6,6,0,0,1-.72,0,.75.75,0,0,1-.67-.53,2,2,0,0,1-.24-.91L60.9,90q0-1.22-.29-1.3l-.81-.38a4.32,4.32,0,0,0-.72.14,3.31,3.31,0,0,1-.72.1c-.53,0-.77-.53-.77-1.58a3.74,3.74,0,0,1,.19-1c.19-.48.38-.67.67-.67s.48.14.62.14a7.41,7.41,0,0,1,.72.19h1.34a2.14,2.14,0,0,0,.24.38,2.57,2.57,0,0,1,.62-.29,2,2,0,0,0,.81.1,9,9,0,0,0,1.44-.14l.86-.14a1,1,0,0,1,1,.43,2,2,0,0,1,.19,1C66.13,87.87,65.84,88.3,65.31,88.3ZM61,87l-.24-.19c.19.34.29.58.38.72,0-.1.19-.38.43-.91C61.43,86.67,61.14,86.91,61,87Zm1,.67v-.19h-.62v.19Zm0,11.17-.1-.14-.48.24v.19Zm-.29-10.69v-.38h-.19v.38ZM62.1,90v-.38h-.19V90Zm.67-3.74c-.14.19-.43.24-.81.24.19.1.48.14.81.29Zm-.72,1.1c.1,0,.29.34.29.34s.14-.58.14-.72-.19.15-.43.39Z"/><path id="Path_586" data-name="Path 586" class="cls-1" d="M68.14,104.6a8.71,8.71,0,0,0-.67-.67,3.66,3.66,0,0,1,.43-.43l-.19-.19c-.1,0-.29.1-.43.1s-.1,0-.14,0a6.67,6.67,0,0,0,.62-.29,7.88,7.88,0,0,0,1.06.86A1.15,1.15,0,0,1,68.14,104.6Zm-.38-4.17h-.38v-.19h.38Zm.38.67-.29.38-.14-.1.24-.38Zm0,1.92c-.24,0-.34,0-.29,0s.34-.43.58-.43C68.29,102.54,68.29,103,68.09,103Zm0-.72-.29.14v-.14l.24-.14ZM69.68,100s-.1.1-.1.14l0,.19c0-.1-.1-.1-.24-.1a.37.37,0,0,0-.24.1c-.14.14-.19.19-.24.19l.19.19.29-.14a2.16,2.16,0,0,1,.1.38.22.22,0,0,1-.14.24,2,2,0,0,1,.29.67l-.24-.29a1.4,1.4,0,0,1-1,.29c.38-.34.53-.53.53-.62l-.1,0a.35.35,0,0,0-.29.19,1.6,1.6,0,0,0-.14-.29c.14-.1.24-.19.34-.19a3.79,3.79,0,0,0-.62-.24.37.37,0,0,1,.24-.1l.24,0a1.07,1.07,0,0,0,.14-.48v-.72c0,.14.29.48.29.62a.18.18,0,0,1,0,.14h.29l.19-.19a3.36,3.36,0,0,0-.34-.53c.38.19.81.34.91.58a.39.39,0,0,1-.33,0Zm-.81-3.26h-.19V96.4h.19Zm9.21,8v.1a1.3,1.3,0,0,1-.77.24c-.19,0-.14-.24-.34-.24s-.14.14-.24.14-.1,0-.1-.19,0,0-.1,0-.1,0-.1.14,0,0-.14.1a.91.91,0,0,1-.86-.48s-.19-.67-.38-1.87q-.29-1.44-.86-1.44c-.19,0-.14.24-.34.24s-.24-.34-.43-.34-.14,0-.14,0l0,0s0,0-.14,0h-.1s.1-.14.1-.14v-.1a1.94,1.94,0,0,1-1-.62A.8.8,0,0,0,72,101a.84.84,0,0,1-.29,0,.47.47,0,0,1-.38-.14.86.86,0,0,1-.24.34.61.61,0,0,1,0-.29c0-.1.1-.34.1-.43a.35.35,0,0,0-.19-.29c-.24,0-.72-.1-.91-.1a1,1,0,0,1,.29-.38l0-.14s0-.1-.1-.14a1.06,1.06,0,0,1-.24.19.61.61,0,0,1,.19-.34.44.44,0,0,0-.24-.14s-.1,0-.14,0,0-.14.19-.24a3.82,3.82,0,0,1-.38-.29c-.1.1-.1.19-.1.43-.14-.1-.19-.14-.29-.14s.1-.14.29-.34a1.12,1.12,0,0,0-.34-.34,1.79,1.79,0,0,1-.38-.29c.1-.1.1-.19.14-.24s.14,0,.29.14a2.19,2.19,0,0,0,.29.19,2.94,2.94,0,0,1,.19-.29c0-.1-.29-.29-.81-.58h0a1.06,1.06,0,0,1,.19-.24.9.9,0,0,1-.1-.38.8.8,0,0,1,.43-.81,3.82,3.82,0,0,1-.38-.29.4.4,0,0,0-.1.34.44.44,0,0,1-.29-.19,3.12,3.12,0,0,0,.72-.43l-.14-.14c-.1,0-.1.1-.14.14a2.29,2.29,0,0,1-.24-.58l.34.34s0-.1,0-.24,0-.1.14-.1.19.1.19.1a2.94,2.94,0,0,1,.19-.29l-.19-.14-.53.34a.86.86,0,0,1-.24-.34.74.74,0,0,1,.38.1l.14-.19V94.1s0-.1-.1-.14a.31.31,0,0,1-.24.1,6.14,6.14,0,0,0-.24-.81,4.41,4.41,0,0,1,.81-.62v-.81c-.1-.1-.19-.1-.43-.1.1-.29.19-.62.34-1a.3.3,0,0,0,.1-.19c0-.1-.1-.19-.43-.29a1.14,1.14,0,0,1,.53-.67c-.24-.24-.34-.38-.34-.53a8.78,8.78,0,0,1,.34-1.63A8.92,8.92,0,0,0,70,85.66c.48-.14.91-.29,1.34-.43A4,4,0,0,1,72.71,85c.38,0,.77.82,1.15,2.49L76.79,100c.14.62.24,1.2.38,1.82.24.91.48,1.44.67,1.49a1.91,1.91,0,0,1,.22,1.34ZM69.2,98.95l-.14.29-.14,0,.14-.29ZM69.3,93h-.14L69,92.76l.19,0Zm.19,3.4c-.1.14-.19.29-.34.48a5,5,0,0,0,.58-.34.51.51,0,0,0-.24-.14Zm-.05-3c-.14,0-.19.14-.19.38,0,0,.14,0,.38,0C69.53,93.57,69.43,93.48,69.43,93.38Zm.38-3.21-.1-.1-.29.24.1.14Zm.19,11-.43.14v-.19L70,101Zm.34-2.78-.29.24.1.14.29-.29Zm.14.58h-.43a2.15,2.15,0,0,0,.62.48,1,1,0,0,1-.19-.48Zm3-3.74c-.43-1.25-.82-1.87-1.29-1.87s-1,.67-1.2,2A6.94,6.94,0,0,1,70.2,98c.14.1.34.29.62.53l-.19.24.48.29.24-.24c.34,0,1.15.24,1.49.24a1.05,1.05,0,0,0,.77-.48A1.35,1.35,0,0,0,74,97.7,9.72,9.72,0,0,0,73.51,95.21ZM72.65,92l-.1-.1-.29.24.1.14Zm.29,8.34-.14,0,.14.24h.19Zm1.39,0h-.19v.38h.19Z"/><path id="Path_587" data-name="Path 587" class="cls-1" d="M88,86c-.1,0-.14,0-.14.1a11.26,11.26,0,0,0,0,1.25,1.87,1.87,0,0,1-.53,1.2c0,.1.1.14.34.14,0,.1-.19.62-.48,1.63,0,0,0,.1.1.24A16.69,16.69,0,0,0,87,92.24a38,38,0,0,1-.82,5.56c0,.14,0,.38,0,.67a2.66,2.66,0,0,1-.38.29l.62.62a.77.77,0,0,1-.53.14v.62a4.06,4.06,0,0,0,0,.62c0,.1-.24.38-.29.58a3.18,3.18,0,0,0,0,1,5.7,5.7,0,0,1,.1,1.06,3.73,3.73,0,0,1-.24,1.34,1.06,1.06,0,0,1-.72.29c-.19,0-.19-.24-.38-.24s-.77.24-1,.24-.24-.1-.43-.29a6.43,6.43,0,0,1-.48-.43,1,1,0,0,0,.1-.77.51.51,0,0,1-.14-.24,9.26,9.26,0,0,0-.67-3.07c-.1-.34-.34-1.29-.62-2.88-.24-1.06-.67-3.74-1.34-8a17.54,17.54,0,0,0-.48-1.87c-.24-.86-.38-1.34-.38-1.44,0-.38.24-.58.77-.67a4,4,0,0,1,1,0,1.55,1.55,0,0,1,1,.38c.19.62.38,1.53.62,2.78a.69.69,0,0,0-.1.34,2.37,2.37,0,0,0,.14.72,6,6,0,0,1,.19.58l.24,1.25a1,1,0,0,0,1,.71c.57,0,.77-.43,1-1.68.14-.53.29-1.29.48-2.35V86.62c0-.72.14-1.15.29-1.25a3,3,0,0,1,1.58-.24c.38,0,.91.29.91.67C88.09,86,88,86,88,86Zm-4.22,18.41-.14-.14-.29.29.14.14Zm.19-1.34-.1-.14-.24.14v.19Zm2.4-3.07-.14.29-.14-.1.14-.29Zm.82-10.45,0-.14-.24.14v.14Z"/><path id="Path_588" data-name="Path 588" class="cls-1" d="M97.77,97.75q-.14,1.65-.14,2.44c0,.29,0,1,0,1.2a2,2,0,0,1-.43,1.49c-.48.53-.77.81-.82.91,0-.14.34-.53.34-.81v-.15a2.54,2.54,0,0,0-.43.53s-.1-.1-.24-.24c-.1.1-.24.14-.38.29.29.14.43.34.43.48-.38.1-.77.1-1,.48,0-.14-.14-.48-.14-.67a.66.66,0,0,1,.24-.43l.43-.29s-.19-.24-.48-.72a.25.25,0,0,0-.1.19,1.56,1.56,0,0,1,.14.48l-.77-.19c.29,0,.67-.67.91-.67s.14,0,.24.1l.1-.38a.43.43,0,0,0-.24,0,.36.36,0,0,0-.34.19v-.34a1.63,1.63,0,0,1,.19-.77V89a.4.4,0,0,0-.34-.1.85.85,0,0,1,.19-.48,2.89,2.89,0,0,0-.53-.67l-.57-.43a1.48,1.48,0,0,0-.57-.29,1.77,1.77,0,0,0-1.49.86,2.84,2.84,0,0,0-.57,1.68,9.09,9.09,0,0,0,.29,3c-.24.1-.34.34-.34.67s.1.86.1,1.06a10.22,10.22,0,0,0,0,1.06v1.06c0,.58,0,1.06,0,1.44a4.18,4.18,0,0,0-.24.91c0,.34,0,.81.1,1.49s.1,1.15.1,1.44a1.25,1.25,0,0,1-.19.48c0,.1,0,.14,0,.24a.75.75,0,0,1-.29.67,1.57,1.57,0,0,0,.29.38,1.94,1.94,0,0,0,.14-.48,1,1,0,0,1,.29-.48l.29-.19.14.14v.43h-.1a.35.35,0,0,0-.34.29,1,1,0,0,0,.19.29,1,1,0,0,1,.24-.43,3,3,0,0,1,.24.53c.1.24.19.38.24.38s.57.14.72.14c0-.19.14-.43.24-.77h.14c.38,0,.62,0,.67-.14a4.52,4.52,0,0,1,.48.48v.1a.15.15,0,0,1,0,.1.18.18,0,0,1-.16.19h0c.1,0,0,0-.19-.1l-.1,0a2,2,0,0,0,.43.67,2.19,2.19,0,0,1-1.15.38c-1.1,0-1.82-.24-2.11-.67l-.24.24c-.38-.19-.57-.38-.57-.62s.19-.48.19-.58a.25.25,0,0,0-.1-.19l0,0s.1,0,.1-.14-.14-.34-.34-.43c.1-.14.1-.24.14-.29s.19.1.34.1l.1-.1a1.07,1.07,0,0,0-.1-.58l-.38-.14,0,.14a.77.77,0,0,0,.14.43l-.29-.24a1.93,1.93,0,0,1-.77.67.52.52,0,0,1-.1-.38A.47.47,0,0,1,90,102a1.73,1.73,0,0,1-.24-.43.59.59,0,0,0,.19-.43c0-.38-.14-.58-.34-.62a.36.36,0,0,1,0-.24A1,1,0,0,0,90,100l-.14-.14a6.28,6.28,0,0,0,.62-.58.25.25,0,0,0-.19-.1.64.64,0,0,0-.38.14v0A.18.18,0,0,1,90,99h0c-.1-.1-.48-.48-.48-.67a1.18,1.18,0,0,1,.38-.81,3.5,3.5,0,0,1,.48.43l.1,0s0-.1,0-.19-.24-.34-.62-.62v0l0-.19c0-.14-.1-.19-.19-.14h0a.94.94,0,0,1,.19-.38q-.14-.22-.43-.58c.1,0,.24.1.34.1a.17.17,0,0,0,.1,0s-.1-.14-.14-.14,0,0,.1,0,.34-.14.38-.48c-.1.1-.14.19-.29.34h-.38v-.24c0-.19,0-.29.24-.34v0s0-.1.1-.19a1,1,0,0,1-.29-.19.81.81,0,0,1,0-.48c-.1-.29-.19-.67-.38-1.2a3.15,3.15,0,0,1,.57-.58.59.59,0,0,0-.53-.34h.24a1.52,1.52,0,0,0,.1-.67c0-.34-.14-1.1-.14-1.39a1.13,1.13,0,0,1,.24-.77l-.1-.14.24-.43h0a3.88,3.88,0,0,1,.19-1.34,7.26,7.26,0,0,0,.67-.43v-.1c0-.53.34-.91,1.06-1.15a4.42,4.42,0,0,1,1.7-.33l.29.34c.14-.14.19-.24.19-.34.43.1,1.06.19,1.87.38.34.24.62.48.91.67a2.73,2.73,0,0,1,.72.86A8.35,8.35,0,0,1,98,90.12c0,.29.1,1,.1,1.2s0,1,0,1.29,0,.72,0,1.34,0,1,0,1.34C98,95.88,97.92,96.69,97.77,97.75Zm-7.43,3.4V101h-.29v.19Zm.14,2.49-.1.1-.29-.29.1-.14Zm.29-2.44h-.53a.17.17,0,0,1,0,.1.51.51,0,0,0,.1.29c0-.1.1-.14.29-.14s.34.1.43.1Zm0,0-.14-.34-.14,0,.14.29Zm0-1a.44.44,0,0,0-.14.34s.14,0,.43,0ZM92.45,104a1.7,1.7,0,0,0-.43-.53,1.28,1.28,0,0,1,.14.58c0,.1,0,.14,0,.19Zm.43.14-.1-.14-.29.14v.14Zm.24-.43v-.1a.37.37,0,0,0-.1-.24,1.53,1.53,0,0,1-.29.34,2,2,0,0,0,.19-.43.46.46,0,0,1,.43-.29.79.79,0,0,1-.24.73Zm.77-18-.19-.19-.1.14.14.19ZM94.22,103l-.14.1-.19-.19.14-.1Zm1.87-10.07-.19-.19-.1.14.14.19Zm.24.14-.19-.1-.14.29.19.1Zm.43-2a2.63,2.63,0,0,0-.34.43.66.66,0,0,1,.43-.24.13.13,0,0,1,.14.14c0,.1-.1.24-.1.34q0-.14.29-.14a3.5,3.5,0,0,0-.43-.52Zm.29-1.2-.14-.53c-.1.14-.24.29-.43.53Zm-.14-2.73a3.87,3.87,0,0,0-.29.62v0a.82.82,0,0,1,.43.48,2.05,2.05,0,0,1,.24-.62,1.36,1.36,0,0,1-.39-.52Zm.19,5.56-.14,0-.14.29.14.1Zm-.19-.81a1.28,1.28,0,0,1,.14.58.26.26,0,0,1,.29-.19Zm.38,1.44,0-.14-.29.14v.14Zm0-4.22v-.43h-.19v.43Z"/><path id="Path_589" data-name="Path 589" class="cls-1" d="M107.6,104.79a1.47,1.47,0,0,1-.43-.19.22.22,0,0,0-.24,0,1.22,1.22,0,0,1-.34.1q-.29,0-.57-.43a2.3,2.3,0,0,1-.24-.53c.1,0,.14-.1.14-.29a11.77,11.77,0,0,0-.34-1.44c0-.1.14-.19.24-.34l-.19-.14s-.14.29-.24.29a2.9,2.9,0,0,0,.19-1.06,5.91,5.91,0,0,0-.34-.91,10.49,10.49,0,0,1-.38-1.29,11.93,11.93,0,0,0-.38-1.63c-.29-.67-.62-1-1.1-1-.19,0-.67.19-.86.19s0,.1,0,.29a1.14,1.14,0,0,0-.29.53,3,3,0,0,1,.14.72c0,.29-.19.48-.19.72a25.3,25.3,0,0,0,.24,3v.43a2.85,2.85,0,0,0,0,.53,1.08,1.08,0,0,0,.43,1c0,.1-.1.19-.19.38a.83.83,0,0,0,0,.72,1.51,1.51,0,0,1-1.2.81,2.25,2.25,0,0,1-1.25-.38q-.14-.07-.29-.72c0-.1-.14-.19-.24-.34s.1-.24.19-.43c0-.38-.1-1.49-.14-3.4l-.14-.14a1.83,1.83,0,0,0,.19-.81c0-.72,0-1.77,0-3.21s0-2.54,0-3.31,0-1.68-.1-2.49c0-.53,0-1.25-.1-2.3-.14-.19-.19-.29-.19-.38,0-1.06.34-1.58,1.06-1.58.19,0,.38.1.53.1s.34-.34.53-.34a4,4,0,0,1,.86.19l.86.14c.19,0,.53-.34.77-.34s.34.29.34.29a9.15,9.15,0,0,1,1,.1c.24.1.53.19,1,.34a4.9,4.9,0,0,0,.86.86c.14.29.43.86.91,1.68-.1-.1-.14-.1-.19,0a2.88,2.88,0,0,0-.1,1,1,1,0,0,1,.14.24,14.47,14.47,0,0,1-.14,2.88,7.65,7.65,0,0,1-1.05,2.4,1.05,1.05,0,0,0-.29.24q.07.36.86,3a3,3,0,0,0,.1.86,4.17,4.17,0,0,1,.19,1c.82,2.21,1.25,3.31,1.25,3.31C108.94,104.32,108.22,104.79,107.6,104.79Zm-1.87-13.52a3.87,3.87,0,0,1,.14-.91c-.14-.19-.19-.34-.14-.38s.24-.24.14-.48a6.79,6.79,0,0,1-.38-.86c-.24-.43-.43-.62-.67-.62s0,.14-.24.14-.1-.34-.57-.34a5,5,0,0,0-1.44.34,1.47,1.47,0,0,0-.62,1,8.2,8.2,0,0,0-.14,1.92,7,7,0,0,0,.34,1.87c.1.14.24.34.43.62a3.53,3.53,0,0,0,1.29.29,2,2,0,0,0,1.1-.48c.1-.1.48-.43,1.1-1.06A1.73,1.73,0,0,1,105.73,91.27Zm.43,10.31-.14,0-.14.29.19,0Zm.38-.1v-.29h-.19v.29Z"/><path id="Path_590" data-name="Path 590" class="cls-1" d="M119.59,103.93a3.3,3.3,0,0,1-.24.86.7.7,0,0,1-.67.48c-.19,0-.72-.34-.91-.34s-.19.1-.34.24l-.24-.24a2,2,0,0,1-.53,0,3.87,3.87,0,0,1-.91-.14,4.75,4.75,0,0,0-.91-.14c-.14,0-.14.1-.14.29,0,0-.1-.14-.24-.29a1.19,1.19,0,0,1-.91.34,3.82,3.82,0,0,0-.53,0,.9.9,0,0,0-.53,0l0,0c0-.1-.1-.14-.24-.14s-.14.24-.29.24a6.87,6.87,0,0,0-1-.24l-.48-14.14c0-.77-.1-1.53-.19-2.4s-.14-1.44-.14-1.49a2.79,2.79,0,0,1,.43-1.2,1.38,1.38,0,0,1,.57-.1l5.27-.19c.29,0,.91-.14,1.2-.14.62,0,1,.14,1.2.48a2.29,2.29,0,0,1,.24,1.34c0,.91-.29,1.25-1.15,1.25-.48,0-1.2,0-2.21,0s-1.68-.1-2.21-.1c-.19,0-.38.19-.62.62a1.8,1.8,0,0,0-.34.86.25.25,0,0,0,.19.24,17.55,17.55,0,0,1,.1,2.06.43.43,0,0,1-.14.34,3.46,3.46,0,0,1,.1,1.15c.14.14.19.19.29.19s.24-.14.38-.14.48.34.67.34.82,0,1.44,0,1.15-.1,1.44-.1.67.38.67,1.15a3.85,3.85,0,0,1-.1,1.1.9.9,0,0,1-.91.43c-.38,0-1.34-.1-1.73-.1a3.12,3.12,0,0,0-.86.19,1.79,1.79,0,0,0-.82.29,2.17,2.17,0,0,0-.29,1,5.8,5.8,0,0,0-.19,1,1.27,1.27,0,0,1,.1.53,7.23,7.23,0,0,1-.24,1.34v0c0,.1-.1.29-.1.38a1.65,1.65,0,0,0,.19.62,6.24,6.24,0,0,1,.24.67l-.19.14v.38l.19.1v-.1c0-.1,0-.24,0-.34h.38a2.7,2.7,0,0,1,.34,1c.19-.1.1-.38.19-.43s0,0,.1.19,0,.24.1.24l.24-.19v.14a.4.4,0,0,0,.1.29,1.62,1.62,0,0,1,.38-.14l-.19-.1v-.4c.19,0,.53-.43.53-.43V103a2.07,2.07,0,0,0,0,.24.72.72,0,0,0,.19-.38q.72-.22.86-.58c.1.19.24.43.43.43s.43-.24.53-.24a4.43,4.43,0,0,1,1.53-.19c.24,0,.43.24.57.67s.29.72.43.77Zm-6.81.14-.14-.19-.14.1.19.19Zm1.34.29c0-.1,0-.14,0-.19a.64.64,0,0,0-.34.14.7.7,0,0,0,.38.24.25.25,0,0,1-.1-.19Zm.34-.19c-.14,0-.19.1-.19.34h.43Z"/><path id="Path_591" data-name="Path 591" class="cls-1" d="M129.7,95c-.1,0-.19,0-.34,0,.29.14.43.29.38.34v5.23a9.43,9.43,0,0,0,.19,1.58,9.75,9.75,0,0,1,.19,1.68c0,1-.34,1.06-1.29,1.06a2.08,2.08,0,0,1-1.53-.77,11.33,11.33,0,0,1-.38-1.63,7.24,7.24,0,0,1-.53-1.49q-.5-3.16-2.16-3.16c-.1,0-.19.1-.38.29l-.29.43a.43.43,0,0,1,0,.24c0,.53-.43.77-.72,1.06,0,0,0,0,.1,0s.48-.19.67-.19v4.51a2.8,2.8,0,0,1-.24.62,3.18,3.18,0,0,1-.72,0,5.31,5.31,0,0,1-1.15,0,.82.82,0,0,1-.67-.81l.14-18.8.14.1.1-.1s.1,0,.19,0c.29,0,.91-.14,1.1-.14-.14,0,.19,0,.86.14a2.07,2.07,0,0,1,.72,1.39v.48a2,2,0,0,0,.14.77,1.88,1.88,0,0,1,.29.62c0,.34-.29.43-.53.57,0,0,.1,0,.14,0s.19,0,.34,0a4.57,4.57,0,0,1,.62,1.25c.24.67.43,1,.48,1s.24-.1.29-.1-.1.14-.24.29c.14.14.29.34.53.58,0,0,0-.1.1-.19s.1,0,.19,0,.14,0,.14,0v0s0,0,.1,0,.19-.1.14-.19.19.1.38.34c.14-.19.29-.43.48-.72a9.59,9.59,0,0,0,.19-1.44c0-.19-.19-.81-.19-1.06v0a1.53,1.53,0,0,0,.34-.29.36.36,0,0,1,0-.19.49.49,0,0,1,.24-.38l0,0q0,.57.72.58c.1,0,.29,0,.34,0s.14,0,.19,0,.14-.34.19-.53c.34.34.53.58.53.72s-.14.62-.14.77c-.19,0-.29-.1-.34-.1s-.14,0-.19,0,0,.29.24.29a1.49,1.49,0,0,0,.34-.1.18.18,0,0,0,0,.14c0,.1,0,.43,0,.53a.79.79,0,0,1-.24.58v3.84a1.83,1.83,0,0,0,.43.43C130,95,129.85,95,129.7,95Zm-6.09-2.78-.29-.15,0,.19.29.14Zm2.25,8.15s0,0,0-.14V100a2.07,2.07,0,0,1,0-.24q.29.29.29.43a.68.68,0,0,1-.29.1Zm3.5.38-.34-.38c-.19,0-.34-.19-.38-.19s0,.1-.14.1H128a2.38,2.38,0,0,1,0-.72l0-.1h0s-.1,0-.14,0l.19-.14a1,1,0,0,1,.34.86,2.5,2.5,0,0,0,.29-.67c.1,0,.14,0,.14.1s-.1.24-.1.29a1,1,0,0,0,.38-.29.15.15,0,0,1-.1,0c-.14,0-.14-.14-.14-.43-.1,0-.24.19-.34.19h-.1a3.71,3.71,0,0,1,.48-.58.81.81,0,0,0,.3.28,1.35,1.35,0,0,0,.19-.53,1,1,0,0,1-.38.14l-.14-.1c.14-.1.24-.14.24-.24s0-.29,0-.24a.26.26,0,0,1-.24.1.25.25,0,0,1-.29-.29c0-.14.1-.48.1-.62.14.14.24.19.29.19v.29c0-.1.19-.38.19-.58l-.43-.14v-.48l.19-.19a1.32,1.32,0,0,0,.38.29.89.89,0,0,1-.24-.48q.14-1.58.14-1.44v-.14l-.19.14s-.1,0-.1-.1.29-.77.43-1a.76.76,0,0,1-.24-.38.59.59,0,0,1-.43.14.64.64,0,0,1-.48-.14.36.36,0,0,1,0,.19c0,.58-.62,1-1,1.39a1.31,1.31,0,0,1,.62.62l-.29.14s0,0,0,.1-.1.19-.24.38-.34.34-.34.38v.38a.25.25,0,0,1,.19.1,1.39,1.39,0,0,0-.43.67c.38.34.53.58.53.77s-.14.29-.43.53c.19.1.29.34.29.77a1,1,0,0,1-.19.58c.19,0,.34.14.38.38a.5.5,0,0,0,.53.38c.1,0,.19-.1.34-.24s0,.1,0,.24,0,.1.14.1h.53c0-.24,0-.34.14-.34s.14.19.24.34a.72.72,0,0,1,.29-.14v-.29Zm-1.92,1.15v-.19h-.53v.19Zm.24-3.6-.1.14-.34-.14v-.19ZM130,87h-.24c-.14,0-.43-.1-.53-.1s-.38,0-.43.14v.43a1,1,0,0,1-.14.43s0,0,.1,0a1.33,1.33,0,0,1-.67-.43.66.66,0,0,0,.14-.19l0-.1c-.29.19-.34.24-.38.53a2.36,2.36,0,0,1-.34-1.1,1.45,1.45,0,0,1,.34-1.06,1.94,1.94,0,0,1,1.1-.19,2,2,0,0,1,1.25.43A9.43,9.43,0,0,0,130,87Zm-2.11,13.23-.34.14v-.14l.24-.14Zm.14-2h-.29V98h.29Zm0-.58h-.14v-.38h.19v.38Zm.29-3.07H128v-.19h.29Zm0-2.54v-.38h-.19V92Zm.29,1.87-.43.14v-.19l.38-.14Zm.57-3a1.06,1.06,0,0,0-.38,0l.24.14c-.1.1-.14.14-.14.19s0,0,.1.1.1-.1.1-.1l.1.1-.29.14v0a.36.36,0,0,0,0,.19v.14a.44.44,0,0,1-.14.24c-.14-.14-.24-.24-.24-.29,0,.19-.24.43-.24.48.48,0,.77-.24.86-.53s.19-.58.29-.81c-.06-.1-.2-.1-.3-.1Zm-.34,3.64h-.14l-.14-.38.14-.1Zm.67-6.76c-.19,0-.29,0-.29,0s0,.1.1.14c-.1-.1-.19-.1-.38-.1l.14-.53c.1,0,.14,0,.19,0a1.09,1.09,0,0,0,.53-.14c-.05.34-.15.53-.29.53Zm.1,14.1-.19-.19-.1.14.14.14Z"/></g><g id="Group_593" data-name="Group 593"><g id="Group_542" data-name="Group 542"><path id="Path_592" data-name="Path 592" class="cls-1" d="M46.33,116.06c.14-.14.1-.53-.38-.48a4.38,4.38,0,0,1-.38.62Z"/></g><g id="Group_543" data-name="Group 543"><path id="Path_593" data-name="Path 593" class="cls-1" d="M43.78,114.29a4.56,4.56,0,0,0-.86.19.78.78,0,0,0-.53.67,2.88,2.88,0,0,1,.77-.1,1.49,1.49,0,0,0,.81-.29c.43.1.62.43.48.62.1,0,.24,0,.43,0a.45.45,0,0,0,.53-.14,2,2,0,0,0-1.87-.67C43.49,114.43,43.69,114.39,43.78,114.29Z"/></g><g id="Group_544" data-name="Group 544"><path id="Path_594" data-name="Path 594" class="cls-1" d="M42.11,78.14l-.14.14S42.06,78.18,42.11,78.14Z"/></g><g id="Group_545" data-name="Group 545"><path id="Path_595" data-name="Path 595" class="cls-1" d="M63.73,76c-.19,0-.24.1-.24.14S63.78,76.07,63.73,76Z"/></g><g id="Group_546" data-name="Group 546"><path id="Path_596" data-name="Path 596" class="cls-1" d="M67.71,76.7c-.1,0-.14,0-.24,0C67.57,76.75,67.66,76.75,67.71,76.7Z"/></g><g id="Group_547" data-name="Group 547"><path id="Path_597" data-name="Path 597" class="cls-1" d="M42.11,78.14c.14-.1.29-.24.43-.34-.1-.1-.14,0-.24,0A1,1,0,0,1,42.11,78.14Z"/></g><g id="Group_548" data-name="Group 548"><path id="Path_598" data-name="Path 598" class="cls-1" d="M39.13,110.55a.75.75,0,0,0,.29.38c0-.14-.1-.24-.14-.38Z"/></g><g id="Group_549" data-name="Group 549"><path id="Path_599" data-name="Path 599" class="cls-1" d="M42,87.92v.19c.1,0,.14.1.24.14Z"/></g><g id="Group_550" data-name="Group 550"><path id="Path_600" data-name="Path 600" class="cls-1" d="M42.11,95.88c0-.19-.53-.24-.77-.29a.47.47,0,0,1,.38.34A1.35,1.35,0,0,0,42.11,95.88Z"/></g><g id="Group_551" data-name="Group 551"><path id="Path_601" data-name="Path 601" class="cls-1" d="M41.15,108.44l.1.24A.37.37,0,0,1,41.15,108.44Z"/></g><g id="Group_552" data-name="Group 552"><path id="Path_602" data-name="Path 602" class="cls-1" d="M42.11,82.26a.25.25,0,0,0,.19-.1A.36.36,0,0,0,42.11,82.26Z"/></g><g id="Group_553" data-name="Group 553"><path id="Path_603" data-name="Path 603" class="cls-1" d="M55.53,117.31v-.1S55.48,117.31,55.53,117.31Z"/></g><g id="Group_554" data-name="Group 554"><path id="Path_604" data-name="Path 604" class="cls-1" d="M46.33,114.62l.14,0c0-.1,0-.19,0-.29Z"/></g><g id="Group_555" data-name="Group 555"><path id="Path_605" data-name="Path 605" class="cls-1" d="M75,77.42h0C74.85,77.47,74.95,77.42,75,77.42Z"/></g><g id="Group_556" data-name="Group 556"><path id="Path_606" data-name="Path 606" class="cls-1" d="M136.8,80.53c.1-.14.19-.14.29-.1s.1,0,.14.1.1.14.14.19c.14.24.34.48.57-.1,0,0-.14,0-.24-.1a2.08,2.08,0,0,0-.34-.19.39.39,0,0,0-.54.13Z"/></g><g id="Group_557" data-name="Group 557"><path id="Path_607" data-name="Path 607" class="cls-1" d="M39.13,110.31a1.33,1.33,0,0,1,0-.43A1.06,1.06,0,0,0,39.13,110.31Z"/></g><g id="Group_558" data-name="Group 558"><path id="Path_608" data-name="Path 608" class="cls-1" d="M138,80.63h0l0-.1A.15.15,0,0,0,138,80.63Z"/></g><g id="Group_559" data-name="Group 559"><path id="Path_609" data-name="Path 609" class="cls-1" d="M92,77.08a.84.84,0,0,0-.19-.24S91.83,76.94,92,77.08Z"/></g><g id="Group_560" data-name="Group 560"><path id="Path_610" data-name="Path 610" class="cls-1" d="M79.36,76.31l.29.1A.35.35,0,0,0,79.36,76.31Z"/></g><g id="Group_561" data-name="Group 561"><path id="Path_611" data-name="Path 611" class="cls-1" d="M98.49,76.31a.79.79,0,0,0,.48,0,0,0,0,0,0,0,0h0A.46.46,0,0,1,98.49,76.31Z"/></g><g id="Group_562" data-name="Group 562"><path id="Path_612" data-name="Path 612" class="cls-1" d="M105.3,76.32s-.1-.1-.14-.1a.29.29,0,0,0-.19,0Z"/></g><g id="Group_563" data-name="Group 563"><path id="Path_613" data-name="Path 613" class="cls-1" d="M76.2,117.07a2.91,2.91,0,0,1-.34-.48C76,116.93,75,117.07,76.2,117.07Z"/></g><g id="Group_564" data-name="Group 564"><path id="Path_614" data-name="Path 614" class="cls-1" d="M39.42,110.5a.32.32,0,0,1-.29-.19.68.68,0,0,0,.1.29C39.33,110.55,39.37,110.55,39.42,110.5Z"/></g><g id="Group_565" data-name="Group 565"><path id="Path_615" data-name="Path 615" class="cls-1" d="M98.78,72l1.1.1A7.87,7.87,0,0,0,98.78,72Z"/></g><g id="Group_566" data-name="Group 566"><path id="Path_616" data-name="Path 616" class="cls-1" d="M125,117l-.24,0A.21.21,0,0,0,125,117Z"/></g><g id="Group_567" data-name="Group 567"><path id="Path_617" data-name="Path 617" class="cls-1" d="M103,72a1.69,1.69,0,0,0,.62.38l.14-.14Z"/></g><g id="Group_569" data-name="Group 569"><path id="Path_619" data-name="Path 619" class="cls-1" d="M68.76,117.84c1,0,.48-.67.72-1.1,1.25-.19.58.53,1,.86.77-.19,1.34-.81,1.92-.81,0,.1.14.14,0,.29.81-.58,2.4,0,3.36-.72,0,0,.1.14.14.19a1.8,1.8,0,0,1-.14-1c.48,0,.86-.43,1,0-.29,0-.29.19-.43.34l.48-.19c.43.67-.67.24-.67.72,1-.24,2.06-.77,2.78-.58.14.67-1.68.24-.72.81l-1.1-.24c.86,1-.67-.1.1,1,1.49.19,1.63-.34,3.12-.14.34-.38-.1-.53.24-.91,2.11-.67,1.63,1.63,3.16.77.38-.43.53-1.25,1.63-.81l-.38.72c1.44.1.81-1.06,2.3-.58-.29.29-1.1.24-.91.34,1,.58.67-.43,1.44-.43l.14.67c1.53-.1,3.16-.58,4.89-.67-.1.19-.38.38,0,.58a20.2,20.2,0,0,1,6.57.48l.76-.58a.21.21,0,0,1,.14.38c.81.19,0-.34.43-.58.43,0,.58.34.29.48,1.39-.48,4-1,5.47-.43l-.29.14c1.15.24,1.29-1.15,2.35-.62l-.19.1c2.49.24,5.27-.29,7.19.58.38-.81,2.49.38,2.64-.77,1.44.58,1,.77,3,1.15.53,0,.82-.72,1.49-.81v.58l.91-.62.48.72.62-.14c-.24,0-.53-.29-.48-.43,1-.29,2.4.43,2.4.72l2.3-.48c0,.24-.43.34-.72.48,1.25-.62.24.62,1.34,0-.14-.14.1-.34.1-.48a4.75,4.75,0,0,0,2.78.19l-.19.38h1a1.63,1.63,0,0,0,.48,0,6.87,6.87,0,0,0,2-.43,9.44,9.44,0,0,0,3.45-2.21c-.86.53-1.1-.19-.67-.72a2.75,2.75,0,0,0,.67.19c0-.62-.67.38-.38-.62.34-.34.53-.34.67-.19a.63.63,0,0,1,0,.72A11.52,11.52,0,0,0,140,113c.19,0,.14.34.29.53,0-.34.38-.67.77-1.2s.62-1.1.38-1.53l.19,0a3.65,3.65,0,0,0,.14-1,6.11,6.11,0,0,0,0-.91,6.61,6.61,0,0,0-.1-1.06c0-.67-.1-1.25-.14-2.06-.53,0-.43-.62-.86-1.1a18,18,0,0,0,.53-3.79c-.29-1-.48-.29-.77-.72.48,0,.43-1.44.82-.72a25.23,25.23,0,0,0-.48-4.22c-.19.24-.29.48-.48.34-.1-.38.19-.86.43-.82l0,.1c-.72-2.35,1.44-5.42.43-7.34l0,.1-.53-2c.1-.91.38.53.67-.14-.82-2.11.1-3.31-.43-5a1.44,1.44,0,0,0,.38-.77,2.81,2.81,0,0,0,0-1.1,6.17,6.17,0,0,0-.91-2.4,10.06,10.06,0,0,0-1.73-2c-.62-.59-1.24-1.07-1.72-1.6V73c-.72,0-.62-.53-1.1-.77,0,.29.57.53.14.57a9.79,9.79,0,0,0-2.06-.38h-1.73c-1,0-2-.1-3.07-.24-2.06-.19-4.12-.53-6.14-.67-1.49-.1-.86,1.77-2.73,1l.53-.62c-3,.77-6.14,0-9.06.62.19-.14.19-.34.48-.34-.62-.48-2.3,0-2.3.34-.48,0-.1-.34-.38-.53-.62-.29-1.53.57-1.87.14,0-.1.19-.14.29-.19-.38.24-1.87,0-1.49.48-1.1-.24-2.11.24-3-.1-.57.57-1.87-.29-2.06.57.1-.86-1.92-.72-2.64-.29.24-.24-.62-.29-.34-.62-.81,0-1.53.19-1.39.62-1.44-1-2.92.82-3.74-.47-2.35.48-4.55.77-6.66,1,.1-.86,2.35-.1,2.25-1-2,.34-3.16,1.1-5.18.91-.53-.1.29-.38.48-.53-2,.34-3.88-.1-5.66.38,0-.1.19-.19.38-.24-.34,0-.81-.14-.77.29l.34-.1c.58.57-1.39,1.2-1.44,1.49.62-1-1.77-.19-.81-1.63-.24.1-.53.24-.48.53-.34,0-.43-.19-.1-.53-1.25.19-.81.62-2,.62,0-.19.24-.29.34-.48a2.71,2.71,0,0,1-2.11.57c.1-.1,0-.24.24-.24-1.68,0-2.83,1-4.65.62.53-.81-.62-.29-.72-1l-1,.19.38.34c-.86,0-1.63.53-2.35.29l.62-.29L63,73.39l.91.29c-.86.38.1.91-1.06.72.24-.1-.86,0-1.3-.43h0a1.74,1.74,0,0,1-1.49.29c-.14-.24.14-.82,0-1-.43.57-2,.14-2.54.81a.65.65,0,0,0,.14-.62L57.4,74c-.38-.14-.43-.24-.38-.53-1.2-.1.38.91-1.06.53.1,0,0-.1.29-.19-1.44-.19-2.73.29-4.07,0-.38-.72,1.15-.19.72-.77-1.87.14-3.88.86-5.75.67l.34.1c-.14.53-.48.38-.91.19a1.67,1.67,0,0,0-1.58-.1c.24-.1.24-.62.19-.48A5.39,5.39,0,0,0,41.1,76.6l0-.38a3,3,0,0,0-1,1.25A8.3,8.3,0,0,0,39.42,79c.19.34.1.86.53.57a2.54,2.54,0,0,0-.29.48,2.34,2.34,0,0,0-.19.53,2.79,2.79,0,0,0-.14.91,10.57,10.57,0,0,0,.19,1.73,4.38,4.38,0,0,1-.14,3.31c0-.24-.24-.62-.24-.43L39.37,88c.43-.14.29-.24.62-.62a1.94,1.94,0,0,1,.48,1.2c-.29-.81-.72,0-1,.38.14,0,.29.1.43,0-.77,1,.91.14.38,1.49l-.24,0a5.22,5.22,0,0,1,.38,1.49c-.53.24-.24-.53-.67-.58,0,.77,1,1.49.48,2.16-.14-.34-.14-.77-.29-1.1-.62.72-.43.82-.53,1.39v0L39.18,95l.14-.34c1.34,1,.24,1.92,1.1,3.16-.81-1.25-.48-.19-1.05-.29-.14.34-.34.82-.53.67.48.58-.38,1,.34,1.82-.19,0,0,.62-.48.53.14.77.34-.19.57-.1.62,1.2-.77,2.83.1,4.55.38,1.49,1,1.77,1.29,3.12-.29.48-.67-.38-.67-.38a2.84,2.84,0,0,0-.2,1V109c0,.1,0,.19,0,.29a2.7,2.7,0,0,0,.19.57c-.19-.14-.29,0-.48.34,0,.34.29.38.43.48s.29.24.29.67a2.07,2.07,0,0,1-.91-.39A6.85,6.85,0,0,0,41,112.85c0,.19-.24.14-.43,0s-.43-.29-.57-.34a9.24,9.24,0,0,0,1.2,1.15,2.7,2.7,0,0,0,.62.34.67.67,0,0,0,.53,0c-.1-.14-.19-.34-.29-.48.24.19-.19.43-.43.34a.68.68,0,0,1-.48-1.1c.14.1.29.24.43.34.24-.58-.1-.91-.53-1.34a3.19,3.19,0,0,1-1-1.53,5.8,5.8,0,0,0,.86.24,5,5,0,0,1-.82-.91c.19-.24.62-.38.77,0a.59.59,0,0,0,0-.62.46.46,0,0,1,.1-.58s.1,0,.14,0l-.24-.67c.14.14.58-.1.43.29.48-1.25-.58-2,0-2.49l0,.1c-.29-1.73-.58-.15-1.3-1.49l1.44-.86-.58-.19c0-.19,0-.53.29-.48-.38-.67-.24.1-.62-.29.53-.86-.24-2.35.67-2.54-.43-.29-.34.82-.67-.1,1-.24-.19-1.06.29-1.82.53.24.24,1,.72.19-.86-.48.19-1.53,0-2.21-.72,0-.29-1.43-.52-2.54.34.1.48-2.06.72-3.12l.1,0c-.72-.19-.58-1.25-.72-2.06a.82.82,0,0,1,.77.58v-.72a1.23,1.23,0,0,1-.43-.86l.53.19c0-1-.62-2-.29-3.21-.48,0-1.39,1-1.68-.34.29,0,.72-.1.82.24,0-.1-.24-.38-.1-.62l.43.53c.19-.57-.38-.29-.34-.77.38,0,.29-.34.58-.29,0,.1-.14.38,0,.57a2.06,2.06,0,0,1,.58-1.34.44.44,0,0,1-.58-.38c0-1,.48-.34.67-.91-.1,0-.1-.29-.1-.43a.34.34,0,0,0-.38-.29h0c0-.24.29-.24.48-.29a2.47,2.47,0,0,1,.05-1c.1-.34.1-.62-.24-.57l-.1.1v-.1h0a2.4,2.4,0,0,1,1.35-1.78c.67-.38,1.39-.53,2-.82l0,.19c.19-.1.38-.14.62-.24a3.24,3.24,0,0,1,.67-.1,3.68,3.68,0,0,0,1.34-.34c.29,0,.67.34.57.58a2.83,2.83,0,0,1,1.92,0c-.77.34.24.29-.77.24,1,.14,1.2.48,2.25,0-.34.48.72.62,1.2.48l-.67-.34a7.21,7.21,0,0,1,1.44,0l-.24.62c2,.77,3.6-1.34,5.08,0,.53-.43-1.06-.34-.62-.82.77,0,1.73,1,2,1,1.25.34,1.15-.91,2.49-.67-.14-.24-.34-.82.67-1.05.91.1,1.1,1,.53,1.15-.24,0-.34,0-.34-.14-.29,0-.67.14-.29.38l.1-.24c.43.24,1.73.19,1.44.57.67-.24.29-.38-.24-.48,1.15.34,1.82,0,3,.24-.19-.14-.38-.38-.19-.38,1.77.29.77-.43,2-.53.67.34-.24.82,1,.53.72.24.14.62-.14.77,1.1-.43,2.06.29,2.69.38l-.58.19a3.11,3.11,0,0,1,.91-.1l-.34-.43c.34.1.62.1.62.29.34-.29-.29-.77.43-1.15.43.24,1.39-.24,1.53.34-1.44-.19.14.62-1.06.72a1.74,1.74,0,0,1,.86,0s0,.14-.14.14c1.34.53.62-.67,2.06-.67-.19.34.34.62.58.57-.58,0-.29-.57.24-.82.91.29,1-.19,1.44-.14l-.53-.14c.19-.34.62-.29,1.25-.38,0,.29-.58.19-.34.29.72-.58,1.58.62,2.54.24.43.24,0,.62.43.82,1.1-.43,1.2.48,2.35.1-.34-.48-.38-.34.43-.82l-1.92.34,1.2-.67c-.58,0-1.2.29-1.53.19.58-.38.53-.24.24-.62.77.67,1.53-.38,2.44,0l0,1.15c1.34.53,2.4-.57,4.17-.29l-.58-.19c.24-.43,1.1,0,1.68-.24,0,.38.29.53.53.77,0-.29,1.29,0,1.44-.72l.77.48c1.44.19,1.63-1.1,3-1-.43.43.19.67-.72,1,.48,0,.86.1.86-.19.29.24,1.25-.53,1.68-.14.19-.14.24-.58.77-.53a.23.23,0,0,1,0,.19c0-.19.81-.24.34-.67,1.39,1.2,3.93-.1,5.18.91,1-.14,2.21-.24,3.12-.29,0,.1,0,.19-.19.14,1.25.34.77-1.1,2.21-.67.72.62-.77.34-.29.57.19,1.25,1.73-.19,2.68.57l-.24.1c.72.43,1.77-.48,3-.38a.23.23,0,0,0,0,.19,8.08,8.08,0,0,1,3.5-1c-.34.48-.53.24-.29.77.53,0-.14-.82.86-.91.34.29,1.06.48,1.2,1l-1,0c.48.67,1.25,0,1.77.1l0,.29c1.49-.1,1.49-.86,3.12-.82l-.14-.24c.86-.77.72.43,1.58-.14l.29.77a19.07,19.07,0,0,1,3.07-.86,8.86,8.86,0,0,1-2.54,1.2c.57,0,2,0,2.25-.43a1.11,1.11,0,0,1-.77.14,4,4,0,0,1,2.77-.87c-.1.72.62.82,1.53.86.24,0,.43,0,.67,0h.14l.1,0c.1,0,.14,0,.24,0a.77.77,0,0,1,.57.62,1.89,1.89,0,0,1,1.73.86,5.47,5.47,0,0,1,.48.91c.1.34.19.62.29,1,.48-.38.53-.29.57-.1s.1.43.67.29c.1.43.1.62,0,.67l-.72,1.68c-.34.38-.24-.53-.53-.48-.1,1.2-.48.48-.82,1.3.43-.14.62.43.43,1.1l.53-1c.62,1.68-1,1.44-.38,3.12L136,86c.24.86,0,3.21.91,4-.14.14-.48.34-.53,0-.14,2.06,1,4.6.43,6.23l-.29-.14c.1.38.53.67.24,1.15-.1,0-.29-.14-.29,0a2.7,2.7,0,0,1,.34,1.53l-.34-.43c-.38,2,.77,3.12,1,4.8-.86,0-1.1,1.58-1.25,2.4l-.1,0a13.35,13.35,0,0,0,.34,3.16l.1.38,0,.19,0,.1.1.24c0,.1,0,.14,0,.24a2.15,2.15,0,0,1,0,1.1,10.78,10.78,0,0,0-1.73,1.15,4.07,4.07,0,0,1-1.06.43c-.1,0-.19,0-.29,0h-.24l-.24,0-.1,0s-.14,0-.19,0c.34.14,0,.67-.43.72-.53-.19-1.39.58-1.34-.19h.19c-.38-.77-1.44-.58-2.25-.58l-.15,1c-2.16-1.49-5.61.53-6.76-.77-.53.24-1.15.24-1.68.53l0-.53a20.77,20.77,0,0,0-3.93-.1l.38-.38c-1,0-1.25,1.58-2.16,1.58l-.29-.81c-1.73,0-3.5-.72-5.23,0,0-.1.1-.34.38-.38-.82,0-3.16-.53-2.88.58,0-.72-1.77,0-2.73.24l.14-.53c-.82.67-.82.86-1.92,1.06-.24,0-.24-.43.1-.29-.86-.29-.67.53-1.73.24l.38-.34c-.91,0-.81.14-1.34.53-.58.19-1.73-.14-1.82-.62a1.06,1.06,0,0,1-1.15.53c0-.19.14-.29.24-.34-1.49-.38-2.25.62-3.26.1a.34.34,0,0,0-.2-.33,10.28,10.28,0,0,1,2.06.1c0-.48-1-.58-.19-1.25-.77.38-2.11,1.2-3,1a.66.66,0,0,1-.14-.19l.1,0a.74.74,0,0,0-.58.1,2.17,2.17,0,0,0-.77-.14c-.1-.43-1.1-.24-1.58-.24,0,.53-.58.43,0,.91-.1,0,.1,0,.43-.1.1,0,.14,0,.19,0a0,0,0,0,1,0,0h0c.34,0,.72,0,1.2,0-.38.29-.77.53-1.29.19a9.29,9.29,0,0,1-.67.86c-.67-.77-1.92-1.15-2.11-1.63-1.49.29-3.45.19-4.36,1.2-.43.14-.48-.29-.62-.43.24-.1.53-.1.67-.24-.81.24-2.49.1-2.69.81-1.06-.34.58-.67-.86-.53l.19-.24c-2.83-1.15-4.6,1.82-7.77.34.24.1.34.14.38.24-3.55-.86-7.34.38-10.88-.62-1-.19-1.1.24-1.73.58l-.24-.58-1.06.67c-1.49.48-2.59-1.44-4.46-.48L54,114c-.67-.1-2.16.24-2-.24,0,0-.24.38-.48.19v-.29l-1.68.53c-1.3-.24.19-1.2-1.68-1.25-.72.1-2,.86-1.73,1.1.29,0,.72.19.77.48l-.62.14c-.1.91-.62,1.82,1,2.44l1.1-.53L49,117l-.91,0c.53.43.86,0,1.25-.19a.79.79,0,0,0,.48.48l1.06-.86c.14.34-.48.67.24.86.53-.38-.48-.77.34-1.06.53.38.38.72,1,.38.1.24,0,.38-.29.48.53-.29,1.44-.1,1.73-.58.53.48,1.87-.14,1.77.72a3.31,3.31,0,0,1,1.49-.72c-.91,1,1.87,0,1.63,1.15.67-.91,2.44-.38,3.64-.91,0,.1-.19.24-.29.19a3.63,3.63,0,0,1,1.3.53c.1-.77,1.15-.91,1.73-1.39.82.72-.53.86-.24,1.58,0-.62,1.44-.62,1.15-1.1.62.43.53.24.86.86.1-1,.58-.14,1.1-.72.91.48.24.86,1.25.58C69.68,117.5,68.76,117.84,68.76,117.84Zm24.07-1.63h0c-.19,0-.38,0-.48,0A2.2,2.2,0,0,0,92.83,116.21Zm2,0a5.18,5.18,0,0,0-.86,0c0-.19,0-.38.19-.38C94.08,115.92,94.56,116.06,94.85,116.21Zm-4.27-3.74c.34-.1.43,0,.48.14-.14,0-.34,0-.58,0l0,0A1,1,0,0,0,90.58,112.47Z"/></g><g id="Group_570" data-name="Group 570"><path id="Path_620" data-name="Path 620" class="cls-1" d="M90,113.19s0,0-.14,0,.14.1.19.14a.25.25,0,0,0,.1-.19Z"/></g><g id="Group_572" data-name="Group 572"><path id="Path_622" data-name="Path 622" class="cls-1" d="M122.75,117.26v-.14l-.19.1Z"/></g><g id="Group_573" data-name="Group 573"><path id="Path_623" data-name="Path 623" class="cls-1" d="M39.52,89s-.1,0-.14.14S39.47,89.07,39.52,89Z"/></g><g id="Group_574" data-name="Group 574"><path id="Path_624" data-name="Path 624" class="cls-1" d="M39.42,93.81l-.19.67C39.33,94.2,39.37,94,39.42,93.81Z"/></g><g id="Group_575" data-name="Group 575"><path id="Path_625" data-name="Path 625" class="cls-1" d="M39.13,97.51a.52.52,0,0,0,.24,0h0Z"/></g><g id="Group_576" data-name="Group 576"><path id="Path_626" data-name="Path 626" class="cls-1" d="M79.12,72.72a.18.18,0,0,0,.14,0C79.6,72.57,79.36,72.63,79.12,72.72Z"/></g><g id="Group_577" data-name="Group 577"><path id="Path_627" data-name="Path 627" class="cls-1" d="M61.62,74a2.93,2.93,0,0,1,.58-.24C61.86,73.68,61.62,73.63,61.62,74Z"/></g><g id="Group_579" data-name="Group 579"><path id="Path_629" data-name="Path 629" class="cls-1" d="M63,73.73a1.19,1.19,0,0,0-.81,0A4.62,4.62,0,0,0,63,73.73Z"/></g><g id="Group_580" data-name="Group 580"><path id="Path_630" data-name="Path 630" class="cls-1" d="M41.05,114.24l.14.19s0,0,.1,0Z"/></g><g id="Group_581" data-name="Group 581"><path id="Path_631" data-name="Path 631" class="cls-1" d="M41.29,114.38l.24.14C41.44,114.43,41.39,114.38,41.29,114.38Z"/></g><g id="Group_582" data-name="Group 582"><path id="Path_632" data-name="Path 632" class="cls-1" d="M42,114.72a2.24,2.24,0,0,1-.48-.24C41.68,114.62,41.82,114.77,42,114.72Z"/></g><g id="Group_583" data-name="Group 583"><path id="Path_633" data-name="Path 633" class="cls-1" d="M39.13,108.63l-.19,0S39,108.63,39.13,108.63Z"/></g><g id="Group_584" data-name="Group 584"><path id="Path_634" data-name="Path 634" class="cls-1" d="M39.09,107.14c0,.34-.43.91-.29,1.39l.14,0C38.65,108.34,39.42,107.48,39.09,107.14Z"/></g><g id="Group_585" data-name="Group 585"><path id="Path_635" data-name="Path 635" class="cls-1" d="M41.53,100.91l-.14,1.25c.19-.24.48-.53.53,0C42.54,100.67,41.44,102.59,41.53,100.91Z"/></g><g id="Group_586" data-name="Group 586"><path id="Path_636" data-name="Path 636" class="cls-1" d="M41.82,97.08c.1.67.29,0,.43,0C42.06,96.69,42,96.54,41.82,97.08Z"/></g><g id="Group_587" data-name="Group 587"><path id="Path_637" data-name="Path 637" class="cls-1" d="M48.68,76l0,.48C49.15,76.41,48.63,76.32,48.68,76Z"/></g><g id="Group_588" data-name="Group 588"><path id="Path_638" data-name="Path 638" class="cls-1" d="M54,73.49l-.53-.34-.24.48Z"/></g><g id="Group_589" data-name="Group 589"><path id="Path_639" data-name="Path 639" class="cls-1" d="M57.16,76.94,57,77l.86-.19Z"/></g><g id="Group_590" data-name="Group 590"><path id="Path_640" data-name="Path 640" class="cls-1" d="M104.05,76.79l-.14-.62C103.57,76.27,103.48,77,104.05,76.79Z"/></g><g id="Group_591" data-name="Group 591"><path id="Path_641" data-name="Path 641" class="cls-1" d="M124.33,76.17a.88.88,0,0,0,1.15.19C125,76.31,124.57,76.08,124.33,76.17Z"/></g><g id="Group_592" data-name="Group 592"><path id="Path_642" data-name="Path 642" class="cls-1" d="M128.12,112.37l.38-.19-.77.19Z"/></g></g></g></svg>