<svg id="Laag_1" data-name="Laag 1" xmlns="http://www.w3.org/2000/svg" viewBox="0 0 191.61 188.99"><defs><style>.cls-1{fill:#b2b2b2;}</style></defs><title>workum_1</title><g id="Group_270" data-name="Group 270"><g id="Group_217" data-name="Group 217"><path id="Path_234" data-name="Path 234" class="cls-1" d="M75.35,89a6.17,6.17,0,0,0-.1,1.2c-.1.38-.24.86-.48,1.58a.74.74,0,0,1,.1.29v0a2.16,2.16,0,0,1-.48.43v.81c.1.1.24.19.38.34a.43.43,0,0,0,0,.24c0,.19.1.58.1.67s0,.86-.19,2.25q-.07,1.22-.29,3.6a.81.81,0,0,1-.53.53,1.19,1.19,0,0,1,.34.91,4.47,4.47,0,0,1-.1.67,4.19,4.19,0,0,0-.14.67,7.61,7.61,0,0,0-.1,1.49,5.64,5.64,0,0,1-.24,1.49,2,2,0,0,1-.91.38c-.19,0-.53-.1-.72-.1s-.24.24-.43.24-.48-.14-.82-.48v-1.39a2.89,2.89,0,0,0,.38-.38v-.58a2.41,2.41,0,0,1,.34-.77c0-.14.1-.38.24-.72a1.13,1.13,0,0,1-.53-.53c-.1,0-.14.1-.14.24-.19-.24-.29-.34-.38-.34s-.72.24-.91.24-.38-.34-.53-.34-.34.14-.58.38a3.53,3.53,0,0,0-.48.53,3.88,3.88,0,0,0-.1,1s-.1.14-.34.34c0,.14.1.19.34.19a14.64,14.64,0,0,0-.43,2.44c-.29,0-.43,0-.48,0a1.52,1.52,0,0,1-.82.14,2.63,2.63,0,0,1-.82,0c-.29,0-.43-.38-.53-1a5.13,5.13,0,0,0-.43-1.49,1.48,1.48,0,0,0,0-.48,7.41,7.41,0,0,0-.43-2.11,6.84,6.84,0,0,1-.38-1.68,1.84,1.84,0,0,1,.24-.91c.1-.1.24-.19.38-.34s0-.24-.14-.24l-.38.14-2.15-10.7c.14-.48.48-.67,1.06-.67a1.55,1.55,0,0,1,1.15.34,13.6,13.6,0,0,1,.38,2.16,3.43,3.43,0,0,1-.43.62c0,.19,0,.48.29.48l.34-.1s.14.14.14.34a1,1,0,0,1-.43.67.52.52,0,0,0,.43.19s-.1.19-.34.38a2.83,2.83,0,0,0,.19.38.44.44,0,0,0,.19-.29,1.73,1.73,0,0,0,.29,1,.87.87,0,0,0,.77.53.76.76,0,0,0,.62-.43,5.48,5.48,0,0,1,.29-.67,4.94,4.94,0,0,1,2.3-1.25c0-.1-.34-.29-.34-.48s.24-.48.62-.72c0-.1,0-.19-.24-.19a.36.36,0,0,0-.29.14l0-.1a.66.66,0,0,1,.14-.19c0-.24-.14-.34-.38-.34s-.14,0-.14,0,0,0,0,0,0,0-.14,0-.53-.24-.53-.43a1.48,1.48,0,0,0-.43.58.81.81,0,0,1-.14-.48,3.76,3.76,0,0,1,.24-.67c0-.29,0-.62,0-1.15.1,0,.14,0,.19-.14s0-.19-.14-.24a1.12,1.12,0,0,0,.67-.34c.1.14.43.24,1.06.24.19,0,.14-.24.34-.24a1.24,1.24,0,0,1,.67.43c0,.86-.19,1.25-.53,1.25,0,.19.1.24.29.24a.37.37,0,0,0,.24-.1,4.86,4.86,0,0,1-.62.67.62.62,0,0,0,.48.19,2.09,2.09,0,0,0,.29-.34,2.25,2.25,0,0,1-.43.58c.34.24.67.43.67.82v0a7.52,7.52,0,0,0-.14.77.94.94,0,0,1,.38.19,2.5,2.5,0,0,0,.53,1.1c.34.53.62.77.86.77a.26.26,0,0,0,.24-.19V94c.14.14.24.19.29.19s0,0,0-.1a.78.78,0,0,0-.19-.43l.29.24c.1,0,.14-.1.14-.34.1.1.14.19.29.34l.29-.29c0-.1-.14-.19-.19-.29s.29-.19.29-.38-.43-.58-.43-.67.14-.58.14-.72h.14a1.13,1.13,0,0,0,.38-.1,2.83,2.83,0,0,0-.19-.38.5.5,0,0,1-.38.19v-.77a.77.77,0,0,1,.19-.48,1.63,1.63,0,0,1,0-.48c0-.24,0-.58,0-1,.1-.91-.1-1.25.48-1.63h.1c.24,0,.72-.1.91-.1s.29.14.38.43a1.66,1.66,0,0,1,.14.62C75.44,88.09,75.44,88.48,75.35,89Zm-9.88,5.94c-.14.14-.24.24-.34.24a.35.35,0,0,1-.29-.1.92.92,0,0,0-.14-.58.69.69,0,0,1-.29.48,4.08,4.08,0,0,1,.48.62,1,1,0,0,1,.72-.34A.44.44,0,0,0,65.47,94.95Zm-.62,4.6-.19,0-.14.29.14.1Zm.43-1.77s-.14.38-.24.38h.14a.37.37,0,0,0,.24-.1A.74.74,0,0,0,65.28,97.78Zm.38,3.84-.1-.1-.38.38.1.1Zm0,1.39a.88.88,0,0,1-.14-.72,1,1,0,0,0-.29.72Zm-.14-1.49V101h-.19v.48Zm1,1.44h-.53a1.14,1.14,0,0,0,.62.38.9.9,0,0,1-.1-.38Zm1.49-14.62v-.19h-.38v.19Zm1.1,2.59s0-.1,0-.19a.9.9,0,0,1-.38.1c0,.24.14.38.38.53,0-.05,0-.29,0-.43Zm2.16,13.71c-.1,0-.14.38-.14.38a1.62,1.62,0,0,1,.38-.14c-.1,0-.15-.24-.24-.24Zm1-1-.14,0-.14.24.14.1Zm0,.81-.14-.19-.14.14.19.19Zm.34-9.59-.29-.29-.15.14.29.29Zm-.1,8.44-.19,0-.14.29.14.1Zm.29-3.36-.1-.14-.38.24.1.14Zm.24,2.21-.19-.1-.14.29.14,0Zm.1-1.82-.14,0-.14.29.14.1Zm0,3.36,0-.14-.29.14v.14Zm0,.86L73,104.4l-.1.1.14.14Zm.1-7-.14-.14-.14.1.19.14Zm.24,2.25a.37.37,0,0,1-.14,0,.25.25,0,0,1-.19-.1.59.59,0,0,0,.14.43s.14-.19.38-.38Zm-.06-4.85a.41.41,0,0,1,.29.14,1.07,1.07,0,0,0,.14-.48s0-.1,0-.14S73.72,94.66,73.53,94.9Zm.24-1.77.29.29a.61.61,0,0,1,.29-.19Zm.43-1.63-.1-.14-.24.14v.14Zm.24.67-.24-.38-.19.1.29.38Z"/><path id="Path_235" data-name="Path 235" class="cls-1" d="M85.27,99.31q-.14,1.65-.14,2.44c0,.29,0,1,0,1.2a2,2,0,0,1-.43,1.49c-.48.53-.77.81-.81.91,0-.14.34-.53.34-.81v-.15a2.54,2.54,0,0,0-.43.53s-.1-.1-.24-.24c-.1.1-.24.14-.38.29.29.14.43.34.43.48-.38.1-.77.1-1,.48,0-.14-.14-.48-.14-.67a.66.66,0,0,1,.24-.43l.43-.29s-.19-.24-.48-.72a.25.25,0,0,0-.1.19,1.56,1.56,0,0,1,.14.48L82,104.3c.29,0,.67-.67.91-.67s.14,0,.24.1l.1-.38a.43.43,0,0,0-.24,0,.36.36,0,0,0-.34.19v-.34a1.63,1.63,0,0,1,.19-.77V90.59a.4.4,0,0,0-.34-.1.85.85,0,0,1,.19-.48,2.89,2.89,0,0,0-.53-.67l-.58-.43a1.48,1.48,0,0,0-.58-.29,1.77,1.77,0,0,0-1.49.86A2.84,2.84,0,0,0,79,91.16a9.09,9.09,0,0,0,.29,3c-.24.1-.34.34-.34.67s.1.86.1,1.06a10.23,10.23,0,0,0,0,1.06V98c0,.58,0,1.06,0,1.44a4.18,4.18,0,0,0-.24.91c0,.34,0,.81.1,1.49s.1,1.15.1,1.44a1.24,1.24,0,0,1-.19.48.43.43,0,0,1,0,.24.75.75,0,0,1-.29.67,1.57,1.57,0,0,0,.29.38,1.94,1.94,0,0,0,.13-.48,1,1,0,0,1,.29-.48l.29-.19.14.14v.43h-.1a.35.35,0,0,0-.34.29,1,1,0,0,0,.19.29,1,1,0,0,1,.24-.43,3,3,0,0,1,.24.53c.1.24.19.38.24.38s.58.14.72.14c0-.19.14-.43.24-.77h.14c.38,0,.62,0,.67-.14a4.52,4.52,0,0,1,.48.48v.1a.15.15,0,0,1,0,.1.18.18,0,0,1-.16.19h0c.1,0,0,0-.19-.1l-.1,0a2,2,0,0,0,.43.67,2.19,2.19,0,0,1-1.15.38c-1.1,0-1.82-.24-2.11-.67l-.24.24c-.38-.19-.58-.38-.58-.62s.19-.48.19-.58a.25.25,0,0,0-.1-.19l0,0s.1,0,.1-.14-.14-.34-.34-.43c.1-.14.1-.24.14-.29s.19.1.34.1l.1-.1a1.07,1.07,0,0,0-.1-.58l-.38-.14-.14.14a.77.77,0,0,0,.14.43l-.29-.24a1.93,1.93,0,0,1-.77.67.52.52,0,0,1-.1-.38.47.47,0,0,1,.14-.38,1.73,1.73,0,0,1-.24-.43.59.59,0,0,0,.19-.43c0-.38-.14-.58-.34-.62v-.24a1,1,0,0,0,.38-.29l-.14-.14a6.28,6.28,0,0,0,.62-.58.25.25,0,0,0-.19-.1.64.64,0,0,0-.38.14v0c0-.1,0-.19.1-.24-.1-.1-.48-.48-.48-.67a1.18,1.18,0,0,1,.38-.81,3.5,3.5,0,0,1,.48.43l.1,0s0-.1,0-.19-.24-.34-.62-.62v0l0-.19c0-.14-.1-.19-.19-.14h0a2.83,2.83,0,0,1,.19-.38q-.14-.22-.43-.58c.1,0,.24.1.34.1a.17.17,0,0,0,.1,0s-.1-.14-.14-.14,0,0,.1,0,.34-.14.38-.48c-.1.1-.14.19-.29.34h-.38v-.24c0-.19,0-.29.24-.34v0s0-.1.1-.19A1,1,0,0,1,77,96v-.48c-.1-.29-.19-.67-.38-1.2a3.15,3.15,0,0,1,.58-.58.59.59,0,0,0-.53-.34h.24a1.52,1.52,0,0,0,.1-.67c0-.34-.14-1.1-.14-1.39a1.13,1.13,0,0,1,.24-.77l-.1-.14.24-.43h0a3.88,3.88,0,0,1,.19-1.34,7.26,7.26,0,0,0,.67-.43v-.1c0-.53.34-.91,1.06-1.15a4.42,4.42,0,0,1,1.71-.33l.29.34c.14-.14.19-.24.19-.34.43.1,1.06.19,1.87.38.34.24.62.48.91.67a2.73,2.73,0,0,1,.72.86,8.35,8.35,0,0,1,.48,3.12c0,.29.1,1,.1,1.2s0,1,0,1.29,0,.72,0,1.34v1.34Q85.42,97.73,85.27,99.31Zm-7.48,3.4v-.19H77.5v.19Zm.14,2.49-.1.1-.29-.29.1-.14Zm.34-2.44h-.53a.15.15,0,0,0,0,.1.51.51,0,0,0,.1.29c0-.1.1-.14.29-.14s.34.1.43.1Zm-.1,0-.14-.34-.14,0,.14.29Zm0-1a.43.43,0,0,0-.14.34s.14,0,.43,0Zm1.68,3.79a1.7,1.7,0,0,0-.43-.53,1.28,1.28,0,0,1,.14.58c0,.1,0,.14,0,.19Zm.48.14-.1-.14-.28.15v.14Zm.24-.43v-.1a.37.37,0,0,0-.1-.24,1.53,1.53,0,0,1-.29.34,2,2,0,0,0,.19-.43.46.46,0,0,1,.43-.29.79.79,0,0,1-.23.73Zm.77-18-.19-.19-.1.14.14.19Zm.34,17.26-.14.1-.19-.19.14-.1Zm1.87-10.07-.19-.19-.1.14.14.19Zm.24.14-.19-.1-.14.34.19.1Zm.43-2a2.64,2.64,0,0,0-.34.43.66.66,0,0,1,.43-.24.13.13,0,0,1,.14.14c0,.1-.1.24-.1.34q0-.14.29-.14a3.5,3.5,0,0,0-.43-.53Zm.29-1.2L84.41,91c-.1.14-.24.29-.43.53Zm-.14-2.73a3.87,3.87,0,0,0-.29.62v0a.82.82,0,0,1,.43.48,2.05,2.05,0,0,1,.24-.62,1,1,0,0,1-.38-.52Zm.19,5.56-.14,0-.14.29.14.1Zm-.24-.81a1.28,1.28,0,0,1,.14.58.26.26,0,0,1,.29-.19Zm.43,1.44,0-.14-.29.14v.14Zm0-4.22V90.3H84.6v.43Z"/><path id="Path_236" data-name="Path 236" class="cls-1" d="M95.1,106.36a1.48,1.48,0,0,1-.43-.19.22.22,0,0,0-.24,0,1.22,1.22,0,0,1-.34.1q-.29,0-.57-.43a2.3,2.3,0,0,1-.24-.53c.1,0,.14-.1.14-.29a11.77,11.77,0,0,0-.34-1.44c0-.1.14-.19.24-.34l-.19-.14s-.14.29-.24.29a2.9,2.9,0,0,0,.19-1.06,5.92,5.92,0,0,0-.34-.91,10.49,10.49,0,0,1-.38-1.29A11.93,11.93,0,0,0,92,98.5c-.29-.67-.62-1-1.1-1-.19,0-.67.19-.86.19s0,.1,0,.29a1.14,1.14,0,0,0-.29.53,3,3,0,0,1,.14.72c0,.29-.19.48-.19.72a25.3,25.3,0,0,0,.24,3,.65.65,0,0,1,0,.43,2.85,2.85,0,0,0,0,.53,1.08,1.08,0,0,0,.43,1c0,.1-.1.19-.19.38a.83.83,0,0,0,0,.72,1.51,1.51,0,0,1-1.2.81,2.14,2.14,0,0,1-1.2-.43q-.14-.07-.29-.72c0-.1-.14-.19-.24-.34s.1-.24.19-.43c0-.38-.1-1.49-.14-3.4l-.14-.14a1.83,1.83,0,0,0,.19-.81c0-.72,0-1.77,0-3.21V93.89c0-.86,0-1.68-.1-2.49,0-.53,0-1.25-.1-2.3-.14-.19-.19-.29-.19-.38,0-1.06.34-1.58,1.06-1.58.19,0,.38.1.53.1s.34-.34.53-.34a4,4,0,0,1,.86.19l.86.14c.19,0,.53-.34.77-.34s.34.29.34.29a9.15,9.15,0,0,1,1,.1c.24.1.53.19,1,.34a4.9,4.9,0,0,0,.86.86c.14.29.43.86.91,1.68-.1-.1-.14-.1-.19,0a2.88,2.88,0,0,0-.1,1,1,1,0,0,1,.14.24,14.47,14.47,0,0,1-.14,2.88,7.65,7.65,0,0,1-1.06,2.4,1.05,1.05,0,0,0-.29.24q.07.36.86,3a3,3,0,0,0,.1.86,4.17,4.17,0,0,1,.19,1c.82,2.21,1.25,3.31,1.25,3.31a1.21,1.21,0,0,1-1.18,1.23ZM93.18,92.84a3.87,3.87,0,0,1,.14-.91c-.14-.19-.19-.34-.14-.38s.24-.24.14-.48a6.79,6.79,0,0,1-.38-.86c-.24-.43-.43-.62-.67-.62s0,.14-.24.14-.1-.34-.57-.34a5,5,0,0,0-1.44.34,1.47,1.47,0,0,0-.62,1,8.2,8.2,0,0,0-.14,1.92,7,7,0,0,0,.34,1.87c.1.14.24.34.43.62a3.53,3.53,0,0,0,1.29.29,2,2,0,0,0,1.1-.48c.1-.1.48-.43,1.1-1.06A2.11,2.11,0,0,1,93.18,92.84Zm.43,10.31-.14,0-.14.29.19,0ZM94,103v-.28h-.2v.29Z"/><path id="Path_237" data-name="Path 237" class="cls-1" d="M104.3,93a.71.71,0,0,1,0,.34,4,4,0,0,0-.72,2.11c0,.19.34.67.38.81,0-.14,0,.1,0,.67a.34.34,0,0,0,.3.38h0a.51.51,0,0,0,0,.38,2.45,2.45,0,0,1,0,.43c0,.14.1.19.34.19,0,0-.1.14-.24.29.1.43.14,1,.34,1s.34,0,.34.14-.43.43-.43.62.1.24.34.14l-.24.29q0,.14.43.29l-.34.34a8,8,0,0,1,.72,1.49,9.55,9.55,0,0,1,.19,1.39,4.45,4.45,0,0,0,.34.91,3.24,3.24,0,0,1,.38,1c-.19,0-.24.1-.1.19a2.86,2.86,0,0,1-1.44-.19c-.19.19-.29.24-.29.19s0-.19-.24-.19-.29.24-.48.24-.19-.19-.14-.48a1.56,1.56,0,0,1-.48-1.15,3,3,0,0,1,.24-1c-.14-.14-.19-.19-.29-.19s-.29-.34-.38-.48q.14-.22.43-.58a2.3,2.3,0,0,1-.53-.24c0-.34-.34-.58-.53-.86a5.71,5.71,0,0,0-.48-.81l-.29.24-.34-.34a3.82,3.82,0,0,1-.38.29s.1.1.14.1a2.5,2.5,0,0,0-.72,1V103a8.79,8.79,0,0,1,.24,1c-.1.1-.14.19-.29.34a7.39,7.39,0,0,0,.1,2s-.19.1-.43.24a1.2,1.2,0,0,1-.53.24H97.64a1.79,1.79,0,0,1-.24-.67c0-.48.14-1.63.34-3.5,0-.14.19-.29.53-.58l0-.91a.69.69,0,0,0-.1.34,11.17,11.17,0,0,1-.28-1.78c0-.86.1-1.34.34-1.34s.34-.29.34-.77a.9.9,0,0,0-.48-.67,7.44,7.44,0,0,1,0-1.1s-.14-.1-.14-.29,0-.67.14-1.44c0-.29.14-.48.29-.53-.24-.14-.34-.38-.34-.86v-1.1a15.49,15.49,0,0,1-.14-2.3,6.89,6.89,0,0,1,.19-1.92,1.12,1.12,0,0,1,1.15-.58c1.1,0,1.68.34,1.68,1a5,5,0,0,1-.14,1.1c-.29,1.1-.38,1.63-.38,1.58a1.67,1.67,0,0,0,.29.67c.19.34.34.48.38.48s.34.24.53.24a1.18,1.18,0,0,0,.72-.43,2.41,2.41,0,0,0,.48-.62,3.06,3.06,0,0,0,.1-.43c.29-.72.67-1.73,1.29-3.12a3.75,3.75,0,0,1,1.25-.29,4.72,4.72,0,0,1,1.58.48C106.85,87.76,105.94,89.63,104.3,93ZM99,101.37a3.79,3.79,0,0,1-.38.62H99a.59.59,0,0,1,.19-.38.25.25,0,0,0,.35.07l0,0a1.66,1.66,0,0,0-.62-.29Zm0-8.29,0-.19L98.6,93v.14Zm0,8.2-.19-.19-.1.1.14.19Zm1-.53v-.19H99.6v.19Zm0,4.41-.19-.19-.1.14.14.14Z"/><path id="Path_238" data-name="Path 238" class="cls-1" d="M117.2,97.78a.9.9,0,0,0-.43.91,2.66,2.66,0,0,0,.14.72,4.31,4.31,0,0,1,.14.58c0,.1-.19.48-.19.58a1.48,1.48,0,0,1,0,.48,6.69,6.69,0,0,1-.14,1.15,5.32,5.32,0,0,0-.1,1.1c0,.1,0,.29,0,.34v0a11.45,11.45,0,0,1-.67,1.49,3.64,3.64,0,0,1-1,1,2.28,2.28,0,0,1-1.25.48c-.19,0-.14-.14-.29-.14s-.67.43-.86.43h-1c-.19,0-.48-.53-.57-.53s-.14,0-.14,0v0s0,0-.1,0c-.24,0-.57-.24-1-.67s-.82-.86-.86-.91a6.13,6.13,0,0,0-.38-1.15,4,4,0,0,1-.19-1.29c0-.14-.1-.19-.34-.19V92.74c0-.24.14-.19.19-.24V92c0-1.1,0-2.68.1-4.7.19-.34.57-.48,1.2-.48a2.32,2.32,0,0,1,1.29.34,2.81,2.81,0,0,0,.38,1c0,.1-.14.24-.43.38v.82c0,.24,0,.43,0,.67h0c-.1,0-.14.1-.14.19,0,.43.14,1.44.14,1.87a2.75,2.75,0,0,0,.19.34,1.71,1.71,0,0,0-.19.91,2.36,2.36,0,0,0,.19.86,2.36,2.36,0,0,1,.19.81s-.1,1.44-.19,4.22c0,.72,0,1.77-.14,3.21a1,1,0,0,0-.14.43c0,.19.14.14.14.24a.61.61,0,0,0,0,.29.87.87,0,0,0,.43.86s-.1.14-.34.34a2.83,2.83,0,0,0,.19.38l.86-.43a.81.81,0,0,1-.1.24V105a.94.94,0,0,0-.34,0c-.1,0-.14,0-.19,0,.29.29.82.29,1.1.72.24-.24.34-.38.29-.53a.43.43,0,0,0,.24,0,.64.64,0,0,0,.38-.14l-.19,0v-.38l.29-.14c0,.1,0,.19-.1.29l0,.14a2.71,2.71,0,0,1,.67-.43,1.31,1.31,0,0,0-.19-.24l-.29.24c-.1-.14-.14-.19-.14-.24a2.5,2.5,0,0,0,.91-2.11s0-.67-.19-1.92c-.1-.86-.19-2.11-.29-3.84v-.14c0-.43.1-1.34.1-1.68,0,0-.14-.1-.14-.29s.24-.1.24-.24-.24-1-.24-1.25a3.52,3.52,0,0,1,.48-2c-.14-.14-.24-.19-.34-.19V88.09a2.35,2.35,0,0,1,.19-.48c.14-.24.24-.38.29-.38A5,5,0,0,1,115.9,87a.94.94,0,0,1,.82.48c0,.1,0,1.34.14,3.88,0,.48.1,1.44.19,2.88l0,0c0,.14-.19.43-.19.53v0a1.67,1.67,0,0,1,.29.43v2.45Zm-6.61,5.47-.29-.14-.1.14.29.14Zm2.88,2-.14.29.19,0,.14-.29Zm1.92-12v-.19h-.29v.19Z"/><path id="Path_239" data-name="Path 239" class="cls-1" d="M131.68,91c0,.24-.43.67-.43.91a1.24,1.24,0,0,0,.19.48,1.34,1.34,0,0,0-.29,0,1.36,1.36,0,0,0-.57.19h0s0,0,.1-.1-.14-.1-.34-.24a.77.77,0,0,0-.38-.14c-.1,0-.14,0-.24.14l-.24-.24a2.17,2.17,0,0,0-.1.38,1.6,1.6,0,0,1,.14.29.37.37,0,0,1-.24-.1c-.19.19-.19.58-.57.81a3.12,3.12,0,0,0,.24.72c0,.1-.24.19-.53.34a.29.29,0,0,1,0,.19,2,2,0,0,0,0,.43.44.44,0,0,0,0,.38h-.1a2.88,2.88,0,0,0,.62,1.2c-.14.1-.38.19-.62.34v.1s0,.1.1.14a.66.66,0,0,0,.14-.19h.43l0,.14a.25.25,0,0,0,.1.19,2,2,0,0,0,.53-.29v.38c-.19,0-.34,0-.38.14s-.29.29-.34.29.19.14.34.29a.52.52,0,0,1-.19.43,1.07,1.07,0,0,0-.62-.43s0,0-.19.19a1.43,1.43,0,0,0,.53.34h-.14c-.1,0-.24,0-.53.1,0,.14-.29.29-.67.53l-.24-.14s0,0,0,.1,0,.24,0,.34c0,.43-.43.58-.72.72a.82.82,0,0,0,.43.29,4.21,4.21,0,0,0-.29.48,1,1,0,0,0-.57.24l.14.14-.19-.14s-.1.1-.1.14a1.4,1.4,0,0,0,.1.43s0,0-.1,0,0,.1-.19.24a1.62,1.62,0,0,1,.53.67c-.34.1-.48.38-.48.91s-.14.77-.34.81c0-.1,0-.19,0-.34a.64.64,0,0,1,.14-.48v-.14c0-.1,0-.1-.19-.1s-.24.1-.24.1l0-.1.14-.14a2.1,2.1,0,0,1-.43-.24,2.87,2.87,0,0,0,.29-.34.5.5,0,0,0,.19-.38.36.36,0,0,0,0-.24c-.1,0-.14.1-.14.34,0-.1-.1-.14-.24-.19l-.19-.1s0-.1,0-.19v-.24a.36.36,0,0,1,0-.19c-.19,0-.24.24-.34.24s.1-.14.19-.29a.18.18,0,0,0-.16-.19h0l-.1,0c0-.38,0-.48,0-.43,0-.43.19-.67.53-.72l-.1-.43c-.14.29-.34.43-.53.43a.43.43,0,0,0-.34-.14,3.92,3.92,0,0,1,0-.67c0-.1-.38-.1-.34-.38-.19,0-.62-.1-.82-.1s-.48.19-.72.53a1.54,1.54,0,0,0-.38.91l-.1-.29s-.14-.1-.29-.19-.1.1-.1.14v.29a.36.36,0,0,0,0,.19.43.43,0,0,0-.24-.38c-.1,0-.1.1-.14.24a.7.7,0,0,1,0,.29h-.1a1.92,1.92,0,0,0-.72.14,4.68,4.68,0,0,1-.53-.67,40.85,40.85,0,0,1-.14-4.94,14.2,14.2,0,0,0-.14-2.3c0-.1.24-.43.24-.62a11.85,11.85,0,0,0-.24-1.82,11.07,11.07,0,0,1-.19-1.82c0-.29.1-.82.1-1.06a3.91,3.91,0,0,0,.82-.48c0,.19,0,.24,1.2.24h.53c.19.67.48,1.68.82,3a32,32,0,0,1,1.1,3.07c.1.19.29.62.67,1.29a8.94,8.94,0,0,0,.48.77,1,1,0,0,0,.82.34c.48,0,.91-.58,1.29-1.77v0c0-.1,0-.14-.14-.24a7.92,7.92,0,0,0,.62-1.29c.14-.24.34-.62.57-1.1a2,2,0,0,0,.29-1c.1-.14.53-.14.57-.24a3.3,3.3,0,0,1-.62-.29A1.07,1.07,0,0,0,128,89c.1,0,.19,0,.29-.14a2.56,2.56,0,0,0,.48.34v0a2.09,2.09,0,0,0-.24-.62v-.72a.18.18,0,0,0,.14,0,1.4,1.4,0,0,0,.43-.1c0-.1,0-.14-.14-.14a.81.81,0,0,1-.1-.24v-.24c.1,0,.43-.24,1-.58,0,.1.14.19.24.34l.24-.19.72.38a.26.26,0,0,1,.19.29,1.15,1.15,0,0,1-.43.77c.1,0,.14.14.24.34v.1c0,.19.14.62.14.82a1.82,1.82,0,0,1-.29,1.06v.29a2.6,2.6,0,0,0,.53.29h.32ZM122,106.41c-.34,0-1.15.24-1.44.24a1.77,1.77,0,0,1-.91-.34c-.1-.91-.14-1.39-.14-1.53a9.67,9.67,0,0,1,.14-1.39c.19-1.25,0-1.92.43-1.87a.36.36,0,0,0-.19-.1,3.08,3.08,0,0,1,.43-.53.41.41,0,0,0,.29.14c-.14.19-.24.43-.43.77,0,.1.19.14.34.29,0-.1.14-.24.14-.34a.15.15,0,0,0,0-.1l-.14-.14a.75.75,0,0,1,.57.29c.1-.24.53-.58.57-.67-.14-.14-.29-.29-.29-.38s.29-.14.29-.24a2.07,2.07,0,0,1,0-.24,4.06,4.06,0,0,0,.29.81,3.8,3.8,0,0,1,.24.72c0,.19-.14.38-.43.62.24.14.34.24.34.34s-.1.19-.19.34a2.1,2.1,0,0,1,.43.24.75.75,0,0,0-.29.38,4.43,4.43,0,0,1-.24.43,2.06,2.06,0,0,1,.53,1.44A4.34,4.34,0,0,1,122,106.41Zm-1-16.54v-.29h-.19v.29Zm.29,7.62V97h-.19v.48Zm.19-.29v.48c.19,0,.34,0,.38.14a1.83,1.83,0,0,0-.38-.62Zm.48-2.78a2.41,2.41,0,0,0-.24.62.54.54,0,0,1,.38-.14,1.41,1.41,0,0,1-.14-.48Zm.86,2.54c-.1.14-.19.29-.38.53a.83.83,0,0,0,.62-.24Zm2.35,4a2.09,2.09,0,0,0-.43-.62,1.44,1.44,0,0,0,.19.38,1.63,1.63,0,0,0-.29.29Zm1.2-1.25-.29-.14,0,.14.29.14Zm.29,1.1v-.18h-.48v.19Zm.14-1.82c0,.14.24.43.19.62a2.37,2.37,0,0,0,.14-.72.4.4,0,0,0-.34.1Zm1.2-2.16v-.29h-.19v.29Zm.19-1a1.51,1.51,0,0,0-.19.58c0-.14.14-.19.34-.19a.54.54,0,0,0-.15-.38Zm.29-2.3-.1-.14-.24.14v.14Zm0-1.77-.14,0-.14.29.14.1Zm.14,5.8v-.19h-.29v.19Zm.24-5.18-.14,0-.14.29.19.1Zm3.16,12c0,1.15-.24,1.68-.62,1.68h-.82c-1.05,0-1.29-.48-1.29-1.53a3,3,0,0,1,0-.62,1.83,1.83,0,0,1,.29-.24c0-.1-.14-.14-.34-.14a1.19,1.19,0,0,0,0-.38c0-.24,0-.34-.19-.38a1.06,1.06,0,0,1,.43-.77.19.19,0,0,0-.19-.1v-.38l.43-.43c0-.14-.14-.29-.43-.38V99.65a1,1,0,0,1,.48.1s.1,0,.1-.14a.43.43,0,0,0-.43-.1,4,4,0,0,0-.1-.62,1.27,1.27,0,0,0-.29.24,2.09,2.09,0,0,0-.34-.29s.19,0,.29,0a1,1,0,0,1,.72-.29c0,.14-.1.24-.24.38a2.22,2.22,0,0,0,.48.48q.29-.29.29-.43a.26.26,0,0,0-.14-.24c.19-.14.43-.34.72-.53a4.64,4.64,0,0,0-.43-.34h.19a.29.29,0,0,1,.19,0s0,.14.19.29a1.7,1.7,0,0,1,.19-.43.81.81,0,0,1-.1.24s.1.1.14.1.24-.1.29-.1a.62.62,0,0,1-.19.48,3.7,3.7,0,0,0,.29.72.61.61,0,0,1-.48.53c-.19,0-.14.24-.29.24s-.24,0-.24.1v0l.19.19c.19,0,.29-.1.29-.34a.9.9,0,0,1,.48.91,1.6,1.6,0,0,1-.14.72,3.54,3.54,0,0,1,.24.91,6.06,6.06,0,0,0,.19.91c-.1.1-.1.24-.1.48v.48Zm-2.54-5.9V98.3a.43.43,0,0,0-.14-.34,1.74,1.74,0,0,1,.38.43c-.1.15-.15.2-.24.2Zm0-7.91V90.3h-.19v.38Zm.48-1.2v-.19l-.62-.1v.19ZM130.3,103v-.18h-.62v.19Zm-.48.29s.14.19.38.43a1,1,0,0,1,.29-.19,3.76,3.76,0,0,1-.67-.23Zm1.73-6.23c0-.1,0-.14-.14-.24a1.6,1.6,0,0,0-.14.29,2.75,2.75,0,0,1,.34.19s-.14.19-.34.38h-.62c0-.1.1-.14.1-.24s-.34-.38-.34-.67a.29.29,0,0,1,0-.19v-.19c0-.1,0-.19,0-.29a.64.64,0,0,0,.29-.24s-.14-.14-.43-.43c.24-.1.43-.24.67-.34,0,0,0-.1-.1-.14a2.7,2.7,0,0,1-.57.19c.29-.1.43-.29.43-.72a1,1,0,0,0-.24-.72c.1,0,.14,0,.29.19.14-.14.19-.24.19-.34s-.14-.29-.14-.34.24-.19.24-.24-.1,0-.14,0-.24,0-.29,0a2.68,2.68,0,0,1-.24-.38c.1,0,.34.1.43.1s.1,0,0-.19,0,0,.14,0a1.14,1.14,0,0,1,.57.14s-.1.14-.29.34c0,.1.14.1.29.1a1.64,1.64,0,0,0-.1.72,3,3,0,0,0,.29,1.39,7.88,7.88,0,0,0-.19,1.92Zm-1,4-.14-.34-.14.1.14.24Zm0-.29v.53a.41.41,0,0,1,.29.14,1.16,1.16,0,0,0,.19-.62c0-.1,0-.14,0-.24a1.88,1.88,0,0,1-.43.2Zm.57-6.57L131,94l-.1.14.14.14Z"/></g><g id="Group_269" data-name="Group 269"><g id="Group_218" data-name="Group 218"><path id="Path_240" data-name="Path 240" class="cls-1" d="M60.91,117.63a.31.31,0,0,0-.34-.48c-.1.19-.24.43-.34.62Z"/></g><g id="Group_219" data-name="Group 219"><path id="Path_241" data-name="Path 241" class="cls-1" d="M58.57,115.95a2.77,2.77,0,0,0-.81.29.8.8,0,0,0-.48.67,5.59,5.59,0,0,1,.72-.19,1.31,1.31,0,0,0,.72-.34.5.5,0,0,1,.48.62.57.57,0,0,1,.38,0,.4.4,0,0,0,.48-.14,1.62,1.62,0,0,0-1.73-.57C58.33,116.14,58.52,116,58.57,115.95Z"/></g><g id="Group_220" data-name="Group 220"><path id="Path_242" data-name="Path 242" class="cls-1" d="M56.08,82.58l-.1.24A.81.81,0,0,0,56.08,82.58Z"/></g><g id="Group_221" data-name="Group 221"><path id="Path_243" data-name="Path 243" class="cls-1" d="M72.9,77.59a.24.24,0,0,0-.24.14C72.81,77.69,72.95,77.64,72.9,77.59Z"/></g><g id="Group_222" data-name="Group 222"><path id="Path_244" data-name="Path 244" class="cls-1" d="M76.59,78.26c-.1,0-.14,0-.24,0C76.45,78.32,76.55,78.32,76.59,78.26Z"/></g><g id="Group_223" data-name="Group 223"><path id="Path_245" data-name="Path 245" class="cls-1" d="M56.07,82.58c0-.19.14-.38.19-.58C56.07,82,56.12,82.29,56.07,82.58Z"/></g><g id="Group_224" data-name="Group 224"><path id="Path_246" data-name="Path 246" class="cls-1" d="M53.91,112.93a2.08,2.08,0,0,0,.29.34,2.09,2.09,0,0,1-.19-.34Z"/></g><g id="Group_225" data-name="Group 225"><path id="Path_247" data-name="Path 247" class="cls-1" d="M56.6,92v.19c.1,0,.14.1.24.14Z"/></g><g id="Group_226" data-name="Group 226"><path id="Path_248" data-name="Path 248" class="cls-1" d="M56.7,99.31c0-.14-.53-.24-.77-.29.24.1.34.19.38.34A1.35,1.35,0,0,0,56.7,99.31Z"/></g><g id="Group_227" data-name="Group 227"><path id="Path_249" data-name="Path 249" class="cls-1" d="M55.74,110.82l.1.19C55.78,110.92,55.78,110.87,55.74,110.82Z"/></g><g id="Group_228" data-name="Group 228"><path id="Path_250" data-name="Path 250" class="cls-1" d="M56.7,86.84c.1,0,.14,0,.19,0S56.74,86.8,56.7,86.84Z"/></g><g id="Group_229" data-name="Group 229"><path id="Path_251" data-name="Path 251" class="cls-1" d="M69.35,118.88v-.1S69.31,118.88,69.35,118.88Z"/></g><g id="Group_230" data-name="Group 230"><path id="Path_252" data-name="Path 252" class="cls-1" d="M60.91,116.19l.1,0c0-.1,0-.19,0-.29Z"/></g><g id="Group_231" data-name="Group 231"><path id="Path_253" data-name="Path 253" class="cls-1" d="M83.31,79h0C83.06,79,83.16,79,83.31,79Z"/></g><g id="Group_232" data-name="Group 232"><path id="Path_254" data-name="Path 254" class="cls-1" d="M140.12,81.62c.19-.24.38-.1.57,0s.34.34.57-.14c-.1,0-.34-.1-.57-.19A.55.55,0,0,0,140.12,81.62Z"/></g><g id="Group_233" data-name="Group 233"><path id="Path_255" data-name="Path 255" class="cls-1" d="M53.92,112.69a.9.9,0,0,1-.1-.38A2.18,2.18,0,0,0,53.92,112.69Z"/></g><g id="Group_234" data-name="Group 234"><path id="Path_256" data-name="Path 256" class="cls-1" d="M141.27,81.58h0l0-.1S141.27,81.52,141.27,81.58Z"/></g><g id="Group_235" data-name="Group 235"><path id="Path_257" data-name="Path 257" class="cls-1" d="M98.74,78.65c0-.1-.1-.14-.14-.24S98.65,78.51,98.74,78.65Z"/></g><g id="Group_236" data-name="Group 236"><path id="Path_258" data-name="Path 258" class="cls-1" d="M87.24,77.88l.29.1A.4.4,0,0,0,87.24,77.88Z"/></g><g id="Group_237" data-name="Group 237"><path id="Path_259" data-name="Path 259" class="cls-1" d="M104.74,77.88a.6.6,0,0,0,.43,0,0,0,0,0,0,0,0h0A.36.36,0,0,1,104.74,77.88Z"/></g><g id="Group_238" data-name="Group 238"><path id="Path_260" data-name="Path 260" class="cls-1" d="M111,77.88l-.1-.1a.29.29,0,0,0-.19,0Z"/></g><g id="Group_239" data-name="Group 239"><path id="Path_261" data-name="Path 261" class="cls-1" d="M88.29,118.63a1.28,1.28,0,0,1-.29-.48C88.1,118.49,87.19,118.63,88.29,118.63Z"/></g><g id="Group_240" data-name="Group 240"><path id="Path_262" data-name="Path 262" class="cls-1" d="M54.2,112.83a.29.29,0,0,1-.29-.14c0,.1.1.14.1.24S54.2,112.93,54.2,112.83Z"/></g><g id="Group_241" data-name="Group 241"><path id="Path_263" data-name="Path 263" class="cls-1" d="M105,73.61l1,.1A6,6,0,0,0,105,73.61Z"/></g><g id="Group_242" data-name="Group 242"><path id="Path_264" data-name="Path 264" class="cls-1" d="M132.93,118.54l-.24,0A.21.21,0,0,0,132.93,118.54Z"/></g><g id="Group_243" data-name="Group 243"><path id="Path_265" data-name="Path 265" class="cls-1" d="M108.91,73.61a2,2,0,0,0,.57.38s.1-.1.1-.14Z"/></g><g id="Group_245" data-name="Group 245"><path id="Path_267" data-name="Path 267" class="cls-1" d="M81.48,119.4c1,0,.43-.67.62-1.1,1.1-.19.53.53.91.86.72-.19,1.25-.81,1.77-.81,0,.1.14.14,0,.29.72-.58,2.21,0,3.07-.72a.36.36,0,0,1,.1.19,2.45,2.45,0,0,1-.14-1c.43,0,.77-.43,1,0-.24,0-.29.19-.38.34l.43-.19c.38.67-.62.24-.62.72.86-.24,1.87-.77,2.54-.58.14.67-1.53.24-.67.81l-1-.24c.77,1-.62-.1.1,1,1.34.19,1.49-.34,2.83-.14.29-.38-.1-.53.19-.91,1.92-.67,1.49,1.63,2.92.77.38-.43.53-1.25,1.49-.81l-.34.72c1.29.1.77-1.06,2.11-.58-.24.29-1,.24-.81.34.86.58.62-.43,1.29-.43l.14.67c1.39-.1,2.92-.58,4.46-.67-.1.19-.34.38,0,.58a16.85,16.85,0,0,1,6,.48l.72-.58a.24.24,0,0,1,.14.38c.72.19,0-.34.38-.58.43,0,.53.34.29.48,1.29-.48,3.64-1,5-.43l-.29.14c1.06.24,1.2-1.15,2.16-.62l-.19.1c2.3.24,4.84-.29,6.57.58.34-.81,2.25.38,2.4-.77,1.29.58.91.77,2.78,1.15.48,0,.72-.72,1.34-.81v.58l.82-.62.43.72.56-.15c-.24,0-.48-.29-.43-.43a2.27,2.27,0,0,1,2.21.72l2.11-.48c0,.24-.38.34-.67.48.57-.29.62-.14.67,0s0,.14.14.19a1.27,1.27,0,0,0,.67-.19c-.19-.14.1-.34.1-.48a2.9,2.9,0,0,0,.72.1,3.26,3.26,0,0,0,.91-.14,5.65,5.65,0,0,0,1.77-.92v.48a7,7,0,0,0,2.59-2.44,10,10,0,0,0,1.34-3.5c-.14.43-.43.53-.62.48a.62.62,0,0,1-.29-.67,3.53,3.53,0,0,0,.67-.19c-.34-.48-.34.67-.67-.29.1-.81.72-.58.91,0a4.16,4.16,0,0,0-.19-1c.19,0,.29.14.53.19-.38-.34.62-1.39,0-1.87l.19,0c0-1.77-.19-2.54-.24-4-.53,0-.43-.58-.86-1a15.33,15.33,0,0,0,.53-3.5c-.29-.91-.48-.24-.77-.67.48,0,.43-1.34.82-.67a21.81,21.81,0,0,0-.48-3.88c-.19.19-.29.43-.48.34-.1-.34.19-.82.43-.77l0,.1c-.72-2.16,1.44-5,.43-6.71l0,.1-.53-1.77c.1-.81.38.48.67-.1a4.64,4.64,0,0,1-.34-2.44,3.9,3.9,0,0,0,0-1.06,2,2,0,0,0,0-.53,4.49,4.49,0,0,0-.19-.77,2.05,2.05,0,0,0,.29-.82,3.63,3.63,0,0,0,0-1,5.15,5.15,0,0,0-1.06-2.11,11.74,11.74,0,0,0-1.73-1.73,17.24,17.24,0,0,1-1.68-1.39v.38a.76.76,0,0,1-.62-.24,1.3,1.3,0,0,0-.43-.48c0,.29.53.53.1.57-.63-.14-1.25-.24-1.87-.33h-1.58a27.2,27.2,0,0,1-2.78-.24c-1.87-.19-3.79-.53-5.61-.67-1.34-.1-.77,1.77-2.49,1l.48-.62c-2.64.81-5.51,0-8.2.67.14-.14.14-.34.43-.34-.58-.48-2.11,0-2.11.34-.43,0-.1-.34-.34-.53-.58-.29-1.44.57-1.73.14,0-.1.14-.14.24-.19-.38.24-1.73,0-1.39.48-1-.24-1.92.24-2.73-.1-.53.57-1.73-.29-1.87.57.1-.86-1.77-.72-2.4-.29.19-.24-.58-.29-.29-.62-.72,0-1.39.19-1.25.62-1.34-1.05-2.68.82-3.45-.48-2.16.48-4.17.77-6.09,1,0-.86,2.16-.1,2.06-1-1.82.34-2.92,1.1-4.75.91-.48-.1.29-.38.43-.53-1.82.29-3.55-.14-5.18.29,0-.1.19-.19.34-.24-.34,0-.77-.14-.72.29l.34-.1c.53.58-1.29,1.2-1.34,1.49.53-1.1-1.63-.29-.77-1.73-.19.1-.48.24-.43.53-.29,0-.38-.19-.1-.53-1.15.19-.77.62-1.77.62,0-.19.19-.29.34-.48a2.38,2.38,0,0,1-2,.57c0-.1,0-.24.24-.24-1.53,0-2.59,1-4.27.62.48-.82-.58-.29-.67-1l-.91.19.38.38c-.77,0-1.49.53-2.16.29l.58-.29L72.27,75l.82.29c-.82.38.1.91-1,.72.19-.1-.77,0-1.2-.43h0a1.51,1.51,0,0,1-1.39.29c-.14-.24.14-.82,0-1-.38.57-1.82.14-2.3.81a.62.62,0,0,0,.1-.62l-.34.48c-.38-.14-.43-.24-.34-.53-1.1-.1.34.91-1,.53.1,0,0-.1.29-.19-1.3-.19-2.54.29-3.74,0-.34-.72,1.06-.19.62-.77a12,12,0,0,0-1.3.19l-.67.14-.67.14a15.21,15.21,0,0,0-2.83,1.2l.34-.1c.14.53-.24.53-.67.67s-1.05.29-1.2.81c.1-.24-.19-.62-.14-.48a4,4,0,0,0-1.15,1.92,6.06,6.06,0,0,0-.24,2.68l-.24-.29a3.06,3.06,0,0,0-.1.34.94.94,0,0,0,0,.34,3,3,0,0,0,0,.67,10.94,10.94,0,0,1-.1,1.3c.24.24.24.62.57.38-1.49,2.25.82,4.27-.43,6.28,0-.24-.24-.58-.24-.38L54,92.17c.48-.14.29-.24.67-.62a1.58,1.58,0,0,1,.48,1.1c-.29-.77-.72,0-1,.34.14,0,.29,0,.43,0-.77.86.91.14.38,1.34l-.28,0c.1.43.43.86.38,1.34-.53.19-.24-.48-.67-.53,0,.67,1,1.34.48,2-.14-.29-.14-.72-.29-1-.62.67-.43.77-.53,1.25v0l-.29,1.15.14-.29c1.34.86.24,1.73,1.1,2.92-.81-1.1-.48-.19-1.05-.29-.14.29-.34.77-.53.62.48.53-.38.91.34,1.68-.19,0,0,.58-.48.48.14.72.34-.19.57-.1.62,1.1-.77,2.59.1,4.17.38,1.34,1,1.63,1.29,2.88a.25.25,0,0,1-.43,0,1.48,1.48,0,0,1-.24-.34,1.85,1.85,0,0,0-.14,1,2.3,2.3,0,0,0,.34,1c-.19-.1-.29.1-.43.38a.61.61,0,0,0,.48.38.66.66,0,0,1,.34.58,2.8,2.8,0,0,1-1-.24,6.52,6.52,0,0,0,1.73,1.53c-.14.38-.67,0-1-.14l.53.53a4.86,4.86,0,0,0,.62.43,1.24,1.24,0,0,0,1.1.19l-.28-.43c.24.14-.14.43-.38.38s-.58-.29-.58-.53a.72.72,0,0,1,.1-.48l.43.29a.66.66,0,0,0,0-.67,1,1,0,0,0-.48-.53,3.14,3.14,0,0,1-1.1-1.29,5.28,5.28,0,0,0,.86.1,2.91,2.91,0,0,1-.48-.34c-.14-.14-.29-.24-.43-.38.14-.24.58-.43.77,0,.1-.34,0-.48,0-.58s-.14-.24,0-.53a.09.09,0,0,1,.13,0l0,0a2.41,2.41,0,0,1-.24-.62c.14.14.58-.1.43.29.48-1.15-.58-1.82,0-2.25l0,.1c-.29-1.58-.58-.14-1.29-1.34l1.44-.81-.58-.14c0-.14,0-.48.29-.43-.38-.62-.24.1-.62-.24.53-.77-.24-2.16.67-2.35-.43-.29-.34.77-.67-.1,1-.24-.19-1,.29-1.68.53.24.24.91.72.19-.86-.43.19-1.39,0-2-.72,0-.29-1.3-.53-2.35.24,0,.38-1.92.62-2.88l.1,0c-.72-.19-.58-1.15-.72-1.87a.78.78,0,0,1,.77.53v-.67c-.24-.14-.34-.38-.43-.82l.53.19c0-.91-.62-1.77-.29-2.93-.29,0-1.15.91-1.49-.29.29,0,.72-.1.81.24,0-.1-.24-.38-.1-.57l.43.48c.19-.53-.38-.29-.34-.67.38,0,.29-.29.58-.24,0,.1-.14.38,0,.53a1.91,1.91,0,0,1,.56-1.25.44.44,0,0,1-.56-.28l0-.06c0-.91.48-.29.67-.81-.24-.19,0-.77-.58-.81,0-.24.29-.29.43-.43-.24-.48,0-2.16-.67-1.63l0,.1a.15.15,0,0,0,0-.1h0A2.56,2.56,0,0,1,56,80.76c.29-.62.77-1.15,1.06-1.73l.14.1a2.86,2.86,0,0,1,.29-.53c.14-.14.24-.34.43-.43l.43-.43a2.63,2.63,0,0,0,.34-.43c.24-.14.67.1.62.34.24-.19.38-.29.53-.38a.71.71,0,0,1,.33,0,1.23,1.23,0,0,1,.53.1c-.29.24-.24.29-.24.34l-.33,0a7.52,7.52,0,0,1,.77.14A1.46,1.46,0,0,0,62,77.54c-.34.48.67.62,1.1.48l-.62-.34a5.83,5.83,0,0,1,1.3,0l-.24.62c1.82.77,3.26-1.34,4.65,0,.48-.43-1-.34-.57-.82.81.1,1.73,1,2,1,1.15.34,1.06-.91,2.25-.67-.1-.29-.24-.91.67-1.15.82.1,1,1,.48,1.15q-.29,0-.29-.14c-.29.1-.62.19-.29.43l.1-.19c.43.24,1.58.19,1.3.57.62-.24.29-.38-.19-.48,1.06.34,1.68,0,2.78.24-.19-.14-.34-.38-.14-.38,1.63.29.72-.43,1.82-.53.62.34-.24.82.86.53.67.24.14.62-.14.77,1-.43,1.87.29,2.44.38l-.53.19a2.8,2.8,0,0,1,.86-.1l-.29-.48c.29.1.58.1.58.29.34-.29-.24-.77.38-1.15.43.24,1.25-.24,1.39.34-1.3-.19.14.62-1,.72a1.38,1.38,0,0,1,.77,0s0,.14-.14.14c1.25.53.58-.67,1.87-.67-.14.34.29.62.53.57-.53,0-.24-.57.24-.82.81.29.91-.19,1.34-.14l-.48-.14c.19-.34.58-.29,1.15-.38,0,.29-.53.19-.34.29.62-.58,1.44.62,2.35.24.43.24,0,.62.38.82,1-.43,1.1.48,2.16.1-.29-.48-.34-.34.38-.82l-1.73.34,1.1-.67c-.53,0-1.1.29-1.44.19.53-.38.48-.24.24-.62.72.67,1.44-.38,2.25,0l0,1.14c1.25.53,2.21-.57,3.84-.29L96.54,78c.24-.43,1,0,1.53-.24,0,.38.29.53.48.77,0-.29,1.2,0,1.34-.72l.72.48c1.29.19,1.49-1.1,2.73-1-.38.43.19.67-.67,1,.43,0,.81.1.81-.19.24.24,1.15-.53,1.53-.14.19-.14.24-.57.72-.53a.23.23,0,0,1,0,.19c0-.19.72-.24.34-.67,1.29,1.2,3.6-.1,4.75.91.91-.14,2-.24,2.83-.29,0,.1,0,.19-.14.14,1.15.34.72-1.1,2-.67.67.62-.67.34-.29.57.19,1.25,1.58-.19,2.44.57l-.19.1c.67.43,1.63-.48,2.73-.38a.23.23,0,0,0,0,.19,7,7,0,0,1,3.21-1c-.34.48-.48.24-.29.77.48,0-.14-.82.82-.91.29.29,1,.48,1.06,1l-.91,0c.43.67,1.15,0,1.63.1l0,.29c1.34-.1,1.39-.86,2.83-.82l-.14-.24c.82-.77.67.43,1.49-.14l.24.77a17.6,17.6,0,0,1,2.78-.86,7.77,7.77,0,0,1-2.35,1.2c.53,0,1.77,0,2.06-.43-.19.1-.48.24-.67.14a3.42,3.42,0,0,1,2.54-.86c-.1.72.57.82,1.39.86.19,0,.38,0,.62,0h.14l.1,0s.14,0,.19,0a.8.8,0,0,1,.53.57,1.71,1.71,0,0,1,1.63.72,4.55,4.55,0,0,1,.48.82,6.79,6.79,0,0,0,.38.86c.43-.43.48-.34.57-.19s.14.38.67.19c.19.38.14.53.1.57a20298879340680.76,20298879340680.76,0,0,1-.29.67l-.34.77c-.34.34-.24-.48-.53-.43-.1,1.1-.48.48-.82,1.2.43-.14.62.38.43,1l.53-.86c.62,1.53-1,1.34-.38,2.88l-.38-.48c.24.81,0,2.92.91,3.69-.14.14-.48.34-.53,0-.14,1.87,1,4.22.43,5.71l-.29-.14c.1.34.53.62.24,1.06-.1,0-.29-.14-.29,0a2.37,2.37,0,0,1,.34,1.39l-.34-.38c-.38,1.87.77,2.83,1,4.36-.86,0-1.1,1.44-1.25,2.16l-.1,0c-.1,2.16.72,3.64,1.06,5.66a5.23,5.23,0,0,0-.29.53,3.05,3.05,0,0,0-.1.34c0,.1,0,.14-.1.24a7,7,0,0,1-.34.91,2.16,2.16,0,0,1-1.34,1.39c.24,0,.38.53.24.77-.19,0-.29.24-.43.38s-.24.19-.38-.19h.1c-.48-.62-.86-.29-1.29-.29a7.08,7.08,0,0,1,0,1c-.1-.1-.24-.14-.34-.24a2,2,0,0,0-.38-.14,2.72,2.72,0,0,0-.86-.14,11,11,0,0,0-1.77.1c-1.15.14-2.25.34-2.78-.34-.48.24-1.06.24-1.53.53l0-.53a17.32,17.32,0,0,0-3.6-.1l.34-.38c-.91,0-1.15,1.58-2,1.58l-.24-.81c-1.58,0-3.21-.72-4.79,0,0-.1.1-.34.34-.38-.77,0-2.88-.53-2.64.58,0-.72-1.63,0-2.49.24l.14-.53c-.72.67-.77.86-1.77,1.06-.24,0-.19-.43.1-.29-.81-.29-.62.53-1.58.24l.38-.34c-.81,0-.77.14-1.2.53-.53.19-1.58-.14-1.68-.62a.93.93,0,0,1-1.06.53.29.29,0,0,1,.19-.34c-1.39-.38-2.06.62-3,.1a.44.44,0,0,0-.14-.34,8.28,8.28,0,0,1,1.87.1c0-.48-.86-.58-.19-1.25-.72.38-1.92,1.2-2.78,1a.25.25,0,0,1-.1-.19l.1,0a.67.67,0,0,0-.53.1,1.92,1.92,0,0,0-.72-.14c-.1-.43-1-.24-1.44-.24,0,.53-.53.43,0,.91,0,0,.1,0,.38-.1,0,0,.14,0,.19,0a0,0,0,0,1,0,0h0c.29,0,.67,0,1.1,0-.34.29-.72.53-1.2.19-.24.34-.48.72-.62.86-.62-.77-1.77-1.15-1.92-1.63-1.34.29-3.16.19-4,1.2-.38.14-.43-.29-.58-.43.24-.1.48-.1.62-.24-.77.24-2.25.1-2.44.81-1-.34.53-.67-.77-.53l.19-.24c-2.59-1.15-4.22,1.82-7.14.34.19.1.29.14.34.24-3.31-.62-6.76.62-10-.43-.91-.19-1,.24-1.58.58l-.29-.77-1,.67c-1.34.48-2.35-1.44-4.07-.48l.24.38c-.62-.1-2,.24-1.87-.24,0,0-.19.38-.43.19v-.3l-1.53.53c-1.2-.24.19-1.2-1.53-1.25-.62.1-1.82.86-1.58,1.1.24,0,.67.19.67.48l-.57.14c-.1.91-.57,1.82.86,2.44l1-.53.34.43H62.4c.48.43.77,0,1.1-.19a.86.86,0,0,0,.43.48l1-.86c.1.34-.43.67.24.86.48-.38-.43-.77.34-1.06.48.38.34.72.91.38.1.24,0,.38-.24.48.48-.29,1.34-.1,1.58-.58.48.48,1.68-.14,1.63.72a2.73,2.73,0,0,1,1.34-.72c-.86,1,1.73,0,1.49,1.15.62-.91,2.25-.38,3.36-.91,0,.1-.19.24-.29.19a3.1,3.1,0,0,1,1.2.53c.1-.77,1.06-.91,1.58-1.39.77.72-.48.86-.24,1.58,0-.62,1.34-.62,1.06-1.1.58.43.48.24.82.86.1-1,.53-.14,1-.72.86.48.24.86,1.15.58C82.3,119.07,81.48,119.4,81.48,119.4Zm22-1.63h0c-.19,0-.34,0-.43,0A2.11,2.11,0,0,0,103.49,117.77Zm1.87,0a4.62,4.62,0,0,0-.81,0c0-.19,0-.38.19-.38-.1.1.33.24.62.38ZM101.43,114c.29-.1.38,0,.43.14-.14,0-.29,0-.53,0l0,0A1,1,0,0,0,101.43,114Z"/></g><g id="Group_246" data-name="Group 246"><path id="Path_268" data-name="Path 268" class="cls-1" d="M100.9,114.75s0,0-.14,0a.66.66,0,0,0,.19.14s0-.1.1-.19Z"/></g><g id="Group_247" data-name="Group 247"><path id="Path_269" data-name="Path 269" class="cls-1" d="M56,82.82h0a0,0,0,0,0,0,0h0a0,0,0,0,1,0,0Z"/></g><g id="Group_248" data-name="Group 248"><path id="Path_270" data-name="Path 270" class="cls-1" d="M130.87,118.83v-.14l-.14.1Z"/></g><g id="Group_249" data-name="Group 249"><path id="Path_271" data-name="Path 271" class="cls-1" d="M54.11,93s-.1,0-.14.14Z"/></g><g id="Group_250" data-name="Group 250"><path id="Path_272" data-name="Path 272" class="cls-1" d="M54,97.39l-.19.62A4.45,4.45,0,0,0,54,97.39Z"/></g><g id="Group_251" data-name="Group 251"><path id="Path_273" data-name="Path 273" class="cls-1" d="M53.72,100.8a.43.43,0,0,0,.24,0h0Z"/></g><g id="Group_252" data-name="Group 252"><path id="Path_274" data-name="Path 274" class="cls-1" d="M87,74.28a.18.18,0,0,0,.14,0C87.43,74.14,87.24,74.19,87,74.28Z"/></g><g id="Group_253" data-name="Group 253"><path id="Path_275" data-name="Path 275" class="cls-1" d="M71,75.53a2.57,2.57,0,0,1,.53-.24C71.22,75.24,71,75.19,71,75.53Z"/></g><g id="Group_255" data-name="Group 255"><path id="Path_277" data-name="Path 277" class="cls-1" d="M72.23,75.29a1.06,1.06,0,0,0-.77,0A4.09,4.09,0,0,0,72.23,75.29Z"/></g><g id="Group_256" data-name="Group 256"><path id="Path_278" data-name="Path 278" class="cls-1" d="M56,116.14l.14.19s0,0,.1,0Z"/></g><g id="Group_257" data-name="Group 257"><path id="Path_279" data-name="Path 279" class="cls-1" d="M56.22,116.28l.24.1C56.36,116.28,56.32,116.24,56.22,116.28Z"/></g><g id="Group_258" data-name="Group 258"><path id="Path_280" data-name="Path 280" class="cls-1" d="M56.93,116.52l-.48-.19C56.6,116.48,56.74,116.62,56.93,116.52Z"/></g><g id="Group_259" data-name="Group 259"><path id="Path_281" data-name="Path 281" class="cls-1" d="M53.77,111.11l-.19,0S53.68,111.11,53.77,111.11Z"/></g><g id="Group_260" data-name="Group 260"><path id="Path_282" data-name="Path 282" class="cls-1" d="M53.68,109.62a4,4,0,0,1-.19.57.89.89,0,0,0-.1.34,1.33,1.33,0,0,0,0,.43l.14,0C53.24,110.68,54,110,53.68,109.62Z"/></g><g id="Group_261" data-name="Group 261"><path id="Path_283" data-name="Path 283" class="cls-1" d="M56.12,104,56,105.11c.19-.19.48-.48.53,0C57.13,103.72,56,105.45,56.12,104Z"/></g><g id="Group_262" data-name="Group 262"><path id="Path_284" data-name="Path 284" class="cls-1" d="M56.41,100.41c.1.62.29,0,.43,0C56.65,100,56.6,99.93,56.41,100.41Z"/></g><g id="Group_263" data-name="Group 263"><path id="Path_285" data-name="Path 285" class="cls-1" d="M59.57,77.78l.1.48C60,78.12,59.62,78.07,59.57,77.78Z"/></g><g id="Group_264" data-name="Group 264"><path id="Path_286" data-name="Path 286" class="cls-1" d="M64,75.05l-.48-.34-.19.48Z"/></g><g id="Group_265" data-name="Group 265"><path id="Path_287" data-name="Path 287" class="cls-1" d="M66.91,78.51l-.19.1.77-.19Z"/></g><g id="Group_266" data-name="Group 266"><path id="Path_288" data-name="Path 288" class="cls-1" d="M109.87,78.36l-.14-.62C109.39,77.84,109.34,78.55,109.87,78.36Z"/></g><g id="Group_267" data-name="Group 267"><path id="Path_289" data-name="Path 289" class="cls-1" d="M128.38,77.74a.76.76,0,0,0,1.05.19h0C129,77.88,128.62,77.64,128.38,77.74Z"/></g><g id="Group_268" data-name="Group 268"><path id="Path_290" data-name="Path 290" class="cls-1" d="M135.81,113.94l.38-.19-.72.19Z"/></g></g></g></svg>